<svg width="121" height="118" viewBox="0 0 121 118" fill="none" xmlns="http://www.w3.org/2000/svg">
<path fill-rule="evenodd" clip-rule="evenodd" d="M29.1148 32.1992H89.1127L89.1129 92.197L77.4941 92.293C71.1383 92.293 64.8448 91.0412 58.9728 88.6089C53.1008 86.1767 47.7655 82.6117 43.2712 78.1175C38.777 73.6233 35.212 68.2879 32.7798 62.4159C30.3476 56.5439 29.0957 50.2504 29.0957 43.8947L29.1148 32.1992Z" fill="white" stroke="#1A1A18" stroke-width="0.5669" stroke-miterlimit="22.9256"/>
<path d="M89.1133 32.1997V12.2559" stroke="#1A1A18" stroke-width="0.5669" stroke-miterlimit="22.9256"/>
<path d="M29.1152 32.1997V12.2559" stroke="#1A1A18" stroke-width="0.5669" stroke-miterlimit="22.9256"/>
<path d="M89.1134 12.2559H29.1152" stroke="#1A1A18" stroke-width="0.5669" stroke-miterlimit="22.9256"/>
<path d="M54.2852 4.94472C54.449 5.09456 54.5815 5.27547 54.6748 5.47694C54.7859 5.73843 54.838 6.02116 54.8276 6.30507C54.8313 6.6217 54.7691 6.93563 54.645 7.22694C54.5259 7.50268 54.3514 7.75099 54.1323 7.95644C53.8832 8.18805 53.5864 8.36223 53.2627 8.46669C52.9083 8.57978 52.538 8.63549 52.166 8.63169C51.7606 8.63204 51.3566 8.58317 50.9629 8.48617C50.6303 8.40995 50.3054 8.30355 49.9922 8.1683V7.13808H50.066C50.3723 7.33484 50.704 7.48908 51.0518 7.59658C51.4048 7.71413 51.774 7.77575 52.146 7.77919C52.3701 7.7765 52.5926 7.74163 52.8067 7.67567C53.0168 7.61921 53.2109 7.51456 53.3736 7.37001C53.5175 7.23541 53.6324 7.07272 53.711 6.892C53.7915 6.68135 53.8292 6.45675 53.8218 6.23135C53.8297 6.00691 53.7868 5.7836 53.6963 5.57804C53.6193 5.41358 53.4991 5.27302 53.3487 5.17129C53.1866 5.06406 53.0035 4.99265 52.8116 4.96183C52.587 4.92294 52.3594 4.90399 52.1314 4.90519H51.6876V4.08732H52.0328C52.4539 4.10871 52.8714 3.99938 53.2281 3.77431C53.3741 3.67238 53.4917 3.53491 53.5698 3.37488C53.6478 3.21486 53.6838 3.03757 53.6744 2.85976C53.6793 2.70138 53.6422 2.54453 53.5668 2.40516C53.4914 2.26578 53.3804 2.14887 53.2452 2.06631C53.1054 1.98154 52.9522 1.92142 52.792 1.88858C52.6117 1.85418 52.4283 1.83782 52.2447 1.83974C51.9062 1.84401 51.5704 1.9005 51.2491 2.00722C50.8973 2.1191 50.5624 2.27828 50.2535 2.48037H50.2042V1.45009C50.5038 1.31234 50.8168 1.20582 51.1382 1.13222C51.508 1.03762 51.8879 0.988752 52.2696 0.986709C52.5878 0.98235 52.9054 1.01546 53.2159 1.08535C53.4787 1.147 53.7288 1.25372 53.9551 1.40076C54.1838 1.54333 54.3708 1.74376 54.4972 1.98177C54.6236 2.21978 54.6848 2.48694 54.6749 2.75624C54.6765 2.95379 54.6393 3.14973 54.5652 3.33288C54.4912 3.51602 54.3817 3.68278 54.2432 3.82362C53.9731 4.11758 53.6169 4.31858 53.2256 4.39785V4.46669C53.4118 4.50165 53.5936 4.55699 53.7676 4.63169C53.9565 4.70629 54.1314 4.81211 54.2852 4.94472Z" fill="#1A1A18"/>
<path d="M61.3384 4.80653C61.4113 5.81253 61.197 6.81855 60.7202 7.70742C60.4893 7.9968 60.196 8.23024 59.8622 8.3903C59.5284 8.55036 59.1627 8.63288 58.7925 8.63171C58.4223 8.63053 58.0571 8.54569 57.7243 8.38352C57.3915 8.22135 57.0997 7.98604 56.8706 7.6952C56.4038 6.81107 56.1929 5.81422 56.2617 4.81678C56.1911 3.8143 56.4047 2.81223 56.8779 1.92567C57.1073 1.63341 57.4003 1.39737 57.7347 1.23551C58.0691 1.07365 58.436 0.990243 58.8075 0.991656C59.179 0.993069 59.5453 1.07925 59.8785 1.24365C60.2116 1.40805 60.5028 1.64633 60.73 1.94033C61.1936 2.82119 61.4042 3.81327 61.3384 4.80653ZM60.0425 7.04432C60.1659 6.74442 60.2447 6.42806 60.2764 6.10532C60.321 5.67386 60.3415 5.24025 60.3379 4.80651C60.3411 4.37195 60.3206 3.93754 60.2764 3.50523C60.2472 3.18244 60.1664 2.86642 60.0371 2.56923C59.9397 2.3366 59.776 2.13777 59.5664 1.99745C59.3351 1.8605 59.0689 1.79366 58.8003 1.80507C58.5316 1.79451 58.2656 1.86129 58.0337 1.99745C57.8196 2.13958 57.6524 2.34194 57.5532 2.579C57.4264 2.88177 57.349 3.20289 57.3238 3.53017C57.2809 3.95769 57.2604 4.38714 57.2622 4.81679C57.2585 5.24614 57.2766 5.67541 57.3164 6.10292C57.3458 6.4219 57.424 6.73446 57.5484 7.02968C57.6408 7.26632 57.8012 7.47035 58.0093 7.61611C58.2467 7.76135 58.5223 7.83179 58.8003 7.81826C59.0695 7.82846 59.336 7.7619 59.5688 7.62636C59.783 7.48583 59.9484 7.28254 60.0425 7.04432V7.04432Z" fill="#1A1A18"/>
<path d="M67.7559 4.80653C67.8288 5.81253 67.6144 6.81855 67.1377 7.70742C66.9068 7.9968 66.6135 8.23024 66.2797 8.3903C65.9459 8.55036 65.5802 8.63288 65.21 8.63171C64.8397 8.63053 64.4746 8.54569 64.1418 8.38352C63.809 8.22135 63.5172 7.98604 63.2881 7.6952C62.8213 6.81107 62.6104 5.81422 62.6792 4.81678C62.6086 3.8143 62.8222 2.81223 63.2954 1.92567C63.5248 1.6334 63.8178 1.39735 64.1522 1.23548C64.4866 1.07362 64.8535 0.990212 65.225 0.991625C65.5965 0.993038 65.9628 1.07923 66.296 1.24363C66.6291 1.40804 66.9204 1.64632 67.1475 1.94033C67.6111 2.8212 67.8217 3.81327 67.7559 4.80653V4.80653ZM66.46 7.04432C66.5834 6.74442 66.6622 6.42806 66.6939 6.10532C66.7385 5.67386 66.759 5.24025 66.7554 4.80651C66.7586 4.37195 66.738 3.93754 66.6939 3.50523C66.6647 3.18244 66.5839 2.86642 66.4546 2.56923C66.3572 2.3366 66.1935 2.13777 65.9839 1.99745C65.7526 1.8605 65.4864 1.79366 65.2178 1.80507C64.9491 1.79451 64.6831 1.86129 64.4512 1.99745C64.2371 2.13958 64.0699 2.34194 63.9707 2.579C63.8439 2.88177 63.7664 3.20289 63.7412 3.53017C63.6984 3.95769 63.6779 4.38714 63.6797 4.81679C63.676 5.24614 63.6941 5.67541 63.7339 6.10292C63.7633 6.4219 63.8415 6.73446 63.9659 7.02968C64.0583 7.26632 64.2187 7.47035 64.4268 7.61611C64.6642 7.76136 64.9398 7.83179 65.2178 7.81826C65.487 7.82846 65.7535 7.7619 65.9864 7.62636C66.2005 7.48583 66.3659 7.28254 66.46 7.04432V7.04432Z" fill="#1A1A18"/>
<path d="M89.1133 92.1973H109.936" stroke="#1A1A18" stroke-width="0.5669" stroke-miterlimit="22.9256"/>
<path d="M89.1133 32.1992H109.936" stroke="#1A1A18" stroke-width="0.5669" stroke-miterlimit="22.9256"/>
<path d="M109.936 92.197V32.1992" stroke="#1A1A18" stroke-width="0.5669" stroke-miterlimit="22.9256"/>
<path d="M117.216 66.2737C117.366 66.1099 117.547 65.9774 117.748 65.8841C118.01 65.773 118.293 65.7208 118.577 65.7312C118.893 65.7276 119.207 65.7897 119.498 65.9138C119.774 66.0329 120.022 66.2074 120.228 66.4265C120.46 66.6756 120.634 66.9725 120.738 67.2962C120.851 67.6506 120.907 68.0208 120.903 68.3928C120.904 68.7983 120.855 69.2023 120.758 69.596C120.681 69.9285 120.575 70.2534 120.44 70.5667H119.41V70.4929C119.606 70.1866 119.761 69.855 119.868 69.5071C119.986 69.1541 120.047 68.7849 120.051 68.4129C120.048 68.1888 120.013 67.9663 119.947 67.7522C119.891 67.5421 119.786 67.348 119.641 67.1853C119.507 67.0414 119.344 66.9265 119.163 66.8479C118.953 66.7674 118.728 66.7297 118.503 66.7371C118.278 66.7292 118.055 66.7721 117.849 66.8626C117.685 66.9396 117.544 67.0598 117.443 67.2102C117.336 67.3723 117.264 67.5554 117.233 67.7473C117.194 67.972 117.175 68.1996 117.177 68.4275V68.8714H116.359V68.5261C116.38 68.105 116.271 67.6875 116.046 67.3308C115.944 67.1848 115.806 67.0673 115.646 66.9892C115.486 66.9111 115.309 66.8751 115.131 66.8845C114.973 66.8796 114.816 66.9168 114.677 66.9922C114.537 67.0675 114.42 67.1785 114.338 67.3137C114.253 67.4535 114.193 67.6068 114.16 67.7669C114.126 67.9473 114.109 68.1306 114.111 68.3142C114.115 68.6527 114.172 68.9886 114.279 69.3098C114.391 69.6616 114.55 69.9965 114.752 70.3054V70.3548H113.722C113.584 70.0551 113.477 69.7421 113.404 69.4207C113.309 69.0509 113.26 68.671 113.258 68.2893C113.254 67.9711 113.287 67.6535 113.357 67.343C113.418 67.0803 113.525 66.8301 113.672 66.6038C113.815 66.3751 114.015 66.1881 114.253 66.0617C114.491 65.9354 114.758 65.8741 115.028 65.8841C115.225 65.8824 115.421 65.9196 115.604 65.9937C115.788 66.0678 115.954 66.1772 116.095 66.3157C116.389 66.5858 116.59 66.942 116.669 67.3333H116.738C116.773 67.1471 116.828 66.9654 116.903 66.7913C116.978 66.6024 117.084 66.4275 117.216 66.2737V66.2737Z" fill="#1A1A18"/>
<path d="M117.078 59.2205C118.084 59.1475 119.09 59.3619 119.979 59.8386C120.268 60.0695 120.502 60.3629 120.662 60.6967C120.822 61.0305 120.904 61.3962 120.903 61.7664C120.902 62.1366 120.817 62.5018 120.655 62.8346C120.493 63.1674 120.258 63.4592 119.967 63.6883C119.058 64.091 118.075 64.2984 117.081 64.2971C116.087 64.2959 115.105 64.0859 114.197 63.6809C113.905 63.4516 113.669 63.1586 113.507 62.8242C113.345 62.4898 113.262 62.1228 113.263 61.7513C113.265 61.3798 113.351 61.0136 113.515 60.6804C113.68 60.3473 113.918 60.056 114.212 59.8289C115.093 59.3653 116.085 59.1547 117.078 59.2205V59.2205ZM119.316 60.5164C119.016 60.393 118.7 60.3142 118.377 60.2825C117.945 60.2379 117.512 60.2174 117.078 60.221C116.643 60.2178 116.209 60.2383 115.777 60.2825C115.454 60.3116 115.138 60.3924 114.841 60.5217C114.608 60.6192 114.409 60.7829 114.269 60.9925C114.132 61.2238 114.065 61.49 114.077 61.7586C114.066 62.0272 114.133 62.2933 114.269 62.5252C114.411 62.7393 114.613 62.9064 114.85 63.0056C115.153 63.1324 115.474 63.2099 115.802 63.2351C116.229 63.2779 116.659 63.2985 117.088 63.2967C117.518 63.3004 117.947 63.2823 118.374 63.2425C118.693 63.2131 119.006 63.1348 119.301 63.0105C119.538 62.918 119.742 62.7577 119.888 62.5496C120.033 62.3122 120.103 62.0366 120.09 61.7586C120.1 61.4894 120.033 61.2228 119.898 60.99C119.757 60.7759 119.554 60.6105 119.316 60.5164V60.5164Z" fill="#1A1A18"/>
<path d="M117.078 52.803C118.084 52.7301 119.09 52.9444 119.979 53.4212C120.268 53.6521 120.502 53.9454 120.662 54.2792C120.822 54.613 120.904 54.9787 120.903 55.3489C120.902 55.7191 120.817 56.0843 120.655 56.4171C120.493 56.7499 120.258 57.0417 119.967 57.2708C119.058 57.6735 118.075 57.8809 117.081 57.8797C116.087 57.8784 115.105 57.6685 114.197 57.2634C113.905 57.0341 113.669 56.7411 113.507 56.4067C113.345 56.0723 113.262 55.7053 113.263 55.3338C113.265 54.9623 113.351 54.5961 113.515 54.2629C113.68 53.9297 113.918 53.6385 114.212 53.4114C115.093 52.9478 116.085 52.7372 117.078 52.803V52.803ZM119.316 54.0989C119.016 53.9755 118.7 53.8967 118.377 53.865C117.945 53.8204 117.512 53.7999 117.078 53.8035C116.643 53.8003 116.209 53.8208 115.777 53.865C115.454 53.8942 115.138 53.9749 114.841 54.1043C114.608 54.2017 114.409 54.3654 114.269 54.575C114.132 54.8063 114.065 55.0725 114.077 55.3411C114.066 55.6098 114.133 55.8758 114.269 56.1077C114.411 56.3218 114.613 56.489 114.85 56.5882C115.153 56.715 115.474 56.7924 115.802 56.8176C116.229 56.8605 116.659 56.881 117.088 56.8792C117.518 56.8829 117.947 56.8648 118.374 56.825C118.693 56.7956 119.006 56.7174 119.301 56.593C119.538 56.5006 119.742 56.3402 119.888 56.1321C120.033 55.8947 120.103 55.6191 120.09 55.3411C120.1 55.0719 120.033 54.8053 119.898 54.5725C119.757 54.3584 119.554 54.193 119.316 54.0989V54.0989Z" fill="#1A1A18"/>
<path fill-rule="evenodd" clip-rule="evenodd" d="M88.9346 95.6181H77.564C63.78 95.5962 50.5668 90.1108 40.82 80.364C31.0732 70.6172 25.5878 57.404 25.5659 43.62L25.5156 32.1992H29.1154L29.1656 43.62C29.1656 49.9757 30.4175 56.2693 32.8497 62.1412C35.282 68.0132 38.847 73.3486 43.3412 77.8428C47.8354 82.337 53.1708 85.902 59.0428 88.3342C64.9147 90.7664 71.2082 92.0183 77.564 92.0183H88.9346V95.6181Z" fill="#FFEC00" stroke="#1A1A18" stroke-width="0.5669" stroke-miterlimit="22.9256"/>
<path d="M88.9355 92.0188L103.659 77.2949" stroke="#1A1A18" stroke-width="0.5669" stroke-miterlimit="22.9256"/>
<path d="M29.1152 32.1986L43.8388 17.4746" stroke="#1A1A18" stroke-width="0.5669" stroke-miterlimit="22.9256"/>
<path d="M103.659 77.2938L43.8398 17.4746" stroke="#1A1A18" stroke-width="0.5669" stroke-miterlimit="22.9256"/>
<path d="M44.7891 79.2334L57.4901 66.5324L49.3991 58.4414" stroke="#1A1A18" stroke-width="0.5669" stroke-miterlimit="22.9256"/>
<path d="M53.0791 57.0869L52.4453 56.4531L53.2813 53.1631L52.5933 52.4751L50.5303 54.5381L50.043 54.0508L55.2324 48.8613L56.2598 49.8887C56.4505 50.0715 56.6165 50.2785 56.7534 50.5044C56.8609 50.6931 56.9229 50.9042 56.9346 51.1211C56.9475 51.3815 56.9013 51.6414 56.7993 51.8813C56.6614 52.1814 56.4667 52.452 56.2261 52.6782C55.9125 53.0138 55.5216 53.2676 55.0874 53.4175C54.7245 53.5362 54.3343 53.5434 53.9673 53.438L53.0791 57.0869ZM55.667 52.2168C55.8034 52.0852 55.9181 51.933 56.0069 51.7656C56.084 51.6197 56.1211 51.4559 56.1143 51.291C56.1111 51.153 56.0735 51.0181 56.0049 50.8984C55.9213 50.758 55.8195 50.6293 55.7022 50.5156L55.1275 49.9409L53.1685 51.8999L53.6616 52.3931C53.7961 52.5329 53.9523 52.6501 54.1241 52.7402C54.2812 52.8174 54.4582 52.8448 54.6314 52.8188C54.8076 52.7934 54.9774 52.7349 55.1319 52.6465C55.3284 52.5275 55.5084 52.383 55.667 52.2168Z" fill="#1A1A18"/>
<path d="M55.94 59.9477L53.4561 57.4638L54.1846 56.7353C54.5659 56.6987 54.9479 56.6627 55.3306 56.6274C55.7129 56.5908 56.082 56.5449 56.4385 56.4873C57.0085 56.4124 57.5703 56.2847 58.1167 56.1059C58.493 55.9647 58.8339 55.7431 59.1157 55.4565C59.3555 55.2433 59.5128 54.9526 59.56 54.6352C59.5718 54.495 59.5511 54.3539 59.4994 54.2229C59.4478 54.092 59.3666 53.9748 59.2622 53.8803C59.0903 53.7169 58.8872 53.5898 58.665 53.5068C58.393 53.402 58.1049 53.3449 57.8135 53.3379L57.789 53.3134L58.521 52.5815C58.7607 52.6316 58.9926 52.7137 59.2104 52.8257C59.457 52.9421 59.6823 53.0991 59.8769 53.29C60.0522 53.449 60.1885 53.6462 60.2752 53.8664C60.3619 54.0865 60.3967 54.3237 60.3769 54.5595C60.3054 55.0858 60.0489 55.5694 59.6533 55.9238C59.4691 56.1107 59.2664 56.2783 59.0483 56.4243C58.8464 56.5566 58.631 56.6669 58.4057 56.7534C58.1933 56.8344 57.9757 56.9009 57.7544 56.9526C57.5283 57.0058 57.27 57.0561 56.977 57.102C56.5576 57.1709 56.1396 57.2259 55.7231 57.267C55.3066 57.3085 54.9194 57.3455 54.5615 57.3778L56.5356 59.352L55.94 59.9477Z" fill="#1A1A18"/>
<path d="M60.6929 61.7797L60.149 61.2358L58.6885 62.6963L58.2149 62.2226L59.6753 60.7622L57.9185 59.0053L58.7198 58.2041L63.4243 57.0532L63.878 57.5068L60.7066 60.6782L61.2505 61.2221L60.6929 61.7797ZM60.2329 60.2046L62.5747 57.8628L58.811 58.7827L60.2329 60.2046Z" fill="#1A1A18"/>
<path d="M62.3579 66.3657L59.874 63.8818L60.6025 63.1533C60.9834 63.1162 61.3652 63.08 61.7481 63.0449C62.1309 63.0088 62.5003 62.9622 62.8565 62.9052C63.4265 62.8303 63.9883 62.7027 64.5347 62.5239C64.9108 62.3825 65.2516 62.1607 65.5332 61.874C65.7733 61.661 65.9306 61.3702 65.9775 61.0527C65.9895 60.9125 65.9689 60.7715 65.9173 60.6406C65.8657 60.5098 65.7846 60.3926 65.6802 60.2983C65.5081 60.1347 65.3049 60.0075 65.0825 59.9243C64.8104 59.8199 64.5224 59.7627 64.231 59.7553L64.207 59.7314L64.939 58.9995C65.1787 59.0496 65.4106 59.1317 65.6284 59.2436C65.875 59.3601 66.1003 59.5171 66.2949 59.708C66.4702 59.867 66.6065 60.0642 66.6932 60.2844C66.7799 60.5045 66.8147 60.7417 66.7949 60.9775C66.7234 61.5038 66.4669 61.9874 66.0713 62.3418C65.8871 62.5288 65.6843 62.6963 65.4658 62.8418C65.2643 62.9746 65.0488 63.085 64.8232 63.1709C64.6111 63.2523 64.3937 63.3191 64.1724 63.3706C63.9463 63.4238 63.688 63.4741 63.3945 63.5195C62.9751 63.5884 62.5573 63.6435 62.1411 63.685C61.7241 63.726 61.3379 63.7636 60.9795 63.7959L62.9536 65.77L62.3579 66.3657Z" fill="#1A1A18"/>
<path d="M62.1167 28.1894L61.5332 27.6059L62.247 25.3295L59.9658 26.0385L59.4258 25.4985L62.4419 24.6318L63.3286 21.6152L63.9131 22.1997L63.2183 24.4463L65.4678 23.7544L66.0098 24.2964L63.0117 25.1323L62.1167 28.1894Z" fill="#1A1A18"/>
<path d="M67.0122 29.1953C66.5159 29.7454 65.8761 30.1462 65.1645 30.3525C64.9074 30.4286 64.6344 30.4339 64.3745 30.3679C64.1146 30.3018 63.8773 30.1669 63.6877 29.9772C63.4981 29.7876 63.3632 29.5504 63.2971 29.2905C63.2311 29.0305 63.2364 28.7576 63.3124 28.5005C63.555 27.8054 63.9513 27.1741 64.4719 26.6536C64.9924 26.133 65.6238 25.7367 66.3188 25.4941C66.576 25.4174 66.8492 25.4116 67.1094 25.4774C67.3697 25.5432 67.6073 25.6781 67.7971 25.8679C67.9869 26.0577 68.1218 26.2953 68.1876 26.5556C68.2534 26.8158 68.2476 27.089 68.1709 27.3462C67.9637 28.0581 67.5625 28.6984 67.0122 29.1953V29.1953ZM66.5346 28.7177C66.9449 28.3554 67.2589 27.8971 67.4487 27.3837C67.5061 27.221 67.5163 27.0453 67.4781 26.877C67.4399 26.7087 67.3549 26.5546 67.2329 26.4325C67.1108 26.3105 66.9568 26.2255 66.7884 26.1873C66.6201 26.1491 66.4444 26.1593 66.2817 26.2167C65.2848 26.6578 64.4886 27.4552 64.0488 28.4526C63.9867 28.615 63.9728 28.7918 64.0088 28.9619C64.0448 29.132 64.1292 29.2881 64.2518 29.4114C64.3744 29.5347 64.5299 29.62 64.6998 29.657C64.8697 29.694 65.0467 29.6812 65.2094 29.62C65.719 29.4335 66.1743 29.1235 66.5346 28.7177V28.7177Z" fill="#1A1A18"/>
<path d="M70.2011 32.2866C69.9122 32.5807 69.5889 32.8391 69.2383 33.0561C68.9507 33.2383 68.6346 33.3712 68.3032 33.4492C68.047 33.5125 67.78 33.518 67.5215 33.4653C67.291 33.418 67.0794 33.3045 66.9126 33.1386C66.7784 33.0081 66.6692 32.8542 66.5903 32.6845C66.5143 32.5063 66.4644 32.3179 66.4424 32.1254L64.8115 33.7563L64.3481 33.2929L69.6772 27.9638L70.1406 28.4272L69.7329 28.8349C69.9951 28.8118 70.2592 28.828 70.5166 28.8832C70.7589 28.9326 70.9813 29.0522 71.1562 29.227C71.3202 29.397 71.4306 29.6114 71.4738 29.8436C71.5169 30.0758 71.4909 30.3156 71.3989 30.5331C71.143 31.2036 70.7327 31.8044 70.2011 32.2866ZM69.705 31.8256C70.0837 31.4861 70.3847 31.0692 70.5879 30.603C70.6504 30.4572 70.6672 30.2958 70.636 30.1402C70.6048 29.9847 70.527 29.8422 70.4131 29.7319C70.2679 29.5924 70.0871 29.4958 69.8906 29.4526C69.6587 29.3975 69.4202 29.375 69.1821 29.3857L66.976 31.5917C67.0107 31.7681 67.0673 31.9395 67.1445 32.1019C67.217 32.2379 67.3103 32.3618 67.4209 32.4691C67.5451 32.595 67.7021 32.6837 67.874 32.725C68.046 32.7664 68.2261 32.7587 68.394 32.703C68.8989 32.5276 69.3503 32.2255 69.705 31.8256V31.8256Z" fill="#1A1A18"/>
<path d="M70.4941 38.435L70.0629 38.0039L71.0073 37.0595L68.937 34.9892L67.9926 35.9335L67.5615 35.5024L69.0532 34.0107L69.3515 34.309C70.0556 34.0168 70.7215 33.6399 71.3344 33.1865C72.0183 32.6913 72.6617 32.1424 73.2582 31.5449L74.9882 33.2749L71.6528 36.6103L71.9858 36.9433L70.4941 38.435ZM71.1894 36.1469L73.9741 33.3623L73.144 32.5322C72.5914 33.0529 71.9937 33.5235 71.3579 33.9385C70.869 34.2635 70.3496 34.5402 69.8071 34.7646L71.1894 36.1469Z" fill="#1A1A18"/>
<path d="M74.2055 40.2783L73.7446 39.8173L74.1591 39.4028C74.0786 39.4013 73.9677 39.4008 73.8276 39.4023C73.7023 39.4045 73.5772 39.3927 73.4545 39.3671C73.3161 39.341 73.1816 39.2969 73.0546 39.2358C72.9031 39.1606 72.7656 39.0599 72.6484 38.9379C72.5244 38.8104 72.4338 38.6542 72.3844 38.4833C72.3351 38.3124 72.3287 38.1319 72.3657 37.9579C72.4449 37.517 72.6661 37.114 72.9956 36.8105C73.2316 36.5547 73.5226 36.3559 73.8466 36.2289C74.1077 36.136 74.3899 36.1194 74.6601 36.1811C74.9556 36.2553 75.2331 36.3883 75.476 36.5722C75.748 36.7699 76.0281 36.9944 76.3164 37.2455L76.4174 37.1445C76.5467 37.0226 76.653 36.8786 76.7314 36.7192C76.7899 36.5984 76.8145 36.4641 76.8027 36.3305C76.7889 36.2069 76.7448 36.0887 76.6743 35.9862C76.4916 35.7065 76.2378 35.4804 75.939 35.331C75.7284 35.2202 75.5072 35.1309 75.2788 35.0644L75.2539 35.0395L75.9194 34.3739C76.094 34.4559 76.2634 34.5483 76.4267 34.6508C76.6332 34.775 76.8239 34.9237 76.9946 35.0937C77.1691 35.2617 77.3169 35.4553 77.4331 35.6679C77.5309 35.8543 77.5798 36.0624 77.5752 36.2729C77.5671 36.501 77.5059 36.724 77.3965 36.9243C77.2509 37.1885 77.0657 37.4287 76.8472 37.6367L74.2055 40.2783ZM74.7031 38.8588L75.7871 37.7748C75.6343 37.6454 75.4503 37.4967 75.2353 37.3285C75.0656 37.188 74.8789 37.0692 74.6797 36.975C74.5001 36.8959 74.3016 36.8703 74.1079 36.9013C73.8803 36.9499 73.6742 37.0698 73.5195 37.2436C73.3267 37.4097 73.199 37.6387 73.1592 37.8901C73.1553 38.0044 73.1772 38.1181 73.2234 38.2228C73.2696 38.3274 73.3387 38.4203 73.4258 38.4945C73.5833 38.6547 73.7854 38.7636 74.0058 38.807C74.2353 38.8521 74.4694 38.8694 74.7031 38.8588V38.8588Z" fill="#1A1A18"/>
<path d="M80.8403 43.9931L80.2959 43.4487L78.8359 44.9087L78.3622 44.435L79.8222 42.975L78.0659 41.2187L78.8676 40.4169L83.5717 39.2656L84.0254 39.7192L80.854 42.8906L81.3984 43.435L80.8403 43.9931ZM80.3803 42.4169L82.7221 40.0751L78.9584 40.9951L80.3803 42.4169Z" fill="#1A1A18"/>
<path d="M82.5058 48.5786L80.022 46.0947L80.7505 45.3661C81.1313 45.329 81.5132 45.2929 81.896 45.2578C82.2788 45.2216 82.6479 45.1758 83.0039 45.1176C83.5739 45.0427 84.1357 44.9151 84.6821 44.7363C85.0584 44.5951 85.3993 44.3734 85.6811 44.0869C85.921 43.8737 86.0782 43.583 86.1255 43.2656C86.1373 43.1253 86.1165 42.9842 86.0648 42.8534C86.013 42.7225 85.9317 42.6054 85.8271 42.5112C85.6554 42.3476 85.4525 42.2204 85.2304 42.1372C84.9583 42.0327 84.6703 41.9756 84.3789 41.9682L84.3545 41.9438L85.0864 41.2119C85.3261 41.2621 85.5579 41.3442 85.7758 41.456C86.0226 41.5726 86.248 41.7297 86.4428 41.9209C86.618 42.0798 86.7542 42.277 86.8408 42.497C86.9274 42.7171 86.9622 42.9542 86.9424 43.1899C86.8711 43.7162 86.6145 44.1999 86.2187 44.5541C86.0345 44.741 85.8318 44.9087 85.6137 45.0546C85.4119 45.1869 85.1965 45.2972 84.9711 45.3837C84.7588 45.4647 84.5411 45.5313 84.3198 45.5829C84.0942 45.6366 83.8351 45.6864 83.5424 45.7323C83.123 45.8012 82.7052 45.8564 82.289 45.8979C81.872 45.9389 81.4846 45.9757 81.1269 46.0082L83.1015 47.9828L82.5058 48.5786Z" fill="#1A1A18"/>
<path d="M87.8911 48.9658C87.8634 49.1649 87.8016 49.3579 87.7085 49.5361C87.5752 49.7825 87.4035 50.006 87.1997 50.1982C86.9814 50.4211 86.7311 50.6102 86.457 50.7592C86.2165 50.8898 85.9551 50.9777 85.6845 51.019C85.4173 51.0598 85.1441 51.0342 84.8891 50.9443C84.6381 50.8516 84.4108 50.7043 84.2236 50.5131C84.0191 50.3078 83.8506 50.0696 83.7251 49.8085C83.611 49.5827 83.5235 49.3445 83.4643 49.0985L84.1928 48.37L84.2304 48.4076C84.2418 48.687 84.2986 48.9628 84.3984 49.224C84.4877 49.4769 84.6305 49.7075 84.8169 49.9003C84.9329 50.0118 85.07 50.0991 85.2202 50.1571C85.3777 50.224 85.5502 50.2471 85.7197 50.224C85.8973 50.1977 86.069 50.1407 86.227 50.0555C86.4198 49.9435 86.5957 49.8048 86.7495 49.6434C86.91 49.4915 87.0446 49.3143 87.1479 49.119C87.2229 48.9768 87.262 48.8184 87.2617 48.6576C87.2597 48.5104 87.2182 48.3664 87.1416 48.2406C87.0577 48.1021 86.957 47.9745 86.8418 47.8607L86.6201 47.639L87.1987 47.0604L87.3711 47.2328C87.4751 47.3475 87.6013 47.4401 87.742 47.5048C87.8827 47.5695 88.0351 47.605 88.1899 47.6092C88.3559 47.6008 88.5184 47.5589 88.6678 47.486C88.8171 47.4132 88.9502 47.3109 89.0591 47.1854C89.1738 47.0756 89.2664 46.9448 89.3321 46.8002C89.3862 46.6776 89.4116 46.5444 89.4063 46.4105C89.398 46.2871 89.3633 46.1669 89.3047 46.058C89.2401 45.9445 89.1597 45.8407 89.066 45.7499C88.8896 45.5813 88.6796 45.4518 88.4498 45.37C88.183 45.2706 87.9018 45.2154 87.6172 45.2064L87.5928 45.182L88.3208 44.454C88.5613 44.5038 88.7941 44.5853 89.0132 44.6962C89.2605 44.8115 89.4864 44.9681 89.6812 45.1591C89.8445 45.3166 89.9809 45.4999 90.085 45.7015C90.1753 45.8865 90.2252 46.0886 90.2315 46.2943C90.2377 46.526 90.1913 46.756 90.0958 46.9672C89.982 47.2087 89.8249 47.4273 89.6324 47.6122C89.3707 47.8856 89.0325 48.0737 88.6622 48.1517C88.3549 48.2291 88.03 48.1925 87.7476 48.0487L87.6988 48.0975C87.7685 48.2189 87.8207 48.3497 87.8536 48.4857C87.8953 48.6421 87.908 48.8048 87.8911 48.9658V48.9658Z" fill="#1A1A18"/>
<path d="M0.816406 117.021H77.1414L88.9344 95.6172" stroke="#1A1A18" stroke-width="0.5669" stroke-miterlimit="22.9256"/>
<path d="M9.14697 113.633H7.87989L5.4253 110.715H4.0503V113.633H3.07422V106.294H5.1294C5.50108 106.288 5.87249 106.317 6.23877 106.381C6.52159 106.433 6.79224 106.538 7.03711 106.689C7.29335 106.846 7.50738 107.063 7.66065 107.322C7.82036 107.619 7.89774 107.953 7.88477 108.29C7.9016 108.765 7.76138 109.232 7.48584 109.619C7.20396 109.987 6.82254 110.266 6.38672 110.424L9.14697 113.633ZM6.86475 108.36C6.86834 108.167 6.83053 107.976 6.75391 107.8C6.67348 107.63 6.54603 107.488 6.38672 107.388C6.23414 107.289 6.06312 107.221 5.88379 107.189C5.65773 107.148 5.42836 107.129 5.19873 107.132H4.0503V109.902H5.03613C5.30771 109.906 5.57885 109.879 5.84424 109.821C6.06282 109.773 6.26499 109.668 6.43067 109.518C6.57438 109.386 6.68653 109.223 6.75879 109.042C6.83581 108.823 6.87174 108.592 6.86475 108.36V108.36Z" fill="#1A1A18"/>
<path d="M14.4507 113.633H10.4775V112.884H12.0059V107.965H10.4775V107.295C10.7003 107.293 10.9228 107.276 11.1431 107.243C11.3293 107.223 11.5109 107.172 11.6802 107.092C11.8341 107.018 11.9635 106.9 12.0534 106.755C12.1433 106.609 12.19 106.441 12.188 106.27H12.9521V112.884H14.4507L14.4507 113.633Z" fill="#1A1A18"/>
<path d="M18.3589 112.229L16.9692 115.457H16.2495L17.1069 112.229H18.3589Z" fill="#1A1A18"/>
<path d="M26.2559 113.633H24.9888L22.5342 110.715H21.1592V113.633H20.1831V106.294H22.2383C22.61 106.288 22.9814 106.317 23.3477 106.381C23.6305 106.433 23.9011 106.538 24.146 106.689C24.4022 106.846 24.6163 107.063 24.7695 107.322C24.9292 107.619 25.0066 107.953 24.9936 108.29C25.0105 108.765 24.8703 109.232 24.5947 109.619C24.3128 109.987 23.9314 110.266 23.4956 110.424L26.2559 113.633ZM23.9736 108.36C23.9772 108.167 23.9394 107.976 23.8628 107.8C23.7824 107.63 23.6549 107.488 23.4956 107.388C23.343 107.289 23.172 107.221 22.9927 107.189C22.7666 107.148 22.5372 107.129 22.3076 107.132H21.1592V109.902H22.145C22.4166 109.906 22.6877 109.879 22.9531 109.821C23.1717 109.773 23.3739 109.668 23.5395 109.518C23.6833 109.386 23.7954 109.223 23.8677 109.042C23.9447 108.823 23.9806 108.592 23.9736 108.36V108.36Z" fill="#1A1A18"/>
<path d="M31.978 113.633H27.0093V112.603C27.3545 112.308 27.7004 112.012 28.0469 111.716C28.3935 111.421 28.7165 111.126 29.0156 110.834C29.4967 110.394 29.9311 109.906 30.312 109.377C30.5408 109.031 30.6624 108.626 30.6616 108.212C30.6703 108.044 30.6409 107.876 30.5757 107.721C30.5104 107.566 30.4109 107.428 30.2846 107.317C29.9844 107.086 29.6106 106.971 29.2324 106.994C28.9027 106.999 28.5754 107.052 28.2612 107.152C27.8998 107.263 27.5563 107.426 27.2412 107.635H27.1919V106.6C27.4912 106.462 27.8043 106.356 28.1259 106.284C28.4958 106.191 28.8755 106.143 29.2568 106.141C29.893 106.104 30.5213 106.297 31.0263 106.686C31.2383 106.867 31.4062 107.094 31.5172 107.35C31.6283 107.606 31.6797 107.884 31.6674 108.162C31.6694 108.426 31.6337 108.689 31.5615 108.944C31.4901 109.186 31.3847 109.418 31.2485 109.631C31.1139 109.843 30.9631 110.044 30.7973 110.233C30.625 110.429 30.4155 110.648 30.1689 110.888C29.8173 111.233 29.4542 111.568 29.0795 111.891C28.705 112.215 28.3551 112.514 28.0297 112.791H31.978L31.978 113.633Z" fill="#1A1A18"/>
<path d="M35.4678 112.229L34.0781 115.457H33.3584L34.2158 112.229H35.4678Z" fill="#1A1A18"/>
<path d="M43.3643 113.633H42.0972L39.6426 110.715H38.2676V113.633H37.2915V106.294H39.3467C39.7184 106.288 40.0898 106.317 40.4561 106.381C40.7389 106.433 41.0095 106.538 41.2544 106.689C41.5106 106.846 41.7247 107.063 41.8779 107.322C42.0376 107.619 42.115 107.953 42.102 108.29C42.1189 108.765 41.9787 109.232 41.7031 109.619C41.4212 109.987 41.0398 110.266 40.604 110.424L43.3643 113.633ZM41.082 108.36C41.0856 108.167 41.0478 107.976 40.9712 107.8C40.8908 107.63 40.7633 107.488 40.604 107.388C40.4514 107.289 40.2804 107.221 40.1011 107.189C39.875 107.148 39.6456 107.129 39.416 107.132H38.2676V109.902H39.2534C39.525 109.906 39.7961 109.879 40.0615 109.821C40.2801 109.773 40.4823 109.668 40.6479 109.518C40.7917 109.386 40.9038 109.223 40.9761 109.042C41.0531 108.823 41.089 108.592 41.082 108.36V108.36Z" fill="#1A1A18"/>
<path d="M49.0278 111.302C49.029 111.638 48.9653 111.971 48.8403 112.283C48.7261 112.579 48.5515 112.847 48.3276 113.071C48.0858 113.305 47.7979 113.485 47.4824 113.601C47.118 113.731 46.733 113.794 46.3462 113.786C45.9567 113.787 45.5682 113.745 45.188 113.661C44.8646 113.593 44.5491 113.491 44.2466 113.358V112.318H44.3154C44.6119 112.501 44.9297 112.647 45.2617 112.754C45.6047 112.871 45.9643 112.931 46.3267 112.934C46.5562 112.934 46.7845 112.901 47.0044 112.835C47.224 112.769 47.4243 112.65 47.5884 112.49C47.734 112.347 47.846 112.174 47.916 111.982C47.9939 111.762 48.0315 111.53 48.0269 111.297C48.0337 111.076 47.989 110.857 47.8965 110.656C47.8141 110.488 47.6892 110.343 47.5342 110.237C47.3477 110.106 47.135 110.016 46.9107 109.974C46.6404 109.92 46.3654 109.895 46.0899 109.897C45.8103 109.897 45.5311 109.916 45.2544 109.956C44.9863 109.996 44.7556 110.035 44.562 110.075V106.294H48.9785V107.157H45.5132V109.109C45.6543 109.095 45.7993 109.086 45.9468 109.079C46.0947 109.072 46.223 109.069 46.3316 109.069C46.6825 109.064 47.0329 109.098 47.3765 109.17C47.6712 109.236 47.9506 109.357 48.1997 109.528C48.4597 109.705 48.6699 109.946 48.8106 110.228C48.9659 110.564 49.0404 110.932 49.0278 111.302V111.302Z" fill="#1A1A18"/>
</svg>
