<svg width="195" height="189" viewBox="0 0 195 189" fill="none" xmlns="http://www.w3.org/2000/svg">
<path fill-rule="evenodd" clip-rule="evenodd" d="M101.996 151.195H161.994V31.1992H41.998V91.1973H50.0007C56.8293 91.1967 63.5912 92.5412 69.9002 95.1542C76.2092 97.7671 81.9417 101.597 86.7703 106.426C91.5989 111.254 95.429 116.987 98.0419 123.296C100.655 129.605 101.999 136.367 101.999 143.195L101.996 151.195Z" fill="white" stroke="#1A1A18" stroke-width="0.5669" stroke-miterlimit="22.9256"/>
<path d="M161.994 147.996H101.996V151.196H161.994V147.996Z" stroke="#1A1A18" stroke-width="0.5669" stroke-miterlimit="22.9256"/>
<path d="M45.1975 31.1992H41.998V91.197H45.1975V31.1992Z" stroke="#1A1A18" stroke-width="0.5669" stroke-miterlimit="22.9256"/>
<path d="M41.998 31.1996V10.377" stroke="#1A1A18" stroke-width="0.5669" stroke-miterlimit="22.9256"/>
<path d="M161.994 31.1996V10.377" stroke="#1A1A18" stroke-width="0.5669" stroke-miterlimit="22.9256"/>
<path d="M41.998 10.377H161.994" stroke="#1A1A18" stroke-width="0.5669" stroke-miterlimit="22.9256"/>
<path d="M161.994 151.195H182.817" stroke="#1A1A18" stroke-width="0.5669" stroke-miterlimit="22.9256"/>
<path d="M161.994 31.1992H182.817" stroke="#1A1A18" stroke-width="0.5669" stroke-miterlimit="22.9256"/>
<path d="M182.816 151.195V31.1992" stroke="#1A1A18" stroke-width="0.5669" stroke-miterlimit="22.9256"/>
<path d="M95.7669 1.06698L95.7064 1.16806C95.6136 1.13316 95.5171 1.1094 95.4188 1.09726C95.3133 1.08393 95.2072 1.07726 95.1009 1.07726C94.8804 1.07496 94.6636 1.13414 94.4749 1.24816C94.2806 1.36745 94.1095 1.52098 93.97 1.70128C93.8347 1.86653 93.7288 2.05383 93.657 2.25499C93.5896 2.50303 93.5358 2.70762 93.4954 2.86875C93.4151 3.18111 93.3744 3.50231 93.3743 3.82482L93.4451 3.86339C93.5875 3.70183 93.7632 3.57302 93.9601 3.48587C94.157 3.39871 94.3704 3.35526 94.5857 3.35851C95.1293 3.33665 95.6611 3.5206 96.075 3.87364C96.2706 4.05351 96.424 4.27437 96.5242 4.52043C96.6245 4.76648 96.6692 5.03165 96.6551 5.29698C96.6663 5.60003 96.6106 5.90184 96.4919 6.18093C96.3733 6.46001 96.1946 6.70953 95.9686 6.91173C95.5024 7.32555 94.8958 7.54578 94.2728 7.52745C94.0809 7.52571 93.8897 7.50378 93.7024 7.46202C93.5263 7.42784 93.355 7.37192 93.1927 7.29552C92.8887 7.14474 92.6282 6.91887 92.4358 6.63927C92.2485 6.36573 92.11 6.06173 92.0267 5.74083C91.9414 5.40774 91.899 5.06513 91.9006 4.7213C91.8944 4.05889 92.0003 3.40019 92.2137 2.77306C92.4168 2.13977 92.7989 1.57879 93.3138 1.15782C93.5585 0.971709 93.8359 0.833087 94.1316 0.749126C94.4405 0.663399 94.7598 0.620995 95.0804 0.623126C95.2501 0.619649 95.4196 0.636536 95.5853 0.673419C95.6458 0.808186 95.7064 0.939375 95.7669 1.06698ZM93.3743 5.38241C93.3618 5.74088 93.4031 6.0992 93.4969 6.44541C93.5289 6.62039 93.6208 6.77877 93.7569 6.89335C93.8929 7.00794 94.0646 7.07157 94.2425 7.07334C94.4064 7.06807 94.5646 7.01146 94.6946 6.91149C94.8246 6.81153 94.9199 6.67327 94.9671 6.51621C95.1 6.20956 95.1662 5.8782 95.1615 5.54404C95.1738 5.19668 95.1219 4.85003 95.0081 4.52158C94.9606 4.35243 94.8591 4.20346 94.719 4.09741C94.5789 3.99135 94.408 3.93402 94.2323 3.93418C94.0768 3.93576 93.9259 3.98657 93.8011 4.0793C93.6764 4.17202 93.5842 4.30191 93.5379 4.45029C93.4216 4.74694 93.366 5.0639 93.3743 5.38241Z" fill="#1A1A18"/>
<path d="M99.9764 0.623128C100.355 0.599348 100.733 0.682291 101.066 0.862531C101.4 1.04277 101.676 1.31306 101.864 1.64265C102.218 2.32389 102.385 3.08644 102.349 3.8531C102.372 4.48153 102.307 5.11008 102.157 5.72078C102.045 6.10784 101.856 6.46837 101.602 6.78084C101.4 7.02182 101.146 7.21411 100.859 7.34337C100.573 7.47264 100.26 7.53555 99.9461 7.52742C99.5605 7.53958 99.1783 7.45284 98.8358 7.27546C98.5115 7.08522 98.246 6.80912 98.0687 6.47761C97.8666 6.13189 97.7234 5.75503 97.6448 5.36238C97.5667 4.93789 97.5294 4.50687 97.5335 4.07526C97.5337 3.64884 97.571 3.22324 97.6448 2.80327C97.7018 2.42654 97.8285 2.06373 98.0184 1.73344C98.21 1.38526 98.4945 1.0971 98.8402 0.901067C99.1859 0.705029 99.5792 0.608813 99.9764 0.623128ZM99.0277 4.19636C99.0005 4.9093 99.0478 5.62312 99.1688 6.32625C99.2967 6.82429 99.5592 7.07332 99.9564 7.07332C100.306 7.07332 100.548 6.81095 100.683 6.28621C100.823 5.55121 100.881 4.80293 100.855 4.0552C100.885 3.27661 100.823 2.49714 100.668 1.73343C100.543 1.29593 100.313 1.07718 99.9764 1.07718C99.6063 1.07718 99.3556 1.32621 99.2244 1.82425C99.0667 2.6046 99.0007 3.4007 99.0277 4.19636Z" fill="#1A1A18"/>
<path d="M105.589 0.623128C105.967 0.599347 106.345 0.682291 106.679 0.862531C107.012 1.04277 107.289 1.31306 107.476 1.64265C107.83 2.32389 107.997 3.08644 107.961 3.8531C107.984 4.48153 107.919 5.11007 107.769 5.72078C107.657 6.10784 107.469 6.46837 107.214 6.78084C107.012 7.02182 106.758 7.21412 106.472 7.34338C106.185 7.47265 105.873 7.53555 105.558 7.52742C105.173 7.53958 104.791 7.45284 104.448 7.27546C104.124 7.08522 103.858 6.80912 103.681 6.47761C103.479 6.13189 103.336 5.75503 103.257 5.36238C103.179 4.93789 103.142 4.50687 103.146 4.07526C103.146 3.64884 103.183 3.22324 103.257 2.80327C103.314 2.42654 103.441 2.06373 103.631 1.73344C103.822 1.38526 104.107 1.0971 104.452 0.901067C104.798 0.70503 105.192 0.608813 105.589 0.623128ZM104.64 4.19636C104.613 4.9093 104.66 5.62313 104.781 6.32625C104.909 6.82429 105.172 7.07332 105.569 7.07332C105.918 7.07332 106.161 6.81095 106.296 6.28621C106.436 5.55121 106.493 4.80293 106.467 4.0552C106.498 3.27661 106.435 2.49714 106.281 1.73343C106.156 1.29593 105.925 1.07718 105.589 1.07718C105.219 1.07718 104.968 1.32621 104.837 1.82425C104.679 2.6046 104.613 3.4007 104.64 4.19636Z" fill="#1A1A18"/>
<path d="M187.838 92.1737L187.94 92.2343C187.905 92.327 187.881 92.4235 187.869 92.5219C187.855 92.6273 187.849 92.7335 187.849 92.8397C187.846 93.0602 187.906 93.277 188.02 93.4657C188.139 93.66 188.292 93.8311 188.473 93.9706C188.638 94.1059 188.825 94.2118 189.026 94.2836C189.275 94.351 189.479 94.4049 189.64 94.4453C189.953 94.5255 190.274 94.5662 190.596 94.5663L190.635 94.4955C190.473 94.3532 190.345 94.1775 190.257 93.9806C190.17 93.7837 190.127 93.5702 190.13 93.3549C190.108 92.8113 190.292 92.2795 190.645 91.8656C190.825 91.6701 191.046 91.5167 191.292 91.4164C191.538 91.3161 191.803 91.2714 192.068 91.2855C192.371 91.2743 192.673 91.33 192.952 91.4487C193.231 91.5674 193.481 91.746 193.683 91.9721C194.097 92.4382 194.317 93.0448 194.299 93.6679C194.297 93.8597 194.275 94.0509 194.233 94.2382C194.199 94.4143 194.143 94.5856 194.067 94.7479C193.916 95.052 193.69 95.3125 193.411 95.5048C193.137 95.6921 192.833 95.8306 192.512 95.914C192.179 95.9992 191.837 96.0416 191.493 96.0399C190.83 96.0462 190.172 95.9403 189.545 95.7269C188.911 95.5238 188.35 95.1417 187.929 94.6269C187.743 94.3822 187.605 94.1047 187.521 93.809C187.435 93.5001 187.392 93.1808 187.395 92.8602C187.391 92.6905 187.408 92.5211 187.445 92.3554C187.58 92.2948 187.711 92.2342 187.838 92.1737ZM192.154 94.5663C192.512 94.5789 192.871 94.5375 193.217 94.4437C193.392 94.4117 193.55 94.3198 193.665 94.1838C193.779 94.0477 193.843 93.876 193.845 93.6981C193.84 93.5342 193.783 93.3761 193.683 93.2461C193.583 93.1161 193.445 93.0207 193.288 92.9735C192.981 92.8407 192.65 92.7744 192.316 92.7792C191.968 92.7668 191.621 92.8188 191.293 92.9325C191.124 92.98 190.975 93.0816 190.869 93.2217C190.763 93.3618 190.705 93.5327 190.706 93.7084C190.707 93.8638 190.758 94.0148 190.851 94.1395C190.944 94.2643 191.073 94.3564 191.222 94.4027C191.518 94.519 191.835 94.5746 192.154 94.5663V94.5663Z" fill="#1A1A18"/>
<path d="M187.395 87.9642C187.371 87.5857 187.454 87.2081 187.634 86.8744C187.814 86.5407 188.085 86.2642 188.414 86.0766C189.095 85.723 189.858 85.5558 190.625 85.5917C191.253 85.5691 191.882 85.6336 192.492 85.7836C192.879 85.8955 193.24 86.0844 193.552 86.3388C193.793 86.5408 193.986 86.7946 194.115 87.0813C194.244 87.368 194.307 87.6801 194.299 87.9945C194.311 88.3801 194.224 88.7623 194.047 89.1049C193.857 89.4292 193.581 89.6946 193.249 89.872C192.903 90.074 192.526 90.2172 192.134 90.2958C191.709 90.374 191.278 90.4112 190.847 90.4071C190.42 90.4069 189.995 90.3697 189.575 90.2958C189.198 90.2388 188.835 90.1122 188.505 89.9223C188.157 89.7306 187.869 89.4462 187.673 89.1004C187.477 88.7547 187.38 88.3614 187.395 87.9642V87.9642ZM190.968 88.913C191.681 88.9401 192.395 88.8928 193.098 88.7719C193.596 88.6439 193.845 88.3814 193.845 87.9843C193.845 87.6347 193.582 87.3923 193.058 87.2573C192.323 87.1175 191.574 87.06 190.827 87.0859C190.048 87.0552 189.269 87.1178 188.505 87.2724C188.067 87.3974 187.849 87.628 187.849 87.9643C187.849 88.3344 188.098 88.5851 188.596 88.7162C189.376 88.8739 190.172 88.94 190.968 88.913Z" fill="#1A1A18"/>
<path d="M187.395 82.3519C187.371 81.9734 187.454 81.5958 187.634 81.2621C187.814 80.9284 188.085 80.6519 188.414 80.4642C189.095 80.1107 189.858 79.9435 190.625 79.9794C191.253 79.9568 191.882 80.0213 192.492 80.1713C192.879 80.2832 193.24 80.4721 193.552 80.7265C193.793 80.9285 193.986 81.1823 194.115 81.469C194.244 81.7557 194.307 82.0678 194.299 82.3822C194.311 82.7678 194.224 83.15 194.047 83.4926C193.857 83.8168 193.581 84.0823 193.249 84.2597C192.903 84.4617 192.526 84.6049 192.134 84.6835C191.709 84.7616 191.278 84.7989 190.847 84.7948C190.42 84.7946 189.995 84.7573 189.575 84.6835C189.198 84.6265 188.835 84.4999 188.505 84.31C188.157 84.1183 187.869 83.8338 187.673 83.4881C187.477 83.1424 187.38 82.7491 187.395 82.3519ZM190.968 83.3007C191.681 83.3278 192.395 83.2805 193.098 83.1596C193.596 83.0316 193.845 82.7691 193.845 82.372C193.845 82.0223 193.582 81.78 193.058 81.6449C192.323 81.5051 191.574 81.4476 190.827 81.4735C190.048 81.4428 189.269 81.5055 188.505 81.66C188.067 81.785 187.849 82.0157 187.849 82.3519C187.849 82.7221 188.098 82.9727 188.596 83.1039C189.376 83.2616 190.172 83.3277 190.968 83.3007Z" fill="#1A1A18"/>
<path d="M41.9984 91.1973H21.1758" stroke="#1A1A18" stroke-width="0.5669" stroke-miterlimit="22.9256"/>
<path d="M41.9984 31.1992H21.1758" stroke="#1A1A18" stroke-width="0.5669" stroke-miterlimit="22.9256"/>
<path d="M21.1758 91.197V31.1992" stroke="#1A1A18" stroke-width="0.5669" stroke-miterlimit="22.9256"/>
<path d="M15.1978 67.37H14.6934C14.7066 67.2489 14.7134 67.1615 14.7134 67.1078C14.7266 66.9367 14.6954 66.765 14.6228 66.6094C14.5503 66.4538 14.4389 66.3196 14.2994 66.2196C13.9947 66.0399 13.6432 65.9554 13.2901 65.9769C13.0183 65.966 12.748 66.0215 12.5025 66.1386C12.3771 66.1958 12.2712 66.2884 12.1977 66.4049C12.1242 66.5215 12.0864 66.657 12.0889 66.7948C12.0823 66.9341 12.1124 67.0726 12.1761 67.1966C12.2399 67.3206 12.3351 67.4257 12.4522 67.5014C12.71 67.6485 12.9951 67.7412 13.2901 67.7738L13.3003 67.9154C13.1456 68.0634 13.0311 68.1744 12.9571 68.2484C12.8403 68.3571 12.7292 68.4717 12.6241 68.5917C12.2859 68.404 12.0155 68.1144 11.8516 67.764C11.6985 67.3895 11.6247 66.9873 11.6348 66.5829C11.6047 66.0365 11.7514 65.4949 12.0533 65.0385C12.1796 64.8585 12.3486 64.7127 12.5451 64.6141C12.7416 64.5154 12.9595 64.4669 13.1793 64.473C13.5437 64.457 13.9006 64.5797 14.1783 64.8163C14.4375 65.071 14.6284 65.3869 14.7335 65.7348L14.7842 65.8661C14.8311 65.8998 14.8648 65.8929 14.8853 65.8461C14.9122 65.6981 14.9288 65.6103 14.9356 65.5834C15.0122 65.1864 15.1934 64.8171 15.4605 64.5136C15.7615 64.2953 16.1289 64.1881 16.5001 64.2104C16.7896 64.2059 17.0757 64.2731 17.3329 64.4061C17.5901 64.5391 17.8104 64.7337 17.9742 64.9726C18.3586 65.5048 18.5571 66.1488 18.5391 66.8051C18.5454 67.1682 18.4909 67.5298 18.378 67.8749C18.2692 68.2247 18.0539 68.5317 17.7623 68.7533C17.6275 68.6523 17.4794 68.5411 17.3179 68.4198C17.1563 68.2987 17.015 68.2012 16.8941 68.1273L16.9039 67.996C17.2033 67.9624 17.4888 67.8512 17.732 67.6732C17.8487 67.579 17.9414 67.4586 18.0028 67.3217C18.0641 67.1848 18.0923 67.0354 18.085 66.8856C18.0847 66.7128 18.0411 66.5428 17.9582 66.3911C17.8753 66.2395 17.7557 66.111 17.6104 66.0175C17.3296 65.8116 16.9898 65.7018 16.6416 65.7045C15.9888 65.7045 15.5648 65.8795 15.3696 66.2294C15.227 66.5917 15.1682 66.9817 15.1978 67.37V67.37Z" fill="#1A1A18"/>
<path d="M11.6348 60.7279C11.6111 60.3494 11.694 59.9718 11.8743 59.6381C12.0545 59.3043 12.3248 59.0279 12.6544 58.8402C13.3356 58.4867 14.0982 58.3194 14.8648 58.3554C15.4933 58.3327 16.1218 58.3973 16.7325 58.5473C17.1196 58.6592 17.4801 58.848 17.7926 59.1024C18.0335 59.3045 18.2258 59.5583 18.3551 59.845C18.4844 60.1317 18.5473 60.4438 18.5391 60.7582C18.5513 61.1437 18.4646 61.526 18.2872 61.8685C18.0969 62.1928 17.8208 62.4583 17.4893 62.6356C17.1436 62.8377 16.7667 62.9809 16.3741 63.0595C15.9496 63.1376 15.5186 63.1749 15.087 63.1708C14.6606 63.1706 14.235 63.1333 13.815 63.0595C13.4383 63.0025 13.0755 62.8758 12.7452 62.6859C12.397 62.4943 12.1088 62.2098 11.9128 61.8641C11.7168 61.5184 11.6205 61.1251 11.6348 60.7279V60.7279ZM15.2081 61.6767C15.921 61.7038 16.6349 61.6565 17.338 61.5355C17.836 61.4076 18.085 61.1451 18.085 60.7479C18.085 60.3983 17.8227 60.156 17.2979 60.0209C16.5629 59.8811 15.8147 59.8236 15.0669 59.8495C14.2883 59.8189 13.5089 59.8815 12.7452 60.0361C12.3077 60.1611 12.0889 60.3917 12.0889 60.728C12.0889 61.0981 12.3379 61.3487 12.836 61.4799C13.6163 61.6376 14.4124 61.7036 15.2081 61.6767V61.6767Z" fill="#1A1A18"/>
<path d="M11.6348 55.1156C11.6111 54.7371 11.694 54.3595 11.8743 54.0257C12.0545 53.692 12.3248 53.4156 12.6544 53.2279C13.3356 52.8744 14.0982 52.7071 14.8648 52.7431C15.4933 52.7204 16.1218 52.785 16.7325 52.935C17.1196 53.0469 17.4801 53.2357 17.7926 53.4901C18.0335 53.6922 18.2258 53.946 18.3551 54.2327C18.4844 54.5194 18.5473 54.8315 18.5391 55.1459C18.5513 55.5314 18.4646 55.9137 18.2872 56.2562C18.0969 56.5805 17.8208 56.846 17.4893 57.0233C17.1436 57.2254 16.7667 57.3686 16.3741 57.4472C15.9496 57.5253 15.5186 57.5626 15.087 57.5585C14.6606 57.5583 14.235 57.521 13.815 57.4472C13.4383 57.3902 13.0755 57.2635 12.7452 57.0736C12.397 56.882 12.1088 56.5975 11.9128 56.2518C11.7168 55.9061 11.6205 55.5128 11.6348 55.1156ZM15.2081 56.0644C15.921 56.0915 16.6349 56.0442 17.338 55.9232C17.836 55.7953 18.085 55.5328 18.085 55.1356C18.085 54.786 17.8227 54.5437 17.2979 54.4086C16.5629 54.2688 15.8147 54.2113 15.0669 54.2372C14.2883 54.2065 13.5089 54.2691 12.7452 54.4237C12.3077 54.5487 12.0889 54.7793 12.0889 55.1156C12.0889 55.4857 12.3379 55.7364 12.836 55.8676C13.6163 56.0253 14.4124 56.0913 15.2081 56.0644Z" fill="#1A1A18"/>
<path d="M101.996 151.195V172.018" stroke="#1A1A18" stroke-width="0.5669" stroke-miterlimit="22.9256"/>
<path d="M161.994 151.195V172.018" stroke="#1A1A18" stroke-width="0.5669" stroke-miterlimit="22.9256"/>
<path d="M101.996 172.018H161.994" stroke="#1A1A18" stroke-width="0.5669" stroke-miterlimit="22.9256"/>
<path d="M122.29 182.592V182.088C122.411 182.101 122.498 182.108 122.552 182.108C122.723 182.121 122.895 182.09 123.05 182.017C123.206 181.945 123.34 181.833 123.44 181.694C123.62 181.389 123.704 181.038 123.683 180.685C123.694 180.413 123.638 180.143 123.521 179.897C123.464 179.772 123.371 179.666 123.255 179.592C123.138 179.519 123.003 179.481 122.865 179.483C122.726 179.477 122.587 179.507 122.463 179.571C122.339 179.634 122.234 179.73 122.158 179.847C122.011 180.104 121.918 180.39 121.886 180.685L121.744 180.695C121.596 180.54 121.485 180.426 121.411 180.352C121.302 180.235 121.188 180.124 121.068 180.019C121.256 179.68 121.545 179.41 121.896 179.246C122.27 179.093 122.672 179.019 123.077 179.029C123.623 178.999 124.165 179.146 124.621 179.448C124.801 179.574 124.947 179.743 125.046 179.94C125.144 180.136 125.193 180.354 125.187 180.574C125.203 180.938 125.08 181.295 124.843 181.573C124.589 181.832 124.273 182.023 123.925 182.128L123.793 182.179C123.76 182.226 123.767 182.259 123.813 182.28C123.961 182.307 124.049 182.323 124.076 182.33C124.473 182.407 124.842 182.588 125.146 182.855C125.364 183.156 125.471 183.523 125.449 183.895C125.454 184.184 125.386 184.47 125.253 184.727C125.12 184.985 124.926 185.205 124.687 185.369C124.155 185.753 123.511 185.952 122.854 185.934C122.491 185.94 122.13 185.885 121.785 185.773C121.435 185.664 121.128 185.448 120.906 185.157C121.007 185.022 121.118 184.874 121.24 184.712C121.361 184.551 121.458 184.41 121.532 184.289L121.664 184.298C121.697 184.598 121.808 184.883 121.986 185.127C122.081 185.243 122.201 185.336 122.338 185.397C122.475 185.459 122.624 185.487 122.774 185.48C122.947 185.479 123.117 185.436 123.268 185.353C123.42 185.27 123.549 185.15 123.642 185.005C123.848 184.724 123.958 184.384 123.955 184.036C123.955 183.383 123.78 182.959 123.43 182.764C123.068 182.622 122.678 182.563 122.29 182.592Z" fill="#1A1A18"/>
<path d="M128.932 179.029C129.31 179.006 129.688 179.089 130.022 179.269C130.355 179.449 130.632 179.719 130.819 180.049C131.173 180.73 131.34 181.493 131.304 182.259C131.327 182.888 131.262 183.516 131.112 184.127C131 184.514 130.812 184.875 130.557 185.187C130.355 185.428 130.101 185.62 129.815 185.75C129.528 185.879 129.216 185.942 128.901 185.934C128.516 185.946 128.134 185.859 127.791 185.682C127.467 185.491 127.201 185.215 127.024 184.884C126.822 184.538 126.679 184.161 126.6 183.769C126.522 183.344 126.485 182.913 126.489 182.481C126.489 182.055 126.526 181.629 126.6 181.209C126.657 180.833 126.784 180.47 126.974 180.14C127.165 179.791 127.45 179.503 127.795 179.307C128.141 179.111 128.535 179.015 128.932 179.029V179.029ZM127.983 182.603C127.956 183.316 128.003 184.029 128.124 184.733C128.252 185.231 128.515 185.48 128.912 185.48C129.261 185.48 129.504 185.217 129.639 184.692C129.779 183.957 129.836 183.209 129.81 182.461C129.841 181.683 129.778 180.903 129.624 180.14C129.499 179.702 129.268 179.483 128.932 179.483C128.562 179.483 128.311 179.732 128.18 180.231C128.022 181.011 127.956 181.807 127.983 182.603V182.603Z" fill="#1A1A18"/>
<path d="M134.544 179.029C134.923 179.006 135.3 179.089 135.634 179.269C135.968 179.449 136.244 179.719 136.432 180.049C136.785 180.73 136.953 181.493 136.917 182.259C136.939 182.888 136.875 183.516 136.725 184.127C136.613 184.514 136.424 184.875 136.17 185.187C135.967 185.428 135.714 185.62 135.427 185.75C135.14 185.879 134.828 185.942 134.514 185.934C134.128 185.946 133.746 185.859 133.403 185.682C133.079 185.491 132.814 185.215 132.636 184.884C132.434 184.538 132.291 184.161 132.212 183.769C132.134 183.344 132.097 182.913 132.101 182.481C132.101 182.055 132.139 181.629 132.212 181.209C132.269 180.833 132.396 180.47 132.586 180.14C132.778 179.791 133.062 179.503 133.408 179.307C133.754 179.111 134.147 179.015 134.544 179.029V179.029ZM133.595 182.603C133.568 183.316 133.615 184.029 133.736 184.733C133.864 185.231 134.127 185.48 134.524 185.48C134.874 185.48 135.116 185.217 135.251 184.692C135.391 183.957 135.448 183.209 135.422 182.461C135.453 181.683 135.391 180.903 135.236 180.14C135.111 179.702 134.88 179.483 134.544 179.483C134.174 179.483 133.923 179.732 133.792 180.231C133.634 181.011 133.568 181.807 133.595 182.603H133.595Z" fill="#1A1A18"/>
<path fill-rule="evenodd" clip-rule="evenodd" d="M46.3 91.3633H50.2909C57.1212 91.357 63.8856 92.6976 70.1972 95.3085C76.5088 97.9194 82.2435 101.749 87.0732 106.579C91.903 111.409 95.7329 117.144 98.3438 123.455C100.955 129.767 102.295 136.531 102.289 143.361L102.269 150.681H98.6692L98.6892 143.361C98.6893 130.525 93.5902 118.215 84.5137 109.139C75.4373 100.062 63.1269 94.9629 50.2909 94.9629H42.9512V94.7182L46.3 91.3633Z" fill="#FFEC00" stroke="#1A1A18" stroke-width="0.5669" stroke-miterlimit="22.9256"/>
<path d="M42.9504 94.9629L28.2266 109.687" stroke="#1A1A18" stroke-width="0.4997" stroke-miterlimit="22.9256"/>
<path d="M98.6691 150.682L83.9453 165.405" stroke="#1A1A18" stroke-width="0.4997" stroke-miterlimit="22.9256"/>
<path d="M28.2266 109.688L83.9445 165.405" stroke="#1A1A18" stroke-width="0.5669" stroke-miterlimit="22.9256"/>
<path d="M18.001 117.191L22.0342 113.158C21.6917 113.125 21.3515 113.071 21.0156 112.996C21.0527 112.908 21.0839 112.818 21.1089 112.726C21.134 112.629 21.1528 112.531 21.165 112.432L21.2217 112.375C21.5937 112.511 21.9736 112.623 22.3594 112.713C22.6777 112.784 23.0762 112.864 23.5547 112.951L23.5586 113.027L18.6978 117.888C18.6641 117.838 18.6267 117.791 18.5859 117.747C18.4824 117.615 18.4155 117.535 18.3853 117.504C18.3183 117.436 18.2459 117.373 18.1689 117.316C18.0996 117.266 18.043 117.224 18.001 117.191Z" fill="#1A1A18"/>
<path d="M24.2651 118.116L24.2148 118.166C24.2955 118.302 24.346 118.454 24.3627 118.611C24.3795 118.768 24.3622 118.927 24.312 119.077C24.2042 119.449 23.9995 119.786 23.7187 120.054C23.3485 120.464 22.8443 120.729 22.2964 120.801C22.0649 120.829 21.8303 120.802 21.6108 120.724C21.3914 120.645 21.193 120.517 21.0312 120.35C20.8743 120.195 20.7462 120.014 20.6528 119.814C20.5612 119.614 20.5156 119.395 20.5195 119.175C20.5289 118.92 20.5973 118.67 20.7192 118.446C20.8512 118.188 21.0231 117.953 21.2285 117.749C21.5152 117.455 21.8694 117.236 22.2602 117.111C22.4146 117.048 22.581 117.021 22.7472 117.032C22.9133 117.042 23.075 117.09 23.2202 117.171L23.2705 117.121C23.1504 116.884 23.1265 116.609 23.2036 116.355C23.281 116.049 23.4425 115.77 23.6699 115.551C23.8249 115.374 24.0162 115.233 24.2306 115.137C24.4451 115.041 24.6777 114.993 24.9126 114.995C25.2922 115.018 25.6486 115.185 25.9087 115.462C26.0526 115.6 26.1759 115.757 26.2749 115.929C26.3572 116.102 26.3977 116.291 26.3931 116.482C26.3982 116.69 26.3625 116.897 26.2881 117.091C26.1955 117.301 26.0616 117.49 25.8945 117.646C25.6681 117.887 25.3838 118.065 25.0689 118.164C24.8043 118.248 24.5177 118.231 24.2651 118.116V118.116ZM23.3677 117.69C23.1106 117.676 22.8578 117.76 22.6597 117.924C22.4231 118.083 22.2034 118.265 22.0039 118.468C21.6983 118.747 21.4548 119.087 21.2891 119.466C21.2415 119.555 21.2221 119.656 21.2335 119.757C21.2448 119.857 21.2863 119.952 21.3525 120.028C21.5073 120.183 21.7583 120.168 22.1055 119.982C22.396 119.823 22.6613 119.622 22.8931 119.385C23.0496 119.229 23.1959 119.063 23.3311 118.888C23.4477 118.742 23.5439 118.582 23.6172 118.41C23.6729 118.314 23.6982 118.204 23.6896 118.093C23.6811 117.983 23.6391 117.877 23.5693 117.791C23.5145 117.737 23.4439 117.701 23.3677 117.69ZM24.2949 116.318C24.1905 116.422 24.0927 116.531 24.0019 116.646C23.9241 116.745 23.8594 116.853 23.8095 116.968C23.7643 117.07 23.7407 117.18 23.7402 117.291C23.7379 117.336 23.7448 117.382 23.7605 117.425C23.7762 117.467 23.8003 117.506 23.8315 117.54C23.9736 117.682 24.1874 117.677 24.4731 117.525C24.7199 117.386 24.9448 117.211 25.1406 117.007C25.3356 116.826 25.5 116.614 25.6274 116.38C25.6896 116.291 25.7195 116.183 25.7122 116.075C25.7049 115.967 25.6609 115.864 25.5874 115.784C25.4409 115.637 25.23 115.64 24.9516 115.791C24.7099 115.936 24.489 116.114 24.2949 116.318V116.318Z" fill="#1A1A18"/>
<path d="M25.3853 124.576L27.5323 121.822C26.729 122.27 26.0993 122.631 25.6431 122.906C25.1861 123.18 24.794 123.431 24.4668 123.657C24.423 123.609 24.3833 123.557 24.3482 123.502C24.312 123.446 24.2708 123.393 24.2251 123.344C24.1742 123.297 24.1193 123.254 24.0611 123.215C24.0046 123.178 23.9512 123.137 23.9014 123.092L25.7359 120.026C25.3282 120.325 24.8645 120.676 24.3448 121.078C23.8257 121.48 23.3684 121.842 22.9727 122.163L22.771 121.961L22.5742 121.765C23.2476 121.312 23.93 120.852 24.6216 120.383C25.312 119.915 25.9969 119.438 26.6763 118.954C26.7207 119.001 26.7613 119.052 26.7979 119.105C26.8343 119.159 26.8747 119.21 26.919 119.257C26.9707 119.305 27.0255 119.35 27.083 119.391C27.1616 119.449 27.2066 119.484 27.2163 119.494L25.4707 122.462C26.459 121.884 27.4515 121.305 28.4483 120.726C28.4925 120.773 28.5329 120.823 28.5694 120.877C28.6073 120.932 28.6496 120.985 28.6958 121.034C28.7429 121.078 28.7934 121.118 28.8467 121.154C28.9002 121.191 28.9508 121.231 28.9981 121.275C28.4009 122.062 27.9079 122.724 27.5191 123.26C27.0249 123.949 26.5609 124.634 26.127 125.317C26.0682 125.254 26.0136 125.188 25.9634 125.118C25.9117 125.046 25.8553 124.978 25.7945 124.914C25.7299 124.853 25.6615 124.796 25.5899 124.744C25.5183 124.692 25.4499 124.636 25.3853 124.576V124.576Z" fill="#1A1A18"/>
<path d="M29.1255 128.316L31.2725 125.562C30.4688 126.01 29.8389 126.371 29.3829 126.645C28.9258 126.92 28.5339 127.171 28.2071 127.397C28.1632 127.349 28.1235 127.298 28.0884 127.243C28.0521 127.186 28.0107 127.133 27.9649 127.084C27.9139 127.037 27.859 126.993 27.8008 126.955C27.7446 126.918 27.6913 126.877 27.6416 126.832L29.4756 123.766C29.0684 124.065 28.6049 124.416 28.085 124.818C27.5655 125.22 27.108 125.581 26.7125 125.903L26.5113 125.702L26.314 125.504C26.9879 125.052 27.6703 124.592 28.3614 124.123C29.0523 123.655 29.7374 123.178 30.4166 122.694C30.4609 122.741 30.5015 122.792 30.5381 122.846C30.5744 122.899 30.6147 122.95 30.6588 122.997C30.7106 123.045 30.7656 123.09 30.8233 123.131C30.9019 123.189 30.9468 123.224 30.9566 123.234L29.2105 126.202C30.1988 125.624 31.1915 125.045 32.1885 124.466C32.2325 124.513 32.2729 124.563 32.3091 124.617C32.3471 124.672 32.3894 124.725 32.4356 124.773C32.4829 124.818 32.5335 124.858 32.5869 124.895C32.6402 124.931 32.6907 124.971 32.7378 125.015C32.1407 125.802 31.6477 126.463 31.2588 127C30.7647 127.688 30.3008 128.374 29.8672 129.058C29.8085 128.995 29.7538 128.928 29.7037 128.858C29.6519 128.786 29.5955 128.718 29.5347 128.654C29.4701 128.593 29.4018 128.537 29.3301 128.484C29.2586 128.432 29.1902 128.376 29.1255 128.316Z" fill="#1A1A18"/>
<path d="M32.9556 132.146L33.7139 130.42C33.5732 130.472 33.2783 130.582 32.8296 130.749C32.4307 130.898 32.1245 131.016 31.9111 131.102L31.7451 130.864L31.5078 130.698L33.895 129.915C34.0938 129.454 34.2761 129.02 34.4419 128.612C34.5523 128.34 34.7331 127.89 34.9844 127.262C35.0313 127.309 35.1035 127.391 35.2012 127.509C35.2988 127.627 35.3525 127.69 35.3628 127.701C35.4097 127.748 35.4946 127.823 35.6177 127.925C35.7403 128.027 35.8032 128.081 35.8067 128.084C35.6431 128.463 35.5303 128.717 35.4683 128.846C35.3165 129.181 35.2017 129.443 35.126 129.634C35.6353 129.466 36.1819 129.269 36.7657 129.043L36.9932 129.27L37.2154 129.493C36.8438 129.588 36.3628 129.722 35.7725 129.895C35.2774 130.04 34.9976 130.123 34.9312 130.142L34.523 131.094C34.2725 131.722 34.0245 132.347 33.7789 132.969C33.732 132.922 33.6597 132.837 33.5621 132.716C33.4649 132.596 33.4094 132.528 33.3956 132.515C33.3521 132.471 33.2701 132.401 33.1504 132.305C33.0312 132.209 32.9663 132.157 32.9556 132.146Z" fill="#1A1A18"/>
<path d="M35.2788 134.597C35.0962 134.421 34.9596 134.202 34.8809 133.96C34.8023 133.719 34.784 133.462 34.8276 133.211C34.9429 132.592 35.259 132.027 35.7271 131.605C36.181 131.105 36.7751 130.754 37.4317 130.598C37.6862 130.535 37.9525 130.54 38.2046 130.612C38.4566 130.684 38.6856 130.82 38.8692 131.007C39.0552 131.184 39.1956 131.404 39.2785 131.647C39.3614 131.89 39.3843 132.15 39.3452 132.404C39.2337 133.025 38.9178 133.591 38.4478 134.012C37.9926 134.507 37.4 134.854 36.7461 135.009C36.4869 135.074 36.2151 135.071 35.9577 134.998C35.7003 134.926 35.4662 134.788 35.2788 134.597ZM38.5903 131.356C38.3994 131.165 38.105 131.17 37.707 131.372C37.2579 131.63 36.8497 131.953 36.4956 132.331C36.1959 132.622 35.9333 132.949 35.7139 133.305C35.4424 133.757 35.4045 134.081 35.6001 134.276C35.7818 134.458 36.1024 134.417 36.562 134.153C37.0246 133.873 37.4486 133.534 37.8233 133.145C38.1415 132.843 38.4058 132.489 38.6045 132.099C38.7603 131.769 38.7556 131.521 38.5903 131.356Z" fill="#1A1A18"/>
<path d="M35.2715 138.088L40.5396 132.82C40.5767 132.857 40.6348 132.925 40.7139 133.023C40.7939 133.122 40.839 133.177 40.8491 133.187C40.9064 133.241 40.9667 133.292 41.0298 133.339C41.0931 133.386 41.1536 133.437 41.2109 133.491L40.5899 134.112C40.8242 133.971 41.0889 133.888 41.3618 133.871C41.4739 133.864 41.5859 133.882 41.6905 133.923C41.7951 133.963 41.8898 134.026 41.9683 134.106C42.135 134.273 42.2475 134.487 42.2911 134.719C42.3347 134.951 42.3075 135.191 42.2129 135.407C41.9998 135.953 41.665 136.443 41.2339 136.84C40.773 137.355 40.1803 137.735 39.5196 137.938C39.3228 138.004 39.1118 138.016 38.9091 137.971C38.7064 137.927 38.5195 137.829 38.3682 137.687C38.2196 137.548 38.1294 137.359 38.1162 137.156C38.1101 136.939 38.1492 136.723 38.231 136.522L35.9682 138.785C35.7859 138.507 35.5488 138.27 35.2715 138.088H35.2715ZM38.6201 137.011C38.7338 137.076 38.8635 137.108 38.9944 137.102C39.1253 137.097 39.252 137.054 39.3599 136.98C39.7503 136.768 40.1043 136.496 40.4082 136.172C40.7563 135.845 41.0593 135.474 41.3091 135.067C41.4766 134.764 41.4803 134.532 41.3203 134.372C41.126 134.178 40.8146 134.214 40.3862 134.48C40.0401 134.706 39.7205 134.971 39.4336 135.269C39.1594 135.531 38.9152 135.824 38.7056 136.14C38.4609 136.533 38.4324 136.823 38.6201 137.011H38.6201Z" fill="#1A1A18"/>
<path d="M39.9771 138.268L40.2701 138.561L40.9937 138.17C41.5083 137.885 42.0372 137.59 42.5801 137.285C43.1236 136.981 43.6319 136.68 44.105 136.382C44.1476 136.428 44.1863 136.477 44.2207 136.528C44.2539 136.578 44.2909 136.625 44.3316 136.669C44.3769 136.712 44.4258 136.751 44.4776 136.785C44.5277 136.818 44.575 136.856 44.6192 136.897C44.3672 137.311 44.1156 137.726 43.8643 138.142C43.6138 138.557 43.364 138.974 43.1148 139.391C43.0191 139.553 42.774 139.98 42.3794 140.67L42.6373 140.928C42.5973 140.955 42.5503 140.991 42.4942 141.035C42.4395 141.08 42.3765 141.138 42.3052 141.21C42.2432 141.272 42.1929 141.326 42.1533 141.372C42.1138 141.418 42.0679 141.477 42.0161 141.549L41.9658 141.499C41.985 141.404 41.9808 141.305 41.9535 141.212C41.9262 141.119 41.8767 141.033 41.8091 140.963C41.665 140.796 41.4329 140.552 41.1128 140.232L40.6733 139.793C40.3574 139.477 40.1178 139.249 39.9546 139.109C39.8804 139.042 39.7926 138.992 39.6972 138.962C39.6018 138.932 39.5011 138.923 39.4019 138.935L39.356 138.889C39.4075 138.856 39.4566 138.819 39.503 138.778C39.565 138.726 39.6294 138.668 39.6963 138.601C39.7535 138.544 39.8062 138.487 39.8545 138.431C39.9002 138.38 39.9412 138.326 39.9771 138.268ZM40.6484 138.939L41.6274 139.918L43.1875 137.42C42.7183 137.694 42.4025 137.878 42.2402 137.974C41.688 138.297 41.1574 138.619 40.6484 138.939V138.939Z" fill="#1A1A18"/>
<path d="M46.8897 140.926L44.9337 142.882C44.8356 142.962 44.7651 143.071 44.732 143.194C44.7319 143.247 44.744 143.3 44.7676 143.349C44.7911 143.397 44.8253 143.439 44.8677 143.472L44.7032 143.637C44.5833 143.61 44.4654 143.575 44.3502 143.533C44.2391 143.5 44.1364 143.443 44.0489 143.367C43.9906 143.31 43.9451 143.24 43.9154 143.164C43.8857 143.088 43.8725 143.006 43.8766 142.924C43.8908 142.719 43.9584 142.52 44.0728 142.349C43.8674 142.444 43.6409 142.483 43.4156 142.463C43.2242 142.445 43.0449 142.362 42.9083 142.227C42.8059 142.13 42.7276 142.011 42.6797 141.879C42.6319 141.747 42.6158 141.605 42.6329 141.466C42.6927 141.118 42.8703 140.802 43.1358 140.57C43.3764 140.292 43.7126 140.113 44.0782 140.07C44.4552 140.091 44.8222 140.199 45.1505 140.386C45.2599 140.438 45.3448 140.476 45.4073 140.5C45.5025 140.536 45.602 140.558 45.7032 140.567C45.7661 140.557 45.8267 140.536 45.8819 140.504C45.9462 140.465 46.0052 140.419 46.0572 140.365C46.2185 140.208 46.3211 140.001 46.3477 139.777C46.3666 139.686 46.3637 139.591 46.3393 139.501C46.3149 139.411 46.2696 139.328 46.2071 139.259C46.0474 139.108 45.8382 139.021 45.6187 139.013C45.4592 138.989 45.2963 139.016 45.1524 139.089L45.1163 139.053L45.4723 138.567C45.7332 138.525 46.0004 138.55 46.2496 138.637C46.4878 138.715 46.7049 138.847 46.8844 139.022C47.1204 139.245 47.272 139.543 47.3136 139.865C47.3319 140.063 47.3031 140.262 47.2294 140.447C47.1557 140.631 47.0392 140.795 46.8897 140.926V140.926ZM44.7867 141.635L45.479 140.943C45.3301 140.89 45.2115 140.847 45.1221 140.814C44.9789 140.765 44.8284 140.74 44.6768 140.74C44.544 140.746 44.4152 140.788 44.3042 140.861C44.164 140.953 44.0345 141.06 43.918 141.181C43.7804 141.313 43.6676 141.469 43.585 141.641C43.5491 141.699 43.5337 141.768 43.5413 141.836C43.5488 141.904 43.5788 141.968 43.6265 142.017C43.7002 142.088 43.7954 142.133 43.8973 142.145C43.9992 142.156 44.1019 142.133 44.1895 142.08C44.4139 141.969 44.6162 141.818 44.7866 141.635H44.7867Z" fill="#1A1A18"/>
<path d="M49.2603 143.854L49.6172 143.497C49.653 143.548 49.6921 143.597 49.7344 143.643C49.8271 143.74 49.9473 143.807 50.079 143.834C50.2107 143.861 50.3475 143.847 50.4712 143.794C50.7894 143.66 51.0744 143.458 51.3062 143.202C51.5014 143.019 51.6626 142.803 51.7823 142.563C51.8443 142.47 51.8744 142.359 51.8681 142.248C51.8617 142.136 51.8193 142.029 51.7471 141.943C51.6675 141.867 51.5663 141.816 51.4571 141.799C51.348 141.782 51.2362 141.798 51.1368 141.847C50.8719 141.961 50.6261 142.115 50.4078 142.303L50.3306 142.24C50.3653 142.056 50.3907 141.92 50.4058 141.83C50.44 141.655 50.4615 141.519 50.4703 141.423C50.7688 141.281 51.1039 141.235 51.4297 141.291C51.7141 141.363 51.9721 141.515 52.1739 141.728C52.3236 141.862 52.4434 142.027 52.5254 142.211C52.6074 142.396 52.6498 142.595 52.6499 142.796C52.6395 143.001 52.5888 143.202 52.5007 143.387C52.4127 143.572 52.289 143.738 52.1368 143.875C51.9005 144.133 51.5961 144.318 51.2588 144.41C50.9739 144.468 50.6786 144.444 50.4063 144.343L50.3052 144.313C50.2549 144.33 50.2349 144.357 50.2442 144.395C50.2989 144.487 50.3311 144.544 50.3399 144.562C50.4868 144.84 50.5439 145.156 50.5035 145.468C50.3878 145.809 50.1869 146.114 49.92 146.354C49.7377 146.553 49.5182 146.713 49.2739 146.827C49.0296 146.94 48.7653 147.004 48.4962 147.016C48.253 147.027 48.0101 146.987 47.7835 146.898C47.5568 146.809 47.3516 146.673 47.1812 146.5C46.9925 146.319 46.8484 146.096 46.7603 145.85C46.6621 145.567 46.6605 145.26 46.7559 144.976C46.9014 144.931 47.0617 144.881 47.2369 144.828C47.4117 144.775 47.5596 144.723 47.6832 144.674L47.7413 144.747C47.5519 144.965 47.4078 145.219 47.3175 145.494C47.2778 145.604 47.2703 145.723 47.2958 145.837C47.3213 145.95 47.3788 146.055 47.4615 146.137C47.5664 146.226 47.6951 146.283 47.8318 146.301C47.9684 146.318 48.1073 146.296 48.2315 146.236C48.5499 146.129 48.8383 145.948 49.0723 145.707C49.5337 145.246 49.7461 144.858 49.7095 144.545C49.6354 144.274 49.4783 144.032 49.2603 143.854V143.854Z" fill="#1A1A18"/>
<path d="M49.8398 148.06L49.9253 148.044C49.9213 148.176 49.9284 148.307 49.9468 148.437C49.9599 148.559 50.0104 148.675 50.0913 148.767C50.3838 149.06 50.8345 149.063 51.4433 148.777C51.9692 148.523 52.4464 148.179 52.8535 147.761L52.9248 147.689L52.9111 147.633C52.7438 147.683 52.5661 147.688 52.3965 147.646C52.2268 147.605 52.0713 147.518 51.9463 147.396C51.8085 147.262 51.7047 147.096 51.6436 146.913C51.5825 146.73 51.5657 146.535 51.5947 146.345C51.6679 145.862 51.9045 145.418 52.2651 145.088C52.4894 144.854 52.7412 144.648 53.0151 144.475C53.2701 144.332 53.5491 144.236 53.8384 144.192C54.0582 144.153 54.2843 144.171 54.4956 144.243C54.6937 144.312 54.8733 144.426 55.021 144.575C55.2167 144.764 55.3601 145.001 55.4375 145.263C55.5095 145.547 55.4962 145.847 55.3994 146.124C55.2981 146.428 55.153 146.716 54.9687 146.978C54.7685 147.272 54.5411 147.547 54.2895 147.798C53.9292 148.16 53.5384 148.491 53.1215 148.786C52.7451 149.056 52.3336 149.273 51.8984 149.433C51.523 149.574 51.1178 149.619 50.7207 149.562C50.372 149.516 50.0474 149.359 49.7954 149.114C49.7439 149.064 49.6956 149.011 49.6508 148.956C49.6143 148.897 49.5852 148.834 49.5644 148.769C49.5584 148.74 49.5482 148.713 49.5341 148.688C49.5175 148.658 49.5312 148.607 49.5741 148.536C49.6186 148.466 49.658 148.403 49.6923 148.348C49.7479 148.255 49.7971 148.159 49.8398 148.06ZM54.0171 146.597C54.275 146.352 54.5058 146.081 54.7055 145.787C54.9326 145.424 54.9559 145.152 54.7754 144.972C54.6186 144.815 54.3686 144.827 54.0254 145.007C53.7409 145.163 53.4814 145.36 53.2554 145.593C53.0158 145.824 52.8066 146.085 52.6328 146.369C52.415 146.742 52.3941 147.016 52.5674 147.189C52.7241 147.346 52.9609 147.34 53.2793 147.173C53.5516 147.017 53.8001 146.823 54.0171 146.597V146.597Z" fill="#1A1A18"/>
<path d="M54.3525 151.158L53.0356 149.841C53.1176 149.772 53.1904 149.711 53.2524 149.659C53.3144 149.606 53.3647 149.562 53.4028 149.524C53.4702 149.458 53.5336 149.387 53.5928 149.313C53.6436 149.25 53.6856 149.197 53.7207 149.156C53.979 149.072 54.3775 148.932 54.916 148.737C55.3491 148.581 55.7775 148.428 56.2012 148.28C56.6245 148.132 56.9373 148.021 57.1397 147.947C57.5054 147.818 57.8093 147.703 58.0513 147.602C58.0923 147.662 58.1397 147.726 58.1949 147.795C58.2367 147.849 58.2812 147.901 58.3281 147.95C58.384 148.008 58.4443 148.061 58.5083 148.109C58.5567 148.143 58.6133 148.183 58.6768 148.228L55.813 151.091L56.232 151.51C56.1392 151.589 56.0581 151.658 55.9888 151.717C55.9204 151.777 55.8662 151.825 55.8281 151.863C55.7525 151.938 55.6808 152.017 55.6133 152.099C55.5557 152.169 55.5073 152.228 55.4683 152.274L55.0494 151.855L53.857 153.047C53.8233 152.998 53.7859 152.95 53.7452 152.906C53.6422 152.775 53.5743 152.693 53.5445 152.664C53.4775 152.595 53.4051 152.532 53.3282 152.476C53.2579 152.424 53.2022 152.383 53.1602 152.351L54.3525 151.158ZM55.1162 150.395L57.1948 148.316L54.1992 149.393L54.1826 149.461L55.1162 150.395Z" fill="#1A1A18"/>
<path d="M12.2417 125.636L10.0156 123.41L10.3223 123.104C11.0259 123.007 11.5355 122.927 11.8511 122.862C12.4138 122.755 12.9649 122.594 13.4966 122.38C14.0319 122.166 14.5205 121.85 14.9351 121.449C15.1797 121.219 15.3726 120.94 15.501 120.63C15.5637 120.507 15.5872 120.368 15.5683 120.232C15.5493 120.096 15.4888 119.968 15.395 119.868C15.2368 119.709 14.9936 119.708 14.6631 119.863C14.371 120.008 14.1056 120.201 13.8784 120.435L13.8139 120.399C13.8984 120.119 13.9249 119.825 13.8916 119.534C14.2143 119.326 14.5968 119.229 14.9799 119.259C15.3134 119.296 15.6237 119.448 15.8579 119.688C16.1683 119.972 16.3536 120.368 16.373 120.788C16.3638 121.051 16.3002 121.31 16.1862 121.547C16.0721 121.785 15.9101 121.996 15.7104 122.167C15.4156 122.474 15.0535 122.708 14.6528 122.851C14.4194 122.932 14.1796 122.993 13.936 123.034C13.8462 123.048 13.7055 123.065 13.5136 123.082C13.1567 123.116 12.7954 123.154 12.4296 123.197C12.1235 123.234 11.885 123.267 11.7143 123.296L11.6835 123.337L12.33 123.983C12.4135 124.067 12.5532 124.187 12.747 124.343C12.9414 124.499 13.0821 124.621 13.1694 124.708C13.0581 124.806 12.9619 124.891 12.8808 124.962C12.7998 125.033 12.7324 125.095 12.6801 125.147C12.58 125.247 12.5 125.333 12.4379 125.405C12.3765 125.476 12.311 125.553 12.2417 125.636Z" fill="#1A1A18"/>
<path d="M15.0483 128.443L12.8218 126.216L13.1284 125.91C13.8325 125.814 14.3421 125.733 14.6572 125.668C15.22 125.561 15.7712 125.4 16.3032 125.187C16.8386 124.973 17.3271 124.656 17.7417 124.255C17.9861 124.025 18.179 123.746 18.3076 123.436C18.3702 123.314 18.3936 123.175 18.3746 123.038C18.3555 122.902 18.295 122.775 18.2012 122.674C18.043 122.516 17.7998 122.515 17.4693 122.669C17.1773 122.814 16.9122 123.008 16.6851 123.242L16.6201 123.205C16.7047 122.925 16.7311 122.631 16.6978 122.34C17.0207 122.132 17.403 122.035 17.7861 122.065C18.1196 122.102 18.4298 122.254 18.6641 122.494C18.9746 122.778 19.16 123.174 19.1797 123.595C19.1704 123.858 19.1067 124.116 18.9927 124.354C18.8786 124.591 18.7167 124.802 18.5171 124.974C18.2221 125.281 17.8599 125.515 17.459 125.657C17.2257 125.738 16.9859 125.799 16.7422 125.84C16.6528 125.855 16.5122 125.872 16.3198 125.888C15.9629 125.922 15.6026 125.961 15.2363 126.004C14.9302 126.04 14.6917 126.074 14.521 126.103L14.4902 126.143L15.1362 126.789C15.2202 126.873 15.3593 126.993 15.5533 127.149C15.7476 127.305 15.8885 127.427 15.9761 127.515C15.8648 127.613 15.7681 127.697 15.687 127.768C15.606 127.839 15.5386 127.901 15.4864 127.953C15.3863 128.053 15.3062 128.139 15.2442 128.211C15.1826 128.282 15.1177 128.36 15.0483 128.443Z" fill="#1A1A18"/>
<path d="M18.2476 131.713L20.3946 128.96C19.5908 129.408 18.961 129.77 18.5049 130.044C18.0484 130.318 17.6564 130.568 17.3291 130.795C17.2851 130.747 17.2452 130.695 17.21 130.641C17.1742 130.584 17.1332 130.531 17.0874 130.482C17.0365 130.434 16.9814 130.391 16.9229 130.354C16.8666 130.317 16.8133 130.275 16.7637 130.23L18.5982 127.164C18.1905 127.463 17.7268 127.814 17.2071 128.216C16.6875 128.618 16.2302 128.98 15.835 129.301L15.6333 129.099L15.4366 128.902C16.1099 128.45 16.7922 127.989 17.4834 127.522C18.1739 127.053 18.8589 126.576 19.5386 126.091C19.5827 126.139 19.6234 126.19 19.6602 126.243C19.6966 126.297 19.7371 126.347 19.7813 126.395C19.833 126.443 19.8878 126.487 19.9453 126.528C20.0235 126.587 20.0689 126.622 20.0786 126.631L18.3325 129.6C19.3208 129.022 20.3134 128.443 21.3105 127.863C21.3544 127.911 21.3949 127.961 21.4316 128.015C21.4695 128.07 21.5118 128.123 21.5581 128.171C21.6052 128.215 21.6556 128.256 21.709 128.292C21.7622 128.329 21.8128 128.369 21.8603 128.413C21.2631 129.2 20.7701 129.861 20.3813 130.398C19.8867 131.087 19.4226 131.773 18.9892 132.455C18.9302 132.392 18.8755 132.326 18.8252 132.256C18.7739 132.184 18.7176 132.115 18.6567 132.051C18.5921 131.991 18.5236 131.934 18.4516 131.882C18.3801 131.83 18.312 131.774 18.2476 131.713Z" fill="#1A1A18"/>
<path d="M21.9878 135.454L24.1348 132.7C23.3306 133.148 22.7006 133.509 22.2447 133.784C21.7881 134.058 21.3964 134.308 21.0694 134.535C21.0253 134.487 20.9854 134.436 20.9502 134.381C20.9143 134.324 20.8731 134.271 20.8272 134.222C20.7762 134.174 20.7211 134.131 20.6626 134.093C20.6065 134.056 20.5534 134.015 20.504 133.97L22.338 130.903C21.9307 131.203 21.4672 131.554 20.9473 131.956C20.4273 132.358 19.9698 132.719 19.5748 133.041L19.3736 132.839L19.1763 132.642C19.8502 132.19 20.5325 131.73 21.2232 131.261C21.9141 130.793 22.5993 130.316 23.2789 129.832C23.3229 129.879 23.3636 129.93 23.4005 129.983C23.4367 130.037 23.477 130.087 23.5211 130.134C23.5729 130.183 23.6279 130.227 23.6856 130.269C23.7637 130.327 23.8091 130.362 23.8189 130.372L22.0723 133.34C23.0606 132.762 24.0534 132.183 25.0508 131.603C25.0946 131.651 25.1349 131.701 25.1714 131.754C25.2094 131.81 25.2517 131.862 25.2979 131.911C25.3452 131.955 25.3958 131.996 25.4493 132.032C25.5024 132.069 25.5528 132.109 25.6002 132.153C25.003 132.939 24.51 133.601 24.1212 134.138C23.6265 134.827 23.1627 135.512 22.7296 136.195C22.6706 136.133 22.6158 136.066 22.5655 135.996C22.5142 135.924 22.4579 135.856 22.397 135.791C22.3325 135.731 22.264 135.674 22.192 135.623C22.1205 135.57 22.0523 135.514 21.9878 135.454Z" fill="#1A1A18"/>
<path d="M25.8179 139.284L26.5757 137.558C26.4351 137.61 26.1403 137.719 25.6914 137.887C25.2925 138.037 24.9865 138.154 24.7734 138.239L24.6074 138.002L24.3701 137.836L26.7573 137.053C26.9556 136.592 27.1377 136.158 27.3037 135.75C27.4146 135.478 27.5956 135.028 27.8467 134.399C27.8936 134.446 27.9654 134.529 28.0635 134.646C28.1612 134.765 28.2149 134.828 28.2251 134.838C28.272 134.885 28.357 134.96 28.48 135.063L28.669 135.222C28.5049 135.602 28.392 135.856 28.3301 135.984C28.1783 136.319 28.064 136.581 27.9883 136.771C28.4976 136.604 29.0442 136.407 29.628 136.181L29.8555 136.408L30.0777 136.63C29.7056 136.726 29.2245 136.861 28.6343 137.034C28.1397 137.178 27.8594 137.261 27.793 137.28L27.3853 138.232C27.1348 138.859 26.8868 139.484 26.6412 140.107C26.5943 140.06 26.5215 139.976 26.4239 139.855C26.3272 139.733 26.2715 139.666 26.2579 139.652C26.2144 139.609 26.1324 139.539 26.0123 139.443C25.8931 139.347 25.8286 139.294 25.8179 139.284Z" fill="#1A1A18"/>
<path d="M28.1406 141.735C27.9579 141.559 27.8213 141.34 27.7427 141.098C27.6642 140.857 27.646 140.599 27.6899 140.349C27.805 139.73 28.121 139.165 28.5889 138.743C29.0431 138.243 29.6372 137.892 30.2939 137.735C30.5484 137.673 30.8147 137.678 31.0666 137.75C31.3186 137.822 31.5475 137.958 31.7309 138.145C31.917 138.322 32.0574 138.542 32.1403 138.785C32.2232 139.028 32.2461 139.288 32.207 139.542C32.0957 140.163 31.78 140.729 31.31 141.15C30.855 141.644 30.2623 141.992 29.6084 142.146C29.3491 142.212 29.0772 142.208 28.8198 142.136C28.5623 142.064 28.3282 141.926 28.1406 141.735V141.735ZM31.4521 138.494C31.2612 138.303 30.9668 138.309 30.5688 138.51C30.1197 138.768 29.7115 139.091 29.3574 139.469C29.0577 139.76 28.7952 140.087 28.5757 140.443C28.3042 140.895 28.2663 141.219 28.4619 141.414C28.6436 141.596 28.9642 141.555 29.4238 141.291C29.8864 141.011 30.3104 140.672 30.6851 140.283C31.0035 139.981 31.2679 139.627 31.4668 139.236C31.6226 138.907 31.6177 138.659 31.4521 138.494Z" fill="#1A1A18"/>
<path d="M28.1338 145.226L33.4014 139.958C33.4385 139.995 33.4968 140.063 33.5762 140.161C33.6558 140.26 33.7012 140.314 33.7114 140.325C33.7685 140.379 33.8289 140.43 33.8921 140.477C33.9551 140.524 34.0155 140.575 34.0728 140.629L33.4517 141.25C33.6859 141.109 33.9507 141.026 34.2237 141.009C34.3357 141.002 34.4478 141.02 34.5524 141.061C34.657 141.101 34.7517 141.164 34.8301 141.244C34.9969 141.411 35.1094 141.625 35.1532 141.857C35.1969 142.089 35.1697 142.329 35.0752 142.545C34.8619 143.091 34.527 143.581 34.0957 143.979C33.6348 144.494 33.0421 144.873 32.3814 145.077C32.1846 145.143 31.9737 145.154 31.771 145.109C31.5682 145.065 31.3813 144.967 31.23 144.825C31.0814 144.687 30.9912 144.497 30.978 144.294C30.9719 144.077 31.0111 143.861 31.0932 143.66L28.8306 145.922C28.6483 145.645 28.4111 145.408 28.1338 145.226H28.1338ZM31.4819 144.149C31.5957 144.214 31.7256 144.246 31.8566 144.24C31.9876 144.235 32.1143 144.192 32.2222 144.118C32.6125 143.906 32.9663 143.634 33.27 143.31C33.6182 142.983 33.9212 142.612 34.1709 142.205C34.3389 141.901 34.3428 141.67 34.1826 141.51C33.9883 141.315 33.6769 141.351 33.2486 141.618C32.9022 141.844 32.5825 142.109 32.2954 142.407C32.0214 142.669 31.7774 142.961 31.5679 143.278C31.3233 143.671 31.2946 143.961 31.4819 144.149Z" fill="#1A1A18"/>
<path d="M32.8394 145.406L33.1324 145.699L33.856 145.308C34.3707 145.023 34.8993 144.728 35.4419 144.423C35.9854 144.119 36.4938 143.818 36.9673 143.52C37.0096 143.566 37.0483 143.614 37.083 143.666C37.1162 143.716 37.1532 143.763 37.1939 143.807C37.2392 143.85 37.288 143.888 37.3399 143.923C37.3897 143.956 37.4371 143.994 37.4815 144.034C37.229 144.449 36.9774 144.864 36.7266 145.279C36.4756 145.695 36.2256 146.112 35.9766 146.529C35.8814 146.691 35.6364 147.117 35.2417 147.808L35.4995 148.066C35.459 148.093 35.4121 148.129 35.3565 148.173C35.3018 148.218 35.2383 148.276 35.167 148.348C35.105 148.41 35.0546 148.464 35.0157 148.51C34.9761 148.556 34.9302 148.615 34.8784 148.687L34.8282 148.637C34.8473 148.541 34.843 148.443 34.8156 148.35C34.7882 148.257 34.7385 148.171 34.6709 148.102C34.5274 147.934 34.2954 147.69 33.9751 147.37L33.5357 146.93C33.2198 146.614 32.9795 146.386 32.8164 146.247C32.7423 146.18 32.6546 146.13 32.5593 146.1C32.464 146.07 32.3634 146.06 32.2642 146.073L32.2183 146.027C32.2697 145.994 32.3186 145.957 32.3648 145.917C32.4268 145.864 32.4917 145.805 32.5581 145.739C32.6153 145.682 32.668 145.625 32.7163 145.569C32.7621 145.518 32.8033 145.464 32.8394 145.406V145.406ZM33.5107 146.077L34.4897 147.056L36.0493 144.558C35.5801 144.832 35.2645 145.016 35.1025 145.111C34.5498 145.436 34.0192 145.757 33.5107 146.077Z" fill="#1A1A18"/>
<path d="M39.7515 148.064L37.7959 150.02C37.6977 150.1 37.6271 150.209 37.5938 150.332C37.5938 150.386 37.606 150.439 37.6296 150.487C37.6531 150.535 37.6872 150.577 37.7295 150.61L37.5654 150.774C37.4455 150.748 37.3274 150.713 37.2119 150.671C37.101 150.638 36.9983 150.581 36.9107 150.505C36.8524 150.448 36.807 150.378 36.7774 150.302C36.7478 150.226 36.7346 150.144 36.7388 150.062C36.7528 149.857 36.8203 149.659 36.9346 149.487C36.7293 149.582 36.5029 149.621 36.2778 149.601C36.0863 149.583 35.9069 149.5 35.77 149.365C35.6676 149.268 35.5893 149.149 35.5415 149.017C35.4936 148.885 35.4776 148.744 35.4947 148.604C35.5546 148.256 35.7323 147.94 35.9981 147.708C36.2385 147.429 36.5745 147.251 36.9399 147.208C37.3169 147.229 37.684 147.337 38.0122 147.524C38.1221 147.576 38.2066 147.614 38.2691 147.638C38.3642 147.674 38.4637 147.696 38.5649 147.706C38.6281 147.695 38.6888 147.674 38.7441 147.642C38.8083 147.603 38.8671 147.557 38.919 147.503C39.0804 147.346 39.183 147.139 39.2095 146.915C39.2284 146.824 39.2256 146.729 39.2013 146.639C39.1769 146.549 39.1317 146.466 39.0694 146.396C38.9097 146.246 38.7005 146.158 38.481 146.151C38.3212 146.127 38.1581 146.154 38.0142 146.227L37.9781 146.191L38.3345 145.705C38.5953 145.663 38.8624 145.687 39.1114 145.775C39.3496 145.853 39.5668 145.985 39.7461 146.16C39.9823 146.383 40.134 146.681 40.1753 147.003C40.1937 147.201 40.1649 147.4 40.0912 147.585C40.0175 147.769 39.9011 147.933 39.7515 148.064ZM37.6485 148.773L38.3409 148.081C38.1924 148.027 38.0738 147.985 37.9839 147.953C37.8408 147.903 37.6902 147.877 37.5386 147.878C37.406 147.884 37.2773 147.925 37.1666 147.999C37.0262 148.091 36.8965 148.198 36.7798 148.319C36.6424 148.451 36.5297 148.606 36.4473 148.778C36.4114 148.837 36.3959 148.906 36.4033 148.974C36.4107 149.042 36.4406 149.106 36.4883 149.155C36.562 149.226 36.6572 149.271 36.7591 149.283C36.8609 149.294 36.9637 149.271 37.0513 149.218C37.2756 149.107 37.4779 148.957 37.6484 148.773H37.6485Z" fill="#1A1A18"/>
<path d="M83.3748 108.037L70.6738 120.738L78.7648 128.829" stroke="#1A1A18" stroke-width="0.5669" stroke-miterlimit="22.9256"/>
<path d="M60.6016 123.362L65.4986 118.465L66.5738 119.54C66.8057 119.772 66.9696 119.948 67.0655 120.068C67.1639 120.193 67.2271 120.343 67.2486 120.501C67.2775 120.773 67.2396 121.048 67.1383 121.303C67.037 121.557 66.8752 121.783 66.667 121.96C66.383 122.267 66.0172 122.486 65.6128 122.591C65.2689 122.676 64.9056 122.628 64.5948 122.458C64.4029 122.913 64.1675 123.515 63.8887 124.264C63.7036 124.765 63.5684 125.129 63.4829 125.357L63.2368 125.997C63.1515 125.908 63.0707 125.816 62.9947 125.719C62.897 125.598 62.836 125.525 62.8125 125.501C62.7242 125.416 62.6316 125.335 62.5352 125.259C62.4146 125.162 62.3433 125.104 62.3233 125.083L63.2217 122.984L63.6861 121.863L63.6509 121.828L61.3594 124.12C61.3115 124.073 61.2667 124.023 61.2251 123.971C61.0991 123.807 61.0298 123.719 61.0157 123.705C60.9402 123.632 60.8603 123.564 60.7764 123.5C60.6738 123.421 60.6157 123.376 60.6016 123.362ZM65.8638 119.615L63.9575 121.522C63.9748 121.547 63.9944 121.572 64.0161 121.594L64.0815 121.659C64.5225 122.1 65.0841 121.979 65.7666 121.296C65.8852 121.177 65.9956 121.05 66.0972 120.916C66.1823 120.825 66.2463 120.716 66.2847 120.597C66.3231 120.478 66.3349 120.352 66.3193 120.228C66.2597 120.048 66.1528 119.886 66.0098 119.761L65.8638 119.615Z" fill="#1A1A18"/>
<path d="M65.8013 128.49L63.5747 126.264L63.8818 125.957C64.5859 125.861 65.0955 125.78 65.4106 125.715C65.9735 125.608 66.5248 125.447 67.0566 125.234C67.592 125.019 68.0805 124.703 68.4951 124.302C68.7394 124.072 68.9323 123.793 69.061 123.483C69.1236 123.361 69.147 123.222 69.128 123.085C69.1089 122.949 69.0484 122.822 68.9546 122.721C68.7964 122.562 68.5527 122.562 68.2222 122.717C67.9304 122.862 67.6654 123.055 67.4385 123.289L67.373 123.252C67.4578 122.973 67.4842 122.678 67.4507 122.388C67.7735 122.179 68.1559 122.083 68.5391 122.113C68.8726 122.15 69.183 122.301 69.4175 122.541C69.7281 122.825 69.9134 123.221 69.9326 123.642C69.9235 123.905 69.8599 124.164 69.7459 124.401C69.632 124.638 69.4701 124.849 69.2705 125.021C68.9755 125.327 68.6135 125.561 68.2129 125.705C67.9794 125.786 67.7395 125.847 67.4956 125.887C67.4058 125.902 67.2651 125.919 67.0728 125.936C66.7158 125.969 66.3555 126.008 65.9893 126.051C65.6831 126.088 65.4448 126.12 65.2744 126.15L65.2437 126.19L65.8896 126.836C65.9736 126.92 66.1125 127.04 66.3062 127.196C66.5005 127.353 66.6416 127.474 66.7295 127.562C66.6177 127.66 66.521 127.744 66.44 127.815C66.3589 127.887 66.292 127.948 66.2398 128C66.1397 128.1 66.0591 128.187 65.9976 128.258C65.9355 128.33 65.8706 128.407 65.8013 128.49Z" fill="#1A1A18"/>
<path d="M68.7949 129.17L67.478 127.854C67.5596 127.784 67.6328 127.723 67.6948 127.671C67.7568 127.619 67.8071 127.574 67.8452 127.536C67.9127 127.47 67.976 127.399 68.0347 127.325C68.0859 127.262 68.1274 127.209 68.1631 127.168C68.4214 127.084 68.8197 126.944 69.3579 126.749C69.791 126.592 70.2196 126.44 70.6436 126.293C71.0664 126.144 71.3799 126.034 71.5816 125.959C71.9473 125.83 72.2512 125.715 72.4932 125.614C72.5342 125.673 72.582 125.738 72.6367 125.807C72.6924 125.876 72.7368 125.929 72.7705 125.962C72.8262 126.02 72.8863 126.073 72.9502 126.121C72.999 126.155 73.0557 126.195 73.1192 126.24L70.2554 129.104L70.6743 129.522C70.5816 129.602 70.5005 129.67 70.4312 129.729C70.3623 129.789 70.3088 129.837 70.2705 129.875C70.195 129.95 70.1235 130.028 70.0562 130.11C69.9981 130.181 69.9497 130.24 69.9107 130.286L69.4917 129.867L68.2993 131.06C68.2657 131.01 68.2283 130.963 68.1875 130.918C68.084 130.787 68.0166 130.706 67.9868 130.676C67.9197 130.607 67.8472 130.544 67.77 130.487C67.7002 130.436 67.6445 130.395 67.6025 130.363L68.7949 129.17ZM69.5586 128.407L71.6372 126.328L68.6416 127.405L68.625 127.473L69.5586 128.407Z" fill="#1A1A18"/>
<path d="M71.4136 134.103L69.1875 131.876L69.4946 131.569C70.1982 131.473 70.7079 131.393 71.0234 131.328C71.5863 131.221 72.1374 131.06 72.6689 130.846C73.2043 130.632 73.6928 130.315 74.1074 129.915C74.3519 129.685 74.5449 129.406 74.6738 129.096C74.7364 128.974 74.7598 128.835 74.7408 128.698C74.7217 128.562 74.6612 128.434 74.5674 128.334C74.4092 128.175 74.1655 128.175 73.835 128.33C73.5431 128.474 73.2779 128.667 73.0508 128.901L72.9858 128.865C73.0706 128.585 73.097 128.291 73.0635 128.001C73.3863 127.792 73.7687 127.695 74.1519 127.726C74.4854 127.762 74.7959 127.914 75.0303 128.154C75.3409 128.438 75.5262 128.834 75.5454 129.255C75.5361 129.518 75.4725 129.776 75.3584 130.013C75.2444 130.251 75.0824 130.462 74.8828 130.633C74.588 130.94 74.2259 131.174 73.8252 131.317C73.592 131.398 73.3522 131.46 73.1084 131.5C73.0186 131.515 72.8776 131.531 72.6855 131.548C72.3286 131.582 71.9673 131.62 71.6015 131.664C71.2959 131.701 71.0576 131.733 70.8872 131.763L70.8559 131.803L71.5024 132.449C71.5859 132.533 71.7251 132.653 71.9189 132.809C72.1133 132.965 72.2542 133.087 72.3418 133.174C72.23 133.272 72.1336 133.357 72.0527 133.428C71.9717 133.499 71.9047 133.561 71.8525 133.613C71.7524 133.713 71.6719 133.799 71.6103 133.871C71.5483 133.942 71.4828 134.02 71.4136 134.103Z" fill="#1A1A18"/>
<path d="M86.3984 105.919L99.0994 93.218L91.0084 85.127" stroke="#1A1A18" stroke-width="0.5669" stroke-miterlimit="22.9256"/>
<path d="M91.3076 62.187L95.3403 58.1543C94.9978 58.1211 94.6577 58.067 94.3218 57.9922C94.3593 57.9043 94.3907 57.8139 94.4155 57.7217C94.4404 57.6251 94.4591 57.5271 94.4717 57.4282L94.5288 57.3711C94.9005 57.5071 95.2803 57.6198 95.666 57.7085C95.9844 57.7798 96.3826 57.8594 96.8608 57.9473L96.8652 58.0229L92.0044 62.8838C91.9704 62.8343 91.9328 62.7873 91.8921 62.7432C91.7891 62.6118 91.7227 62.5308 91.6919 62.5C91.6246 62.432 91.5523 62.3691 91.4756 62.312C91.4058 62.2617 91.3496 62.2202 91.3076 62.187Z" fill="#1A1A18"/>
<path d="M97.5713 63.1118L97.5215 63.1616C97.602 63.2977 97.6524 63.4496 97.6692 63.6069C97.6859 63.7642 97.6687 63.9232 97.6187 64.0732C97.5108 64.4457 97.3061 64.7828 97.0254 65.0502C96.6549 65.4604 96.1505 65.7252 95.6025 65.7973C95.3711 65.8246 95.1365 65.798 94.9171 65.7197C94.6976 65.6414 94.4992 65.5133 94.3374 65.3457C94.1807 65.1908 94.0526 65.0094 93.959 64.81C93.8672 64.6097 93.8219 64.3912 93.8267 64.1709C93.8353 63.9158 93.9035 63.6663 94.0259 63.4423C94.1576 63.1845 94.3295 62.9493 94.5352 62.7455C94.8221 62.4517 95.1764 62.2325 95.5674 62.1069C95.7217 62.0444 95.8881 62.0174 96.0543 62.0279C96.2205 62.0383 96.3821 62.086 96.5274 62.1674L96.5772 62.1176C96.4571 61.8804 96.4331 61.606 96.5103 61.3515C96.5874 61.0451 96.749 60.7665 96.9766 60.5473C97.1316 60.3708 97.3227 60.2297 97.5371 60.1337C97.7514 60.0377 97.9839 59.9889 98.2188 59.9907C98.5987 60.0135 98.9553 60.1811 99.2154 60.4589C99.3591 60.5958 99.4825 60.7527 99.5816 60.9248C99.6643 61.0973 99.7048 61.2871 99.6997 61.4785C99.7047 61.6863 99.6691 61.8932 99.5948 62.0874C99.5018 62.2968 99.3678 62.4856 99.2007 62.6425C98.9746 62.8826 98.6907 63.0607 98.376 63.1596C98.1111 63.2441 97.8243 63.227 97.5713 63.1118V63.1118ZM96.6743 62.6855C96.4173 62.6727 96.1648 62.7562 95.9663 62.9199C95.7301 63.0787 95.5106 63.261 95.311 63.4639C95.0054 63.7427 94.7618 64.0827 94.5962 64.4619C94.5484 64.5509 94.5288 64.6524 94.5399 64.7528C94.5511 64.8533 94.5925 64.948 94.6587 65.0244C94.8134 65.1792 95.0646 65.1637 95.4121 64.978C95.7029 64.8193 95.9686 64.6182 96.2002 64.3813C96.3565 64.2252 96.5027 64.0592 96.6377 63.8842C96.754 63.7385 96.8501 63.5777 96.9233 63.4062C96.9794 63.3105 97.0048 63.1998 96.9963 63.0892C96.9877 62.9785 96.9456 62.8731 96.8755 62.7871C96.8208 62.7329 96.7504 62.6974 96.6743 62.6855H96.6743ZM97.601 61.3145C97.4968 61.4178 97.3991 61.5275 97.3086 61.6431C97.2307 61.7412 97.1659 61.8491 97.1157 61.9639C97.0706 62.0658 97.0471 62.1761 97.0468 62.2876C97.0446 62.333 97.0516 62.3784 97.0673 62.4211C97.0829 62.4638 97.1071 62.5029 97.1382 62.5361C97.2802 62.6782 97.4946 62.6738 97.7802 62.521C98.0265 62.3818 98.251 62.2072 98.4467 62.0029C98.642 61.822 98.8065 61.6104 98.9336 61.3765C98.9959 61.2875 99.0259 61.1798 99.0187 61.0714C99.0115 60.963 98.9675 60.8603 98.894 60.7803C98.7475 60.6338 98.5356 60.6361 98.2583 60.7871C98.0162 60.9321 97.795 61.1095 97.6011 61.3145H97.601Z" fill="#1A1A18"/>
<path d="M98.6924 69.5718L100.839 66.8188C100.035 67.2661 99.4053 67.6271 98.9492 67.9019C98.4927 68.1758 98.1009 68.4263 97.7739 68.6533C97.7298 68.6054 97.6899 68.5538 97.6548 68.499C97.6188 68.4422 97.5776 68.3889 97.5317 68.3398C97.4809 68.2924 97.426 68.2496 97.3677 68.2119C97.3114 68.1749 97.2581 68.1335 97.2085 68.0879L99.042 65.022C98.6353 65.3213 98.1719 65.6721 97.6519 66.0742C97.1323 66.4766 96.675 66.8382 96.2798 67.1592L96.0781 66.9576L95.8813 66.7608C96.5547 66.3081 97.2368 65.8477 97.9277 65.3795C98.6187 64.9112 99.3039 64.4347 99.9834 63.9498C100.028 63.9974 100.068 64.0482 100.105 64.1016C100.141 64.1552 100.182 64.2058 100.226 64.253C100.278 64.3011 100.333 64.3458 100.39 64.3868C100.468 64.4454 100.514 64.48 100.523 64.4898L98.7769 67.4581C99.7651 66.8799 100.758 66.3011 101.755 65.7217C101.799 65.7691 101.839 65.8195 101.876 65.8726C101.914 65.9281 101.956 65.9805 102.002 66.0293C102.05 66.0735 102.1 66.114 102.154 66.1504C102.207 66.1872 102.258 66.2276 102.305 66.2715C101.708 67.0577 101.214 67.7191 100.826 68.2559C100.332 68.9454 99.8677 69.6312 99.4341 70.3135C99.3751 70.2508 99.3203 70.1842 99.27 70.1143C99.2187 70.0423 99.1624 69.9739 99.1016 69.9097C99.037 69.849 98.9685 69.7925 98.8965 69.7408C98.825 69.6887 98.7569 69.6323 98.6924 69.5718V69.5718Z" fill="#1A1A18"/>
<path d="M102.432 73.3115L104.579 70.5586C103.775 71.0064 103.146 71.3675 102.689 71.6421C102.233 71.916 101.841 72.1664 101.514 72.3931C101.47 72.3452 101.43 72.2936 101.395 72.2388C101.359 72.1822 101.318 72.129 101.272 72.0801C101.221 72.0325 101.166 71.9896 101.107 71.9517C101.051 71.9147 100.998 71.8733 100.948 71.8277L102.782 68.7623C102.375 69.0611 101.911 69.4116 101.392 69.814C100.872 70.2163 100.415 70.578 100.02 70.899L99.8179 70.6973L99.6211 70.5006C100.294 70.0479 100.977 69.5876 101.668 69.1197C102.358 68.651 103.043 68.1742 103.723 67.6895C103.767 67.7372 103.808 67.7879 103.845 67.8414C103.881 67.8949 103.922 67.9455 103.966 67.9928C104.018 68.0409 104.072 68.0856 104.13 68.1265C104.208 68.1851 104.253 68.2198 104.263 68.2295L102.517 71.1983C103.505 70.6202 104.498 70.0412 105.495 69.4615C105.539 69.509 105.579 69.5596 105.616 69.6128C105.654 69.6684 105.696 69.7208 105.743 69.7696C105.79 69.8136 105.84 69.8539 105.894 69.8902C105.947 69.9269 105.997 69.9674 106.045 70.0113C105.448 70.7979 104.955 71.4595 104.566 71.9961C104.071 72.6851 103.607 73.3708 103.174 74.0533C103.115 73.9905 103.06 73.924 103.01 73.854C102.958 73.782 102.902 73.7136 102.841 73.6495C102.777 73.5887 102.708 73.5323 102.636 73.4805C102.565 73.4285 102.497 73.372 102.432 73.3115V73.3115Z" fill="#1A1A18"/>
<path d="M105.067 75.9463L109.963 71.0498L111.038 72.1245C111.211 72.292 111.375 72.4682 111.53 72.6523C111.628 72.7777 111.692 72.927 111.713 73.085C111.742 73.3573 111.704 73.6326 111.603 73.887C111.502 74.1414 111.34 74.3672 111.131 74.545C110.847 74.8515 110.482 75.0702 110.077 75.1753C109.733 75.2605 109.37 75.2131 109.06 75.0425C108.867 75.4976 108.632 76.0997 108.353 76.8487C108.168 77.3497 108.033 77.7141 107.947 77.9419L107.702 78.5811C107.616 78.4926 107.535 78.3999 107.459 78.3033C107.362 78.1822 107.301 78.1089 107.277 78.0855C107.189 78.0002 107.097 77.9197 107 77.8443C106.879 77.7466 106.808 77.6877 106.788 77.6675L107.687 75.5679L108.15 74.4478L108.115 74.4126L105.824 76.7036C105.777 76.6568 105.732 76.6072 105.69 76.5552C105.564 76.3911 105.495 76.3028 105.481 76.2891C105.406 76.2161 105.326 76.1481 105.241 76.0855C105.138 76.0059 105.081 75.96 105.067 75.9463ZM110.328 72.1997L108.422 74.1055C108.439 74.1317 108.459 74.156 108.48 74.1782L108.546 74.2441C108.987 74.6846 109.548 74.5635 110.231 73.8809C110.35 73.7614 110.46 73.6342 110.562 73.5C110.647 73.4085 110.711 73.2996 110.749 73.1809C110.788 73.0621 110.8 72.9364 110.785 72.8125C110.724 72.6324 110.617 72.4714 110.475 72.3462L110.328 72.1997Z" fill="#1A1A18"/>
<path d="M110.266 81.0742L108.04 78.8481L108.347 78.5415C109.05 78.4453 109.56 78.3647 109.875 78.2998C110.438 78.1925 110.989 78.0313 111.521 77.8184C112.056 77.604 112.545 77.2876 112.959 76.8867C113.204 76.657 113.397 76.3779 113.525 76.0679C113.588 75.9452 113.612 75.8062 113.593 75.6697C113.574 75.5332 113.513 75.406 113.419 75.3052C113.261 75.1475 113.017 75.1462 112.688 75.3013C112.395 75.4458 112.13 75.6392 111.903 75.873L111.838 75.8369C111.922 75.5569 111.949 75.2627 111.916 74.9722C112.239 74.7633 112.621 74.6666 113.004 74.6973C113.338 74.734 113.648 74.8854 113.882 75.1255C114.192 75.4098 114.378 75.8055 114.397 76.2261C114.388 76.4893 114.324 76.7477 114.21 76.9851C114.096 77.2225 113.934 77.4337 113.735 77.6055C113.44 77.9119 113.078 78.1459 112.677 78.2891C112.444 78.3701 112.204 78.4311 111.96 78.4712C111.871 78.4863 111.73 78.5029 111.538 78.5195C111.181 78.5532 110.82 78.5928 110.454 78.6353C110.148 78.6719 109.909 78.7049 109.739 78.7344L109.708 78.7749L110.354 79.4214C110.438 79.5049 110.578 79.625 110.771 79.7803C110.966 79.937 111.106 80.0586 111.194 80.1465C111.083 80.2441 110.985 80.3286 110.905 80.3994C110.824 80.4707 110.757 80.5325 110.705 80.585C110.604 80.6851 110.524 80.7705 110.462 80.8423C110.4 80.9136 110.335 80.9912 110.266 81.0742Z" fill="#1A1A18"/>
<path d="M117.202 79.0737L117.101 79.1147C117.079 79.0458 117.048 78.9806 117.007 78.9214C116.964 78.8593 116.915 78.8011 116.861 78.7476C116.745 78.6325 116.591 78.5643 116.428 78.5561C116.234 78.5444 116.041 78.5676 115.855 78.6245C115.663 78.677 115.478 78.7557 115.307 78.8584C115.098 79.0005 114.927 79.1186 114.792 79.2119C114.529 79.395 114.283 79.6013 114.056 79.8281L114.064 79.8901C114.224 79.8412 114.394 79.8351 114.557 79.8726C114.719 79.91 114.869 79.9897 114.992 80.1035C115.138 80.245 115.249 80.4194 115.315 80.6121C115.381 80.8049 115.401 81.0106 115.372 81.2124C115.288 81.7136 115.035 82.171 114.656 82.5088C114.266 82.9367 113.742 83.2186 113.17 83.3076C112.939 83.346 112.702 83.3286 112.479 83.2568C112.255 83.185 112.052 83.061 111.887 82.895C111.792 82.7966 111.711 82.6849 111.648 82.5635C111.583 82.4474 111.536 82.3216 111.511 82.1909C111.468 81.9072 111.498 81.6173 111.597 81.3481C111.702 81.0502 111.847 80.7679 112.028 80.5088C112.222 80.2277 112.442 79.9652 112.685 79.7246C113.145 79.2572 113.66 78.8473 114.219 78.5039C114.726 78.1709 115.308 77.9677 115.912 77.9121C116.15 77.8996 116.389 77.9405 116.609 78.0317C116.821 78.1225 117.012 78.2533 117.173 78.417C117.261 78.5 117.334 78.5972 117.39 78.7046C117.325 78.8301 117.262 78.9531 117.202 79.0737ZM112.955 80.9292C112.697 81.1748 112.465 81.4472 112.264 81.7417C112.036 82.106 112.013 82.3783 112.193 82.5586C112.353 82.7188 112.605 82.7085 112.949 82.5278C113.239 82.3716 113.503 82.1724 113.733 81.937C113.983 81.6998 114.201 81.4307 114.38 81.1367C114.579 80.7817 114.588 80.5142 114.408 80.334C114.251 80.1772 114.014 80.1833 113.695 80.3521C113.422 80.5077 113.173 80.7021 112.955 80.9292V80.9292Z" fill="#1A1A18"/>
<path d="M119.621 80.8643C119.832 81.0808 119.968 81.3597 120.008 81.6596C120.048 81.9594 119.991 82.2643 119.844 82.5288C119.523 83.2096 119.074 83.8225 118.522 84.3345C118.092 84.788 117.617 85.1981 117.106 85.5591C116.791 85.7699 116.444 85.9292 116.079 86.0308C115.847 86.1086 115.598 86.1219 115.359 86.0691C115.12 86.0162 114.9 85.8994 114.723 85.731C114.516 85.5369 114.384 85.2777 114.346 84.9971C114.324 84.6711 114.386 84.3449 114.526 84.0498C114.676 83.6935 114.87 83.3573 115.103 83.0488C115.366 82.7082 115.652 82.3857 115.958 82.0835C116.259 81.783 116.578 81.501 116.913 81.2392C117.199 81.0067 117.517 80.8151 117.856 80.6699C118.133 80.5119 118.453 80.4456 118.77 80.4805C119.087 80.5154 119.385 80.6498 119.621 80.8643V80.8643ZM116.619 82.9165C116.103 83.4059 115.623 83.9328 115.184 84.4927C114.896 84.9097 114.851 85.217 115.049 85.4146C115.225 85.5903 115.532 85.5262 115.97 85.2222C116.562 84.7691 117.118 84.2702 117.633 83.73C118.197 83.1966 118.715 82.6162 119.181 81.9951C119.428 81.6226 119.467 81.3527 119.299 81.1856C119.114 81.0005 118.813 81.051 118.395 81.3369C117.76 81.8134 117.166 82.3417 116.619 82.9165V82.9165Z" fill="#1A1A18"/>
<path d="M85.5483 70.6328L83.3223 68.4067L83.6294 68.0996C84.333 68.0034 84.8426 67.9229 85.1582 67.8579C85.721 67.7509 86.272 67.5897 86.8037 67.3765C87.3389 67.1623 87.8273 66.846 88.2417 66.4453C88.4863 66.2156 88.6793 65.9365 88.8076 65.6265C88.8706 65.5038 88.8942 65.3647 88.8753 65.2281C88.8563 65.0915 88.7957 64.9641 88.7016 64.8633C88.5439 64.7056 88.2999 64.7044 87.9697 64.8599C87.6777 65.0042 87.4124 65.1974 87.1855 65.4312L87.1206 65.3955C87.2048 65.1155 87.2312 64.8213 87.1982 64.5308C87.5208 64.3217 87.9034 64.225 88.2866 64.2559C88.62 64.2924 88.9303 64.4436 89.1645 64.6836C89.4753 64.9679 89.6606 65.3639 89.6797 65.7847C89.6705 66.0478 89.6069 66.3061 89.493 66.5434C89.379 66.7808 89.2171 66.9919 89.0175 67.1636C88.7224 67.4702 88.3602 67.7043 87.9594 67.8477C87.7259 67.9284 87.4859 67.9894 87.2422 68.0298C87.1528 68.0449 87.0122 68.0615 86.8198 68.0781C86.4629 68.1118 86.1025 68.1509 85.7363 68.1938C85.4301 68.2305 85.1914 68.2632 85.0215 68.2925L84.9907 68.333L85.6372 68.9795C85.7207 69.063 85.8598 69.1836 86.0532 69.3389C86.248 69.4956 86.3886 69.6167 86.4765 69.7046C86.3647 69.8027 86.268 69.8867 86.187 69.958C86.1059 70.0293 86.0395 70.0908 85.9868 70.1436C85.8871 70.2432 85.8061 70.3291 85.7446 70.4004C85.6826 70.4722 85.6177 70.5498 85.5483 70.6328Z" fill="#1A1A18"/>
<path d="M88.3545 73.439L86.1284 71.2129L86.4355 70.9058C87.1392 70.8096 87.6488 70.729 87.9644 70.6641C88.5272 70.5574 89.0783 70.3961 89.6099 70.1826C90.145 69.9684 90.6334 69.6521 91.0479 69.2515C91.2925 69.0218 91.4854 68.7426 91.6138 68.4326C91.6767 68.3101 91.7004 68.1711 91.6815 68.0346C91.6627 67.8981 91.6022 67.7708 91.5083 67.6699C91.3501 67.5117 91.1064 67.5112 90.7759 67.666C90.484 67.8107 90.2189 68.0038 89.9917 68.2373L89.9268 68.2017C90.0115 67.9218 90.0379 67.6274 90.0044 67.3369C90.3271 67.1281 90.7096 67.0315 91.0928 67.062C91.4263 67.0987 91.7368 67.2501 91.9712 67.4902C92.2818 67.7744 92.4669 68.1703 92.4858 68.5908C92.4768 68.854 92.4133 69.1124 92.2994 69.3497C92.1854 69.587 92.0234 69.7982 91.8237 69.9697C91.5287 70.2766 91.1665 70.5108 90.7656 70.6538C90.5323 70.7347 90.2925 70.7958 90.0488 70.8364C89.959 70.8511 89.8184 70.8677 89.6265 70.8848C89.2695 70.9185 88.9082 70.9569 88.5424 71C88.2363 71.0366 87.998 71.0695 87.8276 71.0986L87.7968 71.1392L88.4434 71.7856C88.5268 71.8691 88.666 71.9897 88.8598 72.1455C89.0542 72.3018 89.1951 72.4235 89.2827 72.5107C89.1709 72.6089 89.0742 72.6929 88.9936 72.7646C88.9126 72.8359 88.8457 72.897 88.7929 72.9497C88.6933 73.0493 88.6128 73.1357 88.5513 73.207C88.4888 73.2783 88.4238 73.356 88.3545 73.439Z" fill="#1A1A18"/>
<path d="M91.5542 76.71L93.7012 73.9565C92.8975 74.4038 92.2675 74.765 91.8111 75.04C91.3545 75.314 90.9628 75.5645 90.6358 75.7915C90.5919 75.7434 90.5522 75.6916 90.5171 75.6367C90.4808 75.5802 90.4394 75.5271 90.3936 75.478C90.3428 75.4307 90.2881 75.3877 90.23 75.3496C90.1736 75.3127 90.1202 75.2714 90.0703 75.2261L91.9043 72.1597C91.4971 72.4595 91.0336 72.8104 90.5137 73.2124C89.9947 73.6143 89.5373 73.9759 89.1416 74.2974L88.94 74.0957L88.7432 73.899C89.4165 73.4463 90.0987 72.9859 90.7896 72.5176C91.481 72.0489 92.1662 71.5723 92.8452 71.0879C92.8896 71.1354 92.9303 71.1861 92.9668 71.2398C93.0032 71.2933 93.0437 71.3439 93.0879 71.3911C93.1396 71.4393 93.1944 71.484 93.252 71.5249C93.3306 71.5831 93.3755 71.6182 93.3853 71.6279L91.6387 74.5962C92.6275 74.0176 93.6203 73.4388 94.6172 72.8599C94.6613 72.907 94.7016 72.9574 94.7378 73.0108C94.7758 73.0662 94.8181 73.1186 94.8643 73.1675C94.9116 73.2117 94.9622 73.2522 95.0157 73.2886C95.0691 73.325 95.1197 73.3655 95.167 73.4097C94.5694 74.1958 94.0762 74.8573 93.6875 75.3941C93.1939 76.083 92.73 76.7689 92.2959 77.4517C92.2372 77.3887 92.1825 77.322 92.1324 77.252C92.0806 77.1803 92.0242 77.1121 91.9634 77.0479C91.8988 76.9872 91.8305 76.9306 91.7588 76.8784C91.6872 76.8265 91.6189 76.7702 91.5542 76.71Z" fill="#1A1A18"/>
<path d="M95.2939 80.4497L97.4409 77.6963C96.6377 78.144 96.0078 78.5054 95.5513 78.7803C95.0948 79.0542 94.7028 79.3046 94.3755 79.5313C94.3316 79.4832 94.292 79.4314 94.2569 79.3765C94.2207 79.3202 94.1795 79.2673 94.1339 79.2183C94.0829 79.1708 94.028 79.1277 93.9698 79.0894C93.9134 79.0525 93.86 79.0112 93.8101 78.9659L95.6446 75.8999C95.2369 76.1993 94.7732 76.55 94.2535 76.9522C93.7345 77.354 93.2771 77.7157 92.8814 78.0372L92.6798 77.8355L92.483 77.6387C93.1563 77.1861 93.8386 76.7258 94.5299 76.2579C95.2208 75.7886 95.9059 75.3119 96.5851 74.8277C96.6294 74.8751 96.6701 74.9259 96.7066 74.9796C96.743 75.0331 96.7835 75.0837 96.8277 75.1309C96.8794 75.1791 96.9342 75.2238 96.9918 75.2647C97.0704 75.3228 97.1153 75.358 97.1251 75.3677L95.379 78.3365C96.3678 77.7579 97.3604 77.1789 98.357 76.5997C98.4012 76.647 98.4417 76.6976 98.4781 76.751C98.516 76.8065 98.5583 76.859 98.6046 76.9078C98.6517 76.9518 98.7021 76.9921 98.7554 77.0284C98.8089 77.0648 98.8595 77.1053 98.9068 77.1495C98.3096 77.9361 97.8166 78.5977 97.4278 79.1343C96.9337 79.8228 96.4696 80.5085 96.0357 81.1915C95.977 81.1285 95.9223 81.0618 95.8721 80.9918C95.8204 80.92 95.764 80.8518 95.7032 80.7877C95.6386 80.727 95.5702 80.6704 95.4986 80.6182C95.427 80.5663 95.3586 80.51 95.2939 80.4497Z" fill="#1A1A18"/>
<path d="M97.9287 83.0845L102.825 78.188L103.9 79.2627C104.132 79.4951 104.296 79.6709 104.392 79.79C104.49 79.9157 104.553 80.0652 104.575 80.2231C104.604 80.4954 104.566 80.7706 104.465 81.0249C104.364 81.2792 104.202 81.505 103.994 81.6826C103.71 81.9891 103.344 82.2079 102.939 82.313C102.596 82.3983 102.232 82.3511 101.921 82.1807C101.729 82.6357 101.493 83.2378 101.215 83.9868C101.031 84.4873 100.896 84.8516 100.81 85.0796L100.563 85.7192C100.478 85.6306 100.397 85.5377 100.321 85.4409C100.224 85.3203 100.163 85.2471 100.139 85.2236C100.051 85.1384 99.9586 85.0578 99.8623 84.9819C99.7412 84.8843 99.6699 84.8257 99.6499 84.8057L100.548 82.7061L101.013 81.5854L100.978 81.5503L98.686 83.8418C98.6382 83.795 98.5933 83.7453 98.5518 83.6929C98.4258 83.5288 98.3564 83.4409 98.3427 83.4272C98.2673 83.3543 98.1874 83.2862 98.1035 83.2231C98.0005 83.1436 97.9424 83.0981 97.9287 83.0845ZM103.19 79.3379L101.284 81.2436C101.301 81.2697 101.321 81.2939 101.343 81.3159L101.409 81.3818C101.849 81.8222 102.411 81.7011 103.093 81.0185C103.212 80.8993 103.322 80.7722 103.424 80.6382C103.509 80.5468 103.573 80.4378 103.611 80.3191C103.65 80.2003 103.662 80.0746 103.646 79.9507C103.587 79.7704 103.479 79.6094 103.336 79.4843L103.19 79.3379Z" fill="#1A1A18"/>
<path d="M103.128 88.2124L100.902 85.9863L101.209 85.6792C101.913 85.583 102.422 85.5024 102.738 85.4375C103.301 85.3305 103.852 85.1693 104.383 84.9561C104.918 84.7418 105.407 84.4256 105.821 84.0249C106.066 83.7952 106.259 83.5161 106.387 83.2061C106.45 83.0834 106.474 82.9443 106.455 82.8077C106.436 82.6711 106.375 82.5437 106.281 82.4429C106.123 82.2852 105.88 82.284 105.549 82.4395C105.257 82.5838 104.992 82.777 104.765 83.0107L104.7 82.9751C104.784 82.6951 104.811 82.4009 104.778 82.1104C105.1 81.9013 105.483 81.8046 105.866 81.8355C106.2 81.872 106.51 82.0232 106.744 82.2632C107.055 82.5475 107.24 82.9435 107.259 83.3643C107.25 83.6274 107.187 83.8857 107.073 84.123C106.959 84.3604 106.797 84.5715 106.597 84.7432C106.302 85.0498 105.94 85.2839 105.539 85.4272C105.306 85.5083 105.066 85.5692 104.822 85.6094C104.732 85.6245 104.592 85.6411 104.399 85.6577C104.042 85.6914 103.682 85.7305 103.316 85.7734C103.01 85.8101 102.771 85.8428 102.601 85.8721L102.57 85.9126L103.217 86.5591C103.3 86.6426 103.439 86.7632 103.633 86.9185C103.828 87.0752 103.968 87.1963 104.056 87.2842C103.944 87.3823 103.848 87.4663 103.767 87.5376C103.685 87.6089 103.619 87.6704 103.566 87.7231C103.467 87.8228 103.386 87.9087 103.324 87.98C103.262 88.0518 103.197 88.1294 103.128 88.2124Z" fill="#1A1A18"/>
<path d="M110.064 86.2119L109.962 86.2529C109.942 86.1838 109.91 86.1183 109.869 86.0591C109.826 85.997 109.777 85.9388 109.724 85.8852C109.607 85.7704 109.453 85.7023 109.29 85.6938C109.097 85.6823 108.903 85.7055 108.718 85.7622C108.525 85.8148 108.34 85.8936 108.169 85.9966C107.96 86.1382 107.789 86.2563 107.655 86.3496C107.392 86.5327 107.145 86.7389 106.918 86.9658L106.926 87.0283C107.086 86.9793 107.256 86.9733 107.418 87.0107C107.581 87.0482 107.731 87.1278 107.854 87.2417C108 87.3831 108.111 87.5573 108.177 87.75C108.244 87.9427 108.263 88.1483 108.234 88.3501C108.15 88.8514 107.897 89.309 107.518 89.6469C107.128 90.0748 106.604 90.3567 106.032 90.4458C105.801 90.4839 105.564 90.4663 105.341 90.3945C105.117 90.3226 104.915 90.1986 104.749 90.0327C104.654 89.9345 104.573 89.8228 104.51 89.7011C104.444 89.5853 104.398 89.4594 104.373 89.3286C104.33 89.0451 104.359 88.7554 104.458 88.4863C104.564 88.1884 104.709 87.9061 104.89 87.6469C105.084 87.3657 105.305 87.1031 105.547 86.8622C106.008 86.3949 106.523 85.985 107.082 85.6416C107.589 85.3087 108.17 85.1055 108.774 85.0497C109.013 85.0373 109.251 85.0782 109.472 85.1694C109.683 85.2601 109.874 85.391 110.036 85.5546C110.123 85.6379 110.196 85.7351 110.252 85.8422C110.187 85.9678 110.124 86.0913 110.064 86.2119ZM105.817 88.0669C105.559 88.3125 105.327 88.5849 105.126 88.8794C104.898 89.2437 104.875 89.5161 105.055 89.6968C105.215 89.857 105.467 89.8465 105.812 89.6656C106.101 89.5094 106.366 89.3102 106.596 89.0747C106.845 88.8377 107.063 88.5688 107.242 88.2749C107.441 87.9199 107.45 87.6522 107.27 87.4717C107.113 87.315 106.876 87.321 106.558 87.4898C106.284 87.6454 106.035 87.8398 105.817 88.0669V88.0669Z" fill="#1A1A18"/>
<path d="M108.927 91.6987L107.61 90.3818C107.692 90.312 107.765 90.251 107.827 90.1987C107.889 90.1465 107.939 90.1021 107.978 90.064C108.045 89.9978 108.108 89.9276 108.167 89.854C108.218 89.7905 108.26 89.7373 108.295 89.6963C108.554 89.6118 108.952 89.4721 109.491 89.2773C109.923 89.1201 110.352 88.9677 110.776 88.8203C111.199 88.6723 111.512 88.5614 111.714 88.4873C112.08 88.3574 112.383 88.2422 112.625 88.1416C112.667 88.2017 112.714 88.2656 112.769 88.335C112.825 88.4043 112.869 88.4565 112.903 88.4902C112.959 88.5477 113.019 88.6007 113.083 88.6489C113.131 88.6826 113.188 88.7227 113.251 88.7676L110.388 91.6313L110.807 92.0503C110.714 92.1294 110.633 92.1978 110.563 92.2573C110.495 92.3164 110.441 92.365 110.403 92.4033C110.327 92.4779 110.255 92.5565 110.188 92.6386C110.13 92.709 110.082 92.768 110.042 92.8144L109.624 92.3955L108.432 93.5874C108.398 93.5377 108.36 93.4907 108.319 93.4467C108.216 93.3144 108.149 93.2334 108.119 93.2036C108.052 93.1353 107.98 93.0724 107.903 93.0156C107.833 92.9638 107.777 92.9228 107.735 92.8906L108.927 91.6987ZM109.691 90.9346L111.77 88.856L108.774 89.9326L108.757 90.001L109.691 90.9346Z" fill="#1A1A18"/>
<path d="M3.13086 186.308V179.383H5.28076C5.74512 179.383 6.08496 179.391 6.30029 179.408C6.51538 179.425 6.72486 179.485 6.91602 179.585C7.18802 179.713 7.41638 179.918 7.5726 180.174C7.72882 180.431 7.80597 180.728 7.79443 181.028C7.80929 181.465 7.65779 181.89 7.37061 182.219C7.06573 182.548 6.66147 182.768 6.21973 182.845C6.48194 183.303 6.84864 183.896 7.31982 184.622C7.63622 185.106 7.86507 185.46 8.00635 185.682L8.3999 186.308C8.27198 186.308 8.0988 186.299 7.88037 186.283C7.66162 186.266 7.52837 186.257 7.48145 186.257C7.35352 186.257 7.18018 186.266 6.96144 186.283C6.74269 186.299 6.61315 186.308 6.57278 186.308L5.3716 184.188L4.71535 183.067H4.64503V186.308C4.53029 186.308 4.43605 186.304 4.36234 186.298C4.07279 186.271 3.91456 186.257 3.88771 186.257C3.77345 186.257 3.62534 186.266 3.44337 186.283C3.26171 186.299 3.15723 186.308 3.13086 186.308ZM4.64502 179.938V182.633C4.68834 182.64 4.73207 182.643 4.77588 182.644H4.90723C5.78906 182.644 6.22982 182.161 6.22949 181.195C6.2288 181.026 6.21196 180.858 6.1792 180.692C6.16222 180.555 6.11076 180.424 6.02959 180.311C5.94842 180.199 5.84015 180.108 5.71484 180.049C5.4653 179.962 5.20134 179.924 4.9375 179.938H4.64502Z" fill="#1A1A18"/>
<path d="M10.7725 186.308V180.604C10.3893 180.826 9.99504 181.028 9.59137 181.21C9.53992 181.119 9.48079 181.033 9.41461 180.953C9.34082 180.865 9.26156 180.783 9.17731 180.705V180.625C9.63531 180.477 10.1267 180.288 10.6514 180.059C11.0416 179.884 11.5194 179.659 12.085 179.383L12.1656 179.433V186.308C12.0818 186.297 11.9976 186.29 11.9131 186.288C11.6773 186.268 11.5292 186.258 11.4688 186.257C11.3339 186.257 11.1991 186.263 11.065 186.277C10.9439 186.291 10.8462 186.301 10.7725 186.308Z" fill="#1A1A18"/>
<path d="M14.376 188.052L14.8301 186.186C14.8706 186.024 14.911 185.865 14.9512 185.707C14.9947 185.54 15.0504 185.376 15.1177 185.217C15.1691 185.076 15.256 184.951 15.3701 184.854C15.4874 184.774 15.6275 184.735 15.769 184.743C15.9473 184.739 16.1197 184.806 16.2485 184.93C16.3106 184.985 16.3602 185.052 16.3941 185.128C16.428 185.204 16.4455 185.286 16.4453 185.369C16.4431 185.484 16.408 185.596 16.3442 185.691C16.0752 186.095 15.7926 186.508 15.4966 186.932C15.3755 187.107 15.0827 187.517 14.6182 188.163L14.376 188.052Z" fill="#1A1A18"/>
<path d="M17.7173 186.308V179.383H19.8672C20.3315 179.383 20.6714 179.391 20.8867 179.408C21.1018 179.425 21.3113 179.485 21.5024 179.585C21.7744 179.713 22.0028 179.918 22.159 180.174C22.3152 180.431 22.3924 180.728 22.3809 181.028C22.3957 181.465 22.2442 181.89 21.957 182.219C21.6522 182.548 21.2479 182.768 20.8062 182.845C21.0684 183.303 21.4351 183.896 21.9062 184.622C22.2227 185.106 22.4515 185.46 22.5928 185.682L22.9863 186.308C22.8584 186.308 22.6852 186.299 22.4668 186.283C22.248 186.266 22.1148 186.257 22.0679 186.257C21.9399 186.257 21.7666 186.266 21.5479 186.283C21.3291 186.299 21.1996 186.308 21.1592 186.308L19.958 184.188L19.3018 183.067H19.2315V186.308C19.1167 186.308 19.0225 186.304 18.9487 186.298C18.6592 186.271 18.501 186.257 18.4741 186.257C18.3599 186.257 18.2118 186.266 18.0298 186.283C17.8481 186.299 17.7436 186.308 17.7173 186.308ZM19.2314 179.938V182.633C19.2748 182.64 19.3185 182.643 19.3623 182.644H19.4937C20.3755 182.644 20.8162 182.161 20.8159 181.195C20.8152 181.026 20.7984 180.858 20.7656 180.692C20.7486 180.555 20.6972 180.424 20.616 180.311C20.5348 180.199 20.4266 180.108 20.3013 180.049C20.0517 179.962 19.7878 179.924 19.5239 179.938H19.2314Z" fill="#1A1A18"/>
<path d="M28.0439 186.257H23.5923V185.823C24.2002 185.258 24.6291 184.841 24.8789 184.571C25.3222 184.115 25.7129 183.611 26.0435 183.067C26.357 182.563 26.5317 181.985 26.5498 181.392C26.5621 181.048 26.4746 180.708 26.2978 180.413C26.2072 180.265 26.0791 180.145 25.9266 180.063C25.774 179.981 25.6025 179.942 25.4296 179.948C25.2696 179.951 25.1142 180.002 24.9829 180.094C24.8517 180.185 24.7506 180.314 24.6924 180.463C24.5476 180.762 24.475 181.09 24.4804 181.422L24.3799 181.442C24.1651 181.169 23.8971 180.943 23.5923 180.776C23.7361 180.366 24.0252 180.023 24.4048 179.812C24.8059 179.595 25.2563 179.485 25.7124 179.494C26.2798 179.468 26.8422 179.612 27.3271 179.908C27.5616 180.065 27.7511 180.282 27.8768 180.535C28.0025 180.788 28.0601 181.069 28.0439 181.352C28.0515 181.791 27.9208 182.222 27.6704 182.583C27.5125 182.811 27.3335 183.024 27.1357 183.219C27.0615 183.293 26.937 183.404 26.7622 183.552C26.4389 183.828 26.1158 184.111 25.7929 184.4C25.5234 184.642 25.3181 184.834 25.1772 184.975L25.187 185.026H26.4795C26.6475 185.026 26.9066 185.012 27.2569 184.985C27.6065 184.959 27.8688 184.945 28.044 184.945C28.0303 185.093 28.0186 185.221 28.0088 185.329C27.9986 185.437 27.9935 185.527 27.9937 185.601C27.9925 185.719 27.9976 185.837 28.0088 185.955C28.0186 186.049 28.0303 186.15 28.0439 186.257Z" fill="#1A1A18"/>
<path d="M28.9629 188.052L29.417 186.186C29.4575 186.024 29.4979 185.865 29.5381 185.707C29.5816 185.54 29.6373 185.376 29.7046 185.217C29.756 185.076 29.8429 184.951 29.957 184.854C30.0743 184.774 30.2144 184.735 30.356 184.743C30.5342 184.739 30.7066 184.806 30.8354 184.93C30.8975 184.985 30.9471 185.052 30.981 185.128C31.015 185.204 31.0324 185.286 31.0322 185.369C31.03 185.484 30.9949 185.596 30.9312 185.691C30.6621 186.095 30.3796 186.508 30.0835 186.932C29.9624 187.107 29.6696 187.517 29.2051 188.163L28.9629 188.052Z" fill="#1A1A18"/>
<path d="M32.3042 186.308V179.383H34.4541C34.9185 179.383 35.2583 179.391 35.4736 179.408C35.6887 179.425 35.8982 179.485 36.0894 179.585C36.3614 179.713 36.5897 179.918 36.7459 180.174C36.9022 180.431 36.9793 180.728 36.9678 181.028C36.9826 181.465 36.8311 181.89 36.5439 182.219C36.2391 182.548 35.8348 182.768 35.3931 182.845C35.6553 183.303 36.022 183.896 36.4932 184.622C36.8096 185.106 37.0384 185.46 37.1797 185.682L37.5732 186.308C37.4453 186.308 37.2721 186.299 37.0537 186.283C36.835 186.266 36.7017 186.257 36.6548 186.257C36.5269 186.257 36.3535 186.266 36.1348 186.283C35.916 186.299 35.7865 186.308 35.7461 186.308L34.5449 184.188L33.8887 183.067H33.8184V186.308C33.7036 186.308 33.6094 186.304 33.5357 186.298C33.2461 186.271 33.0879 186.257 33.0611 186.257C32.9468 186.257 32.7987 186.266 32.6167 186.283C32.4351 186.299 32.3306 186.308 32.3042 186.308ZM33.8184 179.938V182.633C33.8617 182.64 33.9054 182.643 33.9492 182.644H34.0806C34.9624 182.644 35.4032 182.161 35.4028 181.195C35.4021 181.026 35.3853 180.858 35.3525 180.692C35.3356 180.555 35.2841 180.424 35.2029 180.311C35.1218 180.199 35.0135 180.108 34.8882 180.049C34.6386 179.962 34.3747 179.924 34.1108 179.938H33.8184Z" fill="#1A1A18"/>
<path d="M38.896 179.555H42.2573C42.2461 179.628 42.2395 179.702 42.2373 179.776C42.2173 179.979 42.2072 180.103 42.207 180.15C42.2059 180.268 42.2126 180.386 42.2271 180.503C42.2407 180.604 42.2505 180.688 42.2573 180.756H39.3603L39.2793 182.506L39.3398 182.542C39.6532 182.375 40.0046 182.292 40.3598 182.3C40.6473 182.295 40.9341 182.329 41.2124 182.401C41.4679 182.478 41.7039 182.609 41.9043 182.785C42.1087 182.954 42.2722 183.167 42.3823 183.408C42.4924 183.649 42.5463 183.913 42.54 184.178C42.5418 184.507 42.4602 184.832 42.3027 185.122C42.1425 185.417 41.9163 185.671 41.6416 185.864C41.3862 186.048 41.0987 186.183 40.7939 186.262C40.475 186.352 40.1456 186.397 39.8144 186.398C39.4931 186.401 39.1733 186.355 38.8657 186.262C38.5663 186.17 38.286 186.025 38.0381 185.833C38.1398 185.684 38.2308 185.527 38.3105 185.364C38.3983 185.182 38.4757 184.995 38.5424 184.804H38.684C38.7464 185.081 38.8667 185.343 39.037 185.571C39.1237 185.687 39.2364 185.782 39.3661 185.846C39.4959 185.911 39.639 185.945 39.7841 185.944C39.9818 185.953 40.1783 185.909 40.3526 185.815C40.5269 185.721 40.6723 185.581 40.7734 185.411C40.9672 185.068 41.0615 184.678 41.0458 184.284C41.0541 183.913 40.9327 183.55 40.7026 183.258C40.5962 183.131 40.466 183.027 40.3193 182.951C40.1763 182.875 40.0168 182.836 39.8549 182.835C39.6907 182.834 39.5284 182.871 39.3803 182.941C39.2284 183.015 39.0914 183.116 38.9765 183.239L38.7343 183.098L38.896 179.555Z" fill="#1A1A18"/>
<path d="M0.732422 188.14H87.3204L98.6674 150.682" stroke="#1A1A18" stroke-width="0.5669" stroke-miterlimit="22.9256"/>
</svg>
