<svg width="159" height="134" viewBox="0 0 159 134" fill="none" xmlns="http://www.w3.org/2000/svg">
<path d="M64.0977 130.856V123.932H66.248C66.7129 123.932 67.0518 123.94 67.2676 123.957C67.4828 123.974 67.6925 124.034 67.8838 124.134C68.1557 124.262 68.3839 124.467 68.54 124.723C68.6962 124.98 68.7733 125.277 68.7617 125.577C68.7766 126.014 68.6251 126.439 68.3379 126.768C68.0329 127.097 67.6284 127.317 67.1865 127.394C67.4492 127.852 67.8161 128.444 68.2871 129.171C68.6035 129.655 68.8324 130.009 68.9736 130.231L69.3672 130.856C69.2393 130.856 69.0664 130.848 68.8477 130.832C68.6289 130.814 68.4961 130.806 68.4482 130.806C68.3203 130.806 68.1475 130.814 67.9287 130.832C67.71 130.848 67.5811 130.856 67.54 130.856L66.3389 128.737L65.6826 127.616H65.6123V130.856C65.498 130.856 65.4033 130.853 65.3291 130.847C65.04 130.819 64.8818 130.806 64.8555 130.806C64.7402 130.806 64.5928 130.814 64.4111 130.832C64.2295 130.848 64.125 130.856 64.0977 130.856ZM65.6123 124.487V127.182C65.6556 127.189 65.6994 127.192 65.7432 127.192H65.875C66.7559 127.192 67.1966 126.71 67.1973 125.744C67.1962 125.575 67.1792 125.407 67.1465 125.241C67.1294 125.104 67.078 124.973 66.9969 124.86C66.9158 124.748 66.8077 124.657 66.6826 124.598C66.4331 124.511 66.1691 124.473 65.9053 124.487H65.6123Z" fill="#1A1A18"/>
<path d="M71.7393 130.856V125.153C71.3563 125.375 70.9623 125.577 70.5586 125.759C70.5073 125.668 70.4482 125.582 70.3818 125.501C70.3083 125.414 70.229 125.331 70.1445 125.254V125.173C70.6025 125.025 71.0937 124.837 71.6182 124.608C72.0088 124.433 72.4867 124.208 73.0518 123.932L73.1328 123.982V130.856C73.0492 130.845 72.9651 130.839 72.8809 130.836C72.6445 130.816 72.4971 130.806 72.4365 130.806C72.3015 130.806 72.1665 130.812 72.0322 130.826C71.9111 130.84 71.8135 130.85 71.7393 130.856Z" fill="#1A1A18"/>
<path d="M75.3428 132.601L75.7979 130.734C75.8379 130.573 75.8783 130.414 75.9189 130.255C75.9621 130.088 76.0176 129.925 76.085 129.766C76.1367 129.625 76.2238 129.5 76.3379 129.403C76.4549 129.323 76.5949 129.284 76.7363 129.292C76.8246 129.29 76.9124 129.306 76.9946 129.338C77.0769 129.37 77.1521 129.418 77.2158 129.479C77.2777 129.534 77.3272 129.601 77.361 129.677C77.3949 129.753 77.4123 129.835 77.4121 129.918C77.41 130.033 77.3751 130.145 77.3115 130.24C77.042 130.644 76.7594 131.057 76.4639 131.481C76.3428 131.656 76.0498 132.066 75.585 132.712L75.3428 132.601Z" fill="#1A1A18"/>
<path d="M78.6846 130.856V123.932H80.835C81.2998 123.932 81.6387 123.94 81.8545 123.957C82.0698 123.974 82.2794 124.034 82.4707 124.134C82.7426 124.262 82.9708 124.467 83.127 124.723C83.2831 124.98 83.3602 125.277 83.3486 125.577C83.3635 126.014 83.212 126.439 82.9248 126.768C82.6198 127.097 82.2154 127.317 81.7734 127.394C82.0361 127.852 82.403 128.444 82.874 129.171C83.1904 129.655 83.4193 130.009 83.5605 130.231L83.9541 130.856C83.8262 130.856 83.6533 130.848 83.4346 130.832C83.2158 130.814 83.083 130.806 83.0352 130.806C82.9072 130.806 82.7344 130.814 82.5156 130.832C82.2969 130.848 82.168 130.856 82.127 130.856L80.9258 128.737L80.2695 127.616H80.1992V130.856C80.085 130.856 79.9902 130.853 79.916 130.847C79.627 130.819 79.4687 130.806 79.4424 130.806C79.3271 130.806 79.1797 130.814 78.998 130.832C78.8164 130.848 78.7119 130.856 78.6846 130.856ZM80.1992 124.487V127.182C80.2425 127.189 80.2863 127.192 80.3301 127.192H80.4619C81.3428 127.192 81.7835 126.71 81.7842 125.744C81.7831 125.575 81.7661 125.407 81.7334 125.241C81.7163 125.104 81.6649 124.973 81.5838 124.86C81.5027 124.748 81.3947 124.657 81.2695 124.598C81.02 124.511 80.756 124.473 80.4922 124.487H80.1992Z" fill="#1A1A18"/>
<path d="M89.0117 130.806H84.5596V130.372C85.168 129.807 85.597 129.389 85.8467 129.12C86.2898 128.664 86.6806 128.159 87.0117 127.616C87.3249 127.112 87.4994 126.534 87.5175 125.94C87.5298 125.597 87.4423 125.257 87.2656 124.961C87.175 124.814 87.0469 124.693 86.8943 124.612C86.7418 124.53 86.5703 124.491 86.3974 124.497C86.2374 124.5 86.0819 124.551 85.9506 124.642C85.8194 124.734 85.7183 124.863 85.6601 125.012C85.5155 125.31 85.443 125.639 85.4482 125.971L85.3476 125.991C85.1329 125.718 84.8647 125.491 84.5595 125.325C84.7037 124.915 84.9931 124.572 85.373 124.361C85.7737 124.144 86.2239 124.034 86.6796 124.043C87.2472 124.017 87.8098 124.161 88.2949 124.457C88.5293 124.614 88.7187 124.83 88.8444 125.084C88.9701 125.337 89.0277 125.618 89.0117 125.9C89.0189 126.34 88.8885 126.77 88.6386 127.132C88.4804 127.36 88.3012 127.573 88.1035 127.768C88.0292 127.842 87.9046 127.953 87.7295 128.101C87.4072 128.377 87.0843 128.66 86.7607 128.949C86.4912 129.191 86.2858 129.383 86.1445 129.524L86.1553 129.575H87.4473C87.6153 129.575 87.8744 129.561 88.2246 129.534C88.5742 129.507 88.8366 129.494 89.0117 129.494C88.998 129.642 88.9863 129.77 88.9766 129.877C88.9668 129.985 88.9609 130.076 88.9609 130.15C88.9602 130.268 88.9654 130.386 88.9766 130.503C88.9863 130.598 88.9981 130.699 89.0117 130.806Z" fill="#1A1A18"/>
<path d="M89.9297 132.601L90.3848 130.734C90.4248 130.573 90.4652 130.414 90.5059 130.255C90.549 130.088 90.6045 129.925 90.6719 129.766C90.7236 129.625 90.8107 129.5 90.9248 129.403C91.0418 129.323 91.1819 129.284 91.3232 129.292C91.4115 129.29 91.4993 129.306 91.5815 129.338C91.6638 129.37 91.739 129.418 91.8027 129.479C91.8646 129.534 91.9141 129.601 91.9479 129.677C91.9818 129.753 91.9992 129.835 91.999 129.918C91.9969 130.033 91.962 130.145 91.8984 130.24C91.6289 130.644 91.3464 131.057 91.0508 131.481C90.9297 131.656 90.6367 132.066 90.1719 132.712L89.9297 132.601Z" fill="#1A1A18"/>
<path d="M93.2715 130.856V123.932H95.4219C95.8867 123.932 96.2256 123.94 96.4414 123.957C96.6567 123.974 96.8663 124.034 97.0576 124.134C97.3295 124.262 97.5577 124.467 97.7139 124.723C97.87 124.98 97.9471 125.277 97.9355 125.577C97.9504 126.014 97.7989 126.439 97.5117 126.768C97.2067 127.097 96.8023 127.317 96.3604 127.394C96.623 127.852 96.9899 128.444 97.4609 129.171C97.7773 129.655 98.0062 130.009 98.1475 130.231L98.541 130.856C98.4131 130.856 98.2402 130.848 98.0215 130.832C97.8027 130.814 97.6699 130.806 97.6221 130.806C97.4941 130.806 97.3213 130.814 97.1025 130.832C96.8838 130.848 96.7549 130.856 96.7139 130.856L95.5127 128.737L94.8564 127.616H94.7861V130.856C94.6719 130.856 94.5771 130.853 94.5029 130.847C94.2139 130.819 94.0557 130.806 94.0293 130.806C93.9141 130.806 93.7666 130.814 93.585 130.832C93.4033 130.848 93.2988 130.856 93.2715 130.856ZM94.7861 124.487V127.182C94.8295 127.189 94.8732 127.192 94.917 127.192H95.0488C95.9297 127.192 96.3704 126.71 96.3711 125.744C96.37 125.575 96.353 125.407 96.3203 125.241C96.3032 125.104 96.2518 124.973 96.1707 124.86C96.0896 124.748 95.9816 124.657 95.8564 124.598C95.6069 124.511 95.3429 124.473 95.0791 124.487H94.7861Z" fill="#1A1A18"/>
<path d="M99.8623 124.104H103.225C103.213 124.177 103.206 124.251 103.204 124.325C103.184 124.527 103.174 124.652 103.174 124.699C103.173 124.817 103.18 124.935 103.194 125.052C103.207 125.153 103.218 125.237 103.225 125.305H100.327L100.246 127.055L100.307 127.091C100.62 126.924 100.971 126.841 101.326 126.849C101.614 126.844 101.901 126.878 102.18 126.95C102.435 127.027 102.671 127.158 102.871 127.334C103.076 127.502 103.239 127.716 103.349 127.957C103.459 128.198 103.513 128.461 103.507 128.727C103.509 129.056 103.427 129.381 103.27 129.67C103.109 129.965 102.883 130.219 102.608 130.413C102.353 130.597 102.066 130.732 101.761 130.811C101.442 130.9 101.112 130.946 100.781 130.947C100.46 130.949 100.14 130.904 99.832 130.811C99.5329 130.719 99.2528 130.573 99.0049 130.382C99.1066 130.232 99.1976 130.075 99.2773 129.913C99.3655 129.731 99.4431 129.544 99.5098 129.353H99.6504C99.7134 129.63 99.8338 129.891 100.004 130.12C100.091 130.236 100.203 130.33 100.333 130.395C100.463 130.46 100.606 130.494 100.751 130.493C100.949 130.502 101.145 130.458 101.32 130.364C101.494 130.27 101.639 130.13 101.74 129.96C101.934 129.617 102.028 129.227 102.013 128.833C102.021 128.462 101.9 128.099 101.67 127.807C101.563 127.681 101.433 127.576 101.286 127.5C101.143 127.424 100.983 127.384 100.821 127.384C100.657 127.383 100.495 127.42 100.348 127.49C100.195 127.564 100.058 127.665 99.9434 127.788L99.7012 127.647L99.8623 124.104Z" fill="#1A1A18"/>
<path fill-rule="evenodd" clip-rule="evenodd" d="M158.413 105.234V28.1992H29.7501L29.6172 64.2538C29.6171 64.179 29.6318 64.1048 29.6605 64.0356C29.6891 63.9664 29.7311 63.9036 29.784 63.8506C29.8369 63.7977 29.8998 63.7557 29.969 63.727C30.0382 63.6984 30.1123 63.6837 30.1872 63.6837H42.925C53.5835 63.7289 64.1081 66.0612 73.7879 70.523C94.608 79.9671 101.17 95.8108 123.188 102.3C128.861 103.935 134.702 104.919 140.597 105.234H158.413Z" fill="white" stroke="#1A1A18" stroke-width="0.5669" stroke-miterlimit="22.9256"/>
<path d="M30.5284 63.6836H13.0703" stroke="#1A1A18" stroke-width="0.5669" stroke-miterlimit="22.9256"/>
<path d="M30.5284 68.8155H13.0703" stroke="#1A1A18" stroke-width="0.5669" stroke-miterlimit="22.9256"/>
<path d="M13.0703 63.6836V68.8155" stroke="#1A1A18" stroke-width="0.5669" stroke-miterlimit="22.9256"/>
<path d="M7.7666 71.6835H2.0625C2.28442 72.0668 2.48683 72.461 2.66895 72.8647C2.57797 72.9159 2.4917 72.975 2.41113 73.0414C2.32362 73.115 2.24109 73.1943 2.16406 73.2787H2.08301C1.93458 72.8207 1.7461 72.3294 1.51758 71.8046C1.34278 71.4145 1.11752 70.9366 0.841797 70.371L0.891602 70.2905H7.7666C7.75529 70.3742 7.74845 70.4585 7.74609 70.5429C7.72558 70.7787 7.71582 70.9267 7.71582 70.9872C7.71515 71.1221 7.722 71.2569 7.73633 71.3911C7.74905 71.5121 7.75976 71.6098 7.7666 71.6835Z" fill="#1A1A18"/>
<path d="M3.99123 64.496H4.06154C4.1176 64.0986 4.32336 63.7376 4.63673 63.4868C4.95005 63.232 5.3433 63.096 5.74709 63.103C6.03751 63.0918 6.32669 63.1469 6.59267 63.2641C6.85864 63.3812 7.09445 63.5574 7.28224 63.7792C7.67655 64.2622 7.88107 64.8725 7.85744 65.4956C7.85926 65.8036 7.82185 66.1106 7.74611 66.4091C7.67607 66.6866 7.55449 66.9485 7.38771 67.1811C7.21956 67.4127 6.99315 67.5956 6.73146 67.7114C6.46418 67.8347 6.17327 67.8983 5.87892 67.8979C5.45264 67.8993 5.03764 67.761 4.69728 67.5044C4.52812 67.386 4.38459 67.2347 4.27534 67.0595C4.1661 66.8843 4.09339 66.6888 4.06154 66.4848H3.99123C3.92613 66.8108 3.7514 67.1046 3.49611 67.3174C3.24873 67.5373 2.92868 67.6579 2.59767 67.6557C2.3438 67.6649 2.09208 67.6061 1.86855 67.4854C1.64501 67.3647 1.45777 67.1865 1.32619 66.9692C1.06326 66.5274 0.933374 66.0191 0.952163 65.5053C0.94681 65.2261 0.970703 64.9471 1.02345 64.6728C1.08079 64.431 1.18533 64.2028 1.33107 64.0014C1.46202 63.7995 1.63405 63.6275 1.83595 63.4966C2.04059 63.3823 2.27264 63.3264 2.50685 63.3349C2.84919 63.326 3.18425 63.4347 3.45607 63.643C3.72524 63.8592 3.91378 64.1596 3.99123 64.496V64.496ZM2.69923 66.2626C2.84614 66.2638 2.99287 66.2521 3.13771 66.2275C3.26542 66.2059 3.38836 66.1621 3.50099 66.0981C3.61181 66.0356 3.70699 65.9488 3.77931 65.8442C3.8507 65.7456 3.8893 65.627 3.88966 65.5053C3.88918 65.365 3.84394 65.2285 3.76051 65.1156C3.67709 65.0028 3.55982 64.9195 3.4258 64.8779C3.15971 64.7711 2.87452 64.7201 2.58791 64.728C2.31841 64.7153 2.0495 64.7631 1.8008 64.8676C1.67772 64.9208 1.57392 65.0105 1.50337 65.1245C1.43283 65.2385 1.39893 65.3714 1.40626 65.5053C1.40416 65.6451 1.44735 65.7818 1.52937 65.895C1.6114 66.0081 1.72787 66.0917 1.86134 66.1332C2.12978 66.2296 2.41423 66.2735 2.69923 66.2626ZM4.32423 65.8183C4.39481 65.9405 4.49077 66.0461 4.60567 66.1279C4.72056 66.2098 4.85174 66.2661 4.99025 66.2929C5.26616 66.3697 5.55154 66.407 5.83791 66.4038C6.26062 66.4276 6.68128 66.3294 7.04982 66.121C7.1587 66.0572 7.24872 65.9658 7.31081 65.8559C7.3729 65.7461 7.40484 65.6217 7.40334 65.4956C7.3954 65.3333 7.33646 65.1776 7.23494 65.0508C7.13342 64.9239 6.9945 64.8323 6.83791 64.789C6.52807 64.6584 6.19463 64.593 5.85841 64.5971C5.63665 64.597 5.41534 64.6173 5.19728 64.6577C5.00697 64.6877 4.82384 64.7528 4.65724 64.8496C4.53595 64.9137 4.4343 65.0094 4.36311 65.1267C4.29192 65.244 4.25385 65.3784 4.25294 65.5156C4.25264 65.6207 4.27708 65.7244 4.32423 65.8183V65.8183Z" fill="#1A1A18"/>
<path d="M23.4922 97.124V90.1992H25.6426C26.1074 90.1992 26.4463 90.208 26.6621 90.2246C26.8774 90.2412 27.087 90.3013 27.2783 90.4014C27.5502 90.5292 27.7784 90.7342 27.9346 90.9909C28.0907 91.2476 28.1678 91.5445 28.1562 91.8447C28.1711 92.2811 28.0196 92.7068 27.7324 93.0356C27.4274 93.3646 27.023 93.5845 26.5811 93.6616C26.8437 94.1196 27.2106 94.7119 27.6816 95.4385C27.9981 95.9229 28.2269 96.2762 28.3682 96.4985L28.7617 97.124C28.6338 97.124 28.4609 97.1157 28.2422 97.0991C28.0234 97.082 27.8906 97.0737 27.8428 97.0737C27.7148 97.0737 27.542 97.082 27.3232 97.0991C27.1045 97.1157 26.9756 97.124 26.9346 97.124L25.7334 95.0044L25.0771 93.8838H25.0068V97.124C24.8926 97.124 24.7978 97.1206 24.7236 97.1142C24.4346 97.0869 24.2764 97.0737 24.25 97.0737C24.1348 97.0737 23.9873 97.082 23.8057 97.0991C23.624 97.1157 23.5195 97.124 23.4922 97.124ZM25.0068 90.7544V93.4497C25.0502 93.4563 25.0939 93.4597 25.1377 93.46H25.2695C26.1504 93.46 26.5911 92.9772 26.5918 92.0117C26.5907 91.8429 26.5737 91.6745 26.541 91.5088C26.5239 91.3712 26.4725 91.2401 26.3914 91.1277C26.3103 91.0152 26.2023 90.9249 26.0771 90.8652C25.8276 90.7786 25.5636 90.741 25.2998 90.7544H25.0068Z" fill="#1A1A18"/>
<path d="M33.8193 97.0737H29.3672V96.6396C29.9756 96.0742 30.4046 95.6569 30.6543 95.3876C31.0975 94.9313 31.4882 94.4269 31.8193 93.8837C32.1325 93.3794 32.307 92.8013 32.3251 92.208C32.3374 91.8641 32.25 91.5241 32.0732 91.2289C31.9826 91.0815 31.8545 90.9608 31.702 90.8792C31.5494 90.7976 31.3779 90.7581 31.205 90.7646C31.045 90.7678 30.8895 90.8184 30.7582 90.91C30.627 91.0016 30.5259 91.1301 30.4677 91.2792C30.3232 91.578 30.2506 91.9064 30.2558 92.2382L30.1552 92.2588C29.9405 91.9854 29.6723 91.7586 29.3671 91.5922C29.5114 91.1823 29.8007 90.8394 30.1806 90.6284C30.5814 90.4113 31.0315 90.3018 31.4872 90.3105C32.0549 90.2841 32.6174 90.4281 33.1025 90.7241C33.3369 90.8819 33.5263 91.098 33.652 91.3511C33.7777 91.6043 33.8353 91.8858 33.8193 92.1679C33.8265 92.6073 33.6961 93.0379 33.4462 93.3994C33.288 93.6275 33.1089 93.8403 32.9111 94.0351C32.8369 94.1093 32.7122 94.2203 32.5371 94.3681C32.2148 94.6445 31.8919 94.9272 31.5684 95.2163C31.2988 95.4585 31.0934 95.6502 30.9521 95.7915L30.9629 95.8422H32.2549C32.4228 95.8422 32.682 95.8287 33.0322 95.8017C33.3818 95.7749 33.6442 95.7613 33.8193 95.7612C33.8057 95.9096 33.794 96.0376 33.7842 96.145C33.7744 96.2529 33.7686 96.3437 33.7686 96.4174C33.7678 96.5355 33.773 96.6535 33.7842 96.771C33.794 96.8652 33.8057 96.9661 33.8193 97.0737Z" fill="#1A1A18"/>
<path d="M37.4932 95.4385H34.8584C34.8721 95.331 34.8838 95.2363 34.8945 95.1558C34.9034 95.0887 34.9082 95.0212 34.9092 94.9536C34.9102 94.8591 34.9033 94.7647 34.8887 94.6714C34.876 94.5903 34.8652 94.5234 34.8584 94.4692C35.0342 94.2271 35.2933 93.8467 35.6357 93.3281C35.9121 92.9106 36.1882 92.4998 36.4639 92.0957C36.7402 91.6919 36.9421 91.3923 37.0693 91.1968C37.3047 90.8462 37.4931 90.5498 37.6348 90.3076C37.7353 90.3213 37.8486 90.333 37.9727 90.3433C38.0977 90.353 38.1934 90.3584 38.2607 90.3584C38.3736 90.3596 38.4864 90.3546 38.5986 90.3433C38.6826 90.333 38.7793 90.3213 38.8867 90.3076V94.3584H39.7246C39.7109 94.4795 39.6992 94.5854 39.6895 94.6763C39.6802 94.7482 39.6749 94.8206 39.6738 94.8931C39.6728 94.9995 39.6797 95.106 39.6943 95.2114C39.708 95.3022 39.7178 95.3779 39.7246 95.4385H38.8867V97.124C38.8028 97.113 38.7184 97.1063 38.6338 97.104C38.3984 97.084 38.251 97.0737 38.1904 97.0737C38.0554 97.0731 37.9204 97.0798 37.7861 97.0938C37.665 97.1074 37.5674 97.1172 37.4931 97.124L37.4932 95.4385ZM37.4932 94.3584V91.418L35.5752 94.2979L35.626 94.3584H37.4932Z" fill="#1A1A18"/>
<path d="M45.0439 97.0737H40.5918V96.6396C41.2002 96.0742 41.6292 95.6569 41.8789 95.3876C42.3221 94.9313 42.7128 94.4269 43.0439 93.8837C43.3571 93.3794 43.5316 92.8013 43.5497 92.208C43.5621 91.8641 43.4746 91.5241 43.2978 91.2289C43.2072 91.0815 43.0791 90.9608 42.9266 90.8792C42.774 90.7976 42.6025 90.7581 42.4296 90.7646C42.2696 90.7678 42.1141 90.8184 41.9828 90.91C41.8516 91.0016 41.7505 91.1301 41.6923 91.2792C41.5478 91.578 41.4752 91.9064 41.4804 92.2382L41.3798 92.2588C41.1651 91.9854 40.897 91.7586 40.5917 91.5922C40.736 91.1823 41.0254 90.8394 41.4052 90.6284C41.806 90.4113 42.2562 90.3018 42.7119 90.3105C43.2795 90.2841 43.842 90.4281 44.3271 90.7241C44.5616 90.8819 44.7509 91.098 44.8766 91.3511C45.0023 91.6043 45.0599 91.8858 45.0439 92.1679C45.0511 92.6073 44.9207 93.0379 44.6708 93.3994C44.5126 93.6275 44.3335 93.8403 44.1357 94.0351C44.0615 94.1093 43.9368 94.2203 43.7617 94.3681C43.4394 94.6445 43.1165 94.9272 42.7929 95.2163C42.5234 95.4585 42.318 95.6502 42.1767 95.7915L42.1874 95.8422H43.4794C43.6474 95.8422 43.9065 95.8287 44.2568 95.8017C44.6064 95.7749 44.8688 95.7613 45.0439 95.7612C45.0302 95.9096 45.0185 96.0376 45.0087 96.145C44.999 96.2529 44.9931 96.3437 44.9931 96.4174C44.9923 96.5355 44.9976 96.6535 45.0087 96.771C45.0185 96.8652 45.0303 96.9661 45.0439 97.0737Z" fill="#1A1A18"/>
<path d="M53.5111 69.7207V99.4087H31.5371" stroke="#1A1A18" stroke-width="0.5669" stroke-miterlimit="22.9256"/>
<path fill-rule="evenodd" clip-rule="evenodd" d="M157.233 105.234C157.308 105.233 157.382 105.248 157.451 105.277C157.52 105.305 157.583 105.347 157.636 105.4C157.689 105.453 157.731 105.516 157.76 105.585C157.789 105.654 157.803 105.729 157.803 105.804V110.365H140.633C134.228 110.234 127.876 109.176 121.774 107.222C111.747 104.267 104.323 99.4426 96.4005 92.821C92.5998 89.6442 88.9241 86.3227 84.9932 83.3035C80.8918 80.0964 76.4325 77.3756 71.7044 75.1957C62.6937 71.0262 52.8896 68.8498 42.9611 68.8148H29.959V64.2537C29.959 64.1026 30.019 63.9576 30.1259 63.8506C30.2328 63.7437 30.3778 63.6836 30.529 63.6836H42.9611C53.6196 63.7288 64.1443 66.0611 73.824 70.5228C94.6441 79.967 101.206 95.8104 123.225 102.3C128.898 103.935 134.738 104.919 140.633 105.234H157.233Z" fill="#FFEC00" stroke="#1A1A18" stroke-width="0.5669" stroke-miterlimit="22.9256"/>
<path d="M115.225 66.792V59.8672H117.375C117.84 59.8672 118.179 59.876 118.395 59.8926C118.61 59.9091 118.819 59.9693 119.011 60.0693C119.283 60.1972 119.511 60.4022 119.667 60.6589C119.823 60.9155 119.9 61.2125 119.889 61.5127C119.904 61.949 119.752 62.3748 119.465 62.7036C119.16 63.0326 118.755 63.2525 118.313 63.3296C118.576 63.7876 118.943 64.3799 119.414 65.1065C119.73 65.5908 119.959 65.9442 120.101 66.1665L120.494 66.792C120.366 66.792 120.193 66.7837 119.975 66.7671C119.756 66.75 119.623 66.7417 119.575 66.7417C119.447 66.7417 119.274 66.75 119.056 66.7671C118.837 66.7837 118.708 66.792 118.667 66.792L117.466 64.6723L116.81 63.5517H116.739V66.792C116.625 66.792 116.53 66.7885 116.456 66.7822C116.167 66.7548 116.009 66.7417 115.982 66.7417C115.867 66.7417 115.72 66.75 115.538 66.7671C115.356 66.7837 115.252 66.792 115.225 66.792ZM116.739 60.4224V63.1177C116.783 63.1242 116.826 63.1277 116.87 63.1279H117.002C117.883 63.1279 118.324 62.6452 118.324 61.6797C118.323 61.5108 118.306 61.3424 118.273 61.1768C118.256 61.0392 118.205 60.9081 118.124 60.7956C118.043 60.6832 117.935 60.5929 117.81 60.5332C117.56 60.4466 117.296 60.4089 117.032 60.4224H116.739Z" fill="#1A1A18"/>
<path d="M125.552 66.7417H121.1V66.3076C121.708 65.7422 122.137 65.3249 122.387 65.0556C122.83 64.5993 123.221 64.0949 123.552 63.5517C123.865 63.0474 124.039 62.4693 124.058 61.876C124.07 61.5321 123.982 61.1921 123.806 60.8969C123.715 60.7495 123.587 60.6288 123.434 60.5472C123.282 60.4656 123.11 60.4261 122.937 60.4326C122.777 60.4358 122.622 60.4864 122.491 60.578C122.359 60.6696 122.258 60.7981 122.2 60.9472C122.056 61.246 121.983 61.5744 121.988 61.9062L121.888 61.9267C121.673 61.6534 121.405 61.4266 121.1 61.2602C121.244 60.8503 121.533 60.5074 121.913 60.2964C122.314 60.0793 122.764 59.9698 123.22 59.9785C123.787 59.9521 124.35 60.0961 124.835 60.3921C125.069 60.5499 125.259 60.766 125.384 61.0191C125.51 61.2723 125.568 61.5538 125.552 61.8359C125.559 62.2753 125.429 62.7059 125.179 63.0674C125.021 63.2955 124.841 63.5083 124.644 63.7031C124.569 63.7773 124.445 63.8883 124.27 64.0361C123.947 64.3125 123.624 64.5952 123.301 64.8843C123.031 65.1265 122.826 65.3182 122.685 65.4595L122.695 65.5102H123.987C124.155 65.5102 124.414 65.4967 124.765 65.4697C125.114 65.4429 125.377 65.4293 125.552 65.4292C125.538 65.5776 125.526 65.7056 125.517 65.813C125.507 65.9209 125.501 66.0117 125.501 66.0854C125.5 66.2035 125.505 66.3215 125.517 66.439C125.526 66.5332 125.538 66.6341 125.552 66.7417Z" fill="#1A1A18"/>
<path d="M129.226 65.1064H126.591C126.604 64.999 126.616 64.9043 126.627 64.8237C126.636 64.7567 126.641 64.6892 126.642 64.6216C126.643 64.5271 126.636 64.4327 126.621 64.3394C126.608 64.2583 126.598 64.1914 126.591 64.1372C126.767 63.895 127.026 63.5147 127.368 62.9961C127.645 62.5786 127.921 62.1678 128.196 61.7637C128.473 61.3599 128.674 61.0602 128.802 60.8647C129.037 60.5142 129.226 60.2178 129.367 59.9756C129.468 59.9893 129.581 60.001 129.705 60.0112C129.83 60.021 129.926 60.0264 129.993 60.0264C130.106 60.0276 130.219 60.0225 130.331 60.0112C130.415 60.001 130.512 59.9892 130.619 59.9756V64.0264H131.457C131.443 64.1475 131.432 64.2534 131.422 64.3442C131.413 64.4162 131.407 64.4885 131.406 64.561C131.405 64.6675 131.412 64.7739 131.427 64.8794C131.44 64.9702 131.45 65.0459 131.457 65.1064H130.619V66.792C130.535 66.781 130.451 66.7743 130.366 66.772C130.131 66.752 129.983 66.7417 129.923 66.7417C129.788 66.7411 129.653 66.7478 129.519 66.7617C129.397 66.7754 129.3 66.7852 129.226 66.792L129.226 65.1064ZM129.226 64.0264V61.0859L127.308 63.9658L127.358 64.0264H129.226Z" fill="#1A1A18"/>
<path d="M136.776 66.7417H132.324V66.3076C132.933 65.7422 133.362 65.3249 133.611 65.0556C134.054 64.5993 134.445 64.0949 134.776 63.5517C135.09 63.0474 135.264 62.4693 135.282 61.876C135.294 61.5321 135.207 61.1921 135.03 60.8969C134.94 60.7495 134.811 60.6288 134.659 60.5472C134.506 60.4656 134.335 60.4261 134.162 60.4326C134.002 60.4358 133.846 60.4864 133.715 60.578C133.584 60.6696 133.483 60.7981 133.425 60.9472C133.28 61.246 133.208 61.5744 133.213 61.9062L133.112 61.9267C132.898 61.6534 132.629 61.4266 132.324 61.2602C132.468 60.8503 132.758 60.5074 133.138 60.2964C133.538 60.0793 133.989 59.9698 134.444 59.9785C135.012 59.9521 135.574 60.0961 136.06 60.3921C136.294 60.5499 136.483 60.766 136.609 61.0191C136.735 61.2723 136.792 61.5538 136.776 61.8359C136.783 62.2753 136.653 62.7059 136.403 63.0674C136.245 63.2955 136.066 63.5083 135.868 63.7031C135.794 63.7773 135.669 63.8883 135.494 64.0361C135.172 64.3125 134.849 64.5952 134.525 64.8843C134.256 65.1265 134.05 65.3182 133.909 65.4595L133.92 65.5102H135.212C135.38 65.5102 135.639 65.4967 135.989 65.4697C136.339 65.4429 136.601 65.4293 136.776 65.4292C136.763 65.5776 136.751 65.7056 136.741 65.813C136.731 65.9209 136.726 66.0117 136.726 66.0854C136.725 66.2035 136.73 66.3215 136.741 66.439C136.751 66.5332 136.763 66.6341 136.776 66.7417Z" fill="#1A1A18"/>
<path d="M113.258 98.4878V68.8008H135.233" stroke="#1A1A18" stroke-width="0.5669" stroke-miterlimit="22.9256"/>
<path d="M157.803 110.365L141.862 133.329H62.0625" stroke="#1A1A18" stroke-width="0.5669" stroke-miterlimit="22.9256"/>
<path d="M33.9196 28.1992H29.6172V63.6837H33.9196V28.1992Z" stroke="#1A1A18" stroke-width="0.5669" stroke-miterlimit="22.9256"/>
<path d="M158.412 28.1992H154.109V105.401H158.412V28.1992Z" stroke="#1A1A18" stroke-width="0.5669" stroke-miterlimit="22.9256"/>
<path d="M86.3203 5.36237H83.6855C83.6992 5.25495 83.7109 5.16022 83.7217 5.07965C83.7305 5.01261 83.7354 4.94511 83.7363 4.8775C83.7373 4.78302 83.7304 4.68862 83.7158 4.59528C83.7031 4.51422 83.6924 4.44733 83.6855 4.39313C83.8613 4.15094 84.1204 3.77058 84.4629 3.25202C84.7393 2.83454 85.0153 2.42373 85.291 2.01959C85.5674 1.61578 85.7692 1.31613 85.8965 1.12067C86.1318 0.77008 86.3203 0.473693 86.4619 0.231506C86.5625 0.245176 86.6758 0.256901 86.7998 0.267151C86.9248 0.276921 87.0205 0.282288 87.0879 0.282288C87.2007 0.283509 87.3135 0.278457 87.4258 0.267151C87.5098 0.256901 87.6064 0.245146 87.7139 0.231506V4.28229H88.5518C88.5381 4.40338 88.5264 4.50934 88.5166 4.60016C88.5073 4.67207 88.5021 4.74445 88.501 4.81696C88.5 4.92344 88.5068 5.02984 88.5215 5.13531C88.5352 5.22613 88.5449 5.30182 88.5518 5.36232H87.7139V7.04786C87.63 7.03685 87.5455 7.03017 87.4609 7.02785C87.2256 7.00785 87.0781 6.99759 87.0176 6.99759C86.8826 6.99698 86.7476 7.00366 86.6133 7.01759C86.4922 7.03126 86.3946 7.04103 86.3203 7.04786V5.36237ZM86.3203 4.28229V1.34186L84.4023 4.22174L84.4531 4.28229H86.3203Z" fill="#1A1A18"/>
<path d="M90.1357 0.294983H93.498C93.4868 0.368396 93.4799 0.442424 93.4775 0.516663C93.457 0.718813 93.4473 0.843325 93.4473 0.890205C93.4463 1.00837 93.4531 1.12646 93.4678 1.24371C93.4805 1.34479 93.4912 1.42878 93.498 1.49617H90.6006L90.5195 3.24617L90.5801 3.28278C90.8933 3.11544 91.2446 3.03201 91.5996 3.0406C91.8874 3.0354 92.1745 3.0694 92.4531 3.14166C92.7084 3.21843 92.9442 3.34915 93.1445 3.52496C93.349 3.69393 93.5124 3.9071 93.6226 4.14841C93.7327 4.38971 93.7866 4.65287 93.7803 4.91804C93.7821 5.24764 93.7005 5.57234 93.543 5.86189C93.3827 6.15688 93.1564 6.41087 92.8818 6.60407C92.6264 6.78825 92.339 6.92337 92.0342 7.00251C91.7153 7.0918 91.3858 7.13762 91.0547 7.13873C90.7333 7.14091 90.4133 7.09499 90.1055 7.00251C89.8064 6.91012 89.5262 6.76493 89.2783 6.5738C89.38 6.42381 89.4711 6.26684 89.5508 6.10407C89.6389 5.92199 89.7165 5.73499 89.7832 5.54401H89.9238C89.9868 5.8216 90.1072 6.0829 90.2773 6.3111C90.364 6.42743 90.4767 6.52182 90.6064 6.58669C90.7362 6.65156 90.8794 6.68511 91.0244 6.68464C91.2222 6.69384 91.4187 6.64909 91.593 6.55516C91.7672 6.46124 91.9126 6.32168 92.0137 6.15144C92.2075 5.80841 92.3019 5.41813 92.2861 5.02444C92.2943 4.65292 92.1731 4.29011 91.9434 3.99807C91.8365 3.87195 91.7062 3.7678 91.5596 3.69143C91.4164 3.6155 91.2568 3.57577 91.0947 3.57571C90.9309 3.57468 90.7689 3.61093 90.6211 3.68171C90.4689 3.75492 90.3318 3.85593 90.2168 3.97955L89.9746 3.83796L90.1357 0.294983Z" fill="#1A1A18"/>
<path d="M97.4053 0.234437C97.7838 0.210716 98.1614 0.29369 98.4951 0.473924C98.8288 0.654157 99.1052 0.924417 99.293 1.25397C99.6459 1.93542 99.8129 2.69784 99.7773 3.46442C99.7999 4.09287 99.7351 4.72142 99.585 5.33209C99.4732 5.71913 99.2845 6.07966 99.0303 6.39215C98.8283 6.63313 98.5746 6.82542 98.288 6.95468C98.0014 7.08395 97.6893 7.14686 97.375 7.13873C96.9894 7.15088 96.6072 7.06412 96.2647 6.88673C95.9401 6.69665 95.6745 6.42053 95.4971 6.08888C95.295 5.74317 95.1518 5.36629 95.0732 4.97365C94.9951 4.54916 94.9578 4.11815 94.9619 3.68654C94.9621 3.26012 94.9994 2.83451 95.0732 2.41454C95.1305 2.03796 95.2569 1.67524 95.4462 1.34472C95.638 0.996461 95.9227 0.708267 96.2686 0.512239C96.6144 0.31621 97.008 0.220039 97.4053 0.234437ZM96.4561 3.80768C96.4287 4.52064 96.4762 5.2345 96.5977 5.93756C96.7256 6.43561 96.988 6.68463 97.3848 6.68463C97.7344 6.68463 97.9766 6.42226 98.1113 5.89752C98.2514 5.16257 98.309 4.41429 98.2832 3.66657C98.3139 2.88797 98.2513 2.1085 98.0967 1.34479C97.9717 0.907289 97.7412 0.688539 97.4053 0.688539C97.0352 0.688539 96.7845 0.937562 96.6533 1.43561C96.4951 2.21587 96.4289 3.01198 96.4561 3.80766V3.80768Z" fill="#1A1A18"/>
<path d="M29.6172 28.2005V10.8145" stroke="#1A1A18" stroke-width="0.5669" stroke-miterlimit="22.9256"/>
<path d="M158.279 28.2005V10.8145" stroke="#1A1A18" stroke-width="0.5669" stroke-miterlimit="22.9256"/>
<path d="M157.461 10.8105H29.6172" stroke="#1A1A18" stroke-width="0.5669" stroke-miterlimit="22.9256"/>
</svg>
