<svg width="303" height="161" viewBox="0 0 303 161" fill="none" xmlns="http://www.w3.org/2000/svg">
<path fill-rule="evenodd" clip-rule="evenodd" d="M29.4968 89.3361H47.0519C53.4505 89.3486 59.6448 91.5903 64.5695 95.6755C88.6847 116.889 119.693 128.607 151.811 128.644C183.929 128.681 214.964 117.034 239.128 95.8749C244.101 91.6617 250.406 89.3453 256.924 89.3361H274.427L275.263 89.09V35.8535H28.9531V89.3361H29.4968Z" fill="white" stroke="#1A1A18" stroke-width="0.5669" stroke-miterlimit="22.9256"/>
<path d="M274.428 89.0898H291.122" stroke="#1A1A18" stroke-width="0.5669" stroke-miterlimit="22.9256"/>
<path d="M152.729 132.949H291.121" stroke="#1A1A18" stroke-width="0.5669" stroke-miterlimit="22.9256"/>
<path d="M291.121 89.0898V132.949" stroke="#1A1A18" stroke-width="0.5669" stroke-miterlimit="22.9256"/>
<path d="M29.498 160.55V89.0898" stroke="#1A1A18" stroke-width="0.5669" stroke-miterlimit="22.9256"/>
<path d="M274.973 160.551V93.0996" stroke="#1A1A18" stroke-width="0.5669" stroke-miterlimit="22.9256"/>
<path d="M29.4961 160.551H274.971" stroke="#1A1A18" stroke-width="0.5669" stroke-miterlimit="22.9256"/>
<path d="M139.235 155.818L138.266 154.061C138.178 154.198 137.993 154.483 137.71 154.92C137.461 155.307 137.273 155.607 137.146 155.818L136.742 155.767L136.338 155.818L137.943 153.577C137.68 153.11 137.428 152.674 137.186 152.268C137.024 151.998 136.755 151.552 136.378 150.929C136.472 150.929 136.627 150.936 136.843 150.951C137.058 150.966 137.176 150.972 137.196 150.972C137.29 150.972 137.45 150.966 137.675 150.951C137.901 150.936 138.017 150.929 138.023 150.929C138.239 151.313 138.38 151.573 138.448 151.708C138.629 152.052 138.777 152.318 138.892 152.507C139.235 152.028 139.585 151.502 139.941 150.929H140.84C140.564 151.261 140.217 151.696 139.8 152.235C139.45 152.687 139.252 152.944 139.205 153.005L139.75 153.966C140.126 154.587 140.503 155.204 140.88 155.818C140.786 155.818 140.629 155.809 140.411 155.793C140.192 155.776 140.069 155.767 140.042 155.767C139.955 155.767 139.804 155.776 139.588 155.793C139.373 155.809 139.255 155.818 139.235 155.818Z" fill="#1A1A18"/>
<path d="M144.01 155.909C143.334 155.938 142.675 155.7 142.172 155.248C141.935 155.02 141.75 154.744 141.628 154.438C141.506 154.133 141.451 153.805 141.466 153.476C141.45 153.126 141.503 152.777 141.623 152.448C141.742 152.119 141.926 151.816 142.163 151.558C142.402 151.314 142.691 151.123 143.009 150.998C143.327 150.873 143.668 150.816 144.01 150.831C144.695 150.799 145.365 151.032 145.882 151.482C146.122 151.708 146.31 151.984 146.433 152.29C146.555 152.596 146.611 152.924 146.594 153.254C146.62 153.958 146.366 154.644 145.887 155.162C145.645 155.412 145.352 155.608 145.029 155.737C144.705 155.866 144.358 155.924 144.01 155.909ZM144.081 151.275C143.888 151.278 143.701 151.341 143.546 151.455C143.39 151.569 143.274 151.728 143.212 151.911C143.023 152.4 142.937 152.922 142.96 153.446C142.952 153.868 143.017 154.288 143.152 154.687C143.334 155.199 143.619 155.455 144.01 155.455C144.373 155.455 144.652 155.199 144.848 154.687C145.029 154.172 145.114 153.628 145.1 153.082C145.115 152.636 145.025 152.194 144.837 151.79C144.777 151.639 144.672 151.509 144.537 151.417C144.403 151.326 144.244 151.276 144.081 151.275Z" fill="#1A1A18"/>
<path d="M147.492 158.382V150.932C147.566 150.932 147.692 150.939 147.871 150.952C148.049 150.966 148.148 150.972 148.168 150.972C148.242 150.972 148.354 150.966 148.501 150.952C148.649 150.939 148.761 150.932 148.834 150.932V151.81C148.941 151.527 149.125 151.279 149.365 151.094C149.609 150.915 149.905 150.822 150.208 150.831C150.507 150.814 150.806 150.874 151.076 151.004C151.347 151.135 151.579 151.332 151.752 151.578C152.075 152.147 152.231 152.795 152.203 153.448C152.174 154.102 151.962 154.734 151.59 155.272C151.419 155.477 151.204 155.64 150.961 155.75C150.719 155.86 150.454 155.915 150.187 155.909C149.913 155.92 149.641 155.852 149.405 155.712C149.194 155.576 149.017 155.394 148.885 155.181V158.382C148.423 158.315 147.954 158.315 147.492 158.382H147.492ZM149.763 155.253C149.919 155.234 150.068 155.174 150.193 155.078C150.317 154.982 150.414 154.854 150.472 154.708C150.649 154.294 150.731 153.845 150.712 153.395C150.733 152.914 150.663 152.433 150.508 151.976C150.464 151.83 150.373 151.702 150.25 151.612C150.126 151.522 149.977 151.475 149.824 151.477C149.437 151.477 149.161 151.723 148.998 152.214C148.879 152.613 148.824 153.029 148.834 153.446C148.823 153.828 148.872 154.209 148.978 154.576C149.127 155.027 149.389 155.253 149.763 155.253V155.253Z" fill="#1A1A18"/>
<path d="M152.378 155.181H152.963L153.297 154.394C153.525 153.829 153.759 153.246 153.998 152.646C154.237 152.048 154.444 151.475 154.619 150.93C154.707 150.931 154.794 150.939 154.881 150.951C154.965 150.963 155.049 150.97 155.134 150.972C155.222 150.971 155.309 150.963 155.396 150.951C155.48 150.939 155.564 150.932 155.649 150.93C155.81 151.401 155.973 151.873 156.138 152.344C156.303 152.815 156.47 153.287 156.638 153.758C156.705 153.939 156.887 154.414 157.183 155.181H157.698C157.682 155.24 157.671 155.299 157.663 155.358C157.652 155.444 157.646 155.53 157.647 155.616C157.647 155.69 157.65 155.764 157.658 155.838C157.667 155.913 157.68 155.987 157.698 156.06H157.597C157.505 155.972 157.397 155.904 157.278 155.858C157.159 155.812 157.032 155.79 156.905 155.793C156.593 155.776 156.117 155.768 155.477 155.767H154.599C153.966 155.767 153.499 155.776 153.196 155.793C152.93 155.795 152.673 155.89 152.469 156.06H152.378C152.395 156.001 152.407 155.94 152.414 155.879C152.424 155.792 152.429 155.704 152.429 155.616C152.429 155.535 152.425 155.458 152.418 155.384C152.413 155.315 152.399 155.247 152.378 155.181ZM153.721 155.181H155.679L154.74 152.312C154.545 152.838 154.414 153.192 154.347 153.374C154.118 153.993 153.909 154.595 153.721 155.181Z" fill="#1A1A18"/>
<path d="M161.948 152.174V154.939C161.94 155.004 161.947 155.07 161.966 155.133C161.985 155.196 162.017 155.254 162.059 155.303C162.181 155.384 162.327 155.419 162.473 155.404V155.636C162.324 155.703 162.171 155.762 162.016 155.813C161.866 155.869 161.709 155.901 161.549 155.909C161.329 155.914 161.113 155.846 160.935 155.717C160.755 155.578 160.622 155.388 160.555 155.172C160.428 155.4 160.24 155.589 160.012 155.717C159.785 155.844 159.528 155.911 159.268 155.909C158.892 155.927 158.522 155.804 158.231 155.565C158.097 155.44 157.992 155.286 157.924 155.115C157.857 154.944 157.827 154.76 157.839 154.576C157.826 154.383 157.86 154.19 157.937 154.013C158.014 153.835 158.132 153.679 158.282 153.556C158.707 153.293 159.178 153.112 159.67 153.021C159.831 152.981 159.955 152.948 160.042 152.921C160.168 152.88 160.289 152.826 160.404 152.76C160.454 152.711 160.493 152.652 160.52 152.588C160.545 152.516 160.557 152.441 160.555 152.365C160.554 152.246 160.527 152.129 160.475 152.022C160.424 151.915 160.35 151.82 160.258 151.745C160.081 151.575 159.845 151.479 159.6 151.477C159.305 151.479 159.016 151.563 158.766 151.72C158.596 151.801 158.458 151.936 158.373 152.103H158.303L158.172 151.508C158.415 151.28 158.704 151.109 159.02 151.008C159.348 150.893 159.693 150.833 160.04 150.831C160.482 150.818 160.92 150.919 161.312 151.124C161.508 151.219 161.671 151.369 161.784 151.555C161.897 151.741 161.954 151.956 161.948 152.174ZM160.555 154.162V153.183C160.353 153.251 160.192 153.304 160.07 153.345C159.885 153.406 159.71 153.495 159.55 153.607C159.431 153.694 159.343 153.816 159.298 153.956C159.251 154.118 159.229 154.286 159.232 154.455C159.228 154.649 159.271 154.842 159.358 155.015C159.397 155.092 159.458 155.155 159.532 155.197C159.607 155.239 159.692 155.258 159.777 155.253C159.905 155.261 160.032 155.232 160.143 155.169C160.254 155.106 160.345 155.012 160.403 154.899C160.515 154.67 160.567 154.416 160.555 154.162V154.162Z" fill="#1A1A18"/>
<path d="M169.246 152.043V152.113C169.644 152.169 170.005 152.375 170.255 152.688C170.51 153.002 170.646 153.395 170.639 153.799C170.65 154.089 170.595 154.378 170.478 154.644C170.361 154.91 170.185 155.146 169.963 155.334C169.48 155.728 168.87 155.933 168.247 155.909C167.939 155.911 167.632 155.873 167.333 155.798C167.055 155.728 166.794 155.606 166.561 155.439C166.329 155.271 166.146 155.045 166.031 154.783C165.907 154.516 165.844 154.225 165.844 153.93C165.843 153.504 165.981 153.089 166.238 152.749C166.356 152.58 166.507 152.436 166.683 152.327C166.858 152.218 167.053 152.145 167.257 152.113V152.043C166.931 151.978 166.638 151.803 166.425 151.548C166.205 151.3 166.084 150.98 166.086 150.649C166.077 150.395 166.136 150.144 166.257 149.92C166.377 149.697 166.556 149.509 166.773 149.378C167.215 149.115 167.723 148.985 168.237 149.004C168.516 148.998 168.795 149.022 169.069 149.075C169.311 149.132 169.539 149.237 169.741 149.383C169.943 149.514 170.115 149.686 170.246 149.888C170.36 150.092 170.416 150.324 170.407 150.558C170.416 150.901 170.307 151.236 170.099 151.508C169.883 151.777 169.582 151.965 169.246 152.043V152.043ZM167.924 152.376C167.802 152.446 167.696 152.542 167.614 152.657C167.532 152.772 167.476 152.903 167.449 153.042C167.372 153.318 167.335 153.603 167.338 153.889C167.315 154.312 167.413 154.733 167.621 155.101C167.685 155.21 167.776 155.3 167.886 155.362C167.996 155.424 168.12 155.456 168.247 155.455C168.409 155.447 168.564 155.388 168.691 155.286C168.818 155.185 168.91 155.046 168.953 154.889C169.084 154.58 169.149 154.246 169.145 153.91C169.145 153.688 169.125 153.467 169.084 153.249C169.054 153.058 168.989 152.875 168.893 152.709C168.828 152.587 168.733 152.486 168.615 152.415C168.498 152.343 168.364 152.305 168.227 152.304C168.121 152.304 168.018 152.329 167.924 152.376V152.376ZM167.479 150.751C167.478 150.898 167.49 151.044 167.515 151.189C167.536 151.317 167.58 151.44 167.644 151.553C167.706 151.663 167.793 151.759 167.898 151.831C167.997 151.902 168.115 151.941 168.237 151.941C168.377 151.941 168.514 151.895 168.627 151.812C168.739 151.729 168.823 151.611 168.864 151.477C168.971 151.211 169.022 150.926 169.014 150.639C169.027 150.37 168.979 150.101 168.874 149.852C168.821 149.729 168.732 149.625 168.618 149.555C168.504 149.484 168.371 149.45 168.237 149.458C168.097 149.456 167.96 149.499 167.847 149.581C167.734 149.663 167.65 149.779 167.609 149.913C167.512 150.181 167.469 150.466 167.479 150.751H167.479Z" fill="#1A1A18"/>
<path d="M172.032 155.132L172.103 155.06C172.234 155.158 172.373 155.246 172.517 155.323C172.663 155.403 172.825 155.448 172.991 155.455C173.287 155.449 173.574 155.356 173.817 155.187C174.059 155.018 174.246 154.781 174.354 154.506C174.621 153.974 174.757 153.385 174.748 152.79V152.688L174.677 152.658C174.527 152.827 174.341 152.96 174.134 153.049C173.926 153.138 173.702 153.18 173.476 153.173C172.963 153.192 172.461 153.015 172.073 152.679C171.881 152.508 171.729 152.298 171.628 152.062C171.527 151.827 171.479 151.572 171.487 151.315C171.478 150.989 171.524 150.663 171.624 150.351C171.745 150.055 171.929 149.788 172.164 149.569C172.364 149.375 172.605 149.228 172.87 149.14C173.147 149.048 173.437 149.002 173.728 149.004C174.106 148.998 174.48 149.063 174.833 149.196C175.162 149.326 175.448 149.546 175.656 149.832C175.853 150.106 175.997 150.414 176.081 150.74C176.174 151.086 176.221 151.442 176.222 151.801C176.223 152.314 176.162 152.825 176.04 153.324C175.928 153.796 175.733 154.244 175.464 154.647C175.199 155.04 174.838 155.358 174.415 155.57C173.991 155.792 173.52 155.909 173.042 155.909C172.9 155.909 172.8 155.905 172.739 155.898C172.646 155.883 172.555 155.86 172.466 155.828C172.431 155.812 172.394 155.8 172.355 155.793C172.308 155.783 172.271 155.737 172.245 155.656C172.217 155.576 172.194 155.504 172.174 155.439C172.134 155.333 172.087 155.23 172.032 155.132ZM174.748 151.144C174.761 150.787 174.719 150.429 174.626 150.084C174.593 149.909 174.501 149.751 174.365 149.637C174.229 149.523 174.058 149.459 173.88 149.458C173.718 149.464 173.562 149.521 173.433 149.621C173.305 149.721 173.211 149.858 173.165 150.013C173.038 150.317 172.976 150.644 172.981 150.972C172.974 151.309 173.026 151.644 173.134 151.962C173.173 152.135 173.269 152.29 173.406 152.403C173.542 152.517 173.713 152.582 173.89 152.588C174.045 152.586 174.196 152.535 174.321 152.443C174.446 152.351 174.538 152.221 174.584 152.073C174.701 151.778 174.756 151.462 174.748 151.144Z" fill="#1A1A18"/>
<path d="M180.905 149.448L180.845 149.549C180.752 149.514 180.655 149.491 180.557 149.478C180.452 149.465 180.346 149.458 180.239 149.458C180.019 149.456 179.802 149.515 179.613 149.63C179.419 149.749 179.248 149.902 179.108 150.083C178.973 150.248 178.867 150.435 178.795 150.636C178.728 150.885 178.674 151.089 178.634 151.25C178.553 151.562 178.513 151.883 178.513 152.206L178.583 152.244C178.726 152.083 178.902 151.954 179.099 151.867C179.295 151.78 179.509 151.737 179.724 151.74C180.268 151.718 180.799 151.902 181.213 152.255C181.409 152.434 181.562 152.655 181.662 152.901C181.763 153.147 181.807 153.412 181.793 153.678C181.805 153.981 181.749 154.282 181.63 154.562C181.512 154.841 181.333 155.09 181.107 155.293C180.641 155.707 180.034 155.927 179.411 155.909C179.219 155.907 179.028 155.885 178.841 155.844C178.665 155.809 178.493 155.753 178.331 155.677C178.027 155.526 177.766 155.3 177.574 155.02C177.387 154.747 177.248 154.443 177.165 154.122C177.08 153.789 177.037 153.446 177.039 153.102C177.033 152.44 177.139 151.781 177.352 151.154C177.555 150.521 177.937 149.96 178.452 149.539C178.697 149.353 178.974 149.214 179.27 149.13C179.579 149.044 179.898 149.002 180.219 149.004C180.388 149.001 180.558 149.018 180.724 149.054C180.784 149.189 180.845 149.32 180.905 149.448ZM178.513 153.763C178.5 154.122 178.541 154.481 178.635 154.827C178.667 155.002 178.759 155.16 178.895 155.275C179.031 155.389 179.203 155.453 179.381 155.455C179.545 155.449 179.703 155.393 179.833 155.293C179.963 155.193 180.058 155.054 180.105 154.897C180.238 154.591 180.305 154.26 180.3 153.926C180.312 153.578 180.26 153.231 180.146 152.902C180.099 152.733 179.997 152.584 179.857 152.478C179.717 152.372 179.546 152.315 179.371 152.315C179.215 152.317 179.064 152.368 178.939 152.461C178.815 152.553 178.722 152.683 178.676 152.832C178.56 153.128 178.504 153.445 178.513 153.763V153.763Z" fill="#1A1A18"/>
<path d="M171.652 92.0967V84.0039H174.165C174.708 84.0039 175.105 84.0137 175.357 84.0332C175.608 84.0533 175.853 84.1237 176.076 84.2402C176.394 84.3893 176.661 84.6288 176.844 84.9288C177.026 85.2287 177.116 85.5758 177.103 85.9267C177.12 86.4369 176.943 86.9346 176.607 87.3193C176.251 87.7032 175.778 87.9601 175.262 88.0508C175.569 88.5859 175.998 89.278 176.548 90.1269C176.918 90.6933 177.185 91.1061 177.351 91.3652L177.811 92.0966C177.661 92.0966 177.459 92.0869 177.203 92.0674C176.947 92.0478 176.792 92.0381 176.737 92.0381C176.587 92.0381 176.385 92.0478 176.129 92.0674C175.874 92.0869 175.723 92.0966 175.675 92.0966L174.271 89.6201L173.504 88.3105H173.422V92.0966C173.288 92.0966 173.178 92.0927 173.092 92.0849C172.753 92.0537 172.569 92.0381 172.537 92.0381C172.403 92.0381 172.23 92.0478 172.018 92.0674C171.806 92.0869 171.684 92.0967 171.652 92.0967ZM173.422 84.6533V87.8027C173.473 87.8102 173.524 87.8141 173.575 87.8145H173.729C174.759 87.8145 175.274 87.2503 175.274 86.1221C175.273 85.9247 175.253 85.7279 175.215 85.5342C175.195 85.3733 175.135 85.22 175.04 85.0886C174.945 84.9571 174.819 84.8517 174.672 84.7822C174.381 84.6812 174.072 84.6375 173.764 84.6533L173.422 84.6533Z" fill="#1A1A18"/>
<path d="M181.456 90.127H178.376C178.393 90.001 178.406 89.8906 178.418 89.7969C178.429 89.7185 178.434 89.6396 178.436 89.5605C178.437 89.4501 178.429 89.3397 178.412 89.2305C178.396 89.1357 178.384 89.0576 178.376 88.9941C178.581 88.7109 178.884 88.2663 179.285 87.6601C179.607 87.1728 179.93 86.693 180.252 86.2207C180.575 85.748 180.811 85.3977 180.96 85.1699C181.235 84.7607 181.456 84.4144 181.621 84.1308C181.739 84.1465 181.87 84.1601 182.016 84.1718C182.162 84.1836 182.273 84.1904 182.353 84.1904C182.484 84.1917 182.616 84.1855 182.748 84.1718C182.846 84.1601 182.958 84.1464 183.084 84.1308V88.8642H184.063C184.047 89.0058 184.033 89.1299 184.021 89.2363C184.011 89.3206 184.005 89.4053 184.004 89.4902C184.003 89.6143 184.011 89.7384 184.028 89.8613C184.043 89.9677 184.055 90.0556 184.063 90.1269H183.084V92.0966C182.986 92.0837 182.888 92.0759 182.789 92.0732C182.514 92.0498 182.341 92.0381 182.27 92.0381C182.112 92.0373 181.955 92.0451 181.798 92.0615C181.656 92.0771 181.542 92.0888 181.456 92.0966V90.127ZM181.456 88.8643V85.4287L179.214 88.7939L179.273 88.8643H181.456Z" fill="#1A1A18"/>
<path d="M188.982 87.6846V87.7676C189.447 87.833 189.869 88.0734 190.162 88.4394C190.46 88.8058 190.618 89.2654 190.61 89.7373C190.623 90.0767 190.559 90.4146 190.422 90.7254C190.285 91.0362 190.079 91.3118 189.82 91.5312C189.256 91.9923 188.542 92.2313 187.814 92.2031C187.454 92.2054 187.096 92.1618 186.747 92.0732C186.422 91.9919 186.116 91.8497 185.844 91.6543C185.574 91.458 185.36 91.1935 185.225 90.8877C185.08 90.5751 185.006 90.2349 185.006 89.8906C185.005 89.3927 185.167 88.908 185.467 88.5107C185.605 88.3128 185.782 88.1449 185.986 88.0171C186.191 87.8894 186.42 87.8045 186.658 87.7676V87.6846C186.277 87.6088 185.934 87.4047 185.685 87.1064C185.428 86.8174 185.287 86.4434 185.29 86.0566C185.279 85.7599 185.348 85.4657 185.489 85.2045C185.63 84.9432 185.838 84.7243 186.092 84.5703C186.608 84.2632 187.202 84.1116 187.803 84.1338C188.129 84.1276 188.455 84.1554 188.776 84.2168C189.059 84.2839 189.325 84.406 189.561 84.5762C189.796 84.7292 189.997 84.9302 190.15 85.166C190.284 85.4056 190.349 85.6771 190.339 85.9512C190.35 86.351 190.222 86.7423 189.979 87.0596C189.727 87.3744 189.376 87.5946 188.982 87.6846V87.6846ZM187.437 88.0742C187.294 88.1567 187.171 88.2689 187.075 88.4032C186.98 88.5375 186.914 88.6907 186.882 88.8525C186.793 89.1752 186.749 89.5089 186.752 89.8437C186.725 90.3377 186.84 90.8291 187.083 91.2597C187.158 91.387 187.265 91.4923 187.393 91.5648C187.522 91.6374 187.667 91.6746 187.814 91.6728C188.004 91.6633 188.186 91.5943 188.334 91.4756C188.482 91.357 188.589 91.1946 188.64 91.0117C188.793 90.6496 188.869 90.26 188.864 89.8671C188.864 89.608 188.841 89.3495 188.793 89.0947C188.758 88.8724 188.682 88.6585 188.569 88.4638C188.494 88.3221 188.382 88.2034 188.245 88.1202C188.108 88.037 187.951 87.9924 187.791 87.9912C187.668 87.9908 187.547 88.0193 187.437 88.0742H187.437ZM186.917 86.1748C186.916 86.3469 186.93 86.5188 186.958 86.6885C186.984 86.8375 187.035 86.9809 187.11 87.1123C187.183 87.2416 187.285 87.3528 187.407 87.4375C187.522 87.5209 187.66 87.5663 187.803 87.5674C187.967 87.5665 188.126 87.5134 188.258 87.4157C188.39 87.3181 188.487 87.181 188.536 87.0244C188.661 86.7133 188.72 86.3799 188.711 86.0449C188.726 85.7299 188.67 85.4156 188.548 85.125C188.486 84.9813 188.381 84.8601 188.248 84.7779C188.114 84.6956 187.959 84.6562 187.803 84.665C187.64 84.6624 187.48 84.7127 187.348 84.8082C187.215 84.9038 187.118 85.0395 187.069 85.1952C186.956 85.5092 186.905 85.8416 186.917 86.1748V86.1748Z" fill="#1A1A18"/>
<path d="M194.574 90.127H191.495C191.511 90.001 191.525 89.8906 191.537 89.7969C191.547 89.7185 191.553 89.6396 191.554 89.5605C191.555 89.4501 191.547 89.3397 191.531 89.2305C191.515 89.1357 191.503 89.0576 191.495 88.9941C191.7 88.7109 192.003 88.2663 192.404 87.6601C192.726 87.1728 193.049 86.693 193.371 86.2207C193.693 85.748 193.929 85.3977 194.079 85.1699C194.354 84.7607 194.574 84.4144 194.74 84.1308C194.857 84.1465 194.989 84.1601 195.135 84.1718C195.28 84.1836 195.392 84.1904 195.471 84.1904C195.603 84.1917 195.735 84.1855 195.866 84.1718C195.964 84.1601 196.076 84.1464 196.203 84.1308V88.8642H197.182C197.166 89.0058 197.152 89.1299 197.14 89.2363C197.13 89.3206 197.124 89.4053 197.123 89.4902C197.121 89.6143 197.129 89.7384 197.146 89.8613C197.162 89.9677 197.174 90.0556 197.182 90.1269H196.203V92.0966C196.105 92.0837 196.006 92.0759 195.908 92.0732C195.632 92.0498 195.459 92.0381 195.389 92.0381C195.231 92.0373 195.073 92.0451 194.917 92.0615C194.775 92.0771 194.661 92.0888 194.574 92.0966V90.127ZM194.574 88.8643V85.4287L192.333 88.7939L192.392 88.8643H194.574Z" fill="#1A1A18"/>
<path d="M195.323 122.371V93.9844H174.311" stroke="#1A1A18" stroke-width="0.5669" stroke-miterlimit="22.9256"/>
<path d="M302.847 119.786H297.144C297.365 120.169 297.568 120.563 297.749 120.967C297.658 121.018 297.572 121.077 297.492 121.144C297.404 121.217 297.321 121.296 297.244 121.381H297.164C297.016 120.923 296.827 120.432 296.598 119.907C296.423 119.517 296.198 119.039 295.922 118.474L295.972 118.393H302.847C302.836 118.476 302.829 118.56 302.827 118.645C302.807 118.881 302.796 119.028 302.796 119.089C302.796 119.224 302.802 119.359 302.816 119.493C302.83 119.614 302.84 119.712 302.847 119.786Z" fill="#1A1A18"/>
<path d="M301.161 113.427V116.062C301.054 116.048 300.959 116.036 300.878 116.025C300.811 116.017 300.744 116.012 300.676 116.011C300.582 116.01 300.487 116.017 300.394 116.031C300.313 116.044 300.246 116.055 300.192 116.062C299.95 115.886 299.569 115.627 299.051 115.284C298.633 115.008 298.222 114.732 297.818 114.456C297.415 114.18 297.115 113.978 296.919 113.851C296.569 113.615 296.272 113.427 296.03 113.285C296.044 113.185 296.056 113.071 296.066 112.947C296.076 112.822 296.081 112.727 296.081 112.659C296.082 112.546 296.077 112.434 296.066 112.321C296.056 112.237 296.044 112.141 296.03 112.033H300.081V111.195C300.202 111.209 300.308 111.221 300.399 111.23C300.471 111.24 300.543 111.245 300.616 111.246C300.722 111.247 300.829 111.24 300.934 111.226C301.025 111.212 301.101 111.202 301.161 111.195V112.033H302.847C302.836 112.117 302.829 112.202 302.827 112.286C302.807 112.521 302.796 112.669 302.796 112.729C302.796 112.865 302.802 112.999 302.816 113.134C302.83 113.255 302.84 113.353 302.847 113.427L301.161 113.427ZM300.081 113.427H297.141L300.021 115.345L300.081 115.294V113.427Z" fill="#1A1A18"/>
<path d="M301.161 107.813V110.448C301.054 110.435 300.959 110.423 300.878 110.412C300.811 110.403 300.744 110.398 300.676 110.397C300.582 110.396 300.487 110.403 300.394 110.418C300.313 110.431 300.246 110.441 300.192 110.448C299.95 110.272 299.569 110.013 299.051 109.671C298.633 109.395 298.222 109.118 297.818 108.843C297.415 108.566 297.115 108.365 296.919 108.237C296.569 108.002 296.272 107.813 296.03 107.672C296.044 107.571 296.056 107.458 296.066 107.334C296.076 107.209 296.081 107.113 296.081 107.046C296.082 106.933 296.077 106.82 296.066 106.708C296.056 106.624 296.044 106.527 296.03 106.42H300.081V105.582C300.202 105.596 300.308 105.607 300.399 105.617C300.471 105.626 300.543 105.632 300.616 105.633C300.722 105.634 300.829 105.627 300.934 105.612C301.025 105.599 301.101 105.589 301.161 105.582V106.42H302.847C302.836 106.504 302.829 106.588 302.827 106.673C302.807 106.908 302.796 107.056 302.796 107.116C302.796 107.251 302.802 107.386 302.816 107.521C302.83 107.642 302.84 107.739 302.847 107.814L301.161 107.813ZM300.081 107.813H297.141L300.021 109.731L300.081 109.681V107.813Z" fill="#1A1A18"/>
<path d="M58.6777 140.878V133.953H60.8276C61.292 133.953 61.6318 133.961 61.8472 133.978C62.0621 133.995 62.2715 134.055 62.4629 134.154C62.7348 134.282 62.9632 134.487 63.1194 134.744C63.2756 135 63.3528 135.297 63.3413 135.598C63.3562 136.034 63.2047 136.46 62.9175 136.789C62.6126 137.118 62.2084 137.338 61.7666 137.415C62.0288 137.873 62.3955 138.465 62.8667 139.191C63.1831 139.677 63.4121 140.029 63.5532 140.252L63.9468 140.878C63.8188 140.878 63.6455 140.869 63.4272 140.853C63.2085 140.836 63.0752 140.827 63.0283 140.827C62.9004 140.827 62.727 140.836 62.5083 140.853C62.2896 140.869 62.1602 140.878 62.1196 140.878L60.9185 138.758L60.2622 137.638H60.1919V140.878C60.0771 140.878 59.9829 140.874 59.9092 140.867C59.6196 140.841 59.4614 140.827 59.4346 140.827C59.3203 140.827 59.1724 140.836 58.9902 140.853C58.8086 140.869 58.7041 140.878 58.6777 140.878ZM60.1919 134.508V137.203C60.2352 137.21 60.279 137.213 60.3228 137.213H60.4541C61.3359 137.213 61.7767 136.73 61.7764 135.765C61.7756 135.596 61.7588 135.427 61.7261 135.262C61.7089 135.124 61.6573 134.993 61.5762 134.881C61.495 134.768 61.3869 134.678 61.2617 134.618C61.0121 134.532 60.7482 134.494 60.4844 134.508L60.1919 134.508Z" fill="#1A1A18"/>
<path d="M66.3193 140.878V135.174C65.9361 135.396 65.5419 135.598 65.1382 135.78C65.087 135.689 65.0278 135.603 64.9614 135.522C64.8879 135.435 64.8086 135.352 64.7241 135.275V135.194C65.1821 135.046 65.6735 134.858 66.1983 134.629C66.5884 134.454 67.0662 134.229 67.6318 133.953L67.7124 134.003V140.878C67.6287 140.867 67.5444 140.86 67.46 140.858C67.2241 140.837 67.0762 140.827 67.0156 140.827C66.8808 140.827 66.7459 140.833 66.6118 140.848C66.4907 140.86 66.3931 140.871 66.3193 140.878Z" fill="#1A1A18"/>
<path d="M69.9229 142.622L70.3769 140.756C70.4175 140.594 70.458 140.435 70.498 140.276C70.5416 140.11 70.5972 139.946 70.6645 139.787C70.7159 139.646 70.8029 139.521 70.917 139.424C71.0341 139.344 71.1743 139.305 71.3159 139.313C71.4043 139.311 71.4921 139.326 71.5744 139.358C71.6567 139.391 71.7318 139.439 71.7954 139.5C71.8574 139.555 71.907 139.623 71.941 139.698C71.9749 139.774 71.9924 139.856 71.9922 139.939C71.9899 140.053 71.9548 140.165 71.8911 140.261C71.6221 140.665 71.3395 141.079 71.0434 141.502C70.9224 141.677 70.6296 142.087 70.165 142.732L69.9229 142.622Z" fill="#1A1A18"/>
<path d="M73.2646 140.878V133.953H75.4145C75.8789 133.953 76.2188 133.961 76.4341 133.978C76.6491 133.995 76.8584 134.055 77.0498 134.154C77.3218 134.282 77.5501 134.487 77.7063 134.744C77.8625 135 77.9397 135.297 77.9282 135.598C77.9431 136.034 77.7916 136.46 77.5044 136.789C77.1995 137.118 76.7953 137.338 76.3535 137.415C76.6157 137.873 76.9824 138.465 77.4536 139.191C77.77 139.677 77.999 140.029 78.1401 140.252L78.5337 140.878C78.4058 140.878 78.2324 140.869 78.0142 140.853C77.7954 140.836 77.6621 140.827 77.6152 140.827C77.4873 140.827 77.314 140.836 77.0952 140.853C76.8765 140.869 76.7471 140.878 76.7066 140.878L75.5054 138.758L74.8491 137.638H74.7788V140.878C74.6641 140.878 74.5698 140.874 74.4961 140.867C74.2066 140.841 74.0484 140.827 74.0215 140.827C73.9072 140.827 73.7593 140.836 73.5772 140.853C73.3955 140.869 73.291 140.878 73.2646 140.878ZM74.7788 134.508V137.203C74.8221 137.21 74.8659 137.213 74.9097 137.213H75.041C75.9228 137.213 76.3636 136.73 76.3633 135.765C76.3625 135.596 76.3457 135.427 76.313 135.262C76.2958 135.124 76.2442 134.993 76.1631 134.881C76.0819 134.768 75.9738 134.678 75.8486 134.618C75.599 134.532 75.3351 134.494 75.0713 134.508L74.7788 134.508Z" fill="#1A1A18"/>
<path d="M83.5908 140.827H79.1391V140.394C79.7471 139.828 80.1759 139.411 80.4258 139.142C80.8688 138.685 81.2594 138.181 81.5903 137.638C81.9038 137.133 82.0785 136.555 82.0967 135.962C82.109 135.618 82.0215 135.278 81.8447 134.982C81.7541 134.835 81.626 134.714 81.4735 134.633C81.3209 134.551 81.1494 134.511 80.9765 134.518C80.8164 134.521 80.6609 134.572 80.5296 134.663C80.3984 134.755 80.2973 134.884 80.2392 135.033C80.0943 135.332 80.0217 135.66 80.0273 135.992L79.9267 136.012C79.7116 135.739 79.4438 135.512 79.1391 135.346C79.283 134.936 79.572 134.593 79.9516 134.382C80.3527 134.165 80.8032 134.055 81.2592 134.063C81.8267 134.037 82.389 134.182 82.874 134.478C83.1084 134.635 83.2978 134.851 83.4235 135.104C83.5491 135.357 83.6068 135.639 83.5908 135.921C83.5984 136.36 83.4678 136.791 83.2172 137.152C83.0594 137.381 82.8804 137.594 82.6826 137.789C82.6083 137.862 82.4838 137.973 82.309 138.122C81.9858 138.397 81.6627 138.68 81.3398 138.97C81.0703 139.212 80.865 139.404 80.7241 139.545L80.7338 139.596H82.0263C82.1943 139.596 82.4534 139.582 82.8036 139.556C83.1533 139.528 83.4156 139.515 83.5908 139.515C83.5771 139.663 83.5654 139.791 83.5556 139.898C83.5454 140.006 83.5405 140.097 83.5405 140.171C83.5393 140.289 83.5444 140.407 83.5556 140.524C83.5654 140.618 83.5771 140.72 83.5908 140.827Z" fill="#1A1A18"/>
<path d="M84.5098 142.622L84.9639 140.756C85.0044 140.594 85.0449 140.435 85.085 140.276C85.1285 140.11 85.1842 139.946 85.2515 139.787C85.3028 139.646 85.3898 139.521 85.5039 139.424C85.621 139.344 85.7612 139.305 85.9028 139.313C85.9912 139.311 86.079 139.326 86.1613 139.358C86.2436 139.391 86.3187 139.439 86.3823 139.5C86.4443 139.555 86.494 139.623 86.5279 139.698C86.5618 139.774 86.5793 139.856 86.5791 139.939C86.5768 140.053 86.5418 140.165 86.478 140.261C86.209 140.665 85.9264 141.079 85.6304 141.502C85.5093 141.677 85.2165 142.087 84.752 142.732L84.5098 142.622Z" fill="#1A1A18"/>
<path d="M87.8511 140.878V133.953H90.001C90.4654 133.953 90.8052 133.961 91.0205 133.978C91.2355 133.995 91.4448 134.055 91.6362 134.154C91.9082 134.282 92.1365 134.487 92.2928 134.744C92.449 135 92.5261 135.297 92.5147 135.598C92.5295 136.034 92.378 136.46 92.0908 136.789C91.786 137.118 91.3817 137.338 90.94 137.415C91.2022 137.873 91.5689 138.465 92.0401 139.191C92.3565 139.677 92.5855 140.029 92.7266 140.252L93.1201 140.878C92.9922 140.878 92.8189 140.869 92.6006 140.853C92.3819 140.836 92.2486 140.827 92.2017 140.827C92.0737 140.827 91.9004 140.836 91.6817 140.853C91.4629 140.869 91.3335 140.878 91.293 140.878L90.0918 138.758L89.4355 137.638H89.3652V140.878C89.2505 140.878 89.1562 140.874 89.0825 140.867C88.793 140.841 88.6348 140.827 88.6079 140.827C88.4937 140.827 88.3457 140.836 88.1636 140.853C87.9819 140.869 87.8774 140.878 87.8511 140.878ZM89.3652 134.508V137.203C89.4086 137.21 89.4523 137.213 89.4961 137.213H89.6274C90.5093 137.213 90.95 136.73 90.9497 135.765C90.9489 135.596 90.9321 135.427 90.8994 135.262C90.8822 135.124 90.8307 134.993 90.7495 134.881C90.6684 134.768 90.5602 134.678 90.4351 134.618C90.1854 134.532 89.9215 134.494 89.6577 134.508L89.3652 134.508Z" fill="#1A1A18"/>
<path d="M94.4429 134.124H97.8042C97.793 134.198 97.7864 134.272 97.7842 134.347C97.7642 134.548 97.7539 134.673 97.7539 134.72C97.7528 134.838 97.7594 134.956 97.7739 135.073C97.7876 135.174 97.7974 135.259 97.8042 135.325H94.9072L94.8261 137.076L94.8867 137.112C95.2002 136.945 95.5515 136.862 95.9067 136.87C96.1941 136.865 96.4809 136.899 96.7592 136.971C97.0149 137.047 97.2509 137.178 97.4511 137.355C97.6556 137.524 97.819 137.737 97.9292 137.978C98.0393 138.22 98.0932 138.483 98.0869 138.748C98.0885 139.078 98.0069 139.402 97.8495 139.691C97.6894 139.987 97.4631 140.241 97.1884 140.434C96.933 140.618 96.6456 140.753 96.3408 140.832C96.0219 140.922 95.6924 140.968 95.3613 140.969C95.04 140.971 94.7202 140.925 94.4125 140.832C94.1132 140.74 93.8329 140.595 93.5849 140.403C93.6865 140.253 93.7776 140.096 93.8574 139.934C93.9451 139.751 94.0225 139.564 94.0893 139.373H94.2309C94.2934 139.651 94.4137 139.912 94.5839 140.141C94.6705 140.257 94.7832 140.352 94.9129 140.417C95.0427 140.481 95.1859 140.515 95.331 140.515C95.5288 140.524 95.7254 140.479 95.8997 140.385C96.074 140.291 96.2194 140.151 96.3202 139.98C96.5142 139.638 96.6085 139.247 96.5927 138.854C96.6008 138.482 96.4794 138.119 96.2494 137.827C96.1429 137.701 96.0127 137.597 95.8661 137.521C95.7231 137.445 95.5636 137.405 95.4018 137.405C95.2377 137.404 95.0754 137.44 94.9272 137.511C94.7754 137.584 94.6385 137.685 94.5233 137.809L94.2812 137.668L94.4429 134.124Z" fill="#1A1A18"/>
<path d="M28.9551 35.8542V11.4766" stroke="#1A1A18" stroke-width="0.5669" stroke-miterlimit="22.9256"/>
<path d="M275.136 35.8542V11.4766" stroke="#1A1A18" stroke-width="0.5669" stroke-miterlimit="22.9256"/>
<path d="M28.9551 11.4766H275.136" stroke="#1A1A18" stroke-width="0.5669" stroke-miterlimit="22.9256"/>
<path d="M140.16 7.9646L140.243 7.88208C140.396 7.99649 140.557 8.099 140.726 8.18872C140.897 8.28178 141.086 8.33425 141.281 8.34204C141.626 8.33539 141.962 8.22649 142.245 8.02912C142.529 7.83174 142.747 7.55476 142.873 7.23316C143.186 6.61139 143.344 5.9235 143.333 5.22779V5.10962L143.251 5.07398C143.075 5.27093 142.858 5.42693 142.616 5.53095C142.373 5.63497 142.111 5.68446 141.847 5.67597C141.247 5.69756 140.661 5.49098 140.207 5.09784C139.983 4.89887 139.806 4.65303 139.687 4.37775C139.569 4.10247 139.513 3.80453 139.523 3.5051C139.512 3.12331 139.566 2.7424 139.682 2.3786C139.824 2.03149 140.039 1.7194 140.313 1.46405C140.548 1.23716 140.83 1.06579 141.139 0.962588C141.462 0.855135 141.801 0.801364 142.142 0.803409C142.583 0.796775 143.021 0.872788 143.434 1.02753C143.818 1.17927 144.151 1.43698 144.395 1.77069C144.625 2.09074 144.793 2.45093 144.891 2.83271C145 3.23657 145.055 3.65309 145.056 4.07148C145.057 4.67164 144.986 5.26977 144.843 5.85273C144.712 6.40352 144.484 6.92673 144.171 7.39814C143.861 7.85691 143.439 8.22861 142.944 8.47773C142.449 8.73692 141.899 8.87244 141.34 8.87271C141.174 8.87271 141.057 8.8688 140.986 8.861C140.877 8.84387 140.771 8.81624 140.667 8.77848C140.626 8.75953 140.582 8.74559 140.538 8.73697C140.482 8.72525 140.439 8.67252 140.408 8.57779C140.376 8.48355 140.348 8.39908 140.325 8.32437C140.279 8.20037 140.224 8.08009 140.16 7.9646ZM143.333 3.30445C143.348 2.88669 143.3 2.46911 143.19 2.06568C143.152 1.86158 143.045 1.67699 142.886 1.54355C142.727 1.41011 142.526 1.33611 142.319 1.33423C142.129 1.3419 141.947 1.40856 141.797 1.52491C141.648 1.64125 141.538 1.80147 141.484 1.98316C141.336 2.33804 141.262 2.71973 141.269 3.10425C141.26 3.49702 141.321 3.88828 141.448 4.26001C141.493 4.46244 141.605 4.64405 141.765 4.7764C141.924 4.90875 142.124 4.98437 142.331 4.99146C142.512 4.98968 142.689 4.93051 142.834 4.82245C142.98 4.71439 143.088 4.56299 143.142 4.3899C143.278 4.04451 143.343 3.6754 143.333 3.30445H143.333Z" fill="#1A1A18"/>
<path d="M148.89 0.803477C149.332 0.77572 149.773 0.872672 150.163 1.08329C150.553 1.29391 150.876 1.60975 151.096 1.99488C151.509 2.79136 151.704 3.6827 151.662 4.57887C151.688 5.3131 151.613 6.04747 151.438 6.761C151.307 7.21341 151.086 7.63476 150.789 7.99977C150.553 8.28152 150.256 8.50637 149.922 8.65754C149.587 8.80871 149.222 8.88229 148.854 8.87281C148.404 8.88714 147.957 8.7856 147.557 8.57789C147.178 8.35587 146.867 8.03346 146.66 7.64625C146.424 7.24211 146.256 6.80155 146.164 6.34254C146.073 5.84635 146.03 5.3426 146.035 4.83814C146.035 4.33988 146.078 3.84259 146.164 3.35182C146.231 2.91156 146.379 2.48753 146.601 2.10133C146.825 1.69436 147.157 1.35755 147.562 1.1284C147.966 0.899248 148.425 0.786773 148.89 0.803477ZM147.781 4.97975C147.749 5.81298 147.804 6.64723 147.946 7.469C148.095 8.051 148.402 8.34199 148.866 8.34199C149.275 8.34199 149.558 8.03519 149.715 7.42158C149.879 6.56279 149.946 5.68842 149.916 4.81468C149.952 3.90474 149.879 2.99373 149.698 2.10127C149.552 1.59004 149.283 1.33434 148.889 1.33418C148.457 1.33418 148.164 1.62519 148.011 2.20719C147.826 3.11929 147.749 4.04977 147.781 4.97975Z" fill="#1A1A18"/>
<path d="M155.449 0.803477C155.891 0.77572 156.333 0.872672 156.723 1.08329C157.113 1.29391 157.436 1.60975 157.655 1.99488C158.068 2.79136 158.263 3.6827 158.222 4.57887C158.248 5.3131 158.173 6.04747 157.997 6.761C157.867 7.21341 157.646 7.63476 157.349 7.99977C157.113 8.28152 156.816 8.50637 156.481 8.65754C156.146 8.80871 155.781 8.88229 155.414 8.87281C154.963 8.88714 154.516 8.7856 154.116 8.57789C153.737 8.35586 153.427 8.03346 153.22 7.64625C152.983 7.24211 152.816 6.80155 152.724 6.34254C152.633 5.84635 152.589 5.3426 152.594 4.83814C152.594 4.33988 152.638 3.84259 152.724 3.35182C152.791 2.91156 152.939 2.48753 153.161 2.10133C153.384 1.69436 153.717 1.35755 154.121 1.1284C154.525 0.899248 154.985 0.786775 155.449 0.803477ZM154.34 4.97975C154.309 5.81298 154.364 6.64723 154.505 7.469C154.655 8.051 154.961 8.34199 155.426 8.34199C155.834 8.34199 156.117 8.03519 156.275 7.42158C156.438 6.56279 156.506 5.68842 156.475 4.81468C156.512 3.90474 156.438 2.99373 156.257 2.10127C156.112 1.59004 155.842 1.33434 155.449 1.33418C155.016 1.33418 154.723 1.62519 154.57 2.20719C154.386 3.11929 154.309 4.04977 154.34 4.97975V4.97975Z" fill="#1A1A18"/>
<path d="M29.8247 89.0898H13.1309" stroke="#1A1A18" stroke-width="0.5669" stroke-miterlimit="22.9256"/>
<path d="M29.8247 93.709H13.1309" stroke="#1A1A18" stroke-width="0.5669" stroke-miterlimit="22.9256"/>
<path d="M13.1309 89.0898V93.709" stroke="#1A1A18" stroke-width="0.5669" stroke-miterlimit="22.9256"/>
<path d="M8.09327 96.2907H1.42774C1.6871 96.7386 1.92341 97.1995 2.13574 97.6716C2.02965 97.7316 1.92886 97.8005 1.83447 97.8776C1.7325 97.9639 1.63611 98.0565 1.54589 98.155H1.45118C1.27832 97.6198 1.0581 97.0456 0.79053 96.4323C0.58643 95.9763 0.32292 95.418 0 94.7575L0.0590899 94.6628H8.09327C8.07999 94.7606 8.072 94.859 8.06934 94.9577C8.0459 95.2331 8.03418 95.4059 8.03418 95.4772C8.0334 95.6348 8.04123 95.7922 8.05762 95.9489C8.07325 96.0905 8.08545 96.2048 8.09327 96.2907Z" fill="#1A1A18"/>
<path d="M3.68118 87.8913H3.7637C3.82899 87.4266 4.06953 87.0046 4.43602 86.7116C4.8023 86.4139 5.26195 86.2552 5.73387 86.2634C6.07309 86.2504 6.41082 86.3147 6.72147 86.4516C7.03212 86.5885 7.30754 86.7943 7.52687 87.0534C7.98812 87.6176 8.22723 88.331 8.19923 89.0592C8.20154 89.4191 8.15789 89.7778 8.06935 90.1266C7.98757 90.4509 7.84563 90.757 7.65089 91.029C7.45438 91.2995 7.1897 91.5131 6.8838 91.6481C6.57142 91.7925 6.23135 91.8671 5.88722 91.8668C5.38917 91.8686 4.90428 91.707 4.50685 91.4069C4.30902 91.2687 4.14119 91.0919 4.01348 90.8871C3.88576 90.6824 3.80079 90.4539 3.76369 90.2154H3.68118C3.60495 90.5961 3.40098 90.9392 3.10305 91.1881C2.81387 91.4452 2.43971 91.5861 2.05276 91.5836C1.75598 91.5943 1.46172 91.5255 1.20042 91.3844C0.939118 91.2433 0.720247 91.0349 0.566432 90.7809C0.259432 90.2647 0.107864 89.671 0.129912 89.0709C0.12406 88.7443 0.151711 88.4181 0.212432 88.0972C0.279843 87.8148 0.402114 87.5483 0.572292 87.313C0.725359 87.0772 0.926325 86.8763 1.16213 86.7232C1.40137 86.5893 1.67282 86.5238 1.9468 86.5337C2.34684 86.523 2.73838 86.6503 3.05569 86.8941C3.37037 87.1467 3.59073 87.498 3.68118 87.8913V87.8913ZM2.17092 89.9558C2.34286 89.9572 2.51458 89.9435 2.68411 89.9148C2.83338 89.8892 2.9771 89.838 3.10891 89.7634C3.23813 89.6904 3.34901 89.5888 3.43313 89.4665C3.51691 89.3516 3.56236 89.2132 3.56301 89.071C3.56242 88.9069 3.50951 88.7471 3.41195 88.6151C3.3144 88.483 3.17729 88.3855 3.02053 88.3367C2.70932 88.2125 2.37597 88.1533 2.04102 88.1628C1.72615 88.1478 1.41189 88.2032 1.1211 88.3249C0.977363 88.3874 0.856194 88.4923 0.77388 88.6257C0.691567 88.7591 0.652054 88.9145 0.660652 89.071C0.658358 89.2341 0.708835 89.3937 0.804563 89.5258C0.900292 89.658 1.03615 89.7557 1.1919 89.8044C1.50562 89.9167 1.83792 89.9681 2.17092 89.9558V89.9558ZM4.07034 89.4362C4.15286 89.5791 4.2651 89.7025 4.39946 89.7982C4.53383 89.8939 4.68718 89.9596 4.84914 89.9909C5.17158 90.0809 5.50515 90.1246 5.83987 90.1208C6.33358 90.1485 6.82485 90.0339 7.2554 89.7907C7.38261 89.716 7.48782 89.609 7.56036 89.4806C7.63291 89.3521 7.67021 89.2068 7.66848 89.0593C7.65929 88.8696 7.5905 88.6876 7.47188 88.5393C7.35327 88.3909 7.19088 88.2838 7.00784 88.2331C6.64583 88.0804 6.25621 88.0039 5.86331 88.0085C5.60419 88.0088 5.34564 88.0327 5.09084 88.0798C4.86848 88.1151 4.65449 88.1909 4.4595 88.3034C4.31796 88.3788 4.19941 88.491 4.11638 88.6281C4.03336 88.7653 3.98894 88.9224 3.98782 89.0827C3.98694 89.2054 4.01523 89.3266 4.07034 89.4362V89.4362Z" fill="#1A1A18"/>
<path d="M108.932 122.371V93.9844H129.944" stroke="#1A1A18" stroke-width="0.5669" stroke-miterlimit="22.9256"/>
<path d="M151.526 133.729L131.671 143.809H55.3652" stroke="#1A1A18" stroke-width="0.5669" stroke-miterlimit="22.9256"/>
<path d="M33.0673 35.8535H28.9531V89.0904H33.0673V35.8535Z" stroke="#1A1A18" stroke-width="0.5669" stroke-miterlimit="22.9256"/>
<path d="M275.138 35.8535H271.023V89.0904H275.138V35.8535Z" stroke="#1A1A18" stroke-width="0.5669" stroke-miterlimit="22.9256"/>
<path fill-rule="evenodd" clip-rule="evenodd" d="M151.963 128.644C184.038 128.691 215.029 117.04 239.129 95.8747C244.103 91.6615 250.407 89.3451 256.925 89.3359H274.429V93.7095H256.925C251.457 93.6808 246.161 95.6196 242.003 99.1718C218.217 120.005 187.941 131.942 156.337 132.949H147.59C115.89 131.979 85.5243 119.973 61.7323 99.0039C57.5995 95.5933 52.4115 93.7221 47.0532 93.7095H29.498V89.336H47.0532C53.4517 89.3485 59.6459 91.5901 64.5705 95.6754C88.7003 116.964 119.785 128.691 151.963 128.644V128.644Z" fill="#FFEC00" stroke="#1A1A18" stroke-width="0.5669" stroke-miterlimit="22.9256"/>
<path d="M105.645 92.0967V84.0039H108.157C108.7 84.0039 109.097 84.0137 109.349 84.0332C109.6 84.0533 109.845 84.1237 110.068 84.2402C110.386 84.3893 110.653 84.6288 110.836 84.9288C111.018 85.2287 111.108 85.5758 111.095 85.9267C111.112 86.4369 110.935 86.9346 110.6 87.3193C110.243 87.7032 109.771 87.9601 109.254 88.0508C109.561 88.5859 109.99 89.278 110.541 90.1269C110.91 90.6933 111.178 91.1061 111.343 91.3652L111.803 92.0966C111.653 92.0966 111.451 92.0869 111.195 92.0674C110.939 92.0478 110.784 92.0381 110.729 92.0381C110.58 92.0381 110.377 92.0478 110.122 92.0674C109.866 92.0869 109.715 92.0966 109.668 92.0966L108.264 89.6201L107.497 88.3105H107.414V92.0966C107.28 92.0966 107.17 92.0927 107.084 92.0849C106.746 92.0537 106.561 92.0381 106.529 92.0381C106.396 92.0381 106.223 92.0478 106.01 92.0674C105.798 92.0869 105.676 92.0967 105.645 92.0967ZM107.414 84.6533V87.8027C107.465 87.8102 107.516 87.8141 107.567 87.8145H107.721C108.751 87.8145 109.266 87.2503 109.266 86.1221C109.265 85.9247 109.246 85.7279 109.208 85.5342C109.188 85.3733 109.127 85.22 109.032 85.0886C108.938 84.9571 108.811 84.8517 108.665 84.7822C108.373 84.6812 108.065 84.6375 107.756 84.6533L107.414 84.6533Z" fill="#1A1A18"/>
<path d="M115.448 90.127H112.369C112.385 90.001 112.398 89.8906 112.41 89.7969C112.421 89.7185 112.427 89.6396 112.428 89.5605C112.429 89.4501 112.421 89.3397 112.404 89.2305C112.388 89.1357 112.376 89.0576 112.369 88.9941C112.573 88.7109 112.876 88.2663 113.277 87.6601C113.6 87.1728 113.922 86.693 114.245 86.2207C114.567 85.748 114.803 85.3977 114.953 85.1699C115.228 84.7607 115.448 84.4144 115.613 84.1308C115.731 84.1465 115.863 84.1601 116.008 84.1718C116.154 84.1836 116.266 84.1904 116.345 84.1904C116.477 84.1917 116.609 84.1855 116.74 84.1718C116.838 84.1601 116.95 84.1464 117.076 84.1308V88.8642H118.055C118.04 89.0058 118.026 89.1299 118.014 89.2363C118.003 89.3206 117.997 89.4053 117.996 89.4902C117.995 89.6143 118.003 89.7384 118.02 89.8613C118.036 89.9677 118.047 90.0556 118.055 90.1269H117.076V92.0966C116.978 92.0837 116.88 92.0759 116.781 92.0732C116.506 92.0498 116.333 92.0381 116.262 92.0381C116.105 92.0373 115.947 92.0451 115.79 92.0615C115.648 92.0771 115.534 92.0888 115.448 92.0966V90.127ZM115.448 88.8643V85.4287L113.207 88.7939L113.266 88.8643H115.448Z" fill="#1A1A18"/>
<path d="M122.975 87.6846V87.7676C123.439 87.833 123.861 88.0734 124.154 88.4394C124.452 88.8058 124.611 89.2654 124.603 89.7373C124.616 90.0767 124.551 90.4146 124.414 90.7254C124.277 91.0362 124.071 91.3118 123.812 91.5312C123.248 91.9923 122.535 92.2313 121.807 92.2031C121.447 92.2054 121.088 92.1618 120.739 92.0732C120.414 91.9919 120.108 91.8497 119.836 91.6543C119.566 91.458 119.352 91.1935 119.217 90.8877C119.073 90.5751 118.998 90.2349 118.999 89.8906C118.997 89.3927 119.159 88.908 119.459 88.5107C119.597 88.3128 119.774 88.1449 119.979 88.0171C120.183 87.8894 120.412 87.8045 120.65 87.7676V87.6846C120.269 87.6088 119.926 87.4047 119.677 87.1064C119.42 86.8174 119.279 86.4434 119.282 86.0566C119.271 85.7599 119.34 85.4657 119.481 85.2045C119.622 84.9432 119.83 84.7243 120.084 84.5703C120.6 84.2632 121.195 84.1116 121.795 84.1338C122.121 84.1276 122.447 84.1554 122.768 84.2168C123.051 84.2839 123.317 84.406 123.553 84.5762C123.789 84.7292 123.99 84.9302 124.143 85.166C124.276 85.4056 124.341 85.6771 124.331 85.9512C124.342 86.351 124.215 86.7423 123.971 87.0596C123.719 87.3744 123.368 87.5946 122.975 87.6846V87.6846ZM121.429 88.0742C121.286 88.1567 121.163 88.2689 121.067 88.4032C120.972 88.5375 120.906 88.6907 120.875 88.8525C120.785 89.1752 120.741 89.5089 120.745 89.8437C120.717 90.3377 120.832 90.8291 121.075 91.2597C121.15 91.387 121.257 91.4923 121.385 91.5648C121.514 91.6374 121.659 91.6746 121.807 91.6728C121.996 91.6633 122.178 91.5943 122.326 91.4756C122.474 91.357 122.582 91.1946 122.632 91.0117C122.785 90.6496 122.861 90.26 122.856 89.8671C122.857 89.608 122.833 89.3495 122.786 89.0947C122.75 88.8724 122.674 88.6585 122.562 88.4638C122.486 88.3221 122.374 88.2034 122.237 88.1202C122.1 88.037 121.943 87.9924 121.783 87.9912C121.66 87.9908 121.539 88.0193 121.429 88.0742V88.0742ZM120.91 86.1748C120.908 86.3469 120.922 86.5188 120.951 86.6885C120.976 86.8375 121.027 86.9809 121.102 87.1123C121.175 87.2416 121.277 87.3528 121.399 87.4375C121.514 87.5209 121.653 87.5663 121.795 87.5674C121.959 87.5665 122.119 87.5134 122.25 87.4157C122.382 87.3181 122.48 87.181 122.528 87.0244C122.653 86.7133 122.713 86.3799 122.703 86.0449C122.718 85.7299 122.662 85.4156 122.54 85.125C122.478 84.9813 122.373 84.8601 122.24 84.7779C122.107 84.6956 121.951 84.6562 121.795 84.665C121.632 84.6624 121.472 84.7127 121.34 84.8082C121.208 84.9038 121.11 85.0395 121.061 85.1952C120.949 85.5092 120.897 85.8416 120.91 86.1748V86.1748Z" fill="#1A1A18"/>
<path d="M128.566 90.127H125.487C125.503 90.001 125.517 89.8906 125.529 89.7969C125.539 89.7185 125.545 89.6396 125.546 89.5605C125.548 89.4501 125.54 89.3397 125.523 89.2305C125.507 89.1357 125.495 89.0576 125.487 88.9941C125.692 88.7109 125.995 88.2663 126.396 87.6601C126.718 87.1728 127.041 86.693 127.363 86.2207C127.686 85.748 127.922 85.3977 128.071 85.1699C128.346 84.7607 128.566 84.4144 128.732 84.1308C128.85 84.1465 128.981 84.1601 129.127 84.1718C129.272 84.1836 129.384 84.1904 129.463 84.1904C129.595 84.1917 129.727 84.1855 129.858 84.1718C129.956 84.1601 130.069 84.1464 130.195 84.1308V88.8642H131.174C131.158 89.0058 131.144 89.1299 131.132 89.2363C131.122 89.3206 131.116 89.4053 131.115 89.4902C131.113 89.6143 131.121 89.7384 131.139 89.8613C131.154 89.9677 131.166 90.0556 131.174 90.1269H130.195V92.0966C130.097 92.0837 129.999 92.0759 129.9 92.0732C129.624 92.0498 129.451 92.0381 129.381 92.0381C129.223 92.0373 129.066 92.0451 128.909 92.0615C128.767 92.0771 128.653 92.0888 128.566 92.0966L128.566 90.127ZM128.566 88.8643V85.4287L126.325 88.7939L126.384 88.8643H128.566Z" fill="#1A1A18"/>
</svg>
