<svg width="275" height="161" viewBox="0 0 275 161" fill="none" xmlns="http://www.w3.org/2000/svg">
<path fill-rule="evenodd" clip-rule="evenodd" d="M0.480469 99.6053V35.8535H247.341V99.4314C209.068 118.746 166.801 128.822 123.931 128.852C81.0612 128.882 38.7805 118.866 0.480469 99.6053V99.6053Z" fill="white" stroke="#1A1A18" stroke-width="0.5669" stroke-miterlimit="22.9256"/>
<path d="M1.1582 35.8542V11.4766" stroke="#1A1A18" stroke-width="0.5669" stroke-miterlimit="22.9256"/>
<path d="M247.339 35.8542V11.4766" stroke="#1A1A18" stroke-width="0.5669" stroke-miterlimit="22.9256"/>
<path d="M1.1582 11.4766H247.339" stroke="#1A1A18" stroke-width="0.5669" stroke-miterlimit="22.9256"/>
<path d="M111.688 7.96454L111.77 7.88202C111.923 7.99625 112.085 8.09876 112.254 8.18866C112.425 8.28175 112.614 8.33423 112.808 8.34198C113.153 8.33552 113.489 8.22669 113.773 8.02929C114.056 7.8319 114.275 7.5548 114.401 7.23309C114.713 6.61133 114.871 5.92343 114.861 5.22772V5.10956L114.779 5.07391C114.603 5.27087 114.386 5.42687 114.143 5.53088C113.901 5.6349 113.638 5.6844 113.374 5.6759C112.774 5.69741 112.189 5.49084 111.735 5.09778C111.511 4.89883 111.333 4.65299 111.215 4.37771C111.097 4.10244 111.04 3.8045 111.05 3.50503C111.039 3.12317 111.093 2.74221 111.21 2.37854C111.351 2.03134 111.567 1.7192 111.841 1.46399C112.075 1.237 112.357 1.06561 112.666 0.962522C112.99 0.855107 113.329 0.801336 113.669 0.803343C114.11 0.796752 114.548 0.872763 114.961 1.02746C115.346 1.17919 115.679 1.43689 115.923 1.77063C116.153 2.09082 116.321 2.45097 116.418 2.83264C116.528 3.23646 116.583 3.65301 116.583 4.07141C116.585 4.67155 116.514 5.26968 116.372 5.85266C116.24 6.40341 116.012 6.92659 115.699 7.39807C115.389 7.85685 114.966 8.22854 114.472 8.47766C113.977 8.73691 113.426 8.87243 112.868 8.87265C112.703 8.87265 112.584 8.86874 112.513 8.86093C112.405 8.84369 112.298 8.81606 112.195 8.77841C112.153 8.75924 112.11 8.7453 112.065 8.73691C112.01 8.72519 111.967 8.67246 111.935 8.57773C111.904 8.48349 111.876 8.39901 111.853 8.32431C111.807 8.20039 111.752 8.08012 111.688 7.96454ZM114.861 3.30438C114.876 2.88664 114.828 2.46903 114.718 2.06561C114.68 1.86158 114.573 1.67704 114.414 1.54361C114.255 1.41017 114.055 1.33614 113.847 1.33417C113.658 1.3418 113.475 1.40844 113.325 1.52478C113.175 1.64111 113.066 1.80134 113.011 1.98309C112.863 2.33811 112.79 2.71971 112.796 3.10418C112.787 3.49704 112.848 3.88839 112.976 4.25995C113.021 4.4624 113.133 4.64405 113.292 4.77643C113.452 4.9088 113.651 4.98442 113.859 4.99139C114.04 4.98975 114.217 4.93065 114.362 4.82257C114.508 4.71449 114.616 4.56299 114.67 4.38983C114.806 4.04441 114.871 3.6753 114.861 3.30438Z" fill="#1A1A18"/>
<path d="M120.418 0.803403C120.861 0.775882 121.302 0.872927 121.692 1.08352C122.082 1.29412 122.405 1.60983 122.624 1.99481C123.037 2.79147 123.232 3.68273 123.19 4.57879C123.216 5.313 123.141 6.04737 122.966 6.76092C122.835 7.21314 122.615 7.63441 122.318 7.99969C122.082 8.2815 121.785 8.50639 121.45 8.65756C121.115 8.80873 120.75 8.88227 120.382 8.87274C119.932 8.88702 119.485 8.78547 119.085 8.57782C118.706 8.35585 118.396 8.03345 118.188 7.64618C117.952 7.24172 117.785 6.80126 117.693 6.34247C117.601 5.84631 117.558 5.34254 117.563 4.83807C117.563 4.3398 117.606 3.84248 117.693 3.35174C117.76 2.91148 117.908 2.48746 118.129 2.10125C118.353 1.69431 118.686 1.35752 119.09 1.12839C119.494 0.899246 119.954 0.786755 120.418 0.803403ZM119.309 4.97967C119.277 5.81291 119.332 6.64719 119.474 7.46893C119.623 8.05093 119.93 8.34192 120.394 8.34192C120.803 8.34192 121.086 8.03511 121.244 7.42151C121.408 6.56274 121.475 5.68836 121.445 4.8146C121.481 3.90465 121.407 2.99363 121.226 2.10119C121.08 1.58997 120.811 1.33427 120.418 1.3341C119.986 1.3341 119.693 1.62512 119.539 2.20712C119.355 3.11919 119.278 4.04967 119.309 4.97967Z" fill="#1A1A18"/>
<path d="M126.977 0.803403C127.419 0.775883 127.86 0.872927 128.25 1.08352C128.64 1.29412 128.964 1.60983 129.183 1.99481C129.595 2.79147 129.79 3.68273 129.748 4.57879C129.775 5.313 129.7 6.04737 129.525 6.76092C129.394 7.21314 129.173 7.63441 128.876 7.99969C128.64 8.2815 128.344 8.50639 128.009 8.65756C127.673 8.80873 127.308 8.88227 126.941 8.87274C126.49 8.88702 126.044 8.78547 125.644 8.57782C125.265 8.35585 124.954 8.03345 124.747 7.64618C124.511 7.24172 124.344 6.80126 124.251 6.34247C124.16 5.84631 124.117 5.34254 124.122 4.83807C124.122 4.3398 124.165 3.84248 124.251 3.35174C124.318 2.91149 124.466 2.48746 124.688 2.10125C124.912 1.6943 125.245 1.35752 125.649 1.12838C126.053 0.899246 126.513 0.786754 126.977 0.803403V0.803403ZM125.868 4.97967C125.836 5.81291 125.891 6.64719 126.033 7.46893C126.182 8.05093 126.489 8.34192 126.953 8.34192C127.362 8.34192 127.645 8.03511 127.802 7.42151C127.966 6.56274 128.034 5.68836 128.003 4.8146C128.039 3.90465 127.966 2.99363 127.785 2.10119C127.639 1.58997 127.37 1.33427 126.977 1.3341C126.544 1.3341 126.251 1.62512 126.098 2.20712C125.914 3.11919 125.836 4.04967 125.868 4.97967V4.97967Z" fill="#1A1A18"/>
<path fill-rule="evenodd" clip-rule="evenodd" d="M246.485 99.881C208.375 118.937 166.352 128.856 123.744 128.853C81.1361 128.85 39.1143 118.925 1.00781 99.8633L1.0752 105.401C39.3072 124.091 81.3041 133.8 123.86 133.785C166.416 133.771 208.406 124.034 246.626 105.317L246.485 99.881Z" fill="#FFEC00" stroke="#1A1A18" stroke-width="0.5669" stroke-miterlimit="22.9256"/>
<path d="M246.504 99.4883H263.235" stroke="#1A1A18" stroke-width="0.5669" stroke-miterlimit="22.9256"/>
<path d="M123.326 133.947H263.234" stroke="#1A1A18" stroke-width="0.5669" stroke-miterlimit="22.9256"/>
<path d="M263.234 99.4883V133.947" stroke="#1A1A18" stroke-width="0.5669" stroke-miterlimit="22.9256"/>
<path d="M1.02539 160.55V99.5801" stroke="#1A1A18" stroke-width="0.5669" stroke-miterlimit="22.9256"/>
<path d="M247.049 160.551V99.4883" stroke="#1A1A18" stroke-width="0.5669" stroke-miterlimit="22.9256"/>
<path d="M1.02344 160.551H247.047" stroke="#1A1A18" stroke-width="0.5669" stroke-miterlimit="22.9256"/>
<path d="M110.681 156.226L109.712 154.47C109.624 154.606 109.439 154.891 109.156 155.328C108.907 155.716 108.719 156.015 108.591 156.226L108.188 156.176L107.783 156.226L109.389 153.985C109.126 153.518 108.874 153.082 108.632 152.677C108.47 152.406 108.201 151.96 107.824 151.338C107.918 151.338 108.073 151.345 108.288 151.359C108.504 151.374 108.621 151.381 108.642 151.381C108.735 151.381 108.896 151.374 109.121 151.359C109.347 151.345 109.463 151.338 109.47 151.338C109.685 151.721 109.826 151.981 109.894 152.116C110.075 152.46 110.223 152.726 110.338 152.915C110.681 152.436 111.031 151.911 111.388 151.338H112.286C112.01 151.669 111.663 152.104 111.246 152.643C110.897 153.095 110.698 153.352 110.65 153.413L111.195 154.374C111.572 154.995 111.949 155.612 112.326 156.226C112.231 156.226 112.075 156.218 111.857 156.201C111.638 156.184 111.516 156.176 111.488 156.176C111.4 156.176 111.249 156.184 111.034 156.201C110.818 156.218 110.701 156.226 110.681 156.226Z" fill="#1A1A18"/>
<path d="M115.455 156.317C114.78 156.346 114.12 156.108 113.618 155.656C113.381 155.428 113.195 155.152 113.073 154.847C112.951 154.541 112.896 154.213 112.911 153.885C112.895 153.535 112.948 153.185 113.068 152.856C113.187 152.527 113.371 152.225 113.607 151.967C113.847 151.722 114.136 151.532 114.454 151.406C114.772 151.281 115.113 151.224 115.455 151.239C116.14 151.207 116.811 151.44 117.328 151.89C117.567 152.117 117.755 152.392 117.878 152.698C118 153.004 118.055 153.333 118.039 153.662C118.065 154.366 117.811 155.052 117.333 155.57C117.091 155.82 116.798 156.016 116.474 156.145C116.15 156.274 115.803 156.332 115.455 156.317V156.317ZM115.525 151.683C115.333 151.687 115.146 151.75 114.991 151.864C114.835 151.977 114.719 152.137 114.657 152.319C114.468 152.808 114.382 153.331 114.405 153.854C114.397 154.276 114.462 154.696 114.597 155.095C114.778 155.607 115.064 155.863 115.455 155.863C115.818 155.863 116.098 155.607 116.293 155.095C116.474 154.58 116.559 154.036 116.545 153.49C116.56 153.045 116.471 152.602 116.283 152.198C116.222 152.047 116.117 151.917 115.982 151.826C115.848 151.734 115.688 151.684 115.525 151.683Z" fill="#1A1A18"/>
<path d="M118.939 158.79V151.341C119.013 151.341 119.139 151.347 119.317 151.36C119.495 151.374 119.595 151.381 119.614 151.381C119.688 151.381 119.8 151.374 119.948 151.36C120.096 151.347 120.207 151.341 120.281 151.341V152.219C120.388 151.935 120.571 151.687 120.811 151.502C121.055 151.323 121.351 151.231 121.653 151.239C121.953 151.222 122.252 151.282 122.523 151.412C122.793 151.543 123.025 151.741 123.198 151.986C123.521 152.555 123.678 153.203 123.649 153.856C123.621 154.51 123.409 155.142 123.037 155.681C122.866 155.885 122.651 156.048 122.408 156.159C122.165 156.269 121.901 156.323 121.634 156.317C121.36 156.328 121.088 156.26 120.852 156.12C120.641 155.984 120.463 155.803 120.331 155.59V158.79C119.869 158.723 119.4 158.723 118.939 158.79V158.79ZM121.21 155.661C121.366 155.642 121.515 155.582 121.639 155.486C121.764 155.39 121.861 155.262 121.919 155.116C122.095 154.702 122.176 154.253 122.158 153.804C122.179 153.322 122.11 152.841 121.954 152.385C121.91 152.238 121.819 152.111 121.696 152.02C121.573 151.93 121.423 151.883 121.271 151.886C120.883 151.886 120.607 152.131 120.444 152.622C120.326 153.022 120.271 153.438 120.281 153.854C120.27 154.236 120.318 154.617 120.424 154.984C120.573 155.435 120.835 155.661 121.21 155.661V155.661Z" fill="#1A1A18"/>
<path d="M123.824 155.59H124.409L124.742 154.803C124.971 154.237 125.205 153.654 125.444 153.054C125.683 152.456 125.889 151.884 126.065 151.338C126.152 151.34 126.24 151.347 126.327 151.359C126.498 151.388 126.672 151.388 126.842 151.359C126.926 151.347 127.01 151.34 127.095 151.338C127.256 151.809 127.419 152.281 127.584 152.752C127.749 153.223 127.916 153.695 128.084 154.166C128.151 154.347 128.333 154.822 128.629 155.59H129.144C129.128 155.648 129.116 155.707 129.108 155.766C129.097 155.852 129.092 155.938 129.093 156.024C129.092 156.098 129.096 156.172 129.104 156.246C129.113 156.321 129.126 156.395 129.144 156.469H129.043C128.951 156.381 128.843 156.312 128.724 156.266C128.605 156.22 128.479 156.198 128.352 156.201C128.038 156.184 127.562 156.176 126.923 156.176H126.045C125.412 156.176 124.944 156.184 124.642 156.201C124.376 156.203 124.119 156.298 123.915 156.469H123.824C123.841 156.409 123.852 156.348 123.859 156.287C123.87 156.2 123.874 156.112 123.874 156.024C123.874 155.943 123.871 155.866 123.864 155.792C123.858 155.723 123.845 155.655 123.824 155.59V155.59ZM125.166 155.59H127.125L126.186 152.72C125.99 153.246 125.859 153.6 125.792 153.782C125.563 154.401 125.355 155.004 125.166 155.59V155.59Z" fill="#1A1A18"/>
<path d="M133.394 152.582V155.348C133.386 155.413 133.392 155.478 133.411 155.541C133.43 155.604 133.462 155.662 133.504 155.712C133.626 155.792 133.773 155.828 133.918 155.812V156.045C133.769 156.112 133.616 156.171 133.461 156.222C133.311 156.277 133.154 156.31 132.994 156.317C132.774 156.322 132.559 156.255 132.381 156.125C132.201 155.987 132.068 155.796 132 155.58C131.873 155.808 131.685 155.997 131.457 156.125C131.23 156.253 130.973 156.319 130.713 156.317C130.337 156.335 129.968 156.213 129.677 155.973C129.542 155.848 129.437 155.694 129.369 155.523C129.301 155.352 129.272 155.168 129.284 154.984C129.271 154.791 129.305 154.598 129.382 154.421C129.459 154.243 129.578 154.087 129.728 153.965C130.153 153.701 130.623 153.52 131.115 153.43C131.276 153.39 131.399 153.356 131.487 153.329C131.614 153.289 131.735 153.235 131.85 153.168C131.9 153.119 131.939 153.061 131.965 152.996C131.99 152.924 132.002 152.849 132 152.773C131.999 152.654 131.972 152.537 131.921 152.43C131.869 152.323 131.795 152.228 131.703 152.153C131.526 151.983 131.291 151.887 131.045 151.886C130.75 151.888 130.461 151.972 130.211 152.128C130.041 152.209 129.903 152.344 129.818 152.512H129.748L129.618 151.916C129.86 151.688 130.15 151.517 130.466 151.416C130.794 151.301 131.138 151.241 131.485 151.239C131.927 151.226 132.365 151.327 132.757 151.532C132.952 151.628 133.117 151.777 133.229 151.963C133.342 152.15 133.399 152.364 133.394 152.582V152.582ZM132 154.57V153.592C131.798 153.659 131.636 153.713 131.516 153.753C131.33 153.814 131.155 153.903 130.996 154.015C130.877 154.102 130.788 154.224 130.743 154.364C130.696 154.526 130.674 154.694 130.678 154.863C130.673 155.057 130.716 155.25 130.804 155.424C130.843 155.5 130.903 155.563 130.978 155.605C131.052 155.647 131.137 155.667 131.223 155.661C131.35 155.669 131.477 155.64 131.588 155.577C131.699 155.514 131.79 155.421 131.849 155.307C131.96 155.078 132.012 154.825 132 154.57V154.57Z" fill="#1A1A18"/>
<path d="M140.692 152.451V152.521C141.09 152.577 141.451 152.783 141.702 153.096C141.957 153.41 142.093 153.803 142.086 154.207C142.097 154.497 142.042 154.786 141.925 155.052C141.807 155.318 141.631 155.554 141.409 155.742C140.926 156.136 140.316 156.341 139.693 156.317C139.385 156.319 139.078 156.282 138.779 156.206C138.502 156.136 138.24 156.014 138.007 155.847C137.776 155.679 137.593 155.453 137.478 155.191C137.354 154.924 137.29 154.633 137.29 154.339C137.289 153.912 137.427 153.497 137.685 153.157C137.803 152.988 137.954 152.844 138.129 152.735C138.305 152.625 138.5 152.553 138.704 152.521V152.451C138.378 152.386 138.084 152.211 137.871 151.956C137.651 151.708 137.531 151.388 137.533 151.057C137.524 150.804 137.583 150.552 137.703 150.328C137.824 150.105 138.002 149.918 138.219 149.786C138.661 149.523 139.169 149.393 139.683 149.412C139.962 149.407 140.241 149.43 140.516 149.483C140.758 149.541 140.986 149.645 141.188 149.791C141.389 149.922 141.561 150.094 141.691 150.296C141.806 150.5 141.862 150.732 141.854 150.967C141.863 151.309 141.754 151.644 141.545 151.916C141.329 152.185 141.029 152.374 140.692 152.451V152.451ZM139.37 152.784C139.248 152.854 139.142 152.95 139.06 153.065C138.978 153.18 138.922 153.311 138.896 153.45C138.819 153.726 138.781 154.011 138.784 154.298C138.761 154.72 138.859 155.141 139.067 155.51C139.131 155.618 139.223 155.709 139.333 155.771C139.443 155.833 139.567 155.865 139.693 155.863C139.856 155.855 140.011 155.796 140.138 155.695C140.265 155.593 140.356 155.454 140.399 155.298C140.53 154.988 140.596 154.654 140.592 154.318C140.592 154.096 140.571 153.875 140.531 153.657C140.501 153.467 140.436 153.284 140.339 153.117C140.275 152.996 140.179 152.894 140.062 152.823C139.944 152.752 139.81 152.714 139.673 152.713C139.568 152.712 139.464 152.737 139.37 152.784V152.784ZM138.926 151.159C138.925 151.306 138.936 151.453 138.961 151.597C138.982 151.725 139.026 151.848 139.09 151.961C139.153 152.071 139.24 152.167 139.345 152.239C139.443 152.31 139.561 152.349 139.683 152.349C139.823 152.349 139.96 152.304 140.073 152.22C140.186 152.137 140.269 152.02 140.311 151.886C140.417 151.619 140.468 151.334 140.46 151.048C140.473 150.778 140.425 150.509 140.32 150.261C140.267 150.137 140.178 150.034 140.063 149.963C139.949 149.892 139.817 149.859 139.683 149.866C139.543 149.864 139.406 149.907 139.293 149.989C139.18 150.071 139.097 150.188 139.056 150.321C138.959 150.589 138.915 150.874 138.926 151.159V151.159Z" fill="#1A1A18"/>
<path d="M143.479 155.54L143.549 155.469C143.68 155.567 143.818 155.654 143.963 155.731C144.109 155.811 144.271 155.857 144.437 155.863C144.733 155.857 145.02 155.764 145.263 155.595C145.505 155.426 145.692 155.189 145.8 154.914C146.067 154.382 146.202 153.793 146.193 153.198V153.097L146.123 153.066C145.973 153.235 145.787 153.368 145.58 153.457C145.372 153.546 145.148 153.588 144.922 153.581C144.408 153.6 143.907 153.423 143.519 153.087C143.327 152.917 143.175 152.706 143.073 152.471C142.972 152.235 142.924 151.98 142.933 151.723C142.923 151.397 142.97 151.071 143.069 150.76C143.19 150.463 143.375 150.196 143.609 149.977C143.81 149.783 144.051 149.637 144.316 149.549C144.593 149.456 144.882 149.41 145.174 149.412C145.551 149.406 145.926 149.471 146.279 149.604C146.608 149.734 146.894 149.955 147.102 150.24C147.299 150.514 147.442 150.822 147.526 151.148C147.62 151.494 147.667 151.851 147.668 152.209C147.669 152.722 147.608 153.234 147.485 153.732C147.373 154.204 147.178 154.652 146.91 155.056C146.645 155.448 146.283 155.766 145.86 155.978C145.437 156.201 144.966 156.317 144.487 156.317C144.347 156.317 144.245 156.313 144.185 156.306C144.092 156.292 144 156.268 143.912 156.236C143.877 156.22 143.839 156.208 143.801 156.201C143.754 156.191 143.717 156.145 143.69 156.064C143.663 155.984 143.64 155.912 143.619 155.847C143.58 155.741 143.533 155.639 143.479 155.54ZM146.193 151.553C146.206 151.195 146.165 150.837 146.071 150.492C146.039 150.317 145.947 150.159 145.811 150.045C145.674 149.931 145.503 149.868 145.325 149.866C145.163 149.873 145.007 149.93 144.879 150.029C144.751 150.129 144.658 150.266 144.611 150.422C144.484 150.725 144.421 151.052 144.427 151.381C144.419 151.717 144.471 152.052 144.58 152.37C144.619 152.543 144.714 152.699 144.851 152.812C144.988 152.925 145.158 152.99 145.336 152.996C145.491 152.994 145.642 152.944 145.767 152.851C145.891 152.759 145.984 152.629 146.03 152.481C146.146 152.186 146.202 151.87 146.193 151.553V151.553Z" fill="#1A1A18"/>
<path d="M152.352 149.856L152.29 149.957C152.197 149.922 152.101 149.899 152.003 149.886C151.897 149.873 151.791 149.866 151.685 149.866C151.464 149.864 151.247 149.923 151.059 150.038C150.684 150.276 150.397 150.629 150.241 151.044C150.174 151.293 150.12 151.497 150.08 151.658C150 151.97 149.959 152.292 149.959 152.614L150.029 152.652C150.172 152.491 150.347 152.362 150.544 152.275C150.741 152.188 150.955 152.145 151.17 152.148C151.713 152.126 152.245 152.31 152.659 152.663C152.855 152.843 153.008 153.063 153.108 153.309C153.209 153.555 153.253 153.82 153.239 154.086C153.25 154.389 153.195 154.691 153.076 154.97C152.957 155.249 152.779 155.499 152.553 155.701C152.087 156.115 151.48 156.336 150.857 156.317C150.666 156.315 150.474 156.293 150.287 156.252C150.111 156.218 149.94 156.162 149.777 156.085C149.473 155.934 149.212 155.708 149.02 155.428C148.832 155.155 148.694 154.851 148.611 154.53C148.525 154.197 148.483 153.854 148.484 153.511C148.478 152.848 148.584 152.189 148.798 151.562C149.001 150.929 149.383 150.368 149.898 149.947C150.143 149.761 150.42 149.622 150.716 149.538C151.025 149.452 151.344 149.41 151.665 149.412C151.834 149.409 152.004 149.426 152.169 149.463C152.23 149.597 152.29 149.728 152.352 149.856ZM149.959 154.172C149.946 154.53 149.987 154.889 150.081 155.235C150.113 155.41 150.205 155.568 150.341 155.683C150.477 155.797 150.648 155.861 150.826 155.863C150.99 155.858 151.148 155.801 151.279 155.701C151.409 155.601 151.504 155.463 151.552 155.305C151.684 154.999 151.75 154.668 151.745 154.334C151.758 153.986 151.706 153.639 151.592 153.31C151.544 153.141 151.443 152.992 151.303 152.886C151.163 152.78 150.992 152.723 150.816 152.723C150.661 152.725 150.51 152.776 150.385 152.869C150.26 152.961 150.168 153.091 150.122 153.24C150.006 153.536 149.95 153.853 149.959 154.172Z" fill="#1A1A18"/>
<path d="M274.046 124.866H268.342C268.564 125.249 268.766 125.643 268.948 126.046C268.857 126.097 268.771 126.157 268.69 126.223C268.603 126.297 268.52 126.376 268.443 126.461H268.362C268.214 126.003 268.025 125.511 267.797 124.987C267.622 124.596 267.397 124.118 267.121 123.553L267.171 123.472H274.046C274.035 123.556 274.028 123.64 274.025 123.724C274.005 123.961 273.995 124.108 273.995 124.169C273.994 124.304 274.001 124.439 274.016 124.573C274.028 124.694 274.039 124.792 274.046 124.866Z" fill="#1A1A18"/>
<path d="M273.995 116.568V121.02H273.561C272.996 120.412 272.579 119.983 272.31 119.733C271.853 119.29 271.349 118.899 270.806 118.568C270.301 118.255 269.723 118.08 269.13 118.062C268.786 118.05 268.446 118.137 268.15 118.314C268.003 118.405 267.882 118.533 267.8 118.685C267.719 118.838 267.679 119.009 267.685 119.182C267.689 119.342 267.739 119.498 267.831 119.629C267.923 119.76 268.052 119.861 268.201 119.92C268.5 120.064 268.828 120.137 269.16 120.131L269.18 120.232C268.907 120.447 268.68 120.715 268.514 121.02C268.104 120.876 267.761 120.586 267.55 120.207C267.332 119.806 267.223 119.356 267.231 118.9C267.205 118.332 267.35 117.77 267.645 117.285C267.803 117.05 268.019 116.861 268.272 116.735C268.525 116.61 268.807 116.552 269.089 116.568C269.528 116.561 269.959 116.691 270.32 116.941C270.549 117.099 270.762 117.278 270.957 117.476C271.03 117.55 271.141 117.675 271.29 117.85C271.565 118.172 271.848 118.495 272.138 118.819C272.38 119.088 272.572 119.294 272.713 119.435L272.764 119.424V118.132C272.764 117.964 272.75 117.705 272.724 117.355C272.696 117.005 272.683 116.743 272.683 116.568C272.831 116.582 272.959 116.593 273.066 116.603C273.174 116.613 273.265 116.619 273.339 116.619C273.457 116.619 273.575 116.614 273.692 116.603C273.786 116.593 273.888 116.582 273.995 116.568Z" fill="#1A1A18"/>
<path d="M267.676 111.63L267.776 111.692C267.742 111.785 267.718 111.881 267.706 111.979C267.692 112.085 267.685 112.191 267.686 112.297C267.683 112.518 267.743 112.735 267.857 112.923C268.095 113.298 268.448 113.585 268.863 113.741C269.112 113.808 269.316 113.862 269.478 113.902C269.79 113.982 270.111 114.023 270.434 114.023L270.472 113.953C270.31 113.81 270.182 113.635 270.095 113.438C270.008 113.241 269.964 113.027 269.968 112.812C269.946 112.269 270.129 111.737 270.482 111.323C270.662 111.127 270.883 110.974 271.129 110.874C271.375 110.773 271.64 110.729 271.905 110.743C272.208 110.732 272.51 110.787 272.789 110.906C273.069 111.025 273.318 111.203 273.521 111.429C273.935 111.895 274.155 112.502 274.137 113.125C274.135 113.316 274.113 113.508 274.071 113.695C274.037 113.871 273.981 114.042 273.904 114.205C273.754 114.509 273.528 114.77 273.248 114.962C272.975 115.15 272.671 115.288 272.35 115.371C272.017 115.457 271.674 115.499 271.33 115.498C270.668 115.504 270.009 115.398 269.382 115.184C268.748 114.981 268.187 114.599 267.767 114.084C267.581 113.839 267.442 113.562 267.357 113.266C267.272 112.957 267.229 112.638 267.231 112.317C267.228 112.148 267.245 111.978 267.282 111.813C267.417 111.752 267.548 111.692 267.676 111.63ZM271.991 114.023C272.35 114.036 272.708 113.995 273.055 113.901C273.23 113.869 273.388 113.777 273.502 113.641C273.617 113.505 273.681 113.334 273.683 113.156C273.677 112.992 273.62 112.834 273.52 112.703C273.42 112.573 273.282 112.478 273.125 112.43C272.818 112.298 272.487 112.232 272.153 112.237C271.806 112.224 271.459 112.276 271.13 112.39C270.961 112.438 270.812 112.539 270.706 112.679C270.6 112.819 270.543 112.99 270.543 113.166C270.544 113.321 270.595 113.472 270.688 113.597C270.781 113.722 270.911 113.814 271.06 113.86C271.356 113.976 271.673 114.032 271.991 114.023Z" fill="#1A1A18"/>
<path d="M123.723 128.851V100.4H144.783" stroke="#1A1A18" stroke-width="0.5669" stroke-miterlimit="22.9256"/>
<path d="M4.60345 35.8535H0.480469V99.6053H4.60345V35.8535Z" stroke="#1A1A18" stroke-width="0.5669" stroke-miterlimit="22.9256"/>
<path d="M247.215 35.8535H243.092V99.4874H247.215V35.8535Z" stroke="#1A1A18" stroke-width="0.5669" stroke-miterlimit="22.9256"/>
<path d="M122.727 98.2471V91.3223H124.877C125.342 91.3223 125.681 91.3301 125.896 91.3467C126.112 91.3639 126.321 91.424 126.513 91.5234C126.785 91.6513 127.013 91.8563 127.169 92.113C127.325 92.3697 127.402 92.6666 127.391 92.9668C127.405 93.4033 127.254 93.8292 126.967 94.1582C126.662 94.4872 126.257 94.7071 125.815 94.7842C126.078 95.2422 126.445 95.8343 126.916 96.5606C127.232 97.0459 127.461 97.3985 127.603 97.6211L127.996 98.2471C127.868 98.2471 127.695 98.2383 127.477 98.2217C127.258 98.2051 127.125 98.1964 127.077 98.1964C126.949 98.1964 126.776 98.2051 126.558 98.2217C126.339 98.2383 126.21 98.2471 126.169 98.2471L124.968 96.127L124.312 95.0069H124.241V98.2471C124.127 98.2471 124.032 98.2432 123.958 98.2363C123.669 98.21 123.511 98.1964 123.484 98.1964C123.369 98.1964 123.222 98.2051 123.04 98.2217C122.858 98.2383 122.754 98.2471 122.727 98.2471ZM124.241 91.877V94.5723C124.285 94.5787 124.328 94.5819 124.372 94.582H124.504C125.385 94.582 125.826 94.0993 125.826 93.1338C125.825 92.9649 125.808 92.7965 125.775 92.6309C125.758 92.4933 125.707 92.3624 125.626 92.2499C125.545 92.1375 125.437 92.0472 125.312 91.9873C125.062 91.9011 124.798 91.8637 124.534 91.877H124.241Z" fill="#1A1A18"/>
<path d="M130.368 98.2471V92.543C129.985 92.7652 129.591 92.9676 129.188 93.1494C129.136 93.0583 129.077 92.9721 129.011 92.8916C128.937 92.8039 128.858 92.7213 128.773 92.6445V92.5635C129.231 92.415 129.723 92.2266 130.247 91.998C130.638 91.8232 131.116 91.598 131.681 91.3223L131.762 91.3721V98.2471C131.678 98.2357 131.594 98.2289 131.51 98.2266C131.273 98.2061 131.126 98.1963 131.065 98.1963C130.93 98.1956 130.795 98.2024 130.661 98.2168C130.54 98.2294 130.442 98.2402 130.368 98.2471Z" fill="#1A1A18"/>
<path d="M136.587 91.4326C136.965 91.4089 137.343 91.4919 137.677 91.6721C138.01 91.8523 138.287 92.1226 138.475 92.4521C138.828 93.1337 138.995 93.8963 138.959 94.6631C138.982 95.2914 138.917 95.9198 138.767 96.5302C138.655 96.9175 138.466 97.2782 138.212 97.5908C138.01 97.8318 137.756 98.0242 137.47 98.1535C137.183 98.2829 136.871 98.3459 136.557 98.3379C136.171 98.3497 135.789 98.2627 135.446 98.0849C135.122 97.8952 134.856 97.6194 134.679 97.2881C134.477 96.942 134.333 96.5648 134.255 96.1718C134.177 95.7474 134.139 95.3163 134.144 94.8847C134.144 94.4585 134.181 94.0331 134.255 93.6133C134.312 93.2366 134.439 92.8737 134.628 92.5429C134.82 92.1947 135.104 91.9065 135.45 91.7104C135.796 91.5144 136.19 91.4182 136.587 91.4326V91.4326ZM135.638 95.0068C135.61 95.7198 135.658 96.4336 135.779 97.1367C135.907 97.6347 136.17 97.8838 136.566 97.8838C136.916 97.8838 137.158 97.6211 137.293 97.0957C137.433 96.3609 137.491 95.6128 137.465 94.8652C137.496 94.0864 137.433 93.3068 137.278 92.5429C137.153 92.1054 136.923 91.8867 136.587 91.8867C136.217 91.8867 135.966 92.1357 135.835 92.6338C135.677 93.4144 135.611 94.2108 135.638 95.0068Z" fill="#1A1A18"/>
<path d="M142.199 91.4326C142.578 91.4089 142.955 91.4919 143.289 91.6721C143.623 91.8523 143.899 92.1226 144.087 92.4521C144.44 93.1337 144.607 93.8963 144.571 94.6631C144.594 95.2914 144.529 95.9198 144.379 96.5302C144.267 96.9175 144.079 97.2782 143.824 97.5908C143.622 97.8318 143.369 98.0242 143.082 98.1535C142.795 98.2829 142.483 98.3459 142.169 98.3379C141.783 98.3497 141.401 98.2627 141.059 98.0849C140.734 97.8952 140.468 97.6194 140.291 97.2881C140.089 96.942 139.946 96.5648 139.867 96.1718C139.789 95.7474 139.752 95.3163 139.756 94.8847C139.756 94.4585 139.793 94.0331 139.867 93.6133C139.925 93.2366 140.051 92.8737 140.24 92.5429C140.432 92.1947 140.717 91.9065 141.063 91.7104C141.408 91.5144 141.802 91.4182 142.199 91.4326V91.4326ZM141.25 95.0068C141.223 95.7198 141.27 96.4336 141.392 97.1367C141.52 97.6347 141.782 97.8838 142.179 97.8838C142.528 97.8838 142.771 97.6211 142.905 97.0957C143.045 96.3609 143.103 95.6128 143.077 94.8652C143.108 94.0864 143.045 93.3068 142.891 92.5429C142.766 92.1054 142.535 91.8867 142.199 91.8867C141.829 91.8867 141.578 92.1357 141.447 92.6338C141.289 93.4144 141.223 94.2108 141.25 95.0068V95.0068Z" fill="#1A1A18"/>
<path d="M147.813 91.4326C148.191 91.4089 148.569 91.4919 148.902 91.6721C149.236 91.8523 149.512 92.1226 149.7 92.4521C150.053 93.1337 150.22 93.8963 150.185 94.6631C150.207 95.2914 150.142 95.9198 149.992 96.5302C149.881 96.9175 149.692 97.2782 149.438 97.5908C149.236 97.8318 148.982 98.0242 148.695 98.1535C148.409 98.2829 148.097 98.3459 147.782 98.3379C147.397 98.3497 147.014 98.2627 146.672 98.0849C146.347 97.8952 146.082 97.6194 145.904 97.2881C145.702 96.942 145.559 96.5648 145.48 96.1718C145.402 95.7474 145.365 95.3163 145.369 94.8847C145.369 94.4585 145.407 94.0331 145.48 93.6133C145.538 93.2366 145.664 92.8737 145.854 92.5429C146.045 92.1947 146.33 91.9065 146.676 91.7104C147.022 91.5144 147.415 91.4182 147.813 91.4326ZM146.863 95.0068C146.836 95.7198 146.883 96.4336 147.005 97.1367C147.133 97.6347 147.395 97.8838 147.792 97.8838C148.142 97.8838 148.384 97.6211 148.519 97.0957C148.659 96.3609 148.716 95.6128 148.69 94.8652C148.721 94.0864 148.659 93.3068 148.504 92.5429C148.379 92.1054 148.148 91.8867 147.813 91.8867C147.442 91.8867 147.192 92.1357 147.06 92.6338C146.902 93.4144 146.836 94.2108 146.863 95.0068Z" fill="#1A1A18"/>
<path d="M30.4785 140.878V133.953H32.6289C33.0938 133.953 33.4326 133.961 33.6484 133.978C33.8636 133.995 34.0731 134.055 34.2646 134.154C34.5365 134.282 34.7647 134.487 34.9208 134.744C35.077 135.001 35.1541 135.297 35.1426 135.598C35.1574 136.034 35.006 136.46 34.7188 136.789C34.4138 137.118 34.0094 137.338 33.5674 137.415C33.8301 137.873 34.1969 138.465 34.668 139.191C34.9844 139.677 35.213 140.029 35.3546 140.252L35.748 140.878C35.6201 140.878 35.4473 140.869 35.2285 140.853C35.0098 140.836 34.877 140.827 34.8292 140.827C34.7012 140.827 34.5284 140.836 34.3096 140.853C34.0909 140.869 33.9619 140.878 33.9209 140.878L32.7197 138.758L32.0635 137.638H31.9932V140.878C31.879 140.878 31.7842 140.874 31.71 140.867C31.421 140.841 31.2627 140.827 31.2363 140.827C31.1211 140.827 30.9737 140.836 30.7921 140.853C30.6104 140.869 30.5059 140.878 30.4785 140.878ZM31.9932 134.508V137.203C32.0366 137.21 32.0803 137.213 32.1241 137.213H32.2559C33.1368 137.213 33.5775 136.73 33.5781 135.765C33.5769 135.596 33.56 135.427 33.5274 135.262C33.5101 135.124 33.4585 134.993 33.3775 134.881C33.2965 134.768 33.1885 134.678 33.0635 134.618C32.8138 134.532 32.55 134.495 32.2862 134.508L31.9932 134.508Z" fill="#1A1A18"/>
<path d="M38.1202 140.878V135.174C37.7373 135.396 37.3432 135.599 36.9395 135.78C36.8885 135.689 36.8293 135.603 36.7628 135.522C36.6895 135.435 36.6102 135.352 36.5255 135.275V135.194C36.9835 135.046 37.4747 134.858 37.9991 134.629C38.3897 134.454 38.8676 134.229 39.4327 133.953L39.5137 134.003V140.878C39.4302 140.867 39.346 140.86 39.2617 140.858C39.0254 140.837 38.8779 140.827 38.8174 140.827C38.6823 140.827 38.5474 140.833 38.4131 140.848C38.292 140.86 38.1944 140.871 38.1202 140.878Z" fill="#1A1A18"/>
<path d="M41.7237 142.622L42.1788 140.756C42.2188 140.594 42.2588 140.435 42.2999 140.276C42.343 140.109 42.3985 139.946 42.4659 139.787C42.5176 139.646 42.6047 139.521 42.7188 139.424C42.8357 139.344 42.9758 139.305 43.1172 139.313C43.2056 139.311 43.2934 139.326 43.3757 139.358C43.458 139.391 43.5332 139.439 43.5967 139.5C43.6586 139.555 43.708 139.623 43.7419 139.698C43.7757 139.774 43.7932 139.856 43.793 139.939C43.7909 140.053 43.756 140.165 43.6924 140.261C43.4229 140.665 43.1404 141.079 42.8448 141.502C42.7237 141.677 42.4307 142.087 41.9659 142.732L41.7237 142.622Z" fill="#1A1A18"/>
<path d="M45.0656 140.878V133.953H47.2159C47.6808 133.953 48.0197 133.961 48.2355 133.978C48.4506 133.995 48.6601 134.055 48.8517 134.154C49.1235 134.282 49.3517 134.487 49.5078 134.744C49.6639 135.001 49.7411 135.297 49.7296 135.598C49.7445 136.034 49.593 136.46 49.3058 136.789C49.0008 137.118 48.5963 137.338 48.1544 137.415C48.4171 137.873 48.7839 138.465 49.255 139.191C49.5714 139.677 49.7999 140.029 49.9415 140.252L50.3351 140.878C50.2072 140.878 50.0343 140.869 49.8156 140.853C49.5968 140.836 49.464 140.827 49.4161 140.827C49.2882 140.827 49.1154 140.836 48.8966 140.853C48.6779 140.869 48.5489 140.878 48.5079 140.878L47.3068 138.758L46.6505 137.638H46.5802V140.878C46.466 140.878 46.3712 140.874 46.297 140.867C46.0079 140.841 45.8497 140.827 45.8234 140.827C45.7081 140.827 45.5607 140.836 45.379 140.853C45.1974 140.869 45.0928 140.878 45.0656 140.878ZM46.5802 134.508V137.203C46.6235 137.21 46.6673 137.213 46.7111 137.213H46.8429C47.7238 137.213 48.1645 136.73 48.1652 135.765C48.164 135.596 48.147 135.427 48.1144 135.262C48.0971 135.124 48.0456 134.993 47.9645 134.881C47.8835 134.768 47.7755 134.678 47.6505 134.618C47.4008 134.532 47.137 134.495 46.8732 134.508L46.5802 134.508Z" fill="#1A1A18"/>
<path d="M55.3926 140.827H50.9406V140.394C51.5489 139.828 51.978 139.411 52.2277 139.142C52.6705 138.685 53.0612 138.181 53.3926 137.638C53.7057 137.133 53.8802 136.555 53.8985 135.962C53.9108 135.618 53.8233 135.278 53.6465 134.982C53.556 134.835 53.4279 134.714 53.2754 134.633C53.1228 134.551 52.9513 134.511 52.7784 134.518C52.6182 134.521 52.4627 134.572 52.3314 134.663C52.2002 134.755 52.0991 134.884 52.0411 135.033C51.8964 135.332 51.8238 135.66 51.8292 135.992L51.7286 136.012C51.5136 135.739 51.2455 135.512 50.9405 135.346C51.0847 134.936 51.3741 134.593 51.754 134.382C52.1547 134.165 52.6049 134.055 53.0606 134.064C53.6283 134.037 54.1907 134.182 54.6758 134.478C54.9102 134.635 55.0996 134.851 55.2252 135.104C55.3509 135.357 55.4086 135.639 55.3926 135.921C55.4 136.36 55.2696 136.791 55.0197 137.152C54.8615 137.381 54.6823 137.594 54.4845 137.789C54.4103 137.862 54.2856 137.973 54.1105 138.122C53.7882 138.398 53.4653 138.68 53.1417 138.97C52.8722 139.212 52.6668 139.404 52.5255 139.545L52.5363 139.596H53.8282C53.9962 139.596 54.2554 139.582 54.6056 139.556C54.9552 139.528 55.2176 139.515 55.3927 139.515C55.379 139.663 55.3673 139.791 55.3575 139.899C55.3478 140.006 55.3419 140.097 55.3419 140.171C55.3412 140.289 55.3464 140.407 55.3575 140.525C55.3672 140.618 55.379 140.72 55.3926 140.827Z" fill="#1A1A18"/>
<path d="M56.3106 142.622L56.7657 140.756C56.8057 140.594 56.8458 140.435 56.8868 140.276C56.9299 140.109 56.9854 139.946 57.0528 139.787C57.1045 139.646 57.1916 139.521 57.3057 139.424C57.4226 139.344 57.5627 139.305 57.7042 139.313C57.7925 139.311 57.8803 139.326 57.9626 139.358C58.0449 139.391 58.1201 139.439 58.1837 139.5C58.2455 139.555 58.295 139.623 58.3288 139.698C58.3626 139.774 58.3801 139.856 58.3799 139.939C58.3779 140.053 58.343 140.165 58.2794 140.261C58.0098 140.665 57.7273 141.079 57.4317 141.502C57.3106 141.677 57.0176 142.087 56.5528 142.732L56.3106 142.622Z" fill="#1A1A18"/>
<path d="M59.6514 140.878V133.953H61.8018C62.2667 133.953 62.6055 133.961 62.8214 133.978C63.0365 133.995 63.246 134.055 63.4376 134.154C63.7094 134.282 63.9376 134.487 64.0938 134.744C64.2499 135.001 64.327 135.297 64.3155 135.598C64.3303 136.034 64.1789 136.46 63.8917 136.789C63.5867 137.118 63.1822 137.338 62.7403 137.415C63.003 137.873 63.3698 138.465 63.8409 139.191C64.1573 139.677 64.3858 140.029 64.5274 140.252L64.921 140.878C64.793 140.878 64.6202 140.869 64.4014 140.853C64.1827 140.836 64.0499 140.827 64.002 140.827C63.8741 140.827 63.7012 140.836 63.4825 140.853C63.2637 140.869 63.1348 140.878 63.0938 140.878L61.8926 138.758L61.2364 137.638H61.1661V140.878C61.0518 140.878 60.9571 140.874 60.8829 140.867C60.5938 140.841 60.4356 140.827 60.4092 140.827C60.294 140.827 60.1465 140.836 59.9649 140.853C59.7833 140.869 59.6788 140.878 59.6514 140.878ZM61.1661 134.508V137.203C61.2094 137.21 61.2531 137.213 61.2969 137.213H61.4288C62.3096 137.213 62.7504 136.73 62.751 135.765C62.7499 135.596 62.7329 135.427 62.7003 135.262C62.683 135.124 62.6315 134.993 62.5504 134.881C62.4694 134.768 62.3614 134.678 62.2364 134.618C61.9867 134.532 61.7228 134.495 61.459 134.508L61.1661 134.508Z" fill="#1A1A18"/>
<path d="M66.2432 134.124H69.6055C69.5943 134.198 69.5874 134.272 69.585 134.347C69.5645 134.548 69.5547 134.673 69.5547 134.72C69.5537 134.838 69.5606 134.956 69.5753 135.073C69.588 135.174 69.5987 135.259 69.6055 135.325H66.7081L66.627 137.076L66.6876 137.112C67.0009 136.945 67.3521 136.862 67.7071 136.87C67.9948 136.865 68.282 136.899 68.5606 136.971C68.816 137.048 69.0518 137.178 69.252 137.355C69.4565 137.524 69.6199 137.737 69.73 137.978C69.8402 138.22 69.8941 138.483 69.8878 138.748C69.8894 139.078 69.8078 139.402 69.6505 139.691C69.4901 139.986 69.2639 140.24 68.9893 140.434C68.7339 140.618 68.4465 140.753 68.1417 140.832C67.8228 140.922 67.4933 140.968 67.1622 140.969C66.8407 140.971 66.5208 140.925 66.213 140.832C65.9139 140.74 65.6337 140.595 65.3858 140.403C65.4874 140.253 65.5785 140.096 65.6583 139.934C65.7464 139.751 65.824 139.564 65.8907 139.373H66.0313C66.0944 139.651 66.2148 139.912 66.3848 140.141C66.4715 140.257 66.5842 140.352 66.7139 140.416C66.8437 140.481 66.9868 140.515 67.1319 140.515C67.3298 140.524 67.5264 140.479 67.7007 140.385C67.875 140.291 68.0203 140.151 68.1212 139.98C68.3151 139.638 68.4095 139.247 68.3936 138.854C68.4016 138.482 68.2805 138.119 68.0508 137.827C67.9439 137.701 67.8135 137.597 67.6671 137.521C67.5238 137.445 67.3642 137.405 67.2022 137.405C67.0384 137.404 66.8765 137.44 66.7286 137.511C66.5766 137.584 66.4396 137.685 66.3243 137.809L66.0821 137.668L66.2432 134.124Z" fill="#1A1A18"/>
<path d="M123.326 133.729L103.472 143.809H27.166" stroke="#1A1A18" stroke-width="0.5669" stroke-miterlimit="22.9256"/>
</svg>
