<svg width="246" height="248" viewBox="0 0 246 248" fill="none" xmlns="http://www.w3.org/2000/svg">
<path fill-rule="evenodd" clip-rule="evenodd" d="M31.2129 143.195V31.1992H211.207V211.193H99.2025L99.2175 195.194C99.2196 188.364 97.876 181.602 95.2635 175.292C92.6511 168.983 88.8211 163.25 83.9922 158.421C79.1633 153.592 73.4303 149.762 67.1206 147.149C60.811 144.537 54.0485 143.193 47.2194 143.195H31.2129Z" fill="white" stroke="#1A1A18" stroke-width="0.5669" stroke-miterlimit="22.9256"/>
<path d="M211.207 207.994H99.2109V211.194H211.207V207.994Z" stroke="#1A1A18" stroke-width="0.5669" stroke-miterlimit="22.9256"/>
<path d="M34.413 31.1992H31.2129V143.195H34.413V31.1992Z" stroke="#1A1A18" stroke-width="0.5669" stroke-miterlimit="22.9256"/>
<path d="M211.207 211.193H232.03" stroke="#1A1A18" stroke-width="0.5669" stroke-miterlimit="22.9256"/>
<path d="M211.207 31.1992H232.03" stroke="#1A1A18" stroke-width="0.5669" stroke-miterlimit="22.9256"/>
<path d="M232.029 211.193V31.1992" stroke="#1A1A18" stroke-width="0.5669" stroke-miterlimit="22.9256"/>
<path d="M31.2129 31.1996V10.377" stroke="#1A1A18" stroke-width="0.5669" stroke-miterlimit="22.9256"/>
<path d="M211.207 31.1996V10.377" stroke="#1A1A18" stroke-width="0.5669" stroke-miterlimit="22.9256"/>
<path d="M31.2129 10.377H211.206" stroke="#1A1A18" stroke-width="0.5669" stroke-miterlimit="22.9256"/>
<path d="M107.681 6.15291L107.752 6.08211C107.883 6.18005 108.021 6.26771 108.166 6.34432C108.312 6.42425 108.474 6.46922 108.64 6.47567C108.935 6.47004 109.223 6.3769 109.465 6.20803C109.708 6.03915 109.895 5.80214 110.003 5.52695C110.27 4.99488 110.405 4.4061 110.397 3.81063V3.70955L110.326 3.67928C110.176 3.84781 109.99 3.98129 109.783 4.0703C109.575 4.15931 109.35 4.20167 109.125 4.19442C108.611 4.21292 108.11 4.03618 107.721 3.69979C107.53 3.52954 107.378 3.31919 107.277 3.08365C107.176 2.84812 107.128 2.5932 107.136 2.33699C107.127 2.01015 107.173 1.68407 107.272 1.37264C107.393 1.07583 107.578 0.808928 107.812 0.590414C108.013 0.396467 108.254 0.249966 108.519 0.161703C108.796 0.0696451 109.086 0.0236232 109.377 0.0254728C109.754 0.0196739 110.129 0.0845944 110.482 0.216879C110.811 0.346657 111.097 0.567314 111.305 0.85311C111.502 1.1268 111.646 1.43481 111.729 1.76131C111.823 2.10695 111.87 2.46336 111.87 2.82137C111.872 3.33499 111.811 3.84687 111.689 4.34579C111.576 4.81706 111.381 5.26473 111.113 5.66805C110.848 6.06089 110.487 6.37901 110.063 6.59188C109.64 6.81363 109.169 6.92956 108.691 6.92977C108.549 6.92977 108.448 6.92635 108.388 6.92C108.295 6.90523 108.203 6.88152 108.115 6.8492C108.08 6.83281 108.042 6.821 108.004 6.81405C107.957 6.80379 107.92 6.75838 107.893 6.67781C107.866 6.59676 107.842 6.52433 107.822 6.46053C107.783 6.35454 107.736 6.2517 107.681 6.15291V6.15291ZM110.397 2.16512C110.409 1.80778 110.368 1.45059 110.274 1.10555C110.242 0.930849 110.15 0.77282 110.014 0.65859C109.878 0.544361 109.706 0.481056 109.529 0.479551C109.366 0.485967 109.21 0.54294 109.082 0.642492C108.954 0.742045 108.86 0.879196 108.814 1.03473C108.687 1.33835 108.625 1.66484 108.63 1.99373C108.622 2.32991 108.674 2.66481 108.783 2.98299C108.822 3.15623 108.917 3.31163 109.054 3.4249C109.191 3.53817 109.361 3.60291 109.539 3.60899C109.694 3.60735 109.845 3.55664 109.97 3.46412C110.094 3.37159 110.187 3.24199 110.233 3.09386C110.35 2.79841 110.405 2.48254 110.397 2.16512V2.16512Z" fill="#1A1A18"/>
<path d="M115.151 0.0254718C115.53 0.00169051 115.907 0.0846352 116.241 0.264875C116.575 0.445114 116.851 0.715412 117.039 1.045C117.392 1.72624 117.56 2.48879 117.524 3.25545C117.546 3.88389 117.482 4.51242 117.332 5.12313C117.22 5.51019 117.031 5.87073 116.777 6.18319C116.575 6.42418 116.321 6.61647 116.034 6.74573C115.747 6.875 115.435 6.9379 115.121 6.92977C114.735 6.94192 114.353 6.85517 114.011 6.67777C113.686 6.48753 113.421 6.21143 113.243 5.87992C113.041 5.5342 112.898 5.15734 112.82 4.76469C112.741 4.3402 112.704 3.90919 112.708 3.47758C112.709 3.05116 112.746 2.62556 112.82 2.20558C112.877 1.82885 113.003 1.46604 113.193 1.13575C113.385 0.787573 113.669 0.499425 114.015 0.303395C114.361 0.107365 114.754 0.0111538 115.151 0.0254718ZM114.202 3.59871C114.175 4.31165 114.223 5.02547 114.344 5.7286C114.472 6.22664 114.734 6.47566 115.131 6.47567C115.481 6.47567 115.723 6.2133 115.858 5.68856C115.998 4.95357 116.055 4.20529 116.03 3.45756C116.06 2.67897 115.998 1.89949 115.843 1.13578C115.718 0.698278 115.487 0.479528 115.151 0.479528C114.781 0.479528 114.53 0.728551 114.399 1.2266C114.241 2.00695 114.175 2.80305 114.202 3.59871Z" fill="#1A1A18"/>
<path d="M120.763 0.0254716C121.142 0.00169105 121.52 0.084635 121.853 0.264874C122.187 0.445114 122.464 0.715412 122.651 1.045C123.005 1.72624 123.172 2.48879 123.136 3.25545C123.159 3.88389 123.094 4.51242 122.944 5.12313C122.832 5.51019 122.643 5.87073 122.389 6.18319C122.187 6.42418 121.933 6.61647 121.646 6.74573C121.36 6.875 121.048 6.9379 120.733 6.92977C120.348 6.94192 119.965 6.85517 119.623 6.67777C119.299 6.48752 119.033 6.21143 118.856 5.87992C118.654 5.5342 118.511 5.15733 118.432 4.76469C118.354 4.3402 118.317 3.90919 118.321 3.47758C118.321 3.05116 118.358 2.62556 118.432 2.20558C118.489 1.82885 118.616 1.46605 118.805 1.13575C118.997 0.787573 119.282 0.499425 119.627 0.303395C119.973 0.107365 120.366 0.011154 120.763 0.0254716ZM119.815 3.59871C119.788 4.31165 119.835 5.02547 119.956 5.7286C120.084 6.22664 120.346 6.47566 120.743 6.47567C121.093 6.47567 121.335 6.2133 121.47 5.68856C121.61 4.95357 121.668 4.20529 121.642 3.45756C121.673 2.67897 121.61 1.89949 121.455 1.13578C121.33 0.698277 121.1 0.479527 120.763 0.479527C120.393 0.479527 120.143 0.728551 120.011 1.2266C119.854 2.00695 119.788 2.80305 119.815 3.59871Z" fill="#1A1A18"/>
<path d="M244.696 126.206L244.625 126.135C244.723 126.004 244.811 125.866 244.888 125.721C244.968 125.575 245.013 125.413 245.02 125.247C245.014 124.951 244.921 124.664 244.752 124.421C244.583 124.179 244.346 123.992 244.07 123.884C243.538 123.617 242.95 123.482 242.355 123.49H242.253L242.223 123.561C242.391 123.711 242.525 123.897 242.614 124.104C242.703 124.312 242.745 124.536 242.737 124.762C242.756 125.276 242.58 125.777 242.243 126.165C242.073 126.357 241.863 126.509 241.627 126.61C241.391 126.711 241.136 126.759 240.88 126.751C240.553 126.76 240.227 126.714 239.916 126.615C239.619 126.493 239.352 126.309 239.134 126.075C238.94 125.874 238.793 125.633 238.705 125.368C238.613 125.091 238.567 124.801 238.568 124.51C238.563 124.133 238.628 123.758 238.761 123.405C238.891 123.076 239.111 122.79 239.397 122.582C239.67 122.385 239.978 122.241 240.305 122.158C240.651 122.064 241.007 122.017 241.365 122.017C241.879 122.015 242.39 122.076 242.889 122.198C243.36 122.31 243.808 122.505 244.212 122.774C244.605 123.039 244.922 123.4 245.135 123.824C245.357 124.247 245.473 124.718 245.474 125.196C245.475 125.297 245.472 125.398 245.463 125.499C245.448 125.592 245.425 125.683 245.393 125.772C245.376 125.807 245.364 125.844 245.357 125.883C245.348 125.93 245.302 125.967 245.221 125.994C245.141 126.021 245.068 126.044 245.004 126.064C244.898 126.104 244.795 126.151 244.696 126.206V126.206ZM240.709 123.49C240.351 123.478 239.994 123.519 239.648 123.613C239.474 123.645 239.316 123.737 239.202 123.873C239.087 124.009 239.024 124.181 239.023 124.358C239.029 124.52 239.086 124.677 239.186 124.805C239.285 124.933 239.423 125.027 239.578 125.073C239.882 125.2 240.208 125.262 240.537 125.257C240.873 125.264 241.208 125.213 241.526 125.104C241.7 125.065 241.855 124.969 241.968 124.833C242.081 124.696 242.146 124.525 242.152 124.348C242.151 124.193 242.1 124.042 242.008 123.917C241.915 123.793 241.786 123.7 241.638 123.654C241.342 123.537 241.026 123.482 240.709 123.49V123.49Z" fill="#1A1A18"/>
<path d="M238.568 118.736C238.545 118.357 238.628 117.98 238.808 117.646C238.988 117.312 239.258 117.036 239.588 116.848C240.269 116.494 241.032 116.327 241.799 116.363C242.427 116.34 243.056 116.405 243.666 116.555C244.053 116.667 244.414 116.856 244.727 117.11C244.968 117.312 245.16 117.566 245.289 117.853C245.419 118.139 245.482 118.452 245.474 118.766C245.486 119.152 245.398 119.534 245.221 119.876C245.031 120.201 244.755 120.466 244.424 120.643C244.078 120.846 243.701 120.989 243.308 121.067C242.883 121.145 242.452 121.183 242.021 121.179C241.594 121.178 241.169 121.141 240.749 121.067C240.372 121.01 240.009 120.883 239.679 120.694C239.331 120.502 239.042 120.218 238.846 119.872C238.65 119.526 238.554 119.133 238.568 118.736ZM242.143 119.684C242.856 119.712 243.569 119.664 244.273 119.543C244.771 119.415 245.02 119.153 245.02 118.756C245.02 118.406 244.757 118.164 244.232 118.029C243.497 117.889 242.749 117.831 242.001 117.857C241.222 117.827 240.443 117.889 239.679 118.044C239.241 118.169 239.023 118.399 239.023 118.736C239.023 119.106 239.272 119.356 239.77 119.488C240.55 119.645 241.347 119.711 242.143 119.684Z" fill="#1A1A18"/>
<path d="M238.568 113.123C238.545 112.745 238.628 112.367 238.808 112.034C238.988 111.7 239.258 111.423 239.588 111.236C240.269 110.882 241.032 110.715 241.799 110.751C242.427 110.728 243.056 110.793 243.666 110.943C244.053 111.055 244.414 111.243 244.727 111.498C244.968 111.7 245.16 111.954 245.289 112.24C245.419 112.527 245.482 112.839 245.474 113.154C245.486 113.539 245.398 113.922 245.221 114.264C245.031 114.588 244.755 114.854 244.424 115.031C244.078 115.233 243.701 115.377 243.308 115.455C242.883 115.533 242.452 115.57 242.021 115.566C241.594 115.566 241.169 115.529 240.749 115.455C240.372 115.398 240.009 115.271 239.679 115.081C239.331 114.89 239.042 114.605 238.846 114.26C238.65 113.914 238.554 113.521 238.568 113.123V113.123ZM242.143 114.072C242.856 114.099 243.569 114.052 244.273 113.931C244.771 113.803 245.02 113.541 245.02 113.143C245.02 112.794 244.757 112.551 244.232 112.416C243.497 112.277 242.749 112.219 242.001 112.245C241.222 112.214 240.443 112.277 239.679 112.432C239.241 112.557 239.023 112.787 239.023 113.123C239.023 113.494 239.272 113.744 239.77 113.875C240.55 114.033 241.347 114.099 242.143 114.072V114.072Z" fill="#1A1A18"/>
<path d="M36.2023 143.195H10.3906" stroke="#1A1A18" stroke-width="0.5669" stroke-miterlimit="22.9256"/>
<path d="M36.2023 31.1992H10.3906" stroke="#1A1A18" stroke-width="0.5669" stroke-miterlimit="22.9256"/>
<path d="M10.3906 143.195V31.1992" stroke="#1A1A18" stroke-width="0.5669" stroke-miterlimit="22.9256"/>
<path d="M0.863373 93.3729V90.0116C0.936785 90.0228 1.01082 90.0295 1.08505 90.0316C1.28721 90.0516 1.41171 90.0617 1.45859 90.0619C1.57674 90.063 1.69483 90.0564 1.8121 90.0419C1.91317 90.0282 1.9971 90.0185 2.06454 90.0116V92.9086L3.81454 92.9897L3.85117 92.9291C3.68377 92.6157 3.60034 92.2643 3.60898 91.9091C3.60378 91.6217 3.63779 91.3348 3.71005 91.0566C3.78649 90.801 3.91723 90.565 4.09335 90.3647C4.26231 90.1602 4.47549 89.9968 4.7168 89.8866C4.9581 89.7765 5.22125 89.7226 5.48642 89.729C5.81602 89.7271 6.14072 89.8088 6.43027 89.9662C6.72537 90.1264 6.97939 90.3527 7.17245 90.6274C7.35673 90.8828 7.49185 91.1702 7.57089 91.475C7.66019 91.7939 7.70601 92.1234 7.70712 92.4545C7.70933 92.7758 7.66342 93.0956 7.57089 93.4033C7.47872 93.7026 7.33351 93.9829 7.14218 94.2309C6.99219 94.1292 6.83523 94.0381 6.67245 93.9584C6.49026 93.8707 6.30328 93.7933 6.1124 93.7265V93.5849C6.39008 93.5225 6.65148 93.4022 6.87949 93.2319C6.99585 93.1453 7.09028 93.0326 7.15515 92.9028C7.22003 92.7731 7.25354 92.6299 7.25302 92.4848C7.26217 92.2871 7.21739 92.0906 7.12347 91.9163C7.02955 91.7421 6.89002 91.5966 6.71982 91.4956C6.37679 91.3017 5.9865 91.2074 5.5928 91.2231C5.2212 91.2149 4.85832 91.3362 4.56644 91.5664C4.44 91.6727 4.3358 91.803 4.2598 91.9497C4.18388 92.0927 4.14414 92.2521 4.14407 92.414C4.14305 92.5782 4.17931 92.7405 4.25009 92.8886C4.32344 93.0406 4.42444 93.1775 4.54794 93.2924L4.40634 93.5346L0.863373 93.3729Z" fill="#1A1A18"/>
<path d="M1.24666 84.7016L1.34774 84.7621C1.31284 84.8548 1.28908 84.9514 1.27693 85.0497C1.26362 85.1551 1.25695 85.2613 1.25695 85.3676C1.25464 85.5881 1.31382 85.8048 1.42784 85.9936C1.54714 86.1879 1.70067 86.3589 1.88097 86.4985C2.04622 86.6338 2.23352 86.7397 2.43468 86.8115C2.68273 86.8788 2.88732 86.9327 3.04845 86.9731C3.3608 87.0534 3.682 87.094 4.0045 87.0942L4.04308 87.0234C3.88151 86.881 3.7527 86.7053 3.66555 86.5084C3.57839 86.3115 3.53495 86.098 3.5382 85.8827C3.51634 85.3392 3.70029 84.8074 4.05333 84.3935C4.23321 84.1979 4.45407 84.0445 4.70012 83.9442C4.94618 83.844 5.21134 83.7993 5.47667 83.8134C5.77973 83.8022 6.08153 83.8579 6.36061 83.9766C6.6397 84.0952 6.88922 84.2739 7.09142 84.4999C7.50525 84.9661 7.72548 85.5727 7.70714 86.1957C7.7054 86.3876 7.68347 86.5788 7.64171 86.7661C7.60753 86.9422 7.5516 87.1134 7.47521 87.2758C7.32443 87.5798 7.09855 87.8403 6.81896 88.0327C6.54542 88.22 6.24142 88.3585 5.92052 88.4418C5.58744 88.5271 5.24481 88.5694 4.90099 88.5678C4.23858 88.574 3.57988 88.4682 2.95275 88.2548C2.31946 88.0517 1.75848 87.6696 1.33751 87.1547C1.1514 86.91 1.01275 86.6326 0.92879 86.3369C0.843064 86.028 0.800682 85.7087 0.802814 85.3881C0.799336 85.2184 0.816223 85.0489 0.853107 84.8832C0.987887 84.8227 1.11906 84.7621 1.24666 84.7016ZM5.56209 87.0941C5.92056 87.1067 6.2789 87.0654 6.62511 86.9716C6.80009 86.9396 6.95846 86.8477 7.07305 86.7116C7.18763 86.5756 7.25128 86.4038 7.25304 86.226C7.24777 86.0621 7.19114 85.9039 7.09117 85.7739C6.99121 85.6439 6.85297 85.5486 6.69591 85.5014C6.38926 85.3685 6.0579 85.3023 5.72374 85.307C5.37638 85.2946 5.02973 85.3466 4.70128 85.4603C4.53213 85.5079 4.38314 85.6094 4.27709 85.7495C4.17103 85.8896 4.11373 86.0605 4.11388 86.2362C4.11546 86.3917 4.16626 86.5426 4.25899 86.6673C4.35172 86.7921 4.48161 86.8842 4.62999 86.9306C4.92664 87.0468 5.24356 87.1024 5.56206 87.0941H5.56209Z" fill="#1A1A18"/>
<path d="M0.802815 80.4926C0.779035 80.114 0.861986 79.7364 1.04223 79.4027C1.22246 79.069 1.49276 78.7926 1.82235 78.6049C2.50358 78.2513 3.26613 78.0841 4.0328 78.12C4.66123 78.0974 5.28977 78.162 5.90047 78.3119C6.28754 78.4239 6.64807 78.6127 6.96053 78.8671C7.20152 79.0691 7.39379 79.3229 7.52306 79.6096C7.65233 79.8963 7.71525 80.2085 7.70711 80.5228C7.71926 80.9084 7.63253 81.2907 7.45513 81.6332C7.26489 81.9575 6.98879 82.2229 6.65728 82.4003C6.31156 82.6023 5.93469 82.7456 5.54204 82.8241C5.11755 82.9023 4.68654 82.9396 4.25493 82.9354C3.82851 82.9352 3.40291 82.898 2.98293 82.8241C2.60621 82.7672 2.2434 82.6405 1.91311 82.4506C1.56493 82.259 1.27677 81.9745 1.08074 81.6288C0.884707 81.2831 0.788498 80.8897 0.802815 80.4926ZM4.37606 81.4413C5.08899 81.4685 5.80282 81.4212 6.50594 81.3002C7.00399 81.1723 7.25301 80.9097 7.25301 80.5126C7.25301 80.163 6.99064 79.9206 6.4659 79.7856C5.73091 79.6458 4.98261 79.5883 4.23488 79.6142C3.45629 79.5835 2.67682 79.6461 1.91311 79.8007C1.47561 79.9257 1.25686 80.1563 1.25686 80.4926C1.25686 80.8627 1.50588 81.1134 2.00393 81.2446C2.78428 81.4023 3.58041 81.4683 4.37609 81.4413H4.37606Z" fill="#1A1A18"/>
<path d="M99.2031 211.193V232.016" stroke="#1A1A18" stroke-width="0.5669" stroke-miterlimit="22.9256"/>
<path d="M211.207 211.193V232.016" stroke="#1A1A18" stroke-width="0.5669" stroke-miterlimit="22.9256"/>
<path d="M99.2031 232.016H211.207" stroke="#1A1A18" stroke-width="0.5669" stroke-miterlimit="22.9256"/>
<path d="M146.834 237.703H150.196C150.185 237.777 150.178 237.851 150.176 237.925C150.155 238.127 150.146 238.251 150.146 238.298C150.145 238.417 150.151 238.535 150.166 238.652C150.179 238.753 150.189 238.837 150.196 238.904H147.299L147.218 240.654L147.278 240.691C147.592 240.524 147.943 240.44 148.298 240.449C148.586 240.444 148.873 240.478 149.151 240.55C149.407 240.627 149.642 240.757 149.843 240.933C150.047 241.102 150.211 241.315 150.321 241.557C150.431 241.798 150.485 242.061 150.479 242.326C150.48 242.656 150.399 242.981 150.241 243.27C150.081 243.565 149.855 243.819 149.58 244.012C149.325 244.196 149.037 244.332 148.732 244.411C148.414 244.5 148.084 244.546 147.753 244.547C147.432 244.549 147.112 244.503 146.804 244.411C146.505 244.318 146.224 244.173 145.977 243.982C146.078 243.832 146.169 243.675 146.249 243.512C146.337 243.33 146.415 243.143 146.481 242.952H146.622C146.685 243.23 146.805 243.491 146.976 243.719C147.062 243.836 147.175 243.93 147.305 243.995C147.434 244.06 147.578 244.093 147.723 244.093C147.92 244.102 148.117 244.057 148.291 243.963C148.465 243.869 148.611 243.73 148.712 243.56C148.906 243.217 149 242.826 148.984 242.433C148.993 242.061 148.871 241.698 148.642 241.406C148.535 241.28 148.404 241.176 148.258 241.1C148.115 241.024 147.955 240.984 147.793 240.984C147.629 240.983 147.467 241.019 147.319 241.09C147.167 241.163 147.03 241.264 146.915 241.388L146.673 241.246L146.834 237.703Z" fill="#1A1A18"/>
<path d="M155.506 238.086L155.444 238.188C155.352 238.153 155.255 238.129 155.157 238.117C155.052 238.103 154.945 238.097 154.839 238.097C154.618 238.095 154.402 238.154 154.213 238.268C154.019 238.387 153.848 238.54 153.709 238.721C153.573 238.886 153.467 239.073 153.396 239.274C153.328 239.523 153.274 239.727 153.234 239.888C153.154 240.201 153.113 240.522 153.113 240.844L153.184 240.883C153.326 240.721 153.502 240.592 153.698 240.505C153.895 240.418 154.109 240.375 154.324 240.378C154.868 240.356 155.4 240.54 155.813 240.893C156.009 241.073 156.162 241.294 156.263 241.54C156.363 241.786 156.408 242.051 156.394 242.316C156.405 242.62 156.349 242.921 156.23 243.2C156.112 243.479 155.933 243.729 155.707 243.931C155.241 244.345 154.635 244.565 154.012 244.547C153.82 244.545 153.629 244.523 153.441 244.481C153.265 244.448 153.094 244.392 152.932 244.315C152.627 244.164 152.367 243.938 152.174 243.659C151.987 243.385 151.848 243.081 151.766 242.76C151.68 242.427 151.637 242.085 151.639 241.741C151.633 241.078 151.739 240.42 151.952 239.793C152.155 239.159 152.537 238.598 153.053 238.177C153.297 237.991 153.574 237.853 153.87 237.769C154.179 237.683 154.499 237.64 154.819 237.643C154.989 237.639 155.158 237.656 155.323 237.693C155.384 237.828 155.444 237.959 155.506 238.086ZM153.113 242.402C153.1 242.76 153.142 243.119 153.235 243.465C153.267 243.64 153.359 243.798 153.495 243.913C153.631 244.027 153.803 244.091 153.98 244.093C154.144 244.087 154.303 244.031 154.433 243.931C154.563 243.831 154.659 243.693 154.706 243.536C154.838 243.229 154.904 242.898 154.899 242.563C154.912 242.216 154.86 241.869 154.746 241.541C154.699 241.372 154.597 241.223 154.457 241.117C154.317 241.011 154.146 240.953 153.971 240.954C153.815 240.955 153.664 241.006 153.54 241.099C153.415 241.191 153.323 241.321 153.276 241.47C153.16 241.766 153.105 242.083 153.113 242.402Z" fill="#1A1A18"/>
<path d="M159.716 237.643C160.094 237.619 160.472 237.702 160.806 237.882C161.139 238.062 161.416 238.333 161.604 238.662C161.956 239.344 162.123 240.106 162.088 240.873C162.11 241.501 162.046 242.13 161.896 242.74C161.784 243.127 161.595 243.488 161.341 243.8C161.139 244.041 160.885 244.234 160.599 244.363C160.312 244.492 160 244.555 159.686 244.547C159.3 244.559 158.918 244.472 158.575 244.295C158.251 244.105 157.985 243.829 157.808 243.497C157.606 243.151 157.462 242.775 157.384 242.382C157.306 241.957 157.268 241.526 157.272 241.095C157.273 240.668 157.31 240.243 157.384 239.823C157.441 239.446 157.567 239.084 157.757 238.753C157.949 238.405 158.233 238.117 158.579 237.92C158.925 237.724 159.319 237.628 159.716 237.643V237.643ZM158.767 241.216C158.739 241.929 158.787 242.643 158.908 243.346C159.036 243.844 159.299 244.093 159.695 244.093C160.045 244.093 160.287 243.83 160.422 243.306C160.562 242.571 160.62 241.822 160.594 241.075C160.624 240.296 160.562 239.517 160.407 238.753C160.282 238.315 160.052 238.097 159.716 238.097C159.346 238.097 159.095 238.346 158.964 238.844C158.806 239.624 158.739 240.42 158.767 241.216V241.216Z" fill="#1A1A18"/>
<path fill-rule="evenodd" clip-rule="evenodd" d="M35.274 143.293H47.3189C54.148 143.291 60.9106 144.634 67.2203 147.247C73.53 149.859 79.2631 153.689 84.0919 158.518C88.9208 163.347 92.7509 169.08 95.3633 175.39C97.9757 181.7 99.3191 188.462 99.317 195.291L99.3021 210.631H95.702L95.7173 195.291C95.7172 182.455 90.6182 170.145 81.5417 161.069C72.4653 151.992 60.1549 146.893 47.3189 146.893H31.9629V146.524L35.274 143.293Z" fill="#FFEC00" stroke="#1A1A18" stroke-width="0.5669" stroke-miterlimit="22.9256"/>
<path d="M31.9636 146.893L21.957 156.899" stroke="#1A1A18" stroke-width="0.5669" stroke-miterlimit="22.9256"/>
<path d="M95.7018 210.631L85.6953 220.637" stroke="#1A1A18" stroke-width="0.5669" stroke-miterlimit="22.9256"/>
<path d="M21.957 156.9L85.6956 220.639" stroke="#1A1A18" stroke-width="0.5669" stroke-miterlimit="22.9256"/>
<path d="M81.4139 160.939L68.7129 173.64L76.8039 181.731" stroke="#1A1A18" stroke-width="0.5669" stroke-miterlimit="22.9256"/>
<path d="M58.8164 176.332L63.7129 171.436L64.7876 172.51C65.02 172.743 65.1841 172.918 65.2798 173.038C65.3779 173.163 65.4411 173.313 65.4629 173.471C65.4916 173.743 65.4537 174.018 65.3523 174.273C65.2509 174.527 65.0891 174.753 64.8809 174.931C64.5969 175.237 64.2311 175.456 63.8267 175.561C63.4828 175.646 63.1196 175.599 62.8091 175.428C62.6167 175.883 62.3812 176.485 62.1026 177.234C61.918 177.735 61.7827 178.1 61.6968 178.328L61.4512 178.967C61.3657 178.878 61.2847 178.786 61.2085 178.689C61.1118 178.568 61.0503 178.495 61.0269 178.471C60.9388 178.386 60.8462 178.305 60.7495 178.23C60.6284 178.132 60.5578 178.073 60.5376 178.053L61.4361 175.954L61.8999 174.834L61.8648 174.798L59.5738 177.089C59.526 177.043 59.481 176.993 59.439 176.941C59.313 176.777 59.2442 176.689 59.23 176.674C59.1547 176.602 59.0748 176.534 58.9908 176.471C58.8877 176.392 58.8301 176.346 58.8164 176.332ZM64.0776 172.585L62.1719 174.491C62.1887 174.517 62.2082 174.542 62.23 174.564L62.2959 174.63C62.7363 175.07 63.298 174.949 63.981 174.266C64.0995 174.147 64.2099 174.02 64.3115 173.886C64.3966 173.794 64.4605 173.685 64.4989 173.566C64.5373 173.448 64.5492 173.322 64.5337 173.198C64.474 173.018 64.3671 172.857 64.2241 172.732L64.0776 172.585Z" fill="#1A1A18"/>
<path d="M64.0156 181.46L61.7896 179.234L62.0967 178.927C62.7998 178.831 63.3092 178.751 63.625 178.686C64.1877 178.578 64.7387 178.417 65.2705 178.204C65.8058 177.99 66.2944 177.673 66.709 177.272C66.9536 177.043 67.1465 176.764 67.2749 176.454C67.3377 176.331 67.3612 176.192 67.3421 176.055C67.3231 175.919 67.2624 175.792 67.1685 175.691C67.0107 175.533 66.7669 175.532 66.437 175.687C66.1448 175.831 65.8794 176.025 65.6523 176.259L65.5879 176.223C65.6719 175.943 65.6983 175.648 65.6655 175.358C65.9882 175.149 66.3707 175.052 66.7539 175.083C67.0872 175.12 67.3973 175.271 67.6313 175.511C67.942 175.795 68.1273 176.191 68.147 176.612C68.1376 176.875 68.074 177.133 67.9599 177.371C67.8459 177.608 67.684 177.819 67.4844 177.991C67.1893 178.298 66.8273 178.532 66.4268 178.675C66.1932 178.756 65.9533 178.816 65.7095 178.857C65.6201 178.872 65.4795 178.889 65.2871 178.905C64.9302 178.939 64.5698 178.978 64.2036 179.021C63.8975 179.058 63.659 179.091 63.4883 179.12L63.4575 179.161L64.104 179.807C64.1875 179.891 64.3271 180.011 64.5205 180.166C64.7153 180.323 64.8555 180.444 64.9434 180.532C64.832 180.63 64.7354 180.714 64.6543 180.785C64.5732 180.856 64.5063 180.918 64.4541 180.971C64.354 181.071 64.2734 181.156 64.2114 181.228C64.1499 181.299 64.085 181.377 64.0156 181.46Z" fill="#1A1A18"/>
<path d="M67.0088 182.141L65.6919 180.824C65.7744 180.754 65.8467 180.693 65.9087 180.641C65.9707 180.589 66.0215 180.544 66.0596 180.506C66.1268 180.44 66.19 180.369 66.249 180.296C66.2998 180.232 66.3418 180.18 66.377 180.139C66.6353 180.054 67.0337 179.914 67.5723 179.72C68.0059 179.562 68.4344 179.41 68.8579 179.262C69.2812 179.114 69.5941 179.003 69.7964 178.929C70.1616 178.799 70.4653 178.684 70.7075 178.583C70.7485 178.644 70.7959 178.708 70.8515 178.777C70.8931 178.831 70.9376 178.883 70.9848 178.932C71.0405 178.99 71.1007 179.043 71.165 179.091C71.2129 179.125 71.2695 179.165 71.3335 179.209L68.4692 182.074L68.8882 182.493C68.7959 182.571 68.7143 182.64 68.6455 182.699C68.5766 182.759 68.5225 182.807 68.4843 182.846C68.4089 182.92 68.3373 182.998 68.27 183.08C68.2119 183.151 68.164 183.21 68.1245 183.256L67.7055 182.837L66.5136 184.029C66.4796 183.98 66.442 183.933 66.4013 183.889C66.2983 183.757 66.2309 183.675 66.2011 183.645C66.1339 183.577 66.0616 183.514 65.9848 183.457C65.914 183.406 65.8588 183.365 65.8168 183.332L67.0088 182.141ZM67.7725 181.377L69.8516 179.298L66.856 180.374L66.8389 180.443L67.7725 181.377Z" fill="#1A1A18"/>
<path d="M69.6284 187.073L67.4019 184.846L67.709 184.539C68.4126 184.444 68.922 184.363 69.2373 184.298C69.8001 184.191 70.3513 184.03 70.8833 183.817C71.4186 183.602 71.9072 183.286 72.3218 182.885C72.5662 182.655 72.759 182.376 72.8877 182.066C72.9503 181.944 72.9737 181.805 72.9546 181.668C72.9356 181.532 72.8751 181.404 72.7812 181.304C72.623 181.145 72.3799 181.144 72.0493 181.299C71.7574 181.444 71.4922 181.638 71.2651 181.872L71.2002 181.835C71.2847 181.555 71.3111 181.261 71.2778 180.97C71.6007 180.762 71.9831 180.665 72.3662 180.695C72.6996 180.732 73.0099 180.884 73.2441 181.124C73.5546 181.408 73.74 181.804 73.7598 182.225C73.7504 182.488 73.6868 182.746 73.5727 182.984C73.4587 183.221 73.2968 183.432 73.0972 183.604C72.8021 183.911 72.4399 184.144 72.0391 184.287C71.8058 184.368 71.566 184.429 71.3223 184.47C71.2329 184.485 71.0923 184.501 70.8999 184.518C70.543 184.552 70.1818 184.59 69.8164 184.634C69.5103 184.67 69.2718 184.703 69.1011 184.733L69.0703 184.773L69.7163 185.419C69.8003 185.503 69.9393 185.623 70.1333 185.779C70.3276 185.935 70.4686 186.057 70.5562 186.145C70.4448 186.243 70.3481 186.327 70.2671 186.398C70.186 186.469 70.1187 186.531 70.0664 186.583C69.9663 186.683 69.8862 186.769 69.8242 186.841C69.7627 186.912 69.6978 186.99 69.6284 187.073Z" fill="#1A1A18"/>
<path d="M83.668 158.101L96.369 145.4L88.278 137.309" stroke="#1A1A18" stroke-width="0.5669" stroke-miterlimit="22.9256"/>
<path d="M1.59375 245.093V238.168H3.74365C4.20801 238.168 4.54786 238.176 4.76318 238.193C4.97828 238.21 5.18774 238.27 5.37891 238.37C5.65091 238.498 5.87927 238.703 6.03549 238.96C6.19171 239.216 6.26887 239.513 6.25732 239.813C6.27219 240.25 6.12068 240.676 5.8335 241.004C5.52862 241.333 5.12436 241.553 4.68262 241.63C4.94482 242.088 5.31151 242.681 5.78271 243.407C6.09911 243.892 6.32796 244.245 6.46924 244.467L6.86279 245.093C6.73487 245.093 6.56169 245.085 6.34326 245.068C6.12451 245.051 5.99121 245.043 5.94434 245.043C5.8164 245.043 5.64308 245.051 5.42435 245.068C5.2056 245.085 5.07602 245.093 5.03564 245.093L3.8345 242.973L3.17825 241.853H3.10794V245.093C2.99319 245.093 2.89894 245.089 2.82523 245.083C2.53567 245.056 2.37747 245.043 2.35062 245.043C2.23636 245.043 2.08825 245.051 1.90628 245.068C1.72462 245.084 1.62012 245.093 1.59375 245.093ZM3.10791 238.723V241.418C3.15123 241.425 3.19496 241.428 3.23877 241.429H3.37012C4.25194 241.429 4.6927 240.946 4.69238 239.98C4.69169 239.812 4.67485 239.643 4.64209 239.478C4.62511 239.34 4.57364 239.209 4.49246 239.096C4.41129 238.984 4.30304 238.894 4.17773 238.834C3.92819 238.747 3.66423 238.71 3.40039 238.723H3.10791Z" fill="#1A1A18"/>
<path d="M9.23535 245.093V239.39C8.8521 239.611 8.45787 239.813 8.0542 239.995C8.00275 239.904 7.94362 239.818 7.87744 239.738C7.80365 239.65 7.72439 239.568 7.64014 239.49V239.41C8.09814 239.262 8.58951 239.073 9.11426 238.844C9.5044 238.669 9.98226 238.444 10.5479 238.168L10.6284 238.218V245.093C10.5447 245.082 10.4604 245.075 10.376 245.073C10.1401 245.053 9.99203 245.043 9.93164 245.043C9.79678 245.042 9.66198 245.049 9.52783 245.062C9.40674 245.076 9.30908 245.086 9.23535 245.093Z" fill="#1A1A18"/>
<path d="M12.8389 246.837L13.293 244.971C13.3335 244.81 13.3739 244.65 13.4141 244.492C13.4576 244.325 13.5133 244.161 13.5806 244.002C13.6319 243.862 13.7189 243.736 13.833 243.639C13.9503 243.56 14.0904 243.521 14.2319 243.528C14.4102 243.525 14.5826 243.592 14.7114 243.715C14.7735 243.77 14.8231 243.838 14.857 243.913C14.8909 243.989 14.9084 244.071 14.9082 244.154C14.9059 244.269 14.8709 244.381 14.8071 244.477C14.5381 244.88 14.2555 245.294 13.9595 245.717C13.8384 245.892 13.5456 246.302 13.0811 246.948L12.8389 246.837Z" fill="#1A1A18"/>
<path d="M16.1807 245.093V238.168H18.3306C18.7949 238.168 19.1348 238.176 19.3501 238.193C19.5652 238.21 19.7747 238.27 19.9658 238.37C20.2378 238.498 20.4662 238.703 20.6224 238.96C20.7786 239.216 20.8558 239.513 20.8442 239.813C20.8591 240.25 20.7076 240.676 20.4204 241.004C20.1155 241.333 19.7113 241.553 19.2695 241.63C19.5317 242.088 19.8984 242.681 20.3696 243.407C20.686 243.892 20.9149 244.245 21.0562 244.467L21.4497 245.093C21.3218 245.093 21.1486 245.085 20.9302 245.068C20.7114 245.051 20.5781 245.043 20.5312 245.043C20.4033 245.043 20.23 245.051 20.0113 245.068C19.7925 245.085 19.663 245.093 19.6226 245.093L18.4214 242.973L17.7652 241.853H17.6949V245.093C17.5801 245.093 17.4858 245.089 17.4121 245.083C17.1226 245.056 16.9644 245.043 16.9375 245.043C16.8233 245.043 16.6752 245.051 16.4932 245.068C16.3115 245.084 16.207 245.093 16.1807 245.093ZM17.6948 238.723V241.418C17.7381 241.425 17.7819 241.428 17.8257 241.429H17.957C18.8389 241.429 19.2796 240.946 19.2793 239.98C19.2786 239.812 19.2618 239.643 19.229 239.478C19.212 239.34 19.1605 239.209 19.0794 239.096C18.9982 238.984 18.89 238.894 18.7646 238.834C18.5151 238.747 18.2511 238.71 17.9873 238.723H17.6948Z" fill="#1A1A18"/>
<path d="M26.5068 245.042H22.0552V244.608C22.6631 244.043 23.092 243.626 23.3418 243.356C23.7851 242.9 24.1758 242.396 24.5063 241.852C24.8199 241.348 24.9946 240.77 25.0127 240.177C25.025 239.833 24.9375 239.493 24.7607 239.198C24.6701 239.05 24.542 238.93 24.3894 238.848C24.2369 238.766 24.0654 238.727 23.8925 238.733C23.7325 238.737 23.577 238.787 23.4458 238.879C23.3146 238.97 23.2135 239.099 23.1552 239.248C23.0105 239.547 22.9379 239.875 22.9433 240.207L22.8427 240.228C22.628 239.954 22.36 239.728 22.0551 239.561C22.199 239.151 22.4881 238.808 22.8676 238.597C23.2687 238.38 23.7193 238.271 24.1753 238.279C24.7427 238.253 25.3051 238.397 25.79 238.693C26.0246 238.851 26.214 239.067 26.3397 239.32C26.4653 239.573 26.523 239.854 26.5068 240.137C26.5143 240.576 26.3837 241.007 26.1333 241.368C25.9754 241.596 25.7964 241.809 25.5986 242.004C25.5244 242.078 25.3999 242.189 25.2251 242.337C24.9018 242.613 24.5787 242.896 24.2558 243.185C23.9863 243.427 23.7811 243.619 23.6401 243.76L23.6499 243.811H24.9424C25.1104 243.811 25.3695 243.797 25.7197 243.77C26.0693 243.744 26.3317 243.73 26.5068 243.73C26.4931 243.878 26.4814 244.006 26.4716 244.114C26.4614 244.222 26.4564 244.312 26.4565 244.386C26.4554 244.504 26.4604 244.622 26.4716 244.74C26.4814 244.834 26.4932 244.935 26.5068 245.042Z" fill="#1A1A18"/>
<path d="M27.4258 246.837L27.8799 244.971C27.9204 244.81 27.9608 244.65 28.001 244.492C28.0445 244.325 28.1002 244.161 28.1675 244.002C28.2189 243.862 28.3058 243.736 28.4199 243.639C28.5372 243.56 28.6773 243.521 28.8188 243.528C28.9971 243.525 29.1695 243.592 29.2983 243.715C29.3604 243.77 29.41 243.838 29.4439 243.913C29.4778 243.989 29.4953 244.071 29.4951 244.154C29.4929 244.269 29.4578 244.381 29.394 244.477C29.125 244.88 28.8424 245.294 28.5464 245.717C28.4253 245.892 28.1325 246.302 27.668 246.948L27.4258 246.837Z" fill="#1A1A18"/>
<path d="M30.7671 245.093V238.168H32.917C33.3814 238.168 33.7212 238.176 33.9365 238.193C34.1516 238.21 34.3611 238.27 34.5522 238.37C34.8242 238.498 35.0526 238.703 35.2088 238.96C35.365 239.216 35.4422 239.513 35.4307 239.813C35.4455 240.25 35.294 240.676 35.0068 241.004C34.702 241.333 34.2977 241.553 33.856 241.63C34.1182 242.088 34.4849 242.681 34.9561 243.407C35.2725 243.892 35.5013 244.245 35.6426 244.467L36.0361 245.093C35.9082 245.093 35.735 245.085 35.5166 245.068C35.2979 245.051 35.1645 245.043 35.1177 245.043C34.9897 245.043 34.8164 245.051 34.5977 245.068C34.3789 245.085 34.2494 245.093 34.209 245.093L33.0078 242.973L32.3516 241.853H32.2813V245.093C32.1665 245.093 32.0723 245.089 31.9986 245.083C31.709 245.056 31.5508 245.043 31.524 245.043C31.4097 245.043 31.2616 245.051 31.0796 245.068C30.898 245.084 30.7935 245.093 30.7671 245.093ZM32.2812 238.723V241.418C32.3246 241.425 32.3683 241.428 32.4121 241.429H32.5435C33.4253 241.429 33.866 240.946 33.8657 239.98C33.865 239.812 33.8482 239.643 33.8154 239.478C33.7984 239.34 33.747 239.209 33.6658 239.096C33.5846 238.984 33.4764 238.894 33.3511 238.834C33.1015 238.747 32.8376 238.71 32.5737 238.723H32.2812Z" fill="#1A1A18"/>
<path d="M37.3589 238.34H40.7202C40.709 238.413 40.7024 238.487 40.7002 238.562C40.6802 238.764 40.6701 238.888 40.67 238.935C40.6688 239.053 40.6755 239.171 40.6899 239.289C40.7036 239.39 40.7134 239.474 40.7202 239.541H37.8232L37.7422 241.291L37.8027 241.328C38.1161 241.16 38.4675 241.077 38.8227 241.085C39.1102 241.08 39.397 241.114 39.6753 241.187C39.9308 241.263 40.1668 241.394 40.3672 241.57C40.5716 241.739 40.7351 241.952 40.8452 242.193C40.9553 242.435 41.0092 242.698 41.0029 242.963C41.0047 243.292 40.9231 243.617 40.7656 243.907C40.6054 244.202 40.3792 244.456 40.1045 244.649C39.8491 244.833 39.5616 244.968 39.2568 245.047C38.9379 245.137 38.6085 245.182 38.2773 245.184C37.956 245.186 37.6363 245.14 37.3286 245.047C37.0293 244.955 36.7489 244.81 36.5009 244.619C36.6027 244.469 36.6937 244.312 36.7734 244.149C36.8612 243.967 36.9386 243.78 37.0053 243.589H37.1469C37.2093 243.867 37.3296 244.128 37.4999 244.356C37.5866 244.472 37.6993 244.567 37.829 244.632C37.9588 244.696 38.1019 244.73 38.247 244.729C38.4447 244.739 38.6412 244.694 38.8155 244.6C38.9897 244.506 39.1352 244.366 39.2363 244.196C39.4301 243.853 39.5244 243.463 39.5087 243.069C39.517 242.698 39.3956 242.335 39.1655 242.043C39.0591 241.917 38.9289 241.812 38.7822 241.736C38.6392 241.66 38.4797 241.621 38.3178 241.621C38.1536 241.62 37.9913 241.656 37.8432 241.727C37.6913 241.8 37.5543 241.901 37.4394 242.024L37.1972 241.883L37.3589 238.34Z" fill="#1A1A18"/>
<path d="M1.30469 246.995H77.6297L95.7017 210.631" stroke="#1A1A18" stroke-width="0.5669" stroke-miterlimit="22.9256"/>
<path d="M84.665 111.99L88.6982 107.957C88.3557 107.924 88.0155 107.87 87.6796 107.795C87.717 107.707 87.7482 107.617 87.7729 107.525C87.7979 107.428 87.8168 107.33 87.8295 107.231L87.8867 107.174C88.2583 107.31 88.6379 107.423 89.0234 107.512C89.3422 107.583 89.7407 107.662 90.2187 107.75L90.2231 107.826L85.3618 112.687C85.3281 112.637 85.2907 112.59 85.2499 112.546C85.1469 112.415 85.0795 112.334 85.0493 112.303C84.9823 112.235 84.9099 112.172 84.8329 112.115C84.7637 112.064 84.707 112.022 84.665 111.99Z" fill="#1A1A18"/>
<path d="M90.9292 112.915L90.8789 112.965C90.9597 113.101 91.0102 113.252 91.027 113.41C91.0437 113.567 91.0264 113.726 90.9761 113.876C90.8683 114.248 90.6635 114.585 90.3828 114.853C90.0125 115.263 89.5083 115.528 88.9604 115.6C88.729 115.627 88.4945 115.601 88.275 115.522C88.0556 115.444 87.8572 115.316 87.6953 115.148C87.5384 114.994 87.4102 114.812 87.3169 114.613C87.2251 114.412 87.1797 114.194 87.1841 113.973C87.193 113.718 87.2614 113.469 87.3838 113.245C87.5152 112.987 87.687 112.752 87.8926 112.548C88.1795 112.254 88.5336 112.035 88.9243 111.91C89.0786 111.847 89.245 111.82 89.4112 111.831C89.5774 111.841 89.7391 111.889 89.8843 111.97L89.9346 111.92C89.8145 111.683 89.7907 111.409 89.8682 111.154C89.9452 110.848 90.1065 110.569 90.334 110.35C90.4891 110.173 90.6803 110.032 90.8948 109.936C91.1092 109.84 91.3418 109.792 91.5767 109.794C91.9563 109.817 92.3127 109.984 92.5728 110.261C92.7168 110.398 92.8403 110.555 92.9395 110.728C93.0216 110.9 93.0619 111.09 93.0572 111.281C93.0627 111.489 93.027 111.696 92.9521 111.89C92.8595 112.099 92.7257 112.288 92.5586 112.445C92.332 112.685 92.048 112.863 91.7334 112.963C91.4686 113.047 91.182 113.03 90.9292 112.915ZM90.0317 112.489C89.7747 112.475 89.522 112.559 89.3237 112.723C89.0875 112.882 88.868 113.064 88.6684 113.266C88.3629 113.545 88.1192 113.886 87.9531 114.265C87.9056 114.354 87.8862 114.455 87.8975 114.556C87.9088 114.656 87.9504 114.751 88.0166 114.827C88.1714 114.982 88.4223 114.967 88.7695 114.781C89.06 114.622 89.3254 114.421 89.5571 114.184C89.7137 114.028 89.8599 113.862 89.9951 113.687C90.1117 113.541 90.208 113.38 90.2812 113.209C90.3372 113.113 90.3626 113.003 90.354 112.892C90.3455 112.781 90.3034 112.676 90.2334 112.59C90.1785 112.536 90.1079 112.5 90.0317 112.489V112.489ZM90.959 111.117C90.8545 111.22 90.7568 111.33 90.6665 111.446C90.5883 111.544 90.5234 111.652 90.4736 111.767C90.4284 111.868 90.4047 111.978 90.4043 112.09C90.402 112.135 90.4089 112.181 90.4246 112.223C90.4403 112.266 90.4644 112.305 90.4956 112.338C90.6377 112.48 90.8516 112.476 91.1372 112.324C91.3839 112.185 91.6088 112.01 91.8047 111.806C91.9997 111.625 92.1641 111.413 92.2915 111.179C92.3538 111.09 92.3837 110.982 92.3764 110.874C92.3692 110.765 92.3251 110.663 92.2515 110.583C92.105 110.436 91.8941 110.439 91.6163 110.59C91.3742 110.735 91.153 110.912 90.959 111.117V111.117Z" fill="#1A1A18"/>
<path d="M92.0498 119.375L94.1968 116.622C93.3931 117.069 92.7632 117.43 92.3071 117.705C91.8501 117.979 91.4582 118.23 91.1313 118.457C91.0874 118.408 91.0478 118.357 91.0128 118.302C90.9764 118.245 90.935 118.192 90.8892 118.143C90.8382 118.096 90.7833 118.052 90.7251 118.014C90.6686 117.977 90.6152 117.936 90.5654 117.891L92.4 114.825C91.9927 115.125 91.5291 115.475 91.0093 115.876C90.4897 116.279 90.0322 116.641 89.6367 116.962L89.4351 116.76L89.2383 116.563C89.9122 116.111 90.5946 115.651 91.2857 115.182C91.9766 114.714 92.6616 114.237 93.3408 113.753C93.3852 113.8 93.4259 113.851 93.4625 113.905C93.499 113.958 93.5392 114.008 93.583 114.056C93.6351 114.104 93.6901 114.149 93.7476 114.19C93.8262 114.248 93.8712 114.283 93.8804 114.292L92.1348 117.261C93.123 116.683 94.1156 116.104 95.1124 115.524C95.1566 115.572 95.197 115.622 95.2334 115.676C95.2717 115.731 95.314 115.783 95.3599 115.833C95.4074 115.876 95.458 115.917 95.5112 115.954C95.5645 115.99 95.615 116.03 95.6621 116.074C95.0654 116.86 94.5727 117.522 94.1837 118.059C93.689 118.748 93.2248 119.433 92.791 120.116C92.7323 120.053 92.6777 119.987 92.6275 119.917C92.576 119.845 92.5197 119.777 92.459 119.713C92.3943 119.652 92.3257 119.595 92.2539 119.543C92.1825 119.491 92.1143 119.435 92.0498 119.375V119.375Z" fill="#1A1A18"/>
<path d="M95.7896 123.115L97.9365 120.361C97.1328 120.809 96.5029 121.17 96.0469 121.444C95.5903 121.719 95.1984 121.97 94.8711 122.196C94.8272 122.148 94.7875 122.096 94.7524 122.041C94.7162 121.985 94.675 121.932 94.6294 121.883C94.5785 121.836 94.5236 121.793 94.4653 121.754C94.4089 121.717 94.3555 121.676 94.3057 121.631L96.1397 118.564C95.7325 118.864 95.2691 119.215 94.7496 119.617C94.23 120.019 93.7725 120.381 93.377 120.702L93.1754 120.5L92.9786 120.304C93.6519 119.851 94.3342 119.39 95.0255 118.922C95.7164 118.454 96.4014 117.977 97.0806 117.493C97.125 117.54 97.1656 117.591 97.2022 117.645C97.2388 117.698 97.2793 117.748 97.3233 117.796C97.3752 117.844 97.43 117.888 97.4874 117.93C97.566 117.988 97.6109 118.023 97.6207 118.033L95.8746 121C96.8629 120.422 97.8555 119.844 98.8525 119.265C98.8966 119.312 98.9369 119.362 98.9731 119.415C99.0114 119.471 99.0537 119.523 99.0996 119.572C99.1471 119.616 99.1977 119.657 99.251 119.693C99.3045 119.73 99.3551 119.77 99.4023 119.814C98.8052 120.6 98.3122 121.261 97.9233 121.798C97.4292 122.488 96.9652 123.174 96.5312 123.856C96.4725 123.793 96.4178 123.727 96.3677 123.657C96.316 123.585 96.2595 123.517 96.1987 123.453C96.1341 123.392 96.0658 123.335 95.9941 123.283C95.9226 123.231 95.8543 123.175 95.7896 123.115Z" fill="#1A1A18"/>
<path d="M98.4238 125.749L103.321 120.852L104.396 121.927C104.628 122.159 104.792 122.335 104.888 122.455C104.986 122.581 105.049 122.73 105.071 122.888C105.1 123.16 105.062 123.436 104.961 123.69C104.859 123.944 104.697 124.17 104.489 124.348C104.205 124.654 103.839 124.873 103.435 124.978C103.091 125.063 102.728 125.016 102.417 124.845C102.225 125.3 101.989 125.902 101.711 126.651C101.526 127.152 101.391 127.516 101.305 127.745L101.059 128.384C100.974 128.296 100.893 128.203 100.817 128.106C100.719 127.985 100.658 127.912 100.635 127.889C100.547 127.803 100.454 127.722 100.357 127.646C100.237 127.549 100.166 127.491 100.146 127.471L101.044 125.371L101.508 124.25L101.473 124.215L99.1818 126.507C99.1339 126.46 99.089 126.41 99.0475 126.358C98.9215 126.194 98.8517 126.105 98.838 126.092C98.7626 126.019 98.6826 125.951 98.5988 125.888C98.4961 125.809 98.4375 125.763 98.4238 125.749ZM103.686 122.002L101.78 123.908C101.797 123.934 101.817 123.959 101.838 123.981L101.904 124.046C102.345 124.487 102.906 124.366 103.589 123.684C103.707 123.564 103.818 123.437 103.919 123.303C104.005 123.212 104.069 123.103 104.107 122.984C104.146 122.865 104.157 122.739 104.142 122.615C104.082 122.435 103.975 122.274 103.832 122.148L103.686 122.002Z" fill="#1A1A18"/>
<path d="M103.624 130.877L101.397 128.651L101.704 128.344C102.408 128.248 102.917 128.167 103.233 128.102C103.796 127.995 104.347 127.834 104.878 127.621C105.414 127.406 105.903 127.09 106.317 126.689C106.561 126.459 106.754 126.18 106.883 125.871C106.946 125.748 106.969 125.609 106.95 125.472C106.931 125.336 106.871 125.209 106.777 125.108C106.619 124.95 106.375 124.949 106.044 125.104C105.753 125.249 105.488 125.442 105.261 125.676L105.195 125.64C105.28 125.36 105.306 125.065 105.273 124.775C105.596 124.566 105.978 124.47 106.361 124.5C106.695 124.537 107.005 124.688 107.24 124.928C107.55 125.213 107.736 125.608 107.755 126.029C107.746 126.292 107.682 126.55 107.568 126.788C107.454 127.025 107.292 127.236 107.093 127.408C106.798 127.715 106.436 127.949 106.035 128.091C105.801 128.173 105.562 128.234 105.318 128.274C105.228 128.29 105.087 128.306 104.895 128.323C104.539 128.356 104.177 128.394 103.811 128.438C103.505 128.475 103.267 128.507 103.097 128.537L103.066 128.578L103.712 129.224C103.795 129.307 103.935 129.428 104.128 129.583C104.323 129.74 104.464 129.862 104.552 129.949C104.44 130.047 104.343 130.131 104.262 130.203C104.181 130.274 104.114 130.335 104.062 130.387C103.962 130.487 103.881 130.574 103.82 130.645C103.758 130.717 103.693 130.794 103.624 130.877Z" fill="#1A1A18"/>
<path d="M110.56 128.876L110.458 128.918C110.437 128.849 110.406 128.783 110.365 128.724C110.321 128.662 110.273 128.604 110.219 128.55C110.103 128.435 109.949 128.367 109.785 128.358C109.592 128.347 109.398 128.37 109.213 128.427C109.02 128.479 108.836 128.558 108.665 128.661C108.456 128.803 108.285 128.921 108.15 129.015C107.887 129.198 107.641 129.404 107.414 129.631L107.422 129.693C107.582 129.644 107.751 129.638 107.914 129.675C108.077 129.713 108.227 129.793 108.349 129.907C108.496 130.048 108.607 130.222 108.673 130.415C108.739 130.607 108.758 130.813 108.73 131.015C108.646 131.516 108.393 131.973 108.013 132.311C107.624 132.739 107.1 133.021 106.528 133.11C106.297 133.149 106.06 133.131 105.837 133.059C105.613 132.988 105.41 132.864 105.245 132.698C105.149 132.599 105.069 132.488 105.006 132.366C104.94 132.25 104.894 132.124 104.869 131.994C104.826 131.71 104.855 131.42 104.954 131.151C105.059 130.853 105.204 130.571 105.385 130.312C105.58 130.031 105.8 129.768 106.043 129.527C106.503 129.06 107.018 128.65 107.577 128.306C108.084 127.974 108.665 127.771 109.269 127.714C109.508 127.702 109.746 127.743 109.967 127.834C110.178 127.925 110.37 128.056 110.531 128.219C110.618 128.302 110.691 128.4 110.747 128.507C110.683 128.633 110.62 128.756 110.56 128.876ZM106.313 130.732C106.054 130.978 105.823 131.25 105.622 131.544C105.394 131.909 105.37 132.181 105.551 132.361C105.711 132.521 105.963 132.511 106.307 132.33C106.597 132.174 106.861 131.975 107.091 131.739C107.341 131.502 107.558 131.234 107.737 130.939C107.936 130.584 107.945 130.317 107.766 130.137C107.609 129.98 107.371 129.986 107.053 130.155C106.78 130.31 106.531 130.505 106.313 130.732V130.732Z" fill="#1A1A18"/>
<path d="M112.978 130.666C113.189 130.883 113.325 131.162 113.366 131.462C113.406 131.762 113.348 132.067 113.201 132.332C112.88 133.012 112.432 133.625 111.88 134.137C111.449 134.591 110.975 135.001 110.464 135.361C110.149 135.572 109.802 135.732 109.437 135.833C109.205 135.911 108.956 135.925 108.717 135.872C108.478 135.819 108.258 135.702 108.081 135.534C107.875 135.34 107.741 135.081 107.704 134.8C107.681 134.474 107.743 134.148 107.884 133.852C108.033 133.496 108.227 133.16 108.46 132.852C108.723 132.511 109.009 132.189 109.315 131.886C109.616 131.586 109.935 131.304 110.27 131.042C110.557 130.809 110.874 130.618 111.214 130.473C111.491 130.315 111.81 130.248 112.127 130.283C112.444 130.318 112.742 130.452 112.978 130.666V130.666ZM109.977 132.719C109.46 133.209 108.98 133.736 108.541 134.296C108.253 134.712 108.208 135.019 108.407 135.217C108.582 135.393 108.889 135.328 109.327 135.024C109.92 134.572 110.476 134.073 110.991 133.533C111.555 132.999 112.073 132.419 112.539 131.798C112.785 131.426 112.824 131.156 112.657 130.988C112.472 130.803 112.17 130.853 111.752 131.14C111.118 131.616 110.524 132.145 109.977 132.719H109.977Z" fill="#1A1A18"/>
<path d="M78.9062 120.436L76.6797 118.209L76.9868 117.902C77.6899 117.806 78.1994 117.726 78.5151 117.661C79.0779 117.554 79.629 117.392 80.1606 117.179C80.696 116.965 81.1845 116.648 81.5991 116.248C81.8436 116.018 82.0366 115.739 82.1655 115.429C82.2282 115.306 82.2516 115.167 82.2327 115.031C82.2137 114.894 82.1533 114.767 82.0595 114.666C81.9013 114.508 81.6577 114.507 81.3271 114.662C81.0352 114.807 80.77 115.001 80.5429 115.234L80.478 115.198C80.5625 114.918 80.5889 114.624 80.5556 114.333C80.8785 114.125 81.2609 114.028 81.644 114.058C81.9774 114.095 82.2877 114.247 82.5219 114.487C82.8327 114.771 83.0181 115.167 83.0375 115.587C83.0282 115.851 82.9647 116.109 82.8507 116.346C82.7368 116.583 82.5749 116.795 82.3754 116.966C82.0803 117.273 81.7179 117.507 81.3168 117.65C81.0836 117.731 80.8437 117.792 80.6 117.833C80.5107 117.848 80.3696 117.864 80.1777 117.881C79.8207 117.915 79.4594 117.953 79.0937 117.996C78.788 118.033 78.5493 118.066 78.3793 118.095L78.3481 118.136L78.9941 118.782C79.0776 118.866 79.2173 118.986 79.4111 119.142C79.6054 119.298 79.7464 119.42 79.8339 119.508C79.7221 119.605 79.6258 119.689 79.5449 119.761C79.4638 119.832 79.3965 119.894 79.3442 119.946C79.2446 120.045 79.164 120.132 79.1025 120.203C79.0405 120.275 78.9751 120.352 78.9062 120.436Z" fill="#1A1A18"/>
<path d="M81.7124 123.242L79.4863 121.016L79.7935 120.708C80.4966 120.613 81.006 120.532 81.3218 120.467C81.8845 120.36 82.4355 120.199 82.9673 119.986C83.5026 119.771 83.9912 119.455 84.4058 119.054C84.6504 118.825 84.8433 118.545 84.9717 118.235C85.0345 118.113 85.0581 117.974 85.0391 117.837C85.0202 117.7 84.9596 117.573 84.8657 117.472C84.7079 117.314 84.464 117.313 84.1337 117.469C83.8415 117.613 83.5761 117.807 83.3491 118.041L83.2846 118.004C83.3686 117.724 83.395 117.43 83.3622 117.14C83.6849 116.931 84.0675 116.834 84.4506 116.865C84.7839 116.901 85.094 117.053 85.3281 117.293C85.6389 117.577 85.8244 117.973 85.8437 118.394C85.8344 118.657 85.7708 118.915 85.6569 119.152C85.5429 119.39 85.3811 119.601 85.1816 119.772C84.8864 120.079 84.5242 120.313 84.1235 120.457C83.8899 120.537 83.65 120.598 83.4062 120.639C83.3168 120.654 83.1762 120.67 82.9838 120.687C82.6269 120.721 82.2665 120.76 81.9003 120.803C81.5942 120.839 81.3554 120.872 81.1855 120.901L81.1542 120.942L81.8007 121.589C81.8842 121.672 82.0239 121.792 82.2172 121.948C82.412 122.104 82.5522 122.226 82.6401 122.314C82.5287 122.412 82.4321 122.496 82.351 122.567C82.27 122.638 82.2031 122.7 82.1508 122.752C82.0512 122.852 81.9702 122.938 81.9086 123.009C81.8467 123.081 81.7817 123.159 81.7124 123.242Z" fill="#1A1A18"/>
<path d="M84.9121 126.513L87.0591 123.759C86.2549 124.207 85.6248 124.568 85.1689 124.843C84.7124 125.117 84.3206 125.367 83.9937 125.594C83.9495 125.546 83.9096 125.495 83.8745 125.44C83.8386 125.383 83.7974 125.33 83.7515 125.281C83.7005 125.233 83.6454 125.19 83.5869 125.152C83.5306 125.115 83.4773 125.074 83.4277 125.028L85.2622 121.962C84.855 122.262 84.3913 122.613 83.8711 123.015C83.3516 123.417 82.8942 123.779 82.499 124.1L82.2974 123.898L82.1006 123.701C82.7744 123.249 83.4567 122.789 84.1475 122.32C84.8384 121.852 85.5236 121.376 86.2031 120.891C86.2472 120.938 86.2878 120.989 86.3247 121.043C86.3609 121.096 86.4012 121.146 86.4453 121.193C86.4972 121.242 86.5522 121.287 86.6099 121.328C86.688 121.386 86.7334 121.421 86.7427 121.43L84.9966 124.399C85.9854 123.82 86.978 123.241 87.9746 122.662C88.0186 122.71 88.059 122.76 88.0957 122.814C88.1337 122.869 88.176 122.921 88.2222 122.97C88.2695 123.014 88.3201 123.055 88.3735 123.091C88.4266 123.128 88.4771 123.168 88.5244 123.212C87.9272 123.999 87.4342 124.66 87.0454 125.197C86.5508 125.886 86.0868 126.572 85.6533 127.254C85.5944 127.191 85.5396 127.125 85.4893 127.055C85.4381 126.983 85.382 126.915 85.3213 126.851C85.2566 126.79 85.1879 126.733 85.1157 126.681C85.0444 126.629 84.9764 126.573 84.9121 126.513V126.513Z" fill="#1A1A18"/>
<path d="M88.6519 130.252L90.7988 127.499C89.9946 127.947 89.3646 128.308 88.9088 128.583C88.4527 128.857 88.0609 129.107 87.7334 129.334C87.6893 129.286 87.6494 129.234 87.6143 129.18C87.5784 129.123 87.5374 129.07 87.4917 129.021C87.4408 128.973 87.3857 128.93 87.3271 128.893C87.2708 128.856 87.2176 128.814 87.168 128.769L89.002 125.702C88.5948 126.002 88.1312 126.353 87.6114 126.755C87.0919 127.157 86.6345 127.519 86.2393 127.84L86.0377 127.638L85.8409 127.441C86.5142 126.989 87.1963 126.528 87.8873 126.06C88.5782 125.592 89.2634 125.115 89.9429 124.63C89.987 124.678 90.0277 124.729 90.0645 124.782C90.1009 124.836 90.1414 124.886 90.1856 124.934C90.2373 124.982 90.2921 125.026 90.3497 125.067C90.4278 125.126 90.4732 125.161 90.483 125.17L88.7364 128.139C89.7252 127.56 90.718 126.981 91.7149 126.402C91.7587 126.45 91.799 126.5 91.8355 126.553C91.8735 126.609 91.9158 126.661 91.962 126.71C92.0092 126.754 92.0598 126.795 92.1133 126.831C92.1666 126.868 92.2172 126.908 92.2647 126.952C91.6671 127.738 91.1739 128.4 90.7852 128.937C90.2911 129.626 89.8272 130.312 89.3936 130.994C89.3346 130.931 89.2798 130.865 89.2296 130.795C89.1782 130.723 89.1219 130.655 89.0611 130.59C88.9965 130.53 88.928 130.473 88.856 130.421C88.7845 130.369 88.7163 130.313 88.6519 130.252Z" fill="#1A1A18"/>
<path d="M91.2861 132.887L96.1826 127.99L97.2578 129.065C97.4897 129.297 97.6538 129.473 97.75 129.593C97.8481 129.719 97.9112 129.868 97.9331 130.026C97.9619 130.298 97.924 130.573 97.8226 130.828C97.7212 131.082 97.5594 131.308 97.3511 131.486C97.0672 131.792 96.7013 132.011 96.2969 132.116C95.9531 132.201 95.5898 132.154 95.2793 131.983C95.0864 132.438 94.8508 133.04 94.5723 133.789C94.3882 134.29 94.2532 134.654 94.1671 134.883L93.9214 135.522C93.8359 135.434 93.7549 135.341 93.6788 135.244C93.5816 135.123 93.5206 135.05 93.4971 135.026C93.4088 134.941 93.3161 134.86 93.2193 134.785C93.0987 134.688 93.0279 134.628 93.0079 134.608L93.9059 132.508L94.3702 131.389L94.3351 131.354L92.0441 133.645C91.9962 133.598 91.9513 133.548 91.9098 133.496C91.7838 133.332 91.714 133.243 91.7003 133.23C91.6249 133.157 91.5448 133.089 91.4606 133.026C91.358 132.947 91.2998 132.9 91.2861 132.887ZM96.5479 129.141L94.6421 131.046C94.6589 131.073 94.6783 131.097 94.7002 131.119L94.7656 131.185C95.2065 131.625 95.7684 131.504 96.4512 130.821C96.5697 130.702 96.6802 130.575 96.7817 130.441C96.8668 130.349 96.9307 130.24 96.9691 130.122C97.0075 130.003 97.0194 129.877 97.0039 129.753C96.944 129.573 96.837 129.412 96.6938 129.287L96.5479 129.141Z" fill="#1A1A18"/>
<path d="M96.4858 138.015L94.2593 135.789L94.5664 135.481C95.2695 135.386 95.779 135.305 96.0947 135.24C96.6575 135.133 97.2085 134.972 97.7402 134.759C98.2757 134.545 98.7643 134.228 99.1787 133.827C99.4232 133.597 99.6162 133.319 99.7451 133.009C99.8078 132.886 99.8312 132.747 99.8123 132.61C99.7933 132.474 99.7328 132.347 99.6391 132.246C99.4809 132.087 99.2372 132.087 98.9067 132.242C98.6148 132.387 98.3496 132.58 98.1225 132.814L98.0576 132.777C98.1421 132.497 98.1685 132.203 98.1352 131.913C98.4581 131.704 98.8405 131.608 99.2236 131.638C99.557 131.675 99.8673 131.826 100.102 132.066C100.412 132.351 100.598 132.746 100.617 133.167C100.608 133.43 100.544 133.688 100.43 133.926C100.316 134.163 100.155 134.374 99.955 134.546C99.6598 134.853 99.2975 135.087 98.8964 135.229C98.6631 135.311 98.4233 135.372 98.1796 135.412C98.0903 135.427 97.9492 135.443 97.7573 135.46C97.4003 135.494 97.039 135.533 96.6733 135.576C96.3676 135.613 96.1288 135.645 95.9589 135.675L95.9277 135.716L96.5737 136.362C96.6572 136.445 96.7968 136.565 96.9907 136.721C97.185 136.877 97.3259 136.999 97.4135 137.087C97.3022 137.185 97.2055 137.269 97.1245 137.34C97.0434 137.412 96.976 137.473 96.9238 137.525C96.8242 137.625 96.7436 137.711 96.6821 137.783C96.6201 137.854 96.5552 137.932 96.4858 138.015Z" fill="#1A1A18"/>
<path d="M103.422 136.015L103.32 136.056C103.3 135.987 103.268 135.921 103.227 135.862C103.184 135.8 103.135 135.742 103.082 135.688C102.965 135.573 102.811 135.505 102.647 135.496C102.454 135.485 102.26 135.508 102.075 135.564C101.883 135.617 101.698 135.696 101.527 135.799C101.318 135.941 101.147 136.06 101.012 136.153C100.749 136.336 100.503 136.542 100.276 136.769L100.284 136.831C100.444 136.782 100.614 136.776 100.776 136.813C100.939 136.851 101.089 136.931 101.211 137.044C101.358 137.186 101.469 137.36 101.535 137.553C101.601 137.746 101.62 137.951 101.591 138.153C101.508 138.654 101.255 139.111 100.875 139.449C100.486 139.877 99.9618 140.159 99.3902 140.249C99.1588 140.287 98.9217 140.269 98.6984 140.198C98.4751 140.126 98.2722 140.002 98.1065 139.836C98.0112 139.738 97.9308 139.626 97.8677 139.504C97.8022 139.388 97.7561 139.262 97.731 139.131C97.6876 138.848 97.717 138.558 97.8164 138.289C97.9215 137.991 98.0664 137.708 98.2471 137.449C98.4419 137.168 98.6619 136.906 98.9043 136.665C99.3649 136.198 99.8802 135.788 100.439 135.444C100.946 135.112 101.527 134.908 102.131 134.852C102.37 134.84 102.609 134.881 102.83 134.972C103.04 135.063 103.231 135.194 103.393 135.357C103.48 135.44 103.554 135.538 103.609 135.645C103.544 135.771 103.482 135.894 103.422 136.015ZM99.1748 137.87C98.9163 138.116 98.6845 138.388 98.4834 138.683C98.2559 139.047 98.2323 139.319 98.4126 139.499C98.5728 139.66 98.8249 139.649 99.169 139.468C99.4589 139.312 99.7234 139.113 99.9531 138.877C100.203 138.64 100.42 138.371 100.6 138.077C100.798 137.722 100.808 137.455 100.628 137.274C100.471 137.118 100.234 137.124 99.9151 137.293C99.6418 137.449 99.3924 137.643 99.1748 137.87V137.87Z" fill="#1A1A18"/>
<path d="M102.284 141.501L100.968 140.185C101.05 140.114 101.123 140.054 101.185 140.001C101.247 139.95 101.297 139.904 101.335 139.866C101.402 139.8 101.465 139.73 101.524 139.656C101.575 139.593 101.617 139.54 101.653 139.499C101.911 139.415 102.309 139.275 102.848 139.08C103.281 138.923 103.71 138.77 104.134 138.623C104.557 138.475 104.87 138.364 105.072 138.29C105.437 138.16 105.741 138.045 105.983 137.944C106.024 138.004 106.072 138.069 106.127 138.138C106.169 138.192 106.213 138.244 106.261 138.293C106.316 138.35 106.376 138.403 106.44 138.451C106.489 138.486 106.545 138.526 106.609 138.57L103.745 141.434L104.164 141.853C104.072 141.932 103.99 142.001 103.921 142.06C103.852 142.12 103.798 142.168 103.76 142.206C103.685 142.28 103.613 142.359 103.546 142.441C103.488 142.511 103.44 142.571 103.4 142.617L102.981 142.198L101.789 143.39C101.755 143.34 101.718 143.293 101.677 143.249C101.574 143.118 101.506 143.036 101.477 143.006C101.41 142.938 101.337 142.875 101.26 142.818C101.19 142.767 101.135 142.726 101.092 142.693L102.284 141.501ZM103.048 140.737L105.127 138.658L102.132 139.735L102.114 139.804L103.048 140.737Z" fill="#1A1A18"/>
<path d="M12.5347 168.756L16.5674 164.723C16.2249 164.69 15.8848 164.635 15.5488 164.561C15.5864 164.473 15.6177 164.383 15.6426 164.291C15.6675 164.194 15.6861 164.096 15.6982 163.997L15.7554 163.939C16.1272 164.076 16.5072 164.188 16.8931 164.277C17.2114 164.349 17.6097 164.428 18.0879 164.516L18.0923 164.592L13.2314 169.453C13.1974 169.403 13.1598 169.356 13.1191 169.312C13.0161 169.181 12.9492 169.099 12.9189 169.069C12.8517 169.001 12.7794 168.938 12.7026 168.881C12.6328 168.831 12.5767 168.788 12.5347 168.756Z" fill="#1A1A18"/>
<path d="M18.7984 169.681L18.7485 169.73C18.8291 169.866 18.8794 170.018 18.8962 170.175C18.913 170.332 18.8957 170.491 18.8457 170.641C18.7377 171.014 18.5328 171.351 18.252 171.619C17.8817 172.029 17.3775 172.294 16.8296 172.366C16.5982 172.393 16.3636 172.367 16.1441 172.289C15.9247 172.21 15.7263 172.082 15.5645 171.915C15.4078 171.76 15.2797 171.578 15.186 171.379C15.0943 171.178 15.0489 170.96 15.0532 170.739C15.0623 170.484 15.1307 170.235 15.2529 170.011C15.3845 169.753 15.5562 169.518 15.7617 169.314C16.0488 169.02 16.4031 168.801 16.794 168.675C16.9483 168.613 17.1147 168.586 17.2808 168.597C17.447 168.607 17.6086 168.655 17.754 168.736L17.8038 168.686C17.6836 168.449 17.6598 168.175 17.7373 167.92C17.8143 167.614 17.9757 167.335 18.2032 167.116C18.3582 166.939 18.5494 166.798 18.7638 166.702C18.9783 166.606 19.2109 166.558 19.4458 166.56C19.8255 166.582 20.1821 166.75 20.4419 167.027C20.5859 167.164 20.7094 167.321 20.8086 167.494C20.8911 167.666 20.9314 167.856 20.9263 168.047C20.9316 168.255 20.8959 168.462 20.8213 168.656C20.7288 168.866 20.595 169.055 20.4278 169.211C20.2015 169.451 19.9173 169.629 19.6026 169.728C19.3379 169.813 19.0512 169.796 18.7984 169.681V169.681ZM17.9014 169.254C17.6443 169.241 17.3916 169.325 17.1933 169.489C16.957 169.647 16.7373 169.829 16.5376 170.032C16.2322 170.311 15.9887 170.651 15.8227 171.03C15.775 171.119 15.7555 171.221 15.7667 171.322C15.778 171.422 15.8195 171.517 15.8858 171.593C16.0405 171.748 16.2917 171.733 16.6392 171.547C16.9297 171.388 17.1951 171.186 17.4268 170.95C17.5831 170.794 17.7293 170.628 17.8643 170.453C17.981 170.307 18.0773 170.147 18.1504 169.975C18.2064 169.879 18.2317 169.769 18.2232 169.658C18.2146 169.547 18.1726 169.442 18.1026 169.356C18.048 169.302 17.9775 169.266 17.9014 169.254H17.9014ZM18.8281 167.883C18.7237 167.986 18.6258 168.096 18.5351 168.211C18.4574 168.31 18.3927 168.418 18.3427 168.533C18.2975 168.634 18.2739 168.745 18.2734 168.856C18.2713 168.901 18.2782 168.947 18.2939 168.989C18.3096 169.032 18.3337 169.071 18.3647 169.104C18.5068 169.247 18.7211 169.242 19.0068 169.089C19.2534 168.951 19.4781 168.776 19.6738 168.572C19.8688 168.391 20.0332 168.179 20.1606 167.945C20.2228 167.856 20.2527 167.748 20.2454 167.64C20.2382 167.531 20.1941 167.429 20.1206 167.349C19.9741 167.202 19.7632 167.205 19.4859 167.355C19.2436 167.501 19.0223 167.678 18.8281 167.883H18.8281Z" fill="#1A1A18"/>
<path d="M19.919 176.14L22.0665 173.387C21.2623 173.835 20.6322 174.196 20.1763 174.471C19.7198 174.745 19.328 174.995 19.001 175.222C18.9569 175.174 18.917 175.123 18.8819 175.068C18.8459 175.011 18.8047 174.958 18.7589 174.909C18.7079 174.861 18.6529 174.818 18.5943 174.78C18.538 174.743 18.4847 174.702 18.4352 174.656L20.2696 171.59C19.8624 171.89 19.3987 172.241 18.8785 172.643C18.359 173.045 17.9016 173.407 17.5064 173.728L17.3048 173.526L17.108 173.329C17.7813 172.877 18.4636 172.416 19.1549 171.948C19.8458 171.48 20.5309 171.003 21.2101 170.518C21.2542 170.566 21.2948 170.616 21.3316 170.67C21.368 170.723 21.4085 170.774 21.4527 170.821C21.5046 170.87 21.5596 170.914 21.6173 170.956C21.6954 171.014 21.7408 171.049 21.7501 171.058L20.004 174.027C20.9923 173.449 21.9849 172.87 22.982 172.29C23.0259 172.338 23.0664 172.388 23.1031 172.441C23.141 172.497 23.1833 172.549 23.2296 172.598C23.2767 172.642 23.3271 172.683 23.3804 172.719C23.4337 172.756 23.4843 172.796 23.5318 172.84C22.9346 173.627 22.4416 174.288 22.0528 174.825C21.5582 175.514 21.0941 176.199 20.6607 176.882C20.6017 176.819 20.5469 176.753 20.4966 176.683C20.4455 176.611 20.3894 176.543 20.3286 176.479C20.2639 176.418 20.1952 176.361 20.1231 176.309C20.0516 176.257 19.9835 176.201 19.919 176.14Z" fill="#1A1A18"/>
<path d="M23.6592 179.88L25.8062 177.127C25.002 177.575 24.3719 177.936 23.916 178.21C23.4595 178.484 23.0677 178.735 22.7408 178.962C22.6966 178.914 22.6568 178.862 22.6216 178.808C22.5857 178.751 22.5445 178.698 22.4986 178.648C22.4478 178.601 22.3929 178.558 22.3345 178.521C22.2782 178.484 22.225 178.442 22.1753 178.397L24.0093 175.33C23.6021 175.63 23.1385 175.981 22.6187 176.383C22.0987 176.785 21.6413 177.146 21.2466 177.468L21.045 177.266L20.8482 177.069C21.5215 176.617 22.2036 176.156 22.8946 175.688C23.5855 175.22 24.2707 174.743 24.9502 174.258C24.9943 174.306 25.0349 174.357 25.0718 174.41C25.108 174.464 25.1484 174.514 25.1924 174.561C25.2442 174.609 25.2992 174.654 25.357 174.695C25.4351 174.754 25.4805 174.789 25.4903 174.798L23.7437 177.767C24.732 177.189 25.7248 176.61 26.7222 176.03C26.766 176.078 26.8063 176.128 26.8428 176.181C26.8808 176.237 26.9231 176.289 26.9693 176.338C27.0166 176.382 27.0672 176.423 27.1206 176.459C27.1737 176.496 27.2241 176.536 27.2715 176.58C26.6743 177.366 26.1813 178.028 25.7925 178.564C25.2979 179.253 24.8341 179.939 24.4009 180.622C24.3419 180.559 24.2871 180.493 24.2369 180.423C24.1856 180.351 24.1293 180.282 24.0684 180.218C24.0039 180.158 23.9353 180.101 23.8633 180.049C23.7919 179.997 23.7237 179.941 23.6592 179.88Z" fill="#1A1A18"/>
<path d="M27.4893 183.71L28.2471 181.985C28.1069 182.037 27.8123 182.147 27.3633 182.314C26.9639 182.463 26.6577 182.581 26.4448 182.666L26.2788 182.429L26.0415 182.263L28.4287 181.48C28.627 181.019 28.8091 180.585 28.9751 180.177C29.086 179.905 29.267 179.455 29.5181 178.826C29.565 178.873 29.6368 178.956 29.7349 179.073C29.8326 179.191 29.8863 179.255 29.8965 179.265C29.9434 179.312 30.0284 179.387 30.1514 179.49L30.3404 179.648C30.1764 180.028 30.0634 180.283 30.0016 180.411C29.8497 180.746 29.7354 181.007 29.6598 181.198C30.169 181.031 30.7157 180.834 31.2999 180.608L31.5269 180.835L31.7491 181.057C31.377 181.153 30.8959 181.287 30.3057 181.46C29.8111 181.604 29.5308 181.687 29.4644 181.707L29.0567 182.659C28.8062 183.286 28.5581 183.911 28.3125 184.534C28.2657 184.487 28.1929 184.402 28.0952 184.281C27.9986 184.16 27.9429 184.093 27.9293 184.079C27.8858 184.036 27.8038 183.965 27.6837 183.87C27.5645 183.774 27.5 183.721 27.4893 183.71Z" fill="#1A1A18"/>
<path d="M29.812 186.162C29.6293 185.985 29.4927 185.767 29.4141 185.525C29.3355 185.283 29.3174 185.026 29.3613 184.776C29.4764 184.156 29.7923 183.592 30.2602 183.17C30.7144 182.67 31.3088 182.319 31.9658 182.163C32.2202 182.1 32.4863 182.105 32.7382 182.177C32.99 182.249 33.2189 182.385 33.4023 182.572C33.5884 182.749 33.7289 182.969 33.8118 183.212C33.8947 183.455 33.9175 183.715 33.8784 183.969C33.7671 184.59 33.4514 185.156 32.9814 185.577C32.5264 186.071 31.9337 186.418 31.2797 186.573C31.0205 186.639 30.7486 186.635 30.4911 186.563C30.2337 186.491 29.9995 186.353 29.812 186.162V186.162ZM33.124 182.921C32.9326 182.73 32.638 182.735 32.2402 182.937C31.7913 183.195 31.3832 183.518 31.0293 183.896C30.7295 184.187 30.4667 184.514 30.247 184.87C29.9756 185.322 29.9376 185.646 30.1333 185.841C30.3149 186.022 30.6355 185.981 31.0952 185.718C31.5577 185.438 31.9817 185.099 32.3564 184.709C32.6747 184.408 32.9393 184.054 33.1386 183.664C33.2939 183.333 33.2891 183.086 33.124 182.921Z" fill="#1A1A18"/>
<path d="M29.8052 189.652L35.0728 184.385C35.1099 184.422 35.168 184.49 35.248 184.588C35.3271 184.687 35.3726 184.741 35.3828 184.751C35.4399 184.806 35.5002 184.857 35.5635 184.904C35.6265 184.951 35.6868 185.002 35.7441 185.056L35.123 185.677C35.3572 185.536 35.622 185.453 35.8951 185.436C36.0071 185.429 36.1192 185.447 36.2238 185.487C36.3284 185.528 36.4231 185.591 36.5015 185.671C36.6683 185.838 36.781 186.051 36.8247 186.283C36.8684 186.516 36.8412 186.755 36.7466 186.972C36.5333 187.518 36.1983 188.008 35.7671 188.405C35.3062 188.92 34.7135 189.3 34.0528 189.503C33.8561 189.569 33.6453 189.581 33.4427 189.536C33.24 189.492 33.0532 189.394 32.9019 189.252C32.753 189.114 32.6627 188.924 32.6494 188.721C32.6433 188.504 32.6826 188.288 32.7647 188.086L30.502 190.349C30.3197 190.072 30.0826 189.835 29.8052 189.652L29.8052 189.652ZM33.1533 188.576C33.2671 188.641 33.397 188.673 33.528 188.667C33.659 188.661 33.7857 188.619 33.8936 188.544C34.2839 188.333 34.6377 188.06 34.9414 187.737C35.2896 187.41 35.5926 187.039 35.8423 186.632C36.0103 186.328 36.0142 186.096 35.854 185.936C35.6597 185.742 35.3483 185.778 34.9199 186.044C34.5736 186.271 34.2539 186.536 33.9668 186.833C33.6928 187.096 33.4488 187.388 33.2393 187.705C32.9946 188.098 32.966 188.388 33.1533 188.576Z" fill="#1A1A18"/>
<path d="M34.5112 189.833L34.8037 190.125L35.5273 189.735C36.042 189.45 36.5707 189.155 37.1133 188.85C37.6567 188.546 38.1652 188.245 38.6387 187.947C38.6809 187.992 38.7196 188.041 38.7544 188.093C38.8188 188.198 38.9069 188.286 39.0117 188.35C39.0614 188.384 39.1086 188.421 39.1528 188.461C38.9004 188.876 38.6488 189.291 38.3979 189.706C38.147 190.122 37.897 190.539 37.6479 190.956C37.5527 191.118 37.3079 191.544 36.9136 192.235L37.1709 192.493C37.1304 192.52 37.0835 192.556 37.0278 192.6C36.9731 192.645 36.9097 192.703 36.8384 192.774C36.7764 192.836 36.7259 192.89 36.687 192.937C36.6475 192.983 36.6016 193.042 36.5498 193.114L36.4995 193.063C36.5187 192.968 36.5145 192.87 36.4871 192.776C36.4597 192.683 36.41 192.598 36.3423 192.528C36.1987 192.36 35.9668 192.116 35.6465 191.796L35.2075 191.357C34.8911 191.041 34.6512 190.813 34.4878 190.674C34.4137 190.607 34.326 190.556 34.2307 190.526C34.1353 190.496 34.0347 190.487 33.9355 190.499L33.8901 190.454C33.9411 190.42 33.9898 190.383 34.0361 190.343C34.0981 190.291 34.1631 190.232 34.2295 190.165C34.2866 190.108 34.3395 190.052 34.3882 189.996C34.4334 189.945 34.4746 189.891 34.5112 189.833V189.833ZM35.1821 190.504L36.1611 191.483L37.7207 188.985C37.2515 189.259 36.9359 189.443 36.7739 189.538C36.2212 189.862 35.6906 190.184 35.1821 190.504V190.504Z" fill="#1A1A18"/>
<path d="M41.4228 192.491L39.4673 194.446C39.3691 194.527 39.2984 194.636 39.2651 194.759C39.2652 194.812 39.2774 194.865 39.3009 194.914C39.3244 194.962 39.3586 195.004 39.4009 195.037L39.2368 195.201C39.1169 195.174 38.9988 195.14 38.8833 195.098C38.7723 195.064 38.6697 195.008 38.582 194.932C38.5238 194.875 38.4784 194.805 38.4489 194.729C38.4194 194.653 38.4063 194.571 38.4106 194.489C38.4241 194.284 38.4915 194.085 38.6059 193.914C38.4007 194.009 38.1743 194.048 37.9492 194.028C37.7577 194.01 37.5782 193.927 37.4414 193.791C37.339 193.695 37.2607 193.576 37.2129 193.444C37.165 193.312 37.1489 193.17 37.166 193.031C37.2259 192.683 37.4037 192.367 37.6694 192.135C37.9098 191.856 38.2459 191.678 38.6113 191.635C38.9883 191.656 39.3553 191.764 39.6836 191.951C39.7934 192.003 39.8779 192.041 39.9409 192.065C40.0362 192.101 40.1357 192.123 40.2368 192.133C40.2997 192.122 40.3602 192.1 40.4155 192.068C40.4796 192.03 40.5384 191.983 40.5903 191.93C40.7517 191.773 40.8543 191.566 40.8809 191.342C40.8999 191.251 40.8971 191.156 40.8727 191.066C40.8484 190.976 40.8032 190.893 40.7407 190.823C40.581 190.673 40.3718 190.585 40.1523 190.578C39.9926 190.554 39.8295 190.581 39.6855 190.654L39.6494 190.618L40.0059 190.131C40.2667 190.09 40.5337 190.114 40.7827 190.202C41.021 190.28 41.2382 190.412 41.4175 190.587C41.6537 190.81 41.8054 191.108 41.8467 191.43C41.865 191.628 41.8362 191.827 41.7625 192.011C41.6888 192.196 41.5724 192.36 41.4228 192.491ZM39.3198 193.2L40.0122 192.508C39.8638 192.454 39.7451 192.412 39.6553 192.379C39.5123 192.329 39.3619 192.305 39.2105 192.306C39.0777 192.311 38.9488 192.352 38.8379 192.425C38.6975 192.517 38.5678 192.625 38.4512 192.746C38.3137 192.878 38.2011 193.033 38.1187 193.205C38.0827 193.264 38.0672 193.332 38.0747 193.401C38.0821 193.469 38.112 193.533 38.1597 193.582C38.2334 193.653 38.3286 193.698 38.4304 193.709C38.5323 193.721 38.635 193.698 38.7227 193.645C38.947 193.534 39.1493 193.383 39.3198 193.2H39.3198Z" fill="#1A1A18"/>
<path d="M43.273 197.11L41.9561 195.793C42.0386 195.724 42.1114 195.664 42.1734 195.611C42.2354 195.559 42.2857 195.514 42.3238 195.476C42.391 195.409 42.4543 195.339 42.5132 195.266C42.564 195.202 42.606 195.149 42.6412 195.108C42.8995 195.024 43.2979 194.884 43.8365 194.689C44.2701 194.532 44.6988 194.38 45.1226 194.232C45.5455 194.084 45.8589 193.974 46.0606 193.899C46.4263 193.77 46.7302 193.654 46.9722 193.554C47.0128 193.614 47.0606 193.678 47.1158 193.747C47.1575 193.801 47.2021 193.853 47.2496 193.902C47.305 193.96 47.3651 194.013 47.4293 194.061C47.4776 194.095 47.5343 194.135 47.5977 194.179L44.7335 197.043L45.1529 197.463C45.0601 197.541 44.9791 197.61 44.9102 197.669C44.8409 197.729 44.7867 197.777 44.7486 197.815C44.6731 197.89 44.6016 197.968 44.5342 198.05C44.4761 198.121 44.4283 198.18 44.3892 198.227L43.9698 197.807L42.7779 198.999C42.7439 198.95 42.7064 198.903 42.6656 198.858C42.5626 198.727 42.4952 198.645 42.4654 198.615C42.3982 198.547 42.3259 198.484 42.2491 198.427C42.1788 198.376 42.1236 198.335 42.0811 198.302L43.273 197.11ZM44.0367 196.347L46.1158 194.268L43.1207 195.345L43.1031 195.413L44.0367 196.347Z" fill="#1A1A18"/>
<path d="M48.7647 195.435L50.4453 197.116C50.3667 197.181 50.3115 197.23 50.2783 197.263C50.1255 197.396 50.0322 197.479 49.999 197.512C49.9038 197.607 49.8237 197.693 49.7588 197.772C49.6943 197.85 49.6396 197.915 49.5957 197.965L48.147 196.517L46.8691 197.714L46.8735 197.771C47.1329 197.801 47.3737 197.921 47.5547 198.109C47.7034 198.251 47.824 198.42 47.9102 198.607C47.9858 198.803 48.0113 199.015 47.9844 199.223C47.924 199.723 47.6876 200.185 47.3174 200.527C47.0911 200.756 46.8246 200.942 46.5313 201.076C46.2627 201.199 45.9713 201.265 45.6758 201.269C45.4329 201.275 45.1917 201.227 44.9702 201.127C44.7518 201.034 44.5529 200.9 44.3838 200.734C44.2198 200.572 44.0913 200.377 44.0064 200.163C43.9196 199.934 43.8819 199.69 43.8955 199.446C44.0554 199.39 44.2118 199.325 44.3638 199.25C44.5205 199.174 44.6919 199.081 44.876 198.97L44.9468 199.041C44.7861 199.259 44.6625 199.502 44.5811 199.76C44.5384 199.866 44.526 199.982 44.5452 200.094C44.5645 200.207 44.6146 200.312 44.6899 200.397C44.8047 200.506 44.9505 200.575 45.107 200.597C45.2634 200.618 45.4225 200.59 45.562 200.516C45.9144 200.361 46.2318 200.136 46.4951 199.855C46.7542 199.609 46.9452 199.299 47.0498 198.957C47.0851 198.824 47.0936 198.685 47.0747 198.549C47.0603 198.431 47.0076 198.32 46.9248 198.235C46.8394 198.15 46.7302 198.093 46.6118 198.072C46.4752 198.048 46.3352 198.051 46.1997 198.081L46.1777 197.86L48.7647 195.435Z" fill="#1A1A18"/>
<path d="M52.4414 199.027C52.6528 199.243 52.7886 199.522 52.8288 199.822C52.869 200.122 52.8114 200.427 52.6645 200.691C52.3436 201.372 51.895 201.985 51.3433 202.497C50.9124 202.951 50.4382 203.361 49.9273 203.722C49.612 203.932 49.2652 204.092 48.8999 204.193C48.668 204.271 48.4193 204.284 48.1804 204.232C47.9415 204.179 47.7215 204.062 47.5439 203.894C47.3375 203.7 47.2045 203.441 47.1674 203.16C47.1444 202.834 47.2063 202.507 47.3471 202.212C47.4971 201.856 47.6908 201.52 47.9238 201.211C48.1868 200.871 48.4725 200.548 48.7788 200.246C49.0796 199.946 49.3984 199.664 49.7334 199.402C50.02 199.169 50.3375 198.978 50.6768 198.833C50.9538 198.675 51.2737 198.608 51.5906 198.643C51.9076 198.678 52.2054 198.812 52.4414 199.027V199.027ZM49.44 201.079C48.9234 201.569 48.4436 202.095 48.0045 202.655C47.7164 203.072 47.6714 203.38 47.8697 203.577C48.0455 203.753 48.3524 203.689 48.7906 203.385C49.3832 202.932 49.9392 202.433 50.4537 201.893C51.018 201.359 51.536 200.779 52.002 200.158C52.2491 199.786 52.2877 199.516 52.1202 199.348C51.9351 199.163 51.6337 199.214 51.2159 199.499C50.5814 199.976 49.9875 200.505 49.44 201.079Z" fill="#1A1A18"/>
<path d="M6.7749 177.201L4.54883 174.975L4.85596 174.668C5.55956 174.572 6.06917 174.491 6.38477 174.426C6.94759 174.32 7.4987 174.158 8.03027 173.945C8.56541 173.731 9.05379 173.414 9.46826 173.014C9.71295 172.784 9.90588 172.505 10.0342 172.195C10.0972 172.072 10.1208 171.933 10.102 171.797C10.0831 171.66 10.0226 171.533 9.92871 171.432C9.77051 171.274 9.52686 171.273 9.19629 171.428C8.90443 171.573 8.63926 171.766 8.41211 172L8.34717 171.964C8.43192 171.684 8.45834 171.39 8.4248 171.099C8.74762 170.891 9.13006 170.794 9.51318 170.824C9.84674 170.861 10.1572 171.012 10.3916 171.252C10.7023 171.537 10.8875 171.933 10.9067 172.354C10.8975 172.617 10.8338 172.875 10.7198 173.112C10.6057 173.349 10.4438 173.56 10.2441 173.732C9.94932 174.039 9.58726 174.273 9.18652 174.416C8.95334 174.497 8.71351 174.558 8.46973 174.598C8.37989 174.614 8.23893 174.63 8.04688 174.647C7.68995 174.681 7.32863 174.719 6.96289 174.762C6.65723 174.799 6.41895 174.832 6.24854 174.861L6.21729 174.901L6.86377 175.548C6.94727 175.631 7.08642 175.752 7.28027 175.908C7.47461 176.064 7.61556 176.186 7.70312 176.273C7.59131 176.371 7.49495 176.456 7.41406 176.527C7.333 176.598 7.26607 176.659 7.21387 176.711C7.11377 176.811 7.03321 176.898 6.97168 176.969C6.90967 177.041 6.84408 177.118 6.7749 177.201Z" fill="#1A1A18"/>
<path d="M9.58154 180.008L7.35498 177.781L7.66211 177.474C8.36621 177.378 8.87581 177.298 9.19092 177.232C9.75381 177.126 10.305 176.964 10.8369 176.751C11.3721 176.537 11.8604 176.221 12.2749 175.82C12.5193 175.59 12.7122 175.311 12.8408 175.001C12.9036 174.879 12.9271 174.74 12.9082 174.603C12.8892 174.467 12.8287 174.339 12.7348 174.238C12.5766 174.08 12.3326 174.079 12.0029 174.235C11.7109 174.379 11.4456 174.572 11.2187 174.806L11.1538 174.77C11.2381 174.49 11.2644 174.196 11.2309 173.905C11.5537 173.697 11.9362 173.6 12.3193 173.63C12.6528 173.667 12.9633 173.818 13.1977 174.059C13.5084 174.343 13.6936 174.739 13.7129 175.16C13.7037 175.423 13.6401 175.681 13.5262 175.918C13.4122 176.156 13.2503 176.367 13.0508 176.539C12.7557 176.845 12.3937 177.079 11.9931 177.222C11.7597 177.303 11.5197 177.364 11.2758 177.404C11.186 177.42 11.0454 177.436 10.853 177.453C10.4961 177.487 10.1357 177.526 9.7695 177.569C9.46334 177.605 9.22507 177.638 9.05466 177.667L9.0239 177.708L9.67038 178.354C9.75388 178.438 9.89302 178.559 10.0864 178.714C10.2812 178.871 10.4218 178.992 10.5097 179.08C10.3979 179.178 10.3012 179.262 10.2202 179.333C10.1391 179.404 10.0727 179.466 10.0204 179.518C9.92035 179.618 9.83945 179.704 9.77777 179.775C9.71581 179.847 9.65087 179.925 9.58154 180.008Z" fill="#1A1A18"/>
<path d="M12.7808 183.278L14.9282 180.525C14.1245 180.973 13.4946 181.334 13.0386 181.608C12.5815 181.883 12.1896 182.133 11.8628 182.36C11.8189 182.312 11.7792 182.26 11.7441 182.206C11.7078 182.149 11.6664 182.096 11.6206 182.047C11.5696 181.999 11.5148 181.956 11.4565 181.918C11.4001 181.881 11.3467 181.84 11.2969 181.794L13.1313 178.729C12.7241 179.028 12.2606 179.379 11.7407 179.78C11.2212 180.183 10.7637 180.544 10.3682 180.866L10.1665 180.664L9.96973 180.467C10.6431 180.015 11.3255 179.554 12.0171 179.086C12.708 178.618 13.3929 178.141 14.0718 177.656C14.1162 177.704 14.1568 177.754 14.1934 177.808C14.2298 177.862 14.2703 177.912 14.3145 177.959C14.3663 178.008 14.4213 178.053 14.479 178.094C14.5576 178.152 14.6025 178.187 14.6118 178.196L12.8662 181.165C13.8545 180.586 14.847 180.008 15.8438 179.428C15.888 179.475 15.9284 179.526 15.9648 179.58C16.0028 179.635 16.0451 179.687 16.0913 179.736C16.1384 179.78 16.1889 179.821 16.2422 179.857C16.2956 179.893 16.3462 179.934 16.3936 179.978C15.7964 180.765 15.3034 181.426 14.9146 181.963C14.4204 182.651 13.9564 183.337 13.5225 184.02C13.4637 183.957 13.4091 183.89 13.3589 183.82C13.3074 183.749 13.2511 183.681 13.1904 183.617C13.1257 183.556 13.0572 183.499 12.9854 183.447C12.9138 183.395 12.8454 183.339 12.7808 183.278V183.278Z" fill="#1A1A18"/>
<path d="M16.521 187.019L18.668 184.265C17.8643 184.712 17.2344 185.073 16.7784 185.348C16.3213 185.623 15.9294 185.873 15.6026 186.1C15.5587 186.052 15.519 186 15.4839 185.945C15.4476 185.889 15.4062 185.836 15.3604 185.787C15.3096 185.739 15.2549 185.696 15.1968 185.658C15.1404 185.621 15.087 185.58 15.0371 185.535L16.8711 182.468C16.4639 182.768 16.0005 183.119 15.481 183.521C14.961 183.922 14.5035 184.284 14.1084 184.606L13.9068 184.404L13.71 184.208C14.3833 183.755 15.0656 183.294 15.7569 182.826C16.4478 182.357 17.1328 181.881 17.812 181.397C17.8564 181.444 17.897 181.495 17.9336 181.548C17.9698 181.602 18.0102 181.652 18.0542 181.699C18.1061 181.748 18.161 181.792 18.2188 181.834C18.2974 181.892 18.3423 181.927 18.3521 181.937L16.606 184.904C17.5943 184.326 18.5869 183.748 19.584 183.168C19.628 183.216 19.6683 183.266 19.7046 183.319C19.7426 183.375 19.7849 183.427 19.8311 183.476C19.8783 183.52 19.9289 183.561 19.9824 183.597C20.0357 183.633 20.0862 183.674 20.1333 183.718C19.5361 184.504 19.0431 185.166 18.6543 185.703C18.1602 186.391 17.6963 187.077 17.2627 187.76C17.2039 187.697 17.1493 187.631 17.0991 187.561C17.0474 187.489 16.991 187.421 16.9302 187.356C16.8656 187.296 16.7973 187.239 16.7256 187.187C16.654 187.135 16.5857 187.079 16.521 187.019Z" fill="#1A1A18"/>
<path d="M20.3511 190.849L21.1094 189.123C20.9692 189.175 20.6738 189.285 20.2256 189.452C19.8262 189.601 19.5199 189.719 19.3066 189.804L19.1406 189.567L18.9033 189.401L21.2905 188.618C21.4893 188.157 21.6715 187.722 21.8374 187.314C21.9478 187.043 22.1286 186.593 22.3799 185.964C22.4268 186.011 22.499 186.093 22.5967 186.211C22.6943 186.33 22.7481 186.393 22.7583 186.403C22.8052 186.45 22.8901 186.525 23.0132 186.628C23.1357 186.73 23.1987 186.783 23.2022 186.787C23.0386 187.166 22.9258 187.42 22.8638 187.549C22.712 187.883 22.5972 188.146 22.5215 188.336C23.0308 188.169 23.5775 187.972 24.1617 187.746L24.3887 187.973L24.6109 188.195C24.2393 188.291 23.7584 188.425 23.168 188.598C22.6729 188.743 22.3931 188.825 22.3267 188.845L21.9185 189.797C21.668 190.424 21.42 191.049 21.1744 191.672C21.1275 191.625 21.0552 191.54 20.9576 191.419C20.8604 191.298 20.8049 191.231 20.7911 191.217C20.7476 191.174 20.6656 191.104 20.546 191.007C20.4268 190.912 20.3618 190.859 20.3511 190.849Z" fill="#1A1A18"/>
<path d="M22.6743 193.3C22.4917 193.123 22.3551 192.905 22.2764 192.663C22.1978 192.421 22.1795 192.164 22.2232 191.914C22.3385 191.294 22.6545 190.73 23.1226 190.308C23.5765 189.808 24.1708 189.457 24.8276 189.301C25.082 189.238 25.3483 189.243 25.6003 189.315C25.8522 189.386 26.0812 189.522 26.2647 189.709C26.4508 189.887 26.5912 190.106 26.6741 190.35C26.757 190.593 26.7799 190.852 26.7407 191.106C26.6292 191.728 26.3133 192.294 25.8433 192.715C25.3881 193.209 24.7955 193.556 24.1416 193.711C23.8824 193.777 23.6106 193.773 23.3532 193.701C23.0958 193.629 22.8617 193.49 22.6743 193.3ZM25.9863 190.059C25.7949 189.868 25.5003 189.873 25.1026 190.075C24.6536 190.333 24.2455 190.656 23.8916 191.034C23.5918 191.325 23.3291 191.652 23.1094 192.007C22.8379 192.459 22.8 192.783 22.9956 192.979C23.1773 193.16 23.4979 193.119 23.9575 192.855C24.4201 192.576 24.8441 192.237 25.2188 191.847C25.5369 191.546 25.8013 191.192 26.0005 190.802C26.1558 190.472 26.1511 190.224 25.9863 190.059V190.059Z" fill="#1A1A18"/>
<path d="M22.667 196.791L27.9351 191.522C27.9722 191.56 28.0304 191.628 28.1099 191.727C28.1895 191.825 28.2344 191.879 28.2446 191.89C28.3019 191.944 28.3622 191.995 28.4253 192.042C28.4886 192.089 28.5491 192.14 28.6064 192.194L27.9854 192.815C28.2197 192.674 28.4844 192.591 28.7574 192.573C28.8694 192.567 28.9814 192.585 29.086 192.625C29.1906 192.666 29.2853 192.728 29.3638 192.809C29.5306 192.976 29.6431 193.189 29.6867 193.422C29.7304 193.654 29.7031 193.893 29.6084 194.11C29.3953 194.656 29.0605 195.146 28.6294 195.543C28.1685 196.058 27.5757 196.438 26.915 196.641C26.7183 196.707 26.5075 196.718 26.3049 196.674C26.1023 196.63 25.9154 196.532 25.7641 196.39C25.6153 196.251 25.5249 196.062 25.5117 195.859C25.5056 195.642 25.5447 195.426 25.6264 195.225L23.3637 197.487C23.1814 197.21 22.9443 196.973 22.667 196.791H22.667ZM26.0156 195.713C26.1293 195.779 26.2591 195.81 26.39 195.805C26.5209 195.799 26.6475 195.757 26.7554 195.683C27.1458 195.471 27.4998 195.198 27.8037 194.875C28.1518 194.548 28.4548 194.176 28.7046 193.77C28.8721 193.466 28.8758 193.235 28.7158 193.075C28.5215 192.88 28.2101 192.916 27.7817 193.183C27.4356 193.409 27.116 193.673 26.8291 193.971C26.5549 194.234 26.3107 194.526 26.1011 194.843C25.8565 195.236 25.828 195.526 26.0156 195.713V195.713Z" fill="#1A1A18"/>
<path d="M27.373 196.971L27.6655 197.264L28.3892 196.873C28.9038 196.588 29.4326 196.293 29.9756 195.988C30.519 195.684 31.0273 195.383 31.5005 195.085C31.543 195.13 31.5817 195.179 31.6162 195.231C31.6806 195.336 31.7688 195.424 31.8735 195.488C31.9235 195.521 31.9707 195.558 32.0146 195.599C31.7627 196.013 31.5111 196.428 31.2598 196.844C31.0093 197.26 30.7594 197.676 30.5103 198.094C30.4145 198.256 30.1696 198.682 29.7754 199.374L30.0327 199.631C29.9927 199.657 29.9458 199.693 29.8896 199.738C29.835 199.783 29.772 199.841 29.7007 199.912C29.6387 199.974 29.5883 200.028 29.5488 200.075C29.5092 200.121 29.4634 200.18 29.4116 200.252L29.3613 200.202C29.3806 200.106 29.3764 200.008 29.3491 199.914C29.3218 199.821 29.2722 199.736 29.2046 199.666C29.0605 199.499 28.8284 199.255 28.5083 198.935L28.0692 198.496C27.7528 198.179 27.5131 197.951 27.35 197.811C27.2758 197.745 27.188 197.694 27.0926 197.664C26.9972 197.634 26.8965 197.625 26.7973 197.638L26.7519 197.592C26.803 197.558 26.8519 197.521 26.8983 197.481C26.9603 197.429 27.0248 197.37 27.0917 197.303C27.1488 197.246 27.2017 197.19 27.2504 197.134C27.2955 197.083 27.3366 197.029 27.373 196.971V196.971ZM28.0439 197.642L29.0229 198.621L30.583 196.123C30.1138 196.396 29.798 196.581 29.6357 196.676C29.0835 197 28.5529 197.322 28.044 197.642L28.0439 197.642Z" fill="#1A1A18"/>
<path d="M34.2852 199.628L32.3291 201.584C32.231 201.665 32.1605 201.774 32.1274 201.896C32.1273 201.95 32.1395 202.003 32.163 202.051C32.1865 202.1 32.2208 202.142 32.2632 202.175L32.0986 202.339C31.9788 202.313 31.8608 202.278 31.7456 202.235C31.6345 202.202 31.5318 202.146 31.4444 202.07C31.3861 202.012 31.3407 201.943 31.311 201.867C31.2814 201.791 31.2683 201.709 31.2725 201.627C31.2862 201.422 31.3537 201.223 31.4683 201.052C31.2629 201.146 31.0363 201.186 30.8111 201.166C30.6196 201.148 30.4403 201.065 30.3037 200.929C30.2013 200.833 30.123 200.714 30.0752 200.582C30.0273 200.45 30.0113 200.308 30.0283 200.168C30.0882 199.821 30.2658 199.505 30.5313 199.273C30.7719 198.994 31.1081 198.816 31.4737 198.773C31.8507 198.794 32.2177 198.902 32.5459 199.088C32.6553 199.141 32.7403 199.178 32.8032 199.203C32.8985 199.238 32.998 199.261 33.0991 199.271C33.1619 199.26 33.2222 199.238 33.2774 199.207C33.3417 199.168 33.4006 199.121 33.4527 199.067C33.6141 198.911 33.7167 198.703 33.7432 198.48C33.7621 198.389 33.7593 198.294 33.7349 198.204C33.7104 198.114 33.6651 198.031 33.6026 197.961C33.4429 197.811 33.2337 197.723 33.0142 197.716C32.8547 197.692 32.6918 197.719 32.5479 197.791L32.5117 197.755L32.8677 197.27C33.1287 197.228 33.3958 197.252 33.6451 197.34C33.8832 197.418 34.1003 197.55 34.2798 197.725C34.5158 197.948 34.6674 198.246 34.709 198.568C34.7274 198.766 34.6985 198.965 34.6248 199.149C34.5511 199.334 34.4347 199.498 34.2852 199.628V199.628ZM32.1822 200.338L32.8745 199.646C32.7256 199.592 32.607 199.55 32.5176 199.517C32.3746 199.467 32.2242 199.443 32.0728 199.443C31.9398 199.449 31.8108 199.49 31.6998 199.563C31.5596 199.655 31.43 199.763 31.3136 199.883C31.1759 200.015 31.0631 200.171 30.9806 200.343C30.9447 200.402 30.9293 200.47 30.9368 200.539C30.9443 200.607 30.9743 200.671 31.0221 200.72C31.0957 200.791 31.1909 200.836 31.2928 200.847C31.3947 200.859 31.4975 200.836 31.585 200.783C31.8094 200.672 32.0117 200.521 32.1821 200.338H32.1822Z" fill="#1A1A18"/>
</svg>
