<svg width="158" height="135" viewBox="0 0 158 135" fill="none" xmlns="http://www.w3.org/2000/svg">
<path fill-rule="evenodd" clip-rule="evenodd" d="M0.556641 105.234V28.1992H129.22L129.353 64.2538C129.353 64.179 129.338 64.1048 129.309 64.0356C129.281 63.9664 129.239 63.9036 129.186 63.8506C129.133 63.7977 129.07 63.7557 129.001 63.727C128.932 63.6984 128.858 63.6837 128.783 63.6837H116.045C105.386 63.7289 94.8617 66.0612 85.1819 70.523C64.3618 79.9671 57.7998 95.8108 35.7811 102.3C30.1082 103.935 24.2679 104.919 18.3725 105.234H0.556641Z" fill="white" stroke="#1A1A18" stroke-width="0.5669" stroke-miterlimit="22.9256"/>
<path d="M128.477 63.6836H145.935" stroke="#1A1A18" stroke-width="0.5669" stroke-miterlimit="22.9256"/>
<path d="M1.20508 110.365H145.934" stroke="#1A1A18" stroke-width="0.5669" stroke-miterlimit="22.9256"/>
<path d="M94.7383 97.124V90.1992H96.8887C97.3535 90.1992 97.6924 90.208 97.9082 90.2246C98.1235 90.2412 98.3331 90.3013 98.5244 90.4014C98.7963 90.5292 99.0245 90.7342 99.1807 90.9909C99.3368 91.2476 99.4139 91.5445 99.4023 91.8447C99.4172 92.2811 99.2657 92.7068 98.9785 93.0356C98.6735 93.3646 98.2691 93.5845 97.8271 93.6616C98.0898 94.1196 98.4567 94.7119 98.9277 95.4385C99.2441 95.9229 99.473 96.2762 99.6143 96.4985L100.008 97.124C99.8799 97.124 99.707 97.1157 99.4883 97.0991C99.2695 97.082 99.1367 97.0737 99.0889 97.0737C98.9609 97.0737 98.7881 97.082 98.5693 97.0991C98.3506 97.1157 98.2217 97.124 98.1807 97.124L96.9795 95.0044L96.3232 93.8838H96.2529V97.124C96.1387 97.124 96.0439 97.1206 95.9697 97.1142C95.6807 97.0869 95.5225 97.0737 95.4961 97.0737C95.3809 97.0737 95.2334 97.082 95.0518 97.0991C94.8701 97.1157 94.7656 97.124 94.7383 97.124ZM96.2529 90.7544V93.4497C96.2962 93.4563 96.34 93.4597 96.3838 93.46H96.5156C97.3965 93.46 97.8372 92.9772 97.8379 92.0117C97.8368 91.8429 97.8198 91.6745 97.7871 91.5088C97.77 91.3712 97.7186 91.2401 97.6376 91.1277C97.5565 91.0152 97.4484 90.9249 97.3232 90.8652C97.0737 90.7786 96.8097 90.741 96.5459 90.7544H96.2529Z" fill="#1A1A18"/>
<path d="M105.065 97.0737H100.613V96.6396C101.222 96.0742 101.651 95.6569 101.9 95.3876C102.344 94.9313 102.734 94.4269 103.065 93.8837C103.379 93.3794 103.553 92.8013 103.571 92.208C103.584 91.8641 103.496 91.5241 103.319 91.2289C103.229 91.0815 103.101 90.9608 102.948 90.8792C102.795 90.7976 102.624 90.7581 102.451 90.7646C102.291 90.7678 102.136 90.8184 102.004 90.91C101.873 91.0016 101.772 91.1301 101.714 91.2792C101.569 91.578 101.497 91.9064 101.502 92.2382L101.401 92.2588C101.187 91.9854 100.918 91.7586 100.613 91.5922C100.757 91.1823 101.047 90.8394 101.427 90.6284C101.827 90.4113 102.278 90.3018 102.733 90.3105C103.301 90.2841 103.863 90.4281 104.349 90.7241C104.583 90.8819 104.772 91.098 104.898 91.3511C105.024 91.6043 105.081 91.8858 105.065 92.1679C105.073 92.6073 104.942 93.0379 104.692 93.3994C104.534 93.6275 104.355 93.8403 104.157 94.0351C104.083 94.1093 103.958 94.2203 103.783 94.3681C103.461 94.6445 103.138 94.9272 102.814 95.2163C102.545 95.4585 102.34 95.6502 102.198 95.7915L102.209 95.8422H103.501C103.669 95.8422 103.928 95.8287 104.278 95.8017C104.628 95.7749 104.89 95.7614 105.065 95.7612C105.052 95.9096 105.04 96.0376 105.03 96.145C105.021 96.2529 105.015 96.3437 105.015 96.4174C105.014 96.5355 105.019 96.6535 105.03 96.771C105.04 96.8652 105.052 96.9661 105.065 97.0737Z" fill="#1A1A18"/>
<path d="M108.739 95.4385H106.104C106.118 95.331 106.13 95.2363 106.141 95.1558C106.149 95.0887 106.154 95.0212 106.155 94.9536C106.156 94.8591 106.149 94.7647 106.135 94.6714C106.122 94.5903 106.111 94.5234 106.104 94.4692C106.28 94.2271 106.539 93.8467 106.882 93.3281C107.158 92.9106 107.434 92.4998 107.71 92.0957C107.986 91.6919 108.188 91.3923 108.315 91.1968C108.551 90.8462 108.739 90.5498 108.881 90.3076C108.981 90.3213 109.095 90.333 109.219 90.3433C109.344 90.353 109.439 90.3584 109.507 90.3584C109.62 90.3596 109.732 90.3546 109.845 90.3433C109.929 90.333 110.025 90.3213 110.133 90.3076V94.3584H110.971C110.957 94.4795 110.945 94.5854 110.936 94.6763C110.926 94.7482 110.921 94.8206 110.92 94.8931C110.919 94.9995 110.926 95.106 110.94 95.2114C110.954 95.3022 110.964 95.3779 110.971 95.4385H110.133V97.124C110.049 97.113 109.964 97.1063 109.88 97.104C109.645 97.084 109.497 97.0737 109.437 97.0737C109.301 97.0731 109.167 97.0798 109.032 97.0938C108.911 97.1074 108.814 97.1172 108.739 97.124V95.4385ZM108.739 94.3584V91.418L106.821 94.2979L106.872 94.3584H108.739Z" fill="#1A1A18"/>
<path d="M116.29 97.0737H111.838V96.6396C112.446 96.0742 112.875 95.6569 113.125 95.3876C113.568 94.9313 113.959 94.4269 114.29 93.8837C114.603 93.3794 114.778 92.8013 114.796 92.208C114.808 91.8641 114.721 91.5241 114.544 91.2289C114.453 91.0815 114.325 90.9608 114.173 90.8792C114.02 90.7976 113.849 90.7581 113.676 90.7646C113.516 90.7678 113.36 90.8184 113.229 90.91C113.098 91.0016 112.997 91.1301 112.938 91.2792C112.794 91.578 112.721 91.9064 112.726 92.2382L112.626 92.2588C112.411 91.9854 112.143 91.7586 111.838 91.5922C111.982 91.1823 112.271 90.8394 112.651 90.6284C113.052 90.4113 113.502 90.3018 113.958 90.3105C114.526 90.2841 115.088 90.4281 115.573 90.7241C115.808 90.8819 115.997 91.098 116.123 91.3511C116.248 91.6043 116.306 91.8858 116.29 92.1679C116.297 92.6073 116.167 93.0379 115.917 93.3994C115.759 93.6275 115.58 93.8403 115.382 94.0351C115.308 94.1093 115.183 94.2203 115.008 94.3681C114.686 94.6445 114.363 94.9272 114.039 95.2163C113.77 95.4585 113.564 95.6502 113.423 95.7915L113.434 95.8422H114.726C114.894 95.8422 115.153 95.8287 115.503 95.8017C115.853 95.7749 116.115 95.7614 116.29 95.7612C116.276 95.9096 116.265 96.0376 116.255 96.145C116.245 96.2529 116.239 96.3437 116.239 96.4174C116.238 96.5355 116.244 96.6535 116.255 96.771C116.265 96.8652 116.276 96.9661 116.29 97.0737Z" fill="#1A1A18"/>
<path d="M119.188 69.7207V99.4087H97.2129" stroke="#1A1A18" stroke-width="0.5669" stroke-miterlimit="22.9256"/>
<path d="M1.20312 134.038V110.365" stroke="#1A1A18" stroke-width="0.5669" stroke-miterlimit="22.9256"/>
<path d="M129.047 134.037V68.8145" stroke="#1A1A18" stroke-width="0.5669" stroke-miterlimit="22.9256"/>
<path d="M44.3369 131.488L43.3682 129.732C43.2803 129.868 43.0951 130.154 42.8125 130.59C42.5635 130.978 42.375 131.278 42.2471 131.488L41.8438 131.438L41.4395 131.488L43.0449 129.247C42.7823 128.781 42.53 128.345 42.2881 127.939C42.126 127.668 41.8568 127.222 41.4805 126.6C41.5742 126.6 41.7295 126.607 41.9443 126.622C42.1602 126.636 42.2773 126.643 42.2979 126.643C42.3916 126.643 42.5518 126.636 42.7773 126.622C43.0029 126.607 43.1191 126.6 43.126 126.6C43.3408 126.984 43.4821 127.244 43.5498 127.379C43.7314 127.723 43.8796 127.989 43.9941 128.177C44.3369 127.699 44.6869 127.173 45.0439 126.6H45.9424C45.666 126.931 45.3194 127.366 44.9024 127.906C44.5528 128.358 44.3542 128.614 44.3067 128.675L44.8516 129.636C45.2286 130.257 45.6055 130.875 45.9825 131.488C45.8878 131.488 45.7315 131.48 45.5128 131.463C45.294 131.446 45.1719 131.438 45.1446 131.438C45.0567 131.438 44.9053 131.446 44.6905 131.463C44.4746 131.48 44.3574 131.488 44.3369 131.488Z" fill="#1A1A18"/>
<path d="M49.1114 131.579C48.4361 131.608 47.7764 131.371 47.2744 130.918C47.0371 130.69 46.8513 130.414 46.7293 130.109C46.6074 129.803 46.5522 129.475 46.5675 129.146C46.5515 128.797 46.6047 128.447 46.7242 128.118C46.8437 127.789 47.027 127.487 47.2637 127.228C47.5036 126.985 47.792 126.794 48.1103 126.669C48.4286 126.543 48.7696 126.486 49.1114 126.501C49.7962 126.47 50.467 126.703 50.9845 127.153C51.2237 127.379 51.4111 127.655 51.5338 127.961C51.6566 128.266 51.7116 128.595 51.6953 128.924C51.7214 129.629 51.4676 130.315 50.9893 130.832C50.7468 131.083 50.454 131.278 50.1303 131.407C49.8066 131.536 49.4594 131.594 49.1114 131.579ZM49.1817 126.946C48.989 126.949 48.8021 127.012 48.6467 127.126C48.4913 127.24 48.3749 127.399 48.3135 127.582C48.1245 128.071 48.0387 128.593 48.0616 129.116C48.0535 129.538 48.1183 129.958 48.253 130.358C48.4346 130.869 48.7207 131.125 49.1114 131.125C49.4746 131.125 49.7539 130.869 49.9492 130.358C50.13 129.843 50.2154 129.299 50.2012 128.753C50.2168 128.308 50.1271 127.865 49.9395 127.461C49.8785 127.31 49.7738 127.18 49.6389 127.088C49.504 126.996 49.3448 126.947 49.1817 126.946Z" fill="#1A1A18"/>
<path d="M52.5947 134.053V126.603C52.6689 126.603 52.7949 126.609 52.9736 126.623C53.1514 126.636 53.251 126.643 53.2705 126.643C53.3447 126.643 53.456 126.636 53.6045 126.623C53.752 126.609 53.8633 126.603 53.9375 126.603V127.481C54.0443 127.198 54.2275 126.95 54.4668 126.764C54.7108 126.586 55.0073 126.493 55.3096 126.501C55.6093 126.485 55.9084 126.544 56.1787 126.675C56.449 126.806 56.6816 127.003 56.8545 127.249C57.1776 127.817 57.3338 128.466 57.3053 129.119C57.2768 129.773 57.0647 130.405 56.6934 130.943C56.5219 131.148 56.3068 131.311 56.0639 131.421C55.821 131.531 55.5566 131.585 55.29 131.579C55.0158 131.59 54.7442 131.522 54.5078 131.382C54.2972 131.246 54.1194 131.066 53.9873 130.853V134.053C53.5256 133.985 53.0565 133.985 52.5947 134.053ZM54.8662 130.923C55.0226 130.905 55.171 130.844 55.2958 130.748C55.4206 130.652 55.5172 130.524 55.5752 130.378C55.751 129.964 55.8327 129.516 55.8145 129.066C55.8353 128.585 55.766 128.103 55.6104 127.647C55.5662 127.501 55.4757 127.373 55.3523 127.283C55.2289 127.193 55.0795 127.146 54.9268 127.148C54.5391 127.148 54.2637 127.394 54.1006 127.885C53.9818 128.284 53.9268 128.7 53.9375 129.116C53.9261 129.498 53.9742 129.879 54.0801 130.247C54.2295 130.698 54.4915 130.923 54.8662 130.923Z" fill="#1A1A18"/>
<path d="M57.4805 130.853H58.0655L58.3985 130.064C58.627 129.499 58.8611 128.917 59.1006 128.317C59.3389 127.718 59.5456 127.145 59.7208 126.6C59.8087 126.602 59.8964 126.609 59.9835 126.622C60.1538 126.65 60.3278 126.65 60.4981 126.622C60.582 126.61 60.6664 126.603 60.751 126.6C60.9122 127.072 61.0753 127.543 61.2403 128.014C61.4053 128.486 61.572 128.957 61.7403 129.428C61.8077 129.61 61.9893 130.085 62.2852 130.853H62.7999C62.784 130.911 62.7723 130.97 62.7647 131.029C62.7537 131.115 62.7484 131.201 62.7491 131.287C62.7486 131.361 62.7522 131.435 62.7598 131.509C62.7689 131.584 62.7823 131.658 62.7999 131.731H62.6992C62.5133 131.554 62.2646 131.457 62.0078 131.463C61.6943 131.446 61.2181 131.438 60.5791 131.438H59.7012C59.0684 131.438 58.6006 131.446 58.2979 131.463C58.0321 131.466 57.7754 131.561 57.5713 131.731H57.4805C57.497 131.671 57.5088 131.61 57.5157 131.549C57.5258 131.462 57.5307 131.374 57.5303 131.287C57.5303 131.206 57.5273 131.128 57.5205 131.054C57.5146 130.986 57.5012 130.918 57.4805 130.853ZM58.8223 130.853H60.7813L59.8419 127.983C59.6465 128.508 59.5153 128.862 59.4483 129.044C59.2198 129.664 59.0111 130.266 58.8223 130.853H58.8223Z" fill="#1A1A18"/>
<path d="M67.0498 127.844V130.61C67.0424 130.675 67.0484 130.741 67.0674 130.803C67.0864 130.866 67.1179 130.924 67.1602 130.974C67.2822 131.055 67.4286 131.09 67.5742 131.075V131.307C67.4252 131.374 67.2726 131.433 67.1172 131.483C66.9676 131.54 66.81 131.572 66.6504 131.579C66.4305 131.584 66.215 131.517 66.0371 131.388C65.8569 131.25 65.7239 131.059 65.6562 130.842C65.5293 131.071 65.3413 131.26 65.1133 131.388C64.8332 131.536 64.5166 131.6 64.2009 131.573C63.8853 131.547 63.584 131.43 63.333 131.236C63.1984 131.111 63.0934 130.957 63.0255 130.786C62.9576 130.614 62.9286 130.43 62.9404 130.247C62.9274 130.054 62.9609 129.86 63.038 129.683C63.1152 129.505 63.2337 129.349 63.3838 129.227C63.8089 128.964 64.2796 128.782 64.7715 128.692C64.9326 128.652 65.0557 128.618 65.1436 128.591C65.2698 128.551 65.3913 128.497 65.5059 128.43C65.5559 128.381 65.5951 128.323 65.6211 128.258C65.6463 128.187 65.6582 128.112 65.6562 128.036C65.6551 127.917 65.6279 127.8 65.5767 127.693C65.5254 127.585 65.4512 127.491 65.3594 127.415C65.1822 127.245 64.9467 127.149 64.7012 127.148C64.4061 127.15 64.1174 127.234 63.8672 127.39C63.6975 127.471 63.5595 127.606 63.4746 127.773H63.4043L63.2744 127.178C63.5164 126.951 63.8059 126.78 64.1221 126.678C64.4497 126.563 64.7943 126.503 65.1416 126.501C65.5836 126.488 66.0215 126.589 66.4131 126.794C66.6087 126.89 66.7728 127.04 66.8857 127.226C66.9986 127.412 67.0555 127.627 67.0498 127.844ZM65.6562 129.833V128.854C65.4541 128.921 65.2926 128.975 65.1719 129.015C64.9868 129.077 64.8118 129.165 64.6523 129.278C64.5333 129.364 64.4447 129.486 64.3994 129.626C64.3523 129.788 64.3303 129.957 64.334 130.125C64.3291 130.32 64.3724 130.512 64.46 130.686C64.4989 130.762 64.5594 130.825 64.6338 130.868C64.7083 130.91 64.7936 130.929 64.879 130.923C65.0063 130.931 65.1333 130.902 65.2444 130.84C65.3556 130.777 65.4461 130.683 65.5049 130.57C65.6161 130.341 65.6681 130.087 65.6562 129.833V129.833Z" fill="#1A1A18"/>
<path d="M73.5205 129.803H70.8857C70.8994 129.695 70.9111 129.601 70.9219 129.52C70.9307 129.453 70.9356 129.385 70.9365 129.318C70.9375 129.223 70.9306 129.129 70.916 129.036C70.9033 128.955 70.8926 128.888 70.8857 128.833C71.0615 128.591 71.3206 128.211 71.6631 127.692C71.9395 127.275 72.2155 126.864 72.4912 126.46C72.7676 126.056 72.9694 125.757 73.0967 125.561C73.332 125.21 73.5205 124.914 73.6621 124.672C73.7627 124.686 73.876 124.697 74 124.708C74.125 124.717 74.2207 124.723 74.2881 124.723C74.4009 124.724 74.5137 124.719 74.626 124.708C74.71 124.697 74.8066 124.686 74.9141 124.672V128.723H75.752C75.7383 128.844 75.7266 128.95 75.7168 129.041C75.7075 129.112 75.7023 129.185 75.7012 129.257C75.7002 129.364 75.707 129.47 75.7217 129.576C75.7353 129.667 75.7451 129.742 75.752 129.803H74.9141V131.488C74.8302 131.477 74.7457 131.471 74.6611 131.468C74.4258 131.448 74.2783 131.438 74.2178 131.438C74.0827 131.437 73.9478 131.444 73.8135 131.458C73.6924 131.472 73.5948 131.481 73.5205 131.488V129.803ZM73.5205 128.723V125.782L71.6025 128.662L71.6533 128.723H73.5205Z" fill="#1A1A18"/>
<path d="M79.1328 129.803H76.498C76.5117 129.695 76.5234 129.601 76.5342 129.52C76.543 129.453 76.5479 129.385 76.5488 129.318C76.5498 129.223 76.543 129.129 76.5283 129.036C76.5156 128.955 76.5049 128.888 76.498 128.833C76.6738 128.591 76.9329 128.211 77.2754 127.692C77.5518 127.275 77.8278 126.864 78.1035 126.46C78.3799 126.056 78.5817 125.757 78.709 125.561C78.9443 125.21 79.1328 124.914 79.2744 124.672C79.375 124.686 79.4883 124.697 79.6123 124.708C79.7373 124.717 79.833 124.723 79.9004 124.723C80.0132 124.724 80.126 124.719 80.2383 124.708C80.3223 124.697 80.4189 124.686 80.5264 124.672V128.723H81.3643C81.3506 128.844 81.3389 128.95 81.3291 129.041C81.3198 129.112 81.3146 129.185 81.3135 129.257C81.3125 129.364 81.3193 129.47 81.334 129.576C81.3477 129.667 81.3574 129.742 81.3643 129.803H80.5264V131.488C80.4425 131.477 80.358 131.471 80.2734 131.468C80.0381 131.448 79.8906 131.438 79.8301 131.438C79.6951 131.437 79.5601 131.444 79.4258 131.458C79.3047 131.472 79.2071 131.481 79.1328 131.488V129.803ZM79.1328 128.723V125.782L77.2148 128.662L77.2656 128.723H79.1328Z" fill="#1A1A18"/>
<path d="M86.0078 125.119L85.9463 125.22C85.8538 125.185 85.7574 125.161 85.6592 125.149C85.5536 125.136 85.4473 125.129 85.3408 125.129C85.1203 125.127 84.9036 125.186 84.7148 125.3C84.5208 125.419 84.35 125.573 84.2109 125.753C84.0753 125.918 83.9693 126.105 83.8975 126.307C83.8301 126.555 83.7764 126.759 83.7363 126.92C83.6558 127.233 83.6151 127.554 83.6152 127.876L83.6855 127.915C83.8279 127.753 84.0035 127.625 84.2004 127.537C84.3974 127.45 84.6109 127.407 84.8262 127.41C85.3697 127.388 85.9015 127.572 86.3154 127.925C86.511 128.105 86.6644 128.326 86.7647 128.572C86.8649 128.818 86.9096 129.083 86.8955 129.349C86.9067 129.652 86.851 129.954 86.7323 130.233C86.6136 130.512 86.435 130.761 86.209 130.963C85.7431 131.377 85.1366 131.598 84.5137 131.579C84.3218 131.577 84.1306 131.556 83.9434 131.514C83.7671 131.48 83.5958 131.424 83.4336 131.347C83.1294 131.196 82.8686 130.97 82.6758 130.691C82.4885 130.417 82.3504 130.113 82.2676 129.793C82.1815 129.46 82.1388 129.117 82.1406 128.773C82.1346 128.111 82.2406 127.452 82.4541 126.825C82.6571 126.191 83.0394 125.63 83.5547 125.21C83.7993 125.023 84.0765 124.885 84.3721 124.801C84.6811 124.715 85.0006 124.673 85.3213 124.675C85.4907 124.671 85.6598 124.688 85.8252 124.725C85.8858 124.86 85.9466 124.991 86.0078 125.119ZM83.6152 129.434C83.6023 129.793 83.6435 130.151 83.7373 130.497C83.7692 130.672 83.861 130.83 83.997 130.945C84.1329 131.06 84.3046 131.123 84.4824 131.125C84.6464 131.12 84.8047 131.063 84.9348 130.963C85.065 130.863 85.1605 130.725 85.208 130.568C85.3403 130.261 85.4062 129.93 85.4014 129.596C85.414 129.248 85.362 128.902 85.248 128.573C85.2007 128.404 85.0992 128.255 84.9592 128.149C84.8192 128.043 84.6483 127.986 84.4727 127.986C84.3172 127.987 84.1663 128.038 84.0415 128.131C83.9167 128.224 83.8246 128.354 83.7783 128.502C83.662 128.799 83.6065 129.116 83.6152 129.434Z" fill="#1A1A18"/>
<path fill-rule="evenodd" clip-rule="evenodd" d="M1.77307 105.234C1.69821 105.234 1.62409 105.248 1.55493 105.277C1.48577 105.306 1.42293 105.348 1.37 105.4C1.31706 105.453 1.2751 105.516 1.24646 105.585C1.21782 105.655 1.20311 105.729 1.20313 105.804V110.365H18.3726C24.7779 110.234 31.1305 109.176 37.2319 107.222C47.2588 104.267 54.6828 99.4426 62.6056 92.821C66.4062 89.6442 70.082 86.3227 74.013 83.3035C78.1143 80.0963 82.5737 77.3756 87.3018 75.1957C96.3124 71.0263 106.116 68.8498 116.045 68.8148H129.047V64.2537C129.047 64.1789 129.033 64.1047 129.004 64.0355C128.975 63.9663 128.933 63.9035 128.88 63.8505C128.827 63.7976 128.765 63.7556 128.695 63.727C128.626 63.6983 128.552 63.6836 128.477 63.6836H116.045C105.386 63.7288 94.8618 66.0611 85.182 70.5228C64.3619 79.967 57.7999 95.8104 35.7814 102.3C30.1085 103.935 24.268 104.919 18.3726 105.234H1.77307Z" fill="#FFEC00" stroke="#1A1A18" stroke-width="0.5669" stroke-miterlimit="22.9256"/>
<path d="M25.457 66.792V59.8672H27.6074C28.0723 59.8672 28.4111 59.876 28.627 59.8926C28.8422 59.9091 29.0519 59.9693 29.2432 60.0693C29.515 60.1972 29.7433 60.4022 29.8994 60.6589C30.0555 60.9155 30.1326 61.2125 30.1211 61.5127C30.136 61.949 29.9845 62.3748 29.6973 62.7036C29.3923 63.0326 28.9878 63.2525 28.5459 63.3296C28.8086 63.7876 29.1754 64.3799 29.6465 65.1065C29.9629 65.5908 30.1917 65.9442 30.333 66.1665L30.7266 66.792C30.5986 66.792 30.4258 66.7837 30.207 66.7671C29.9883 66.75 29.8555 66.7417 29.8076 66.7417C29.6797 66.7417 29.5068 66.75 29.2881 66.7671C29.0693 66.7837 28.9404 66.792 28.8994 66.792L27.6982 64.6723L27.042 63.5517H26.9717V66.792C26.8574 66.792 26.7627 66.7885 26.6885 66.7822C26.3994 66.7548 26.2412 66.7417 26.2148 66.7417C26.0996 66.7417 25.9521 66.75 25.7705 66.7671C25.5889 66.7837 25.4844 66.792 25.457 66.792ZM26.9717 60.4224V63.1177C27.015 63.1242 27.0587 63.1277 27.1025 63.1279H27.2344C28.1152 63.1279 28.556 62.6452 28.5566 61.6797C28.5555 61.5108 28.5385 61.3424 28.5059 61.1768C28.4888 61.0392 28.4373 60.9081 28.3563 60.7956C28.2752 60.6832 28.1671 60.5929 28.042 60.5332C27.7924 60.4466 27.5285 60.4089 27.2646 60.4224H26.9717Z" fill="#1A1A18"/>
<path d="M35.7842 66.7417H31.332V66.3076C31.9404 65.7422 32.3695 65.3249 32.6191 65.0556C33.0623 64.5993 33.453 64.0949 33.7841 63.5517C34.0973 63.0474 34.2719 62.4693 34.29 61.876C34.3023 61.5321 34.2148 61.1921 34.038 60.8969C33.9475 60.7495 33.8193 60.6288 33.6667 60.5472C33.5142 60.4656 33.3427 60.4261 33.1698 60.4326C33.0098 60.4358 32.8543 60.4864 32.723 60.578C32.5918 60.6696 32.4907 60.7981 32.4326 60.9472C32.288 61.246 32.2154 61.5744 32.2206 61.9062L32.1201 61.9267C31.9053 61.6534 31.6371 61.4266 31.3319 61.2602C31.4761 60.8503 31.7656 60.5074 32.1454 60.2964C32.5462 60.0793 32.9964 59.9698 33.4521 59.9785C34.0197 59.9521 34.5823 60.0961 35.0673 60.3921C35.3018 60.5499 35.4911 60.766 35.6168 61.0191C35.7425 61.2723 35.8001 61.5538 35.7841 61.8359C35.7913 62.2753 35.6609 62.7059 35.411 63.0674C35.2528 63.2955 35.0737 63.5083 34.8759 63.7031C34.8017 63.7773 34.677 63.8883 34.5019 64.0361C34.1796 64.3125 33.8567 64.5952 33.5331 64.8843C33.2636 65.1265 33.0582 65.3182 32.9169 65.4595L32.9277 65.5102H34.2197C34.3877 65.5102 34.6468 65.4967 34.997 65.4697C35.3466 65.4429 35.609 65.4293 35.7841 65.4292C35.7704 65.5776 35.7587 65.7056 35.749 65.813C35.7392 65.9209 35.7333 66.0117 35.7333 66.0854C35.7326 66.2035 35.7378 66.3215 35.749 66.439C35.7588 66.5332 35.7705 66.6341 35.7842 66.7417Z" fill="#1A1A18"/>
<path d="M39.458 65.1064H36.8232C36.8369 64.999 36.8486 64.9043 36.8594 64.8237C36.8682 64.7567 36.8731 64.6892 36.874 64.6216C36.875 64.5271 36.8681 64.4327 36.8535 64.3394C36.8408 64.2583 36.8301 64.1914 36.8232 64.1372C36.999 63.895 37.2581 63.5147 37.6006 62.9961C37.877 62.5786 38.153 62.1678 38.4287 61.7637C38.7051 61.3599 38.9069 61.0602 39.0342 60.8647C39.2695 60.5142 39.458 60.2178 39.5996 59.9756C39.7002 59.9893 39.8135 60.001 39.9375 60.0112C40.0625 60.021 40.1582 60.0264 40.2256 60.0264C40.3384 60.0276 40.4512 60.0225 40.5635 60.0112C40.6475 60.001 40.7441 59.9892 40.8516 59.9756V64.0264H41.6895C41.6758 64.1475 41.6641 64.2534 41.6543 64.3442C41.645 64.4162 41.6398 64.4885 41.6387 64.561C41.6377 64.6675 41.6445 64.7739 41.6592 64.8794C41.6728 64.9702 41.6826 65.0459 41.6895 65.1064H40.8516V66.792C40.7677 66.781 40.6832 66.7743 40.5986 66.772C40.3633 66.752 40.2158 66.7417 40.1553 66.7417C40.0202 66.7411 39.8853 66.7478 39.751 66.7617C39.6299 66.7754 39.5323 66.7852 39.458 66.792V65.1064ZM39.458 64.0264V61.0859L37.54 63.9658L37.5908 64.0264H39.458Z" fill="#1A1A18"/>
<path d="M47.0088 66.7417H42.5566V66.3076C43.165 65.7422 43.5941 65.3249 43.8438 65.0556C44.2869 64.5993 44.6777 64.0949 45.0087 63.5517C45.322 63.0474 45.4965 62.4693 45.5146 61.876C45.5269 61.5321 45.4394 61.1921 45.2626 60.8969C45.1721 60.7495 45.044 60.6288 44.8914 60.5472C44.7389 60.4656 44.5674 60.4261 44.3945 60.4326C44.2344 60.4358 44.0789 60.4864 43.9477 60.578C43.8164 60.6696 43.7153 60.7981 43.6572 60.9472C43.5126 61.246 43.44 61.5744 43.4453 61.9062L43.3447 61.9267C43.1299 61.6534 42.8618 61.4266 42.5566 61.2602C42.7008 60.8503 42.9902 60.5074 43.3701 60.2964C43.7708 60.0793 44.221 59.9698 44.6767 59.9785C45.2443 59.9521 45.8069 60.0961 46.2919 60.3921C46.5264 60.5499 46.7158 60.766 46.8415 61.0191C46.9672 61.2723 47.0248 61.5538 47.0087 61.8359C47.016 62.2753 46.8855 62.7059 46.6357 63.0674C46.4775 63.2955 46.2983 63.5083 46.1005 63.7031C46.0263 63.7773 45.9017 63.8883 45.7266 64.0361C45.4043 64.3125 45.0814 64.5952 44.7578 64.8843C44.4883 65.1265 44.2829 65.3182 44.1416 65.4595L44.1523 65.5102H45.4443C45.6123 65.5102 45.8715 65.4967 46.2217 65.4697C46.5713 65.4429 46.8337 65.4293 47.0088 65.4292C46.9951 65.5776 46.9834 65.7056 46.9736 65.813C46.9639 65.9209 46.958 66.0117 46.958 66.0854C46.9572 66.2035 46.9625 66.3215 46.9736 66.439C46.9834 66.5332 46.9951 66.6341 47.0088 66.7417Z" fill="#1A1A18"/>
<path d="M45.7485 98.4878V68.8008H23.7734" stroke="#1A1A18" stroke-width="0.5669" stroke-miterlimit="22.9256"/>
<path d="M157.638 92.4912H151.934C152.156 92.8744 152.358 93.2686 152.54 93.6723C152.449 93.7235 152.363 93.7827 152.282 93.8491C152.195 93.9226 152.112 94.0019 152.035 94.0864H151.954C151.806 93.6284 151.617 93.137 151.389 92.6123C151.214 92.2221 150.989 91.7443 150.713 91.1787L150.763 91.0981H157.638C157.626 91.1818 157.62 91.2661 157.617 91.3505C157.597 91.5864 157.587 91.7343 157.587 91.7949C157.586 91.9298 157.593 92.0646 157.607 92.1987C157.62 92.3198 157.631 92.4174 157.638 92.4912Z" fill="#1A1A18"/>
<path d="M151.268 84.8696L151.368 84.9301C151.334 85.0229 151.31 85.1195 151.298 85.2177C151.284 85.3231 151.277 85.4293 151.277 85.5356C151.275 85.7562 151.335 85.973 151.449 86.1616C151.568 86.356 151.722 86.5271 151.902 86.6665C152.067 86.8018 152.254 86.9076 152.455 86.9795C152.704 87.0469 152.908 87.1006 153.069 87.1411C153.382 87.2214 153.703 87.2621 154.025 87.2622L154.063 87.1914C153.902 87.0489 153.773 86.8732 153.687 86.6763C153.6 86.4794 153.556 86.266 153.56 86.0508C153.537 85.5072 153.721 84.9753 154.074 84.5615C154.254 84.366 154.475 84.2126 154.721 84.1123C154.967 84.0121 155.232 83.9674 155.497 83.9814C155.8 83.9702 156.102 84.0259 156.381 84.1446C156.66 84.2632 156.91 84.4419 157.112 84.668C157.526 85.1339 157.747 85.7406 157.729 86.3638C157.726 86.5556 157.704 86.7467 157.663 86.9341C157.629 87.1103 157.573 87.2815 157.496 87.4438C157.346 87.7481 157.12 88.0086 156.84 88.2007C156.566 88.3881 156.262 88.5266 155.941 88.6098C155.608 88.6951 155.266 88.7374 154.922 88.7359C154.259 88.7422 153.601 88.6363 152.974 88.4229C152.34 88.2198 151.779 87.8377 151.358 87.3228C151.172 87.078 151.034 86.8006 150.949 86.5049C150.863 86.196 150.821 85.8767 150.823 85.5562C150.82 85.3864 150.837 85.217 150.874 85.0513C151.009 84.9907 151.14 84.9301 151.268 84.8696ZM155.583 87.2622C155.942 87.2747 156.3 87.2334 156.646 87.1396C156.821 87.1075 156.98 87.0156 157.094 86.8795C157.209 86.7435 157.273 86.5718 157.274 86.394C157.269 86.2301 157.212 86.072 157.112 85.942C157.012 85.812 156.874 85.7167 156.717 85.6694C156.41 85.5366 156.079 85.4703 155.745 85.4751C155.397 85.4627 155.05 85.5147 154.722 85.6284C154.553 85.6759 154.404 85.7775 154.298 85.9176C154.192 86.0577 154.134 86.2286 154.135 86.4043C154.136 86.5598 154.187 86.7107 154.28 86.8355C154.373 86.9603 154.503 87.0524 154.651 87.0986C154.948 87.215 155.265 87.2706 155.583 87.2622Z" fill="#1A1A18"/>
<path d="M153.862 79.6914H153.933C153.989 79.2939 154.194 78.9329 154.508 78.6821C154.821 78.4273 155.214 78.2913 155.618 78.2983C155.909 78.2871 156.198 78.3422 156.464 78.4594C156.73 78.5766 156.965 78.7527 157.153 78.9746C157.548 79.4575 157.752 80.0678 157.728 80.6909C157.73 80.9989 157.693 81.3059 157.617 81.6044C157.547 81.882 157.426 82.1438 157.259 82.3764C157.091 82.608 156.864 82.7909 156.602 82.9067C156.335 83.03 156.044 83.0937 155.75 83.0932C155.324 83.0946 154.909 82.9564 154.568 82.6997C154.399 82.5813 154.256 82.43 154.146 82.2548C154.037 82.0796 153.964 81.8841 153.933 81.6802H153.862C153.797 82.0061 153.622 82.2999 153.367 82.5127C153.12 82.7326 152.8 82.8532 152.469 82.8511C152.215 82.8602 151.963 82.8014 151.74 82.6807C151.516 82.5601 151.329 82.3818 151.197 82.1645C150.934 81.7227 150.804 81.2144 150.823 80.7007C150.818 80.4214 150.842 80.1424 150.894 79.8681C150.952 79.6263 151.056 79.3981 151.202 79.1968C151.333 78.9949 151.505 78.8228 151.707 78.6919C151.912 78.5776 152.144 78.5217 152.378 78.5303C152.72 78.5213 153.055 78.6301 153.327 78.8384C153.596 79.0545 153.785 79.355 153.862 79.6914ZM152.57 81.458C152.717 81.4591 152.864 81.4474 153.009 81.4228C153.136 81.4012 153.259 81.3574 153.372 81.2934C153.483 81.231 153.578 81.1441 153.65 81.0395C153.722 80.9409 153.76 80.8224 153.761 80.7006C153.76 80.5603 153.715 80.4238 153.632 80.3109C153.548 80.1981 153.431 80.1148 153.297 80.0732C153.031 79.9664 152.746 79.9154 152.459 79.9233C152.189 79.9107 151.921 79.9584 151.672 80.0629C151.549 80.1161 151.445 80.2058 151.374 80.3198C151.304 80.4338 151.27 80.5667 151.277 80.7006C151.275 80.8404 151.318 80.9771 151.4 81.0903C151.482 81.2035 151.599 81.2871 151.732 81.3286C152.001 81.4249 152.285 81.4689 152.57 81.458V81.458ZM154.195 81.0136C154.266 81.1358 154.362 81.2414 154.477 81.3233C154.592 81.4051 154.723 81.4614 154.861 81.4882C155.137 81.565 155.423 81.6023 155.709 81.5991C156.132 81.6229 156.552 81.5248 156.921 81.3164C157.03 81.2526 157.12 81.1611 157.182 81.0512C157.244 80.9414 157.276 80.817 157.274 80.6909C157.266 80.5286 157.208 80.3729 157.106 80.2461C157.005 80.1192 156.866 80.0276 156.709 79.9843C156.399 79.8537 156.066 79.7884 155.729 79.7924C155.508 79.7923 155.286 79.8126 155.068 79.853C154.878 79.883 154.695 79.9481 154.528 80.0449C154.407 80.109 154.305 80.2048 154.234 80.322C154.163 80.4393 154.125 80.5737 154.124 80.7109C154.124 80.816 154.148 80.9197 154.195 81.0136V81.0136Z" fill="#1A1A18"/>
<path d="M0.556641 28.2005V10.8145" stroke="#1A1A18" stroke-width="0.5669" stroke-miterlimit="22.9256"/>
<path d="M129.219 28.2005V10.8145" stroke="#1A1A18" stroke-width="0.5669" stroke-miterlimit="22.9256"/>
<path d="M57.2578 5.36237H54.623C54.6367 5.25495 54.6484 5.16022 54.6592 5.07965C54.668 5.01261 54.6729 4.94511 54.6738 4.8775C54.6748 4.78302 54.668 4.68862 54.6533 4.59528C54.6406 4.51422 54.6299 4.44733 54.623 4.39313C54.7988 4.15094 55.0579 3.77058 55.4004 3.25202C55.6768 2.83454 55.9528 2.42373 56.2285 2.01959C56.5049 1.61578 56.7067 1.31613 56.834 1.12067C57.0693 0.77008 57.2578 0.473693 57.3994 0.231506C57.5 0.245176 57.6133 0.256901 57.7373 0.267151C57.8623 0.276921 57.958 0.282288 58.0254 0.282288C58.1382 0.283509 58.251 0.278458 58.3633 0.267151C58.4473 0.256901 58.5439 0.245146 58.6514 0.231506V4.28229H59.4893C59.4756 4.40338 59.4639 4.50934 59.4541 4.60016C59.4448 4.67207 59.4396 4.74445 59.4385 4.81696C59.4375 4.92344 59.4443 5.02984 59.459 5.13531C59.4727 5.22613 59.4824 5.30182 59.4893 5.36232H58.6514V7.04786C58.5675 7.03685 58.483 7.03017 58.3984 7.02785C58.1631 7.00785 58.0156 6.99759 57.9551 6.99759C57.8201 6.99698 57.6851 7.00366 57.5508 7.01759C57.4297 7.03126 57.332 7.04103 57.2578 7.04786L57.2578 5.36237ZM57.2578 4.28229V1.34186L55.3398 4.22174L55.3906 4.28229H57.2578Z" fill="#1A1A18"/>
<path d="M61.0732 0.294983H64.4355C64.4242 0.368396 64.4173 0.442424 64.415 0.516663C64.3945 0.718813 64.3847 0.843325 64.3847 0.890205C64.3837 1.00837 64.3906 1.12646 64.4052 1.24371C64.4179 1.34479 64.4286 1.42878 64.4355 1.49617H61.538L61.457 3.24617L61.5175 3.28278C61.8308 3.11544 62.182 3.03201 62.537 3.0406C62.8248 3.0354 63.112 3.0694 63.3906 3.14166C63.6458 3.21843 63.8816 3.34915 64.082 3.52496C64.2864 3.69393 64.4499 3.9071 64.5601 4.14841C64.6702 4.38971 64.7241 4.65287 64.7177 4.91804C64.7195 5.24764 64.6379 5.57234 64.4804 5.86189C64.3201 6.15688 64.0938 6.41087 63.8193 6.60407C63.5638 6.78825 63.2764 6.92337 62.9716 7.00251C62.6527 7.0918 62.3233 7.13762 61.9921 7.13873C61.6707 7.14091 61.3508 7.09499 61.0429 7.00251C60.7438 6.91012 60.4637 6.76493 60.2158 6.5738C60.3175 6.42381 60.4085 6.26684 60.4882 6.10407C60.5764 5.92199 60.6539 5.735 60.7206 5.54401H60.8613C60.9242 5.8216 61.0447 6.0829 61.2148 6.3111C61.3014 6.42743 61.4142 6.52182 61.5439 6.58669C61.6737 6.65156 61.8168 6.68511 61.9619 6.68464C62.1596 6.69384 62.3561 6.64909 62.5304 6.55516C62.7047 6.46124 62.8501 6.32168 62.9511 6.15144C63.1449 5.80841 63.2393 5.41813 63.2236 5.02444C63.2318 4.65292 63.1106 4.29011 62.8808 3.99807C62.7739 3.87195 62.6436 3.7678 62.497 3.69143C62.3538 3.6155 62.1942 3.57577 62.0322 3.57571C61.8683 3.57468 61.7063 3.61093 61.5585 3.68171C61.4064 3.75491 61.2693 3.85593 61.1542 3.97955L60.912 3.83796L61.0732 0.294983Z" fill="#1A1A18"/>
<path d="M68.3428 0.234437C68.7213 0.210717 69.0989 0.29369 69.4326 0.473924C69.7663 0.654157 70.0427 0.924418 70.2305 1.25397C70.5834 1.93542 70.7504 2.69784 70.7148 3.46442C70.7374 4.09287 70.6726 4.72142 70.5225 5.33209C70.4107 5.71913 70.222 6.07965 69.9678 6.39215C69.7658 6.63313 69.5121 6.82541 69.2255 6.95468C68.9389 7.08395 68.6268 7.14686 68.3125 7.13873C67.9269 7.15088 67.5447 7.06412 67.2021 6.88673C66.8776 6.69665 66.612 6.42053 66.4346 6.08888C66.2325 5.74317 66.0893 5.36629 66.0107 4.97365C65.9326 4.54916 65.8953 4.11815 65.8994 3.68654C65.8996 3.26012 65.9369 2.83451 66.0107 2.41454C66.068 2.03796 66.1945 1.67524 66.3838 1.34472C66.5756 0.996467 66.8602 0.708282 67.2061 0.512254C67.552 0.316226 67.9455 0.220047 68.3428 0.234437ZM67.3936 3.80768C67.3662 4.52064 67.4137 5.2345 67.5352 5.93756C67.6631 6.43561 67.9255 6.68463 68.3223 6.68463C68.6719 6.68463 68.9141 6.42226 69.0488 5.89752C69.1889 5.16257 69.2465 4.41429 69.2207 3.66657C69.2514 2.88797 69.1888 2.1085 69.0342 1.34479C68.9092 0.907289 68.6787 0.688539 68.3428 0.688539C67.9727 0.688539 67.722 0.937562 67.5908 1.43561C67.4326 2.21588 67.3664 3.01198 67.3936 3.80766V3.80768Z" fill="#1A1A18"/>
<path d="M4.85907 28.1992H0.556641V105.401H4.85907V28.1992Z" stroke="#1A1A18" stroke-width="0.5669" stroke-miterlimit="22.9256"/>
<path d="M129.22 28.1992H124.918V63.6837H129.22V28.1992Z" stroke="#1A1A18" stroke-width="0.5669" stroke-miterlimit="22.9256"/>
<path d="M145.936 63.6836V110.365" stroke="#1A1A18" stroke-width="0.5669" stroke-miterlimit="22.9256"/>
<path d="M129.047 134.037H1.20312" stroke="#1A1A18" stroke-width="0.5669" stroke-miterlimit="22.9256"/>
<path d="M128.4 10.8105H0.556641" stroke="#1A1A18" stroke-width="0.5669" stroke-miterlimit="22.9256"/>
</svg>
