<svg width="279" height="74" viewBox="0 0 279 74" fill="none" xmlns="http://www.w3.org/2000/svg">
<path d="M278 34H81V54H278V34Z" fill="#E2000F"/>
<path fill-rule="evenodd" clip-rule="evenodd" d="M63.0064 42.7861C63.2639 42.7853 63.516 42.8611 63.7305 43.0039C63.9451 43.1466 64.1125 43.3499 64.2116 43.5881C64.3107 43.8262 64.3371 44.0884 64.2873 44.3415C64.2375 44.5947 64.1139 44.8273 63.9321 45.01C63.7502 45.1927 63.5183 45.3173 63.2657 45.3679C63.0131 45.4185 62.7513 45.3929 62.5132 45.2944C62.2752 45.1958 62.0717 45.0288 61.9285 44.8143C61.7853 44.5998 61.7088 44.3477 61.7088 44.0897C61.7083 43.9187 61.7415 43.7492 61.8065 43.5911C61.8714 43.433 61.9669 43.2892 62.0875 43.1681C62.208 43.047 62.3512 42.951 62.5089 42.8854C62.6666 42.8199 62.8356 42.7861 63.0064 42.7861ZM26.9625 42.7861C27.2199 42.7861 27.4715 42.8626 27.6855 43.0058C27.8996 43.149 28.0664 43.3526 28.1649 43.5908C28.2634 43.829 28.2892 44.0911 28.2389 44.344C28.1887 44.5968 28.0648 44.8291 27.8828 45.0114C27.7007 45.1937 27.4688 45.3179 27.2164 45.3682C26.9639 45.4185 26.7022 45.3927 26.4644 45.294C26.2266 45.1953 26.0233 45.0283 25.8803 44.8139C25.7373 44.5995 25.661 44.3475 25.661 44.0897C25.6604 43.9183 25.6937 43.7486 25.759 43.5902C25.8242 43.4318 25.92 43.2879 26.041 43.1667C26.1619 43.0456 26.3056 42.9496 26.4638 42.8843C26.6219 42.8189 26.7914 42.7856 26.9625 42.7861V42.7861ZM16.4152 40.9165V47.227H69.888V40.9165H16.4152ZM14.7077 39.2063V48.9372H71.5954V39.2063H14.7077ZM9.62109 34.3628V53.7807H80.3477V34.3628H9.62109Z" fill="#E2000F"/>
<path fill-rule="evenodd" clip-rule="evenodd" d="M63.0064 22.1484C63.2639 22.1477 63.516 22.2234 63.7305 22.3662C63.9451 22.509 64.1125 22.7123 64.2116 22.9504C64.3107 23.1885 64.3371 23.4507 64.2873 23.7039C64.2375 23.957 64.1139 24.1896 63.9321 24.3723C63.7502 24.555 63.5183 24.6796 63.2657 24.7302C63.0131 24.7808 62.7513 24.7553 62.5132 24.6567C62.2752 24.5582 62.0717 24.3911 61.9285 24.1766C61.7853 23.9622 61.7088 23.71 61.7088 23.452C61.7083 23.281 61.7415 23.1116 61.8065 22.9535C61.8714 22.7953 61.9669 22.6516 62.0875 22.5305C62.208 22.4094 62.3512 22.3133 62.5089 22.2477C62.6666 22.1822 62.8356 22.1484 63.0064 22.1484ZM26.9625 22.1484C27.2199 22.1484 27.4715 22.2249 27.6855 22.3681C27.8996 22.5114 28.0664 22.715 28.1649 22.9531C28.2634 23.1913 28.2892 23.4534 28.2389 23.7063C28.1887 23.9592 28.0648 24.1915 27.8828 24.3738C27.7007 24.5561 27.4688 24.6802 27.2164 24.7305C26.9639 24.7808 26.7022 24.755 26.4644 24.6563C26.2266 24.5577 26.0233 24.3906 25.8803 24.1762C25.7373 23.9618 25.661 23.7098 25.661 23.452C25.6604 23.2807 25.6937 23.1109 25.759 22.9525C25.8242 22.7941 25.92 22.6502 26.041 22.5291C26.1619 22.4079 26.3056 22.3119 26.4638 22.2466C26.6219 22.1813 26.7914 22.1479 26.9625 22.1484V22.1484ZM16.4152 20.6456V26.9521H69.888V20.6456H16.4152ZM14.7077 18.9314V28.6623H71.5954V18.9314H14.7077ZM9.62109 14.0879V33.5058H80.3477V14.0879H9.62109Z" fill="#1A1A18"/>
<path fill-rule="evenodd" clip-rule="evenodd" d="M63.0064 6.47034C63.2639 6.46955 63.516 6.54533 63.7305 6.68809C63.9451 6.83085 64.1125 7.03416 64.2116 7.27228C64.3107 7.51041 64.3371 7.77263 64.2873 8.02576C64.2375 8.27889 64.1139 8.51154 63.9321 8.69425C63.7502 8.87695 63.5183 9.0015 63.2657 9.05212C63.0131 9.10274 62.7513 9.07716 62.5132 8.97862C62.2752 8.88007 62.0717 8.71299 61.9285 8.49854C61.7853 8.28408 61.7088 8.0319 61.7088 7.77391C61.7083 7.60291 61.7415 7.43348 61.8065 7.27535C61.8714 7.11722 61.9669 6.97348 62.0875 6.85239C62.208 6.73129 62.3512 6.6352 62.5089 6.56965C62.6666 6.50409 62.8356 6.47034 63.0064 6.47034ZM26.9625 6.47034C27.2199 6.47034 27.4715 6.5468 27.6855 6.69004C27.8996 6.83327 28.0664 7.03686 28.1649 7.27506C28.2634 7.51325 28.2892 7.77535 28.2389 8.02822C28.1887 8.28108 28.0648 8.51335 27.8828 8.69566C27.7007 8.87796 27.4688 9.00211 27.2164 9.05241C26.9639 9.10271 26.7022 9.0769 26.4644 8.97824C26.2266 8.87958 26.0233 8.71249 25.8803 8.49812C25.7373 8.28375 25.661 8.03173 25.661 7.77391C25.6604 7.60257 25.6937 7.43282 25.759 7.27442C25.8242 7.11603 25.92 6.97213 26.041 6.85097C26.1619 6.72982 26.3056 6.63383 26.4638 6.5685C26.6219 6.50318 26.7914 6.46981 26.9625 6.47034ZM45.669 2.3125V13.2313H80.3477V2.3125H45.669ZM9.62109 2.3125V13.2313H44.2998V2.3125H9.62109Z" fill="#1A1A18"/>
<path fill-rule="evenodd" clip-rule="evenodd" d="M8.9445 1.62646V54.8093H81.0323V1.62646H8.9445ZM5.87583 1.62646H1.67283C1.49655 1.62646 1.32749 1.55631 1.20283 1.43147C1.07818 1.30662 1.00815 1.13729 1.00815 0.96073V0.661748C1.0092 0.485876 1.0797 0.317567 1.20424 0.193579C1.32878 0.0695908 1.49724 -3.15304e-06 1.67283 1.07137e-10H88.6702C88.8458 -3.15304e-06 89.0142 0.0695908 89.1388 0.193579C89.2633 0.317567 89.3338 0.485876 89.3348 0.661748V0.96073C89.3348 1.13729 89.2648 1.30662 89.1402 1.43147C89.0155 1.55631 88.8464 1.62646 88.6702 1.62646H84.101V8.82196C84.6383 14.7219 85.9557 17.1655 87.1498 21.2118C90.4692 32.4495 88.694 37.879 86.2622 48.6982C84.7776 55.2957 84.0174 61.7378 87.1259 74H85.1358C83.6751 69.7026 81.5537 64.5522 81.0204 59.8043C79.2293 57.9307 77.7686 57.6198 74.7597 57.5161C69.693 57.3447 55.3765 61.0441 45.1038 61.1478C34.8312 61.0441 20.5147 57.3447 15.452 57.5161C12.439 57.6198 10.7157 57.9148 8.9246 59.8043C8.3833 64.5522 6.3017 69.8182 4.81314 74H2.82308C5.93155 61.7378 5.17135 55.2957 3.68677 48.6982C1.25492 37.879 -0.51623 32.4495 2.7992 21.2118C3.99324 17.1655 5.31066 14.7219 5.84797 8.82196L5.87583 1.62646Z" fill="#1A1A18"/>
<path fill-rule="evenodd" clip-rule="evenodd" d="M110.437 11.6165L104.825 11.9713C104.746 8.73701 103.488 7.11985 101.052 7.11985C98.2634 7.11985 96.8677 9.61003 96.865 14.5904C96.865 17.4686 97.2431 19.414 98.0033 20.4425C98.3665 20.9415 98.8473 21.3428 99.4028 21.6106C99.9584 21.8784 100.571 22.0043 101.187 21.9773C103.396 21.9773 104.77 20.5342 105.243 17.644L110.417 17.9669C110.083 20.7069 109.064 22.7905 107.361 24.2176C105.6 25.6645 103.376 26.4248 101.1 26.3583C98.075 26.3583 95.6152 25.3126 93.7207 23.221C91.8262 21.1295 90.8789 18.2353 90.8789 14.5386C90.8789 11.0863 91.7943 8.248 93.6252 6.0475C95.456 3.84699 97.9595 2.73877 101.136 2.73877C106.631 2.73877 109.725 5.69802 110.417 11.6165H110.437ZM120.312 8.69449C122.891 8.69449 124.905 9.54094 126.354 11.2338C127.802 12.9267 128.524 15.0409 128.519 17.5762C128.519 20.0824 127.768 22.1739 126.266 23.8509C124.764 25.5278 122.768 26.3636 120.276 26.3583C117.864 26.3583 115.935 25.5292 114.489 23.8708C113.043 22.2125 112.318 20.0864 112.316 17.4925C112.269 15.9035 112.607 14.3267 113.299 12.8962C113.924 11.6719 114.849 10.6257 115.985 9.85454C117.277 9.03779 118.785 8.63196 120.312 8.6905V8.69449ZM120.443 11.9713C120.02 11.9477 119.599 12.0372 119.222 12.2305C118.845 12.4238 118.526 12.7141 118.298 13.0716C117.818 13.8051 117.578 15.2668 117.578 17.4566C117.578 19.4578 117.806 20.8956 118.262 21.77C118.453 22.1739 118.758 22.5131 119.139 22.7454C119.521 22.9778 119.961 23.0932 120.407 23.0775C120.818 23.0819 121.223 22.9818 121.584 22.7865C121.945 22.5913 122.251 22.3073 122.473 21.9613C123.004 21.2198 123.269 19.802 123.269 17.7078C123.269 15.4807 123.036 13.9699 122.569 13.1752C122.363 12.7965 122.055 12.4834 121.679 12.2719C121.304 12.0604 120.877 11.959 120.447 11.9793L120.443 11.9713ZM146.374 26.0035H141.391V16.4879C141.415 15.6962 141.37 14.9038 141.255 14.12C141.16 13.6749 140.911 13.2777 140.552 12.9984C140.193 12.7191 139.747 12.5756 139.293 12.5932C137.542 12.5932 136.665 13.8915 136.662 16.4879V26.0035H131.667V9.05326H136.308V11.9235C137.08 10.5548 137.839 9.67514 138.585 9.28447C139.336 8.89392 140.17 8.69149 141.016 8.69449C142.43 8.6284 143.817 9.09486 144.905 10.002C145.889 10.8658 146.382 12.5693 146.382 15.1126V26.0035H146.374ZM165.375 19.6452C165.246 21.5162 164.389 23.2616 162.987 24.5046C161.594 25.7404 159.797 26.3583 157.598 26.3583C156.51 26.3938 155.428 26.1992 154.421 25.787C153.414 25.3748 152.506 24.7545 151.755 23.9665C150.258 22.3719 149.502 20.2631 149.502 17.6121C149.502 14.9611 150.274 12.8284 151.806 11.1621C153.339 9.49576 155.389 8.67854 157.968 8.67854C159.857 8.6145 161.698 9.28438 163.106 10.5482C164.442 11.7443 165.252 13.4208 165.359 15.2123L160.698 15.4794C160.544 13.4463 159.663 12.4284 158.055 12.4258C156.076 12.4258 155.086 14.0483 155.086 17.2932C155.086 19.4499 155.361 20.8252 155.914 21.4032C156.17 21.6846 156.482 21.9084 156.831 22.0596C157.179 22.2108 157.556 22.286 157.936 22.2802C159.48 22.2802 160.401 21.3009 160.698 19.3422L165.359 19.6292L165.375 19.6452ZM183.273 18.3655H172.372C172.372 18.6725 172.372 18.9356 172.372 19.1628C172.372 20.3588 172.698 21.2796 173.339 21.8935C173.642 22.1944 174.002 22.4313 174.397 22.5902C174.793 22.7491 175.217 22.8267 175.643 22.8184C177.307 22.8184 178.302 21.9294 178.64 20.1515L183.166 20.4863C181.9 24.4063 179.336 26.365 175.472 26.3623C173.975 26.4075 172.492 26.0554 171.174 25.3418C169.957 24.6305 168.95 23.6084 168.256 22.3799C167.458 20.9583 167.06 19.3461 167.106 17.7158C167.106 15.0209 167.876 12.8444 169.415 11.186C170.159 10.4122 171.049 9.79348 172.033 9.36557C173.017 8.93765 174.076 8.70895 175.149 8.69265C176.222 8.67635 177.287 8.87275 178.284 9.27057C179.281 9.66838 180.189 10.2597 180.957 11.0106C182.512 12.5494 183.292 15.0023 183.297 18.3695L183.273 18.3655ZM172.36 15.4634H178.374C178.223 13.1354 177.269 11.9713 175.512 11.9713C173.633 11.9713 172.583 13.1354 172.36 15.4634ZM186.418 31.728V9.05326H191.011V11.5567C191.862 9.66717 193.347 8.71442 195.468 8.71442C196.34 8.69918 197.203 8.89186 197.986 9.27656C198.768 9.66126 199.448 10.227 199.97 10.9269C201.135 12.3966 201.718 14.5359 201.721 17.345C201.721 20.3348 201.132 22.5938 199.954 24.1219C199.425 24.8422 198.731 25.4245 197.93 25.8199C197.129 26.2154 196.245 26.4123 195.353 26.3942C193.442 26.3942 192.079 25.6501 191.261 24.1618V31.728H186.418ZM191.261 18.5728C191.226 19.408 191.299 20.2443 191.48 21.0604C191.654 21.5563 191.977 21.9865 192.404 22.2922C192.836 22.6401 193.373 22.8312 193.928 22.8343C194.294 22.8185 194.651 22.715 194.969 22.5326C195.287 22.3502 195.556 22.0941 195.755 21.7859C196.286 21.0896 196.551 19.5482 196.551 17.1616C196.551 13.8184 195.669 12.1454 193.904 12.1427C193.554 12.1521 193.21 12.2362 192.895 12.3895C192.58 12.5429 192.301 12.7618 192.077 13.0317C191.528 13.6297 191.253 14.6382 191.253 16.0574V18.5728H191.261ZM210.716 12.936V20.1116C210.716 21.0046 210.848 21.5985 211.114 21.9015C211.381 22.2045 212.014 22.356 213.009 22.356C213.466 22.356 213.996 22.332 214.601 22.2922V25.9996C213.569 26.1999 212.523 26.3225 211.472 26.3663C209.391 26.3663 207.922 25.9677 207.046 25.1704C206.171 24.3731 205.741 22.922 205.741 20.8331V12.948H203.054V9.05326H206.02L206.418 4.05031L210.704 3.71146V9.05326H214.354V12.948L210.716 12.936Z" fill="#1A1A18"/>
<path fill-rule="evenodd" clip-rule="evenodd" d="M231.408 21.4707H240.503V26.0033H225.976V3.0933H231.408V21.4707ZM248.013 9.05301V26.0033H243.022V9.05301H248.013ZM248.013 2.6229V7.62587H243.022V2.6229H248.013ZM257.335 12.9477V26.0033H252.475V12.9477H250.513V9.05301H252.475C252.455 7.76866 252.589 6.48653 252.873 5.23402C253.186 4.33156 253.813 3.57267 254.64 3.09729C255.592 2.47939 256.877 2.16846 258.513 2.16846C259.287 2.17784 260.06 2.2391 260.825 2.35183V6.21468C260.109 6.15887 259.516 6.13096 259.046 6.13096C258.366 6.13096 257.912 6.30636 257.689 6.66912C257.426 7.21139 257.31 7.81381 257.355 8.41518V9.05301H260.424V12.9477H257.335ZM278 18.3653H267.102C267.102 18.6722 267.102 18.9354 267.102 19.1626C267.102 20.3585 267.428 21.2794 268.069 21.8933C268.372 22.1942 268.732 22.4311 269.128 22.5899C269.524 22.7488 269.947 22.8264 270.374 22.8181C272.037 22.8181 273.032 21.9292 273.371 20.1512L277.896 20.4861C276.631 24.4061 274.066 26.3647 270.203 26.3621C268.705 26.4067 267.222 26.0546 265.904 25.3415C264.688 24.6306 263.682 23.6083 262.991 22.3796C262.191 20.9587 261.793 19.3461 261.84 17.7155C261.84 15.0207 262.609 12.8441 264.145 11.1857C264.889 10.4119 265.779 9.79323 266.764 9.36531C267.748 8.9374 268.807 8.7087 269.88 8.6924C270.952 8.67609 272.018 8.8725 273.015 9.27031C274.011 9.66813 274.92 10.2595 275.687 11.0103C277.242 12.5491 278.022 15.0021 278.028 18.3693L278 18.3653ZM267.086 15.4632H273.104C272.948 13.1351 271.992 11.9711 270.238 11.9711C268.36 11.9604 267.309 13.1245 267.086 15.4632Z" fill="#E2000F"/>
<path fill-rule="evenodd" clip-rule="evenodd" d="M97.5136 46.4899V47.5224H95.7743V46.4899C94.3653 46.4368 93.3716 46.0886 92.7932 45.4455C92.2058 44.7796 91.8953 43.9137 91.9255 43.0257C91.9046 42.577 91.9742 42.1286 92.1301 41.7074C92.286 41.2862 92.5251 40.9007 92.833 40.5741C93.4379 39.9602 94.425 39.6213 95.7743 39.5695V38.6965H97.5136V39.5695C98.9146 39.62 99.907 39.9655 100.491 40.606C101.049 41.2877 101.354 42.1425 101.354 43.0244C101.353 43.9064 101.046 44.7607 100.487 45.4415C99.9016 46.0793 98.8947 46.4261 97.5056 46.478L97.5136 46.4899ZM97.5136 45.003C97.9239 45.0124 98.3314 44.9321 98.7076 44.7678C99.0082 44.6427 99.2588 44.4212 99.4201 44.1379C99.5799 43.7717 99.6521 43.3731 99.631 42.9739C99.631 41.6982 98.9225 41.0564 97.5056 41.0564V45.003H97.5136ZM95.7743 45.003V41.0564C95.4836 41.0296 95.1906 41.0605 94.9119 41.1474C94.6333 41.2343 94.3745 41.3754 94.1504 41.5627C93.9701 41.7697 93.8329 42.0107 93.7468 42.2715C93.6607 42.5323 93.6274 42.8077 93.6489 43.0815C93.6489 44.3652 94.3574 45.003 95.7743 45.003ZM104.045 43.0775L102.513 42.7985C102.639 42.2512 102.953 41.7657 103.4 41.4272C103.967 41.0915 104.622 40.9358 105.279 40.9807C105.853 40.9489 106.426 41.0399 106.962 41.2478C107.292 41.3859 107.571 41.6243 107.758 41.9295C107.942 42.4121 108.018 42.9291 107.981 43.4443V45.4375C107.97 45.8537 107.996 46.27 108.061 46.6813C108.129 46.9781 108.232 47.2658 108.367 47.5384H106.692C106.648 47.4228 106.596 47.2593 106.533 47.0361C106.505 46.9364 106.485 46.8686 106.473 46.8367C106.206 47.1044 105.892 47.3195 105.545 47.4706C105.213 47.6112 104.856 47.6831 104.495 47.6819C103.926 47.7137 103.368 47.522 102.938 47.1477C102.753 46.9746 102.606 46.7638 102.508 46.5294C102.41 46.295 102.362 46.0424 102.369 45.7883C102.365 45.4489 102.454 45.1149 102.628 44.8236C102.801 44.5405 103.053 44.3145 103.352 44.1738C103.782 43.9849 104.234 43.851 104.698 43.7752C105.255 43.6931 105.804 43.5597 106.337 43.3765V43.2051C106.35 43.0791 106.336 42.9517 106.294 42.8319C106.253 42.7122 106.186 42.6028 106.099 42.5115C105.828 42.3429 105.508 42.2699 105.191 42.3042C104.943 42.2892 104.697 42.3519 104.487 42.4836C104.294 42.6454 104.155 42.8624 104.089 43.1055L104.045 43.0775ZM106.306 44.4489C105.968 44.5529 105.625 44.6393 105.279 44.708C104.959 44.7589 104.649 44.8584 104.359 45.003C104.259 45.0664 104.176 45.154 104.119 45.2578C104.061 45.3615 104.03 45.4782 104.029 45.597C104.028 45.7125 104.051 45.827 104.096 45.9333C104.141 46.0396 104.208 46.1355 104.292 46.2149C104.381 46.3008 104.486 46.368 104.602 46.4125C104.717 46.457 104.841 46.4779 104.964 46.474C105.281 46.4691 105.588 46.363 105.84 46.171C106.031 46.0343 106.171 45.838 106.238 45.6129C106.293 45.3415 106.314 45.0643 106.302 44.7877V44.4489H106.306ZM114.425 38.4692H115.571C115.571 38.8895 115.431 39.2977 115.173 39.6293C114.942 39.8924 114.377 40.0279 113.47 40.0279H112.929C112.484 40.0132 112.04 40.0724 111.615 40.2033C111.269 40.3307 110.978 40.5745 110.791 40.893C110.538 41.4045 110.423 41.9735 110.457 42.5434C110.672 42.1081 111.006 41.7431 111.42 41.4909C111.849 41.2484 112.336 41.1272 112.829 41.1401C113.234 41.1359 113.635 41.2213 114.003 41.3901C114.371 41.5589 114.697 41.8071 114.958 42.1168C115.526 42.7343 115.838 43.5455 115.83 44.3851C115.838 44.8114 115.761 45.235 115.604 45.6312C115.447 46.0274 115.212 46.3885 114.915 46.6932C114.607 47.0131 114.235 47.2644 113.823 47.4306C113.412 47.5968 112.97 47.6743 112.527 47.6579C111.897 47.6702 111.277 47.5015 110.74 47.1716C110.238 46.8594 109.853 46.3919 109.641 45.8401C109.375 44.9353 109.263 43.9918 109.311 43.0496C109.311 41.5135 109.592 40.4106 110.154 39.7409C110.717 39.0712 111.7 38.7363 113.104 38.7363H113.955C114.05 38.7483 114.146 38.7315 114.231 38.6881C114.317 38.6448 114.387 38.5769 114.433 38.4932L114.425 38.4692ZM111.022 44.3572C110.994 44.8545 111.148 45.345 111.456 45.7365C111.588 45.8989 111.754 46.0299 111.943 46.1198C112.131 46.2098 112.338 46.2565 112.546 46.2565C112.755 46.2565 112.962 46.2098 113.15 46.1198C113.339 46.0299 113.505 45.8989 113.637 45.7365C113.923 45.3397 114.077 44.8626 114.077 44.3731C114.077 43.8836 113.923 43.4066 113.637 43.0098C113.506 42.8489 113.341 42.7192 113.154 42.6302C112.966 42.5411 112.762 42.4949 112.554 42.4949C112.347 42.4949 112.142 42.5411 111.955 42.6302C111.768 42.7192 111.603 42.8489 111.472 43.0098C111.157 43.3962 110.998 43.8869 111.026 44.3851L111.022 44.3572ZM117.191 41.1083H118.783V42.049C118.987 41.7173 119.272 41.443 119.611 41.2518C119.964 41.0482 120.366 40.9436 120.773 40.9488C121.133 40.9459 121.488 41.0227 121.814 41.1737C122.14 41.3246 122.429 41.546 122.66 41.8218C123.212 42.5073 123.489 43.3745 123.436 44.2535C123.486 45.1539 123.203 46.0412 122.64 46.7451C122.409 47.0243 122.12 47.2488 121.792 47.4025C121.465 47.5562 121.107 47.6353 120.746 47.634C120.413 47.6377 120.083 47.5655 119.782 47.4227C119.441 47.2368 119.136 46.9926 118.879 46.7012V49.9222H117.203V41.1242L117.191 41.1083ZM118.863 44.1977C118.819 44.7623 118.969 45.325 119.289 45.7923C119.411 45.9531 119.569 46.0833 119.75 46.1725C119.931 46.2617 120.13 46.3076 120.332 46.3065C120.52 46.308 120.707 46.2659 120.876 46.1836C121.046 46.1014 121.195 45.9811 121.311 45.8322C121.613 45.376 121.753 44.8312 121.709 44.2854C121.751 43.7562 121.611 43.2284 121.311 42.7905C121.193 42.6373 121.042 42.5133 120.868 42.4283C120.695 42.3432 120.505 42.2994 120.312 42.3002C120.115 42.2963 119.92 42.3378 119.742 42.4214C119.564 42.5051 119.408 42.6286 119.285 42.7826C118.987 43.1913 118.846 43.6935 118.887 44.1977H118.863ZM124.718 41.1083H126.357V45.1266L128.956 41.1083H130.616V47.5065H128.992V43.4483L126.357 47.5224H124.734V41.1242L124.718 41.1083ZM132.28 41.1083H133.963V43.7233C134.188 43.7154 134.401 43.6228 134.56 43.4642C134.742 43.1786 134.883 42.8685 134.978 42.5434C135.096 42.0844 135.343 41.6692 135.691 41.3474C135.992 41.1596 136.343 41.0678 136.698 41.0843C136.829 41.0843 137.052 41.0843 137.366 41.1122V42.2324C137.075 42.2051 136.782 42.2489 136.511 42.36C136.311 42.5867 136.174 42.8614 136.113 43.1573C136.062 43.3907 135.959 43.6097 135.813 43.7981C135.666 43.9864 135.479 44.1394 135.265 44.2456C135.796 44.3971 136.247 44.8608 136.618 45.6368L136.682 45.7644L137.629 47.5304H135.81L134.97 45.6807C134.868 45.4134 134.716 45.1684 134.521 44.9591C134.358 44.8421 134.159 44.7857 133.959 44.7997V47.5304H132.276V41.1242L132.28 41.1083ZM139.77 43.0616L138.238 42.7826C138.365 42.2347 138.681 41.7491 139.13 41.4112C139.695 41.0756 140.349 40.9199 141.004 40.9647C141.578 40.9324 142.152 41.0235 142.688 41.2318C143.019 41.3688 143.297 41.6075 143.484 41.9135C143.668 42.3961 143.744 42.9132 143.707 43.4284V45.4216C143.697 45.8377 143.724 46.2538 143.786 46.6653C143.854 46.9621 143.957 47.2498 144.093 47.5224H142.421C142.377 47.4068 142.322 47.2434 142.258 47.0201C142.23 46.9205 142.21 46.8527 142.198 46.8208C141.932 47.0885 141.617 47.3035 141.271 47.4546C140.939 47.596 140.581 47.6679 140.22 47.6659C139.652 47.6969 139.094 47.5053 138.664 47.1317C138.363 46.8329 138.17 46.4426 138.115 46.0221C138.059 45.6015 138.145 45.1744 138.358 44.8076C138.53 44.5246 138.782 44.2986 139.082 44.1579C139.51 43.9684 139.961 43.8344 140.423 43.7592C140.981 43.6772 141.53 43.5438 142.063 43.3606V43.1892C142.076 43.0631 142.061 42.9358 142.02 42.816C141.979 42.6962 141.912 42.5869 141.824 42.4955C141.553 42.3269 141.234 42.254 140.917 42.2882C140.669 42.2733 140.423 42.3359 140.212 42.4676C140.019 42.6294 139.88 42.8464 139.814 43.0895L139.77 43.0616ZM142.031 44.4329C141.694 44.5369 141.351 44.6234 141.004 44.692C140.685 44.743 140.375 44.8425 140.085 44.987C139.985 45.0504 139.902 45.1381 139.844 45.2418C139.786 45.3456 139.756 45.4622 139.755 45.581C139.754 45.6966 139.776 45.8111 139.822 45.9174C139.867 46.0237 139.933 46.1195 140.017 46.1989C140.107 46.2848 140.213 46.3519 140.33 46.3964C140.446 46.4409 140.57 46.4618 140.694 46.458C141.009 46.4523 141.314 46.3462 141.565 46.1551C141.756 46.0183 141.896 45.822 141.963 45.597C142.018 45.3255 142.039 45.0484 142.027 44.7718V44.4329H142.031ZM148.829 41.1083H150.923L152.515 45.5651L154.107 41.1083H156.196V47.5065H154.756V43.3127L153.199 47.5224H151.759L150.238 43.3127V47.5224H148.797V41.1242L148.829 41.1083ZM161.585 45.4694L163.273 45.7524C163.09 46.3208 162.73 46.8154 162.246 47.1636C161.725 47.5032 161.112 47.6731 160.491 47.65C159.379 47.65 158.558 47.2859 158.027 46.5577C157.585 45.9115 157.363 45.1398 157.394 44.3572C157.341 43.4505 157.639 42.5582 158.226 41.8657C158.49 41.5728 158.814 41.3407 159.176 41.1852C159.539 41.0297 159.93 40.9545 160.324 40.9647C160.745 40.9444 161.165 41.0183 161.554 41.181C161.943 41.3438 162.291 41.5913 162.573 41.9055C163.122 42.5354 163.387 43.4988 163.369 44.7957H159.11C159.09 45.2214 159.233 45.6387 159.508 45.9637C159.631 46.0999 159.781 46.2081 159.95 46.281C160.118 46.3539 160.3 46.3898 160.483 46.3863C160.724 46.3935 160.96 46.3175 161.152 46.171C161.352 45.983 161.491 45.7383 161.55 45.4694H161.585ZM161.681 43.7592C161.7 43.3534 161.566 42.9552 161.307 42.643C161.191 42.5202 161.051 42.4228 160.896 42.3568C160.741 42.2908 160.574 42.2577 160.405 42.2596C160.236 42.2615 160.07 42.2983 159.916 42.3677C159.763 42.4371 159.625 42.5376 159.512 42.663C159.259 42.9701 159.132 43.362 159.158 43.7592H161.681ZM169.343 38.4852H170.489C170.489 38.9054 170.349 39.3136 170.091 39.6452C169.864 39.9083 169.295 40.0439 168.387 40.0439H167.846C167.403 40.0293 166.96 40.0886 166.537 40.2193C166.189 40.3459 165.896 40.5897 165.709 40.9089C165.456 41.4205 165.341 41.9894 165.375 42.5593C165.592 42.1247 165.927 41.76 166.342 41.5069C166.771 41.2634 167.258 41.1421 167.751 41.1561C168.155 41.1524 168.556 41.238 168.924 41.4068C169.292 41.5756 169.618 41.8235 169.88 42.1328C170.447 42.7512 170.758 43.5617 170.752 44.401C170.759 44.8276 170.681 45.2513 170.523 45.6475C170.365 46.0437 170.13 46.4046 169.832 46.7092C169.524 47.0291 169.152 47.2803 168.741 47.4466C168.329 47.6128 167.888 47.6902 167.444 47.6739C166.816 47.6863 166.197 47.5175 165.661 47.1876C165.159 46.8706 164.774 46.3972 164.567 45.8401C164.298 44.9356 164.185 43.9921 164.232 43.0496C164.232 41.5135 164.514 40.4106 165.076 39.7409C165.639 39.0712 166.623 38.7363 168.029 38.7363H168.881C168.976 38.7477 169.072 38.7307 169.157 38.6874C169.242 38.6441 169.312 38.5765 169.359 38.4932L169.343 38.4852ZM165.936 44.3731C165.909 44.871 166.065 45.3615 166.374 45.7524C166.501 45.9128 166.664 46.042 166.848 46.1304C167.033 46.2188 167.235 46.264 167.44 46.2627C167.654 46.2675 167.867 46.2221 168.06 46.13C168.254 46.038 168.423 45.9018 168.555 45.7325C168.841 45.3357 168.995 44.8587 168.995 44.3691C168.995 43.8796 168.841 43.4026 168.555 43.0058C168.424 42.8419 168.258 42.71 168.069 42.6202C167.88 42.5304 167.673 42.485 167.464 42.4876C167.258 42.487 167.054 42.5325 166.867 42.6208C166.681 42.7091 166.516 42.8379 166.385 42.9978C166.073 43.3859 165.915 43.8754 165.94 44.3731H165.936ZM175.85 45.4853L177.538 45.7684C177.355 46.3367 176.995 46.8313 176.511 47.1796C175.99 47.5191 175.377 47.689 174.756 47.6659C173.649 47.6659 172.825 47.3032 172.292 46.5737C171.85 45.9275 171.628 45.1557 171.659 44.3731C171.606 43.4664 171.904 42.5741 172.491 41.8816C172.755 41.5888 173.079 41.3566 173.441 41.2011C173.803 41.0456 174.195 40.9704 174.588 40.9807C175.01 40.9604 175.43 41.0343 175.819 41.197C176.208 41.3597 176.556 41.6072 176.837 41.9215C177.387 42.5513 177.652 43.5147 177.633 44.8116H173.406C173.389 45.2371 173.531 45.6539 173.804 45.9797C173.928 46.1152 174.079 46.223 174.247 46.2958C174.415 46.3687 174.596 46.4049 174.78 46.4022C175.021 46.4101 175.257 46.334 175.448 46.187C175.65 46 175.789 45.7548 175.846 45.4853H175.85ZM175.95 43.7752C175.96 43.3665 175.818 42.9687 175.552 42.659C175.442 42.5335 175.307 42.433 175.155 42.3642C175.003 42.2954 174.839 42.26 174.672 42.2603C174.5 42.2567 174.329 42.2904 174.171 42.3592C174.013 42.4281 173.871 42.5303 173.757 42.659C173.504 42.9661 173.377 43.358 173.402 43.7552L175.95 43.7752ZM179.46 41.1242H185.12V47.5224H183.436V42.4995H181.132V45.3697C181.17 45.8953 181.084 46.4224 180.881 46.9085C180.758 47.1557 180.562 47.3589 180.32 47.4905C180.003 47.6009 179.668 47.6483 179.333 47.63C178.976 47.6214 178.621 47.5854 178.27 47.5224V46.2747H178.553C178.728 46.2747 178.863 46.2747 178.951 46.2747C179.178 46.2747 179.317 46.2029 179.349 46.0514C179.425 45.6375 179.451 45.216 179.428 44.7957V41.0963L179.46 41.1242ZM186.863 41.1242H188.551V43.7832H190.25C190.765 43.7658 191.28 43.8141 191.783 43.9267C192.142 44.0237 192.456 44.2437 192.67 44.5485C192.908 44.8695 193.033 45.2609 193.024 45.6607C193.042 45.9275 192.993 46.1945 192.883 46.4379C192.772 46.6813 192.604 46.8937 192.392 47.056C191.821 47.4051 191.156 47.568 190.489 47.5224H186.863V41.1242V41.1242ZM188.551 46.4501H190.143C190.478 46.4963 190.818 46.409 191.09 46.2069C191.229 46.0498 191.304 45.8465 191.301 45.6368C191.312 45.5058 191.283 45.3744 191.219 45.2599C191.154 45.1454 191.057 45.0531 190.939 44.995C190.531 44.8533 190.1 44.795 189.669 44.8236H188.567V46.4501H188.551ZM194.33 41.1242H196.021V43.4682H198.437V41.1242H200.133V47.5224H198.437V44.8356H196.021V47.5224H194.33V41.1242V41.1242ZM201.848 41.1242H203.536V43.7832H205.231C205.743 43.7664 206.255 43.8132 206.756 43.9227C207.115 44.0208 207.429 44.2388 207.647 44.5406C207.891 44.8621 208.019 45.257 208.01 45.6607C208.027 45.928 207.978 46.1954 207.867 46.439C207.756 46.6825 207.586 46.8946 207.373 47.056C206.799 47.4045 206.132 47.5673 205.462 47.5224H201.86V41.1242H201.848ZM203.536 46.4501H205.104C205.414 46.4735 205.724 46.4056 205.996 46.2547C206.091 46.1824 206.167 46.0871 206.215 45.9777C206.264 45.8683 206.284 45.7482 206.274 45.6288C206.286 45.4993 206.258 45.3693 206.194 45.2561C206.13 45.1429 206.033 45.0519 205.916 44.995C205.503 44.8533 205.066 44.795 204.63 44.8236H203.536V46.4501V46.4501ZM208.973 41.1242H210.66V47.5224H208.985V41.1242H208.973ZM211.54 47.5224L213.844 44.2256L211.635 41.1242H213.697L214.831 42.8822L216.025 41.1242H218.015L215.85 44.1539L218.215 47.5224H216.141L214.843 45.5292L213.53 47.5224H211.54ZM226.298 38.6925H227.974V41.9374C228.157 41.643 228.41 41.398 228.71 41.2239C229.163 40.9768 229.694 40.9177 230.19 41.0594C230.686 41.2011 231.106 41.5321 231.361 41.9813C231.812 42.6955 232.039 43.5285 232.014 44.3731C232.041 45.2155 231.784 46.0425 231.285 46.7211C231.095 47.0072 230.838 47.2431 230.538 47.409C230.237 47.5748 229.901 47.6657 229.558 47.6739C229.26 47.6751 228.967 47.5967 228.71 47.4467C228.422 47.2762 228.171 47.0482 227.974 46.7769V49.9661H226.298V46.7769C226.078 47.0487 225.807 47.276 225.502 47.4467C225.23 47.597 224.925 47.6752 224.615 47.6739C224.272 47.6721 223.935 47.583 223.637 47.4149C223.338 47.2468 223.087 47.0053 222.907 46.7132C222.439 46.0059 222.203 45.1694 222.234 44.3213C222.2 43.4575 222.474 42.6098 223.007 41.9295C223.195 41.6572 223.442 41.4314 223.731 41.2691C224.019 41.1068 224.34 41.0123 224.67 40.9926C224.983 40.9887 225.291 41.0685 225.562 41.2239C225.852 41.3963 226.1 41.6304 226.29 41.9095V38.7204L226.298 38.6925ZM225.168 42.2803C224.993 42.2927 224.825 42.3513 224.68 42.45C224.535 42.5487 224.419 42.6841 224.344 42.8423C224.092 43.2945 223.971 43.808 223.994 44.3253C223.969 44.8424 224.082 45.3569 224.32 45.8162C224.391 45.9757 224.505 46.1123 224.649 46.2108C224.793 46.3093 224.962 46.366 225.136 46.3743C225.313 46.3656 225.484 46.3091 225.631 46.2108C225.778 46.1125 225.896 45.9762 225.972 45.8162C226.222 45.3464 226.34 44.8173 226.314 44.2854C226.358 43.7486 226.228 43.212 225.944 42.7546C225.858 42.6184 225.741 42.5045 225.603 42.422C225.464 42.3396 225.308 42.291 225.148 42.2803H225.168ZM229.116 42.2803C228.933 42.2893 228.756 42.3513 228.607 42.4588C228.458 42.5663 228.343 42.7148 228.276 42.8862C228.043 43.3546 227.931 43.874 227.95 44.3971C227.923 44.9015 228.044 45.4028 228.296 45.8401C228.365 46.0051 228.483 46.1449 228.634 46.2408C228.785 46.3367 228.961 46.3842 229.14 46.3768C229.318 46.3694 229.49 46.3076 229.632 46.1995C229.775 46.0915 229.881 45.9424 229.936 45.7724C230.172 45.3374 230.29 44.8481 230.278 44.3532C230.293 43.8434 230.185 43.3376 229.964 42.8782C229.896 42.7065 229.78 42.5584 229.629 42.4521C229.479 42.3458 229.3 42.2861 229.116 42.2803V42.2803ZM234.66 43.0775L233.128 42.7985C233.252 42.2504 233.567 41.7643 234.016 41.4272C234.582 41.0915 235.237 40.9358 235.894 40.9807C236.468 40.9489 237.042 41.0399 237.578 41.2478C237.902 41.3875 238.173 41.6261 238.354 41.9295C238.547 42.4111 238.63 42.9302 238.597 43.4483V45.4415C238.586 45.8578 238.614 46.2742 238.68 46.6853C238.747 46.982 238.848 47.2697 238.983 47.5423H237.311C237.267 47.4267 237.212 47.2633 237.148 47.0401C237.134 46.9719 237.114 46.9052 237.088 46.8407C236.823 47.1083 236.51 47.3233 236.165 47.4746C235.831 47.6156 235.472 47.6875 235.11 47.6859C234.543 47.717 233.986 47.5254 233.558 47.1517C233.372 46.9785 233.225 46.7678 233.127 46.5334C233.029 46.299 232.982 46.0464 232.989 45.7923C232.984 45.4529 233.074 45.1189 233.247 44.8276C233.42 44.5445 233.672 44.3185 233.972 44.1778C234.402 43.9889 234.854 43.855 235.317 43.7792C235.875 43.6971 236.424 43.5637 236.957 43.3805V43.2091C236.97 43.0831 236.955 42.9557 236.914 42.8359C236.873 42.7162 236.806 42.6068 236.718 42.5154C236.447 42.3474 236.128 42.2745 235.811 42.3082C235.559 42.2786 235.306 42.3439 235.1 42.4913C234.894 42.6387 234.75 42.8576 234.696 43.1055L234.66 43.0775ZM236.921 44.4489C236.583 44.5529 236.241 44.6393 235.894 44.708C235.575 44.7589 235.264 44.8584 234.975 45.003C234.874 45.0658 234.791 45.1533 234.733 45.2572C234.675 45.3611 234.645 45.478 234.644 45.597C234.643 45.7125 234.666 45.827 234.712 45.9333C234.757 46.0396 234.823 46.1355 234.907 46.2149C234.996 46.3008 235.102 46.368 235.217 46.4125C235.333 46.457 235.456 46.4779 235.58 46.474C235.895 46.4697 236.201 46.3634 236.451 46.171C236.643 46.0354 236.784 45.8387 236.849 45.6129C236.908 45.342 236.931 45.0646 236.917 44.7877V44.4489H236.921ZM245.817 43.0177L244.149 43.3167C244.111 43.0258 243.97 42.7583 243.751 42.5633C243.532 42.3887 243.258 42.2995 242.979 42.3122C242.789 42.3049 242.6 42.3401 242.426 42.4153C242.252 42.4905 242.097 42.6037 241.972 42.7467C241.683 43.1767 241.551 43.6934 241.598 44.2097C241.553 44.7705 241.693 45.3304 241.996 45.8042C242.117 45.9576 242.273 46.0801 242.451 46.1618C242.629 46.2435 242.823 46.2822 243.019 46.2747C243.309 46.2883 243.594 46.1898 243.815 45.9996C244.057 45.7414 244.21 45.4112 244.248 45.0588L245.908 45.3418C245.788 46.0159 245.436 46.6265 244.913 47.068C244.345 47.4846 243.65 47.6916 242.947 47.654C242.533 47.6728 242.121 47.6037 241.736 47.4512C241.351 47.2986 241.003 47.0661 240.714 46.769C240.173 46.0641 239.88 45.2002 239.88 44.3113C239.88 43.4225 240.173 42.5586 240.714 41.8537C241.007 41.554 241.36 41.3201 241.749 41.1675C242.139 41.0149 242.557 40.9471 242.975 40.9687C243.631 40.9336 244.281 41.1096 244.83 41.471C245.321 41.8581 245.67 42.3981 245.821 43.0058L245.817 43.0177ZM248.507 43.0775L246.975 42.7985C247.101 42.2512 247.415 41.7657 247.862 41.4272C248.429 41.0915 249.084 40.9358 249.741 40.9807C250.315 40.9489 250.889 41.0399 251.425 41.2478C251.755 41.3859 252.033 41.6243 252.221 41.9295C252.404 42.4121 252.48 42.9291 252.443 43.4443V45.4375C252.432 45.8537 252.458 46.27 252.523 46.6813C252.591 46.9781 252.694 47.2658 252.83 47.5384H251.134C251.09 47.4228 251.039 47.2593 250.975 47.0361C250.947 46.9364 250.927 46.8686 250.915 46.8367C250.648 47.1044 250.334 47.3195 249.988 47.4706C249.655 47.6112 249.298 47.6831 248.937 47.6819C248.369 47.7128 247.811 47.5213 247.381 47.1477C247.195 46.9746 247.048 46.7638 246.95 46.5294C246.852 46.295 246.805 46.0424 246.812 45.7883C246.807 45.4489 246.896 45.1149 247.07 44.8236C247.244 44.5414 247.496 44.3157 247.795 44.1738C248.225 43.9849 248.677 43.851 249.14 43.7752C249.698 43.6931 250.247 43.5597 250.78 43.3765V43.2051C250.793 43.0791 250.778 42.9517 250.737 42.8319C250.695 42.7122 250.629 42.6028 250.541 42.5115C250.27 42.3429 249.951 42.2699 249.634 42.3042C249.386 42.2892 249.14 42.3519 248.929 42.4836C248.736 42.6454 248.597 42.8624 248.531 43.1055L248.507 43.0775ZM250.768 44.4489C250.43 44.5529 250.088 44.6393 249.741 44.708C249.421 44.7589 249.111 44.8584 248.822 45.003C248.721 45.0664 248.638 45.154 248.581 45.2578C248.523 45.3615 248.492 45.4782 248.491 45.597C248.49 45.7125 248.513 45.827 248.558 45.9333C248.604 46.0396 248.67 46.1355 248.754 46.2149C248.843 46.3005 248.949 46.3674 249.064 46.4119C249.18 46.4564 249.303 46.4775 249.427 46.474C249.743 46.4691 250.05 46.363 250.302 46.171C250.493 46.0343 250.633 45.838 250.7 45.6129C250.755 45.3415 250.776 45.0643 250.764 44.7877V44.4489H250.768ZM259.373 47.5224H254.549V49.2047H253.18V46.1351H253.872C254.219 45.6935 254.464 45.1801 254.589 44.6322C254.828 43.4786 254.94 42.3023 254.923 41.1242H260.097V46.1351H260.782V49.2047H259.405V47.5224H259.373ZM258.394 46.1351V42.5154H256.352C256.286 44.2828 256.004 45.4893 255.508 46.1351H258.394ZM261.522 44.2296C261.52 43.6618 261.657 43.1021 261.92 42.5992C262.19 42.0898 262.606 41.6731 263.114 41.4032C263.638 41.1297 264.223 40.9926 264.814 41.0046C265.255 40.9869 265.695 41.0614 266.107 41.2234C266.518 41.3853 266.891 41.6312 267.202 41.9454C267.51 42.2607 267.75 42.6352 267.91 43.0463C268.069 43.4573 268.144 43.8965 268.129 44.3372C268.14 44.7782 268.063 45.217 267.903 45.6278C267.742 46.0386 267.501 46.413 267.194 46.7291C266.887 47.0414 266.52 47.2872 266.115 47.4511C265.709 47.615 265.275 47.6936 264.838 47.6819C264.257 47.6835 263.684 47.5469 263.166 47.2832C262.648 47.0343 262.223 46.6266 261.952 46.1192C261.667 45.5372 261.53 44.8935 261.554 44.2456L261.522 44.2296ZM263.253 44.3213C263.218 44.8466 263.378 45.3664 263.703 45.7803C263.841 45.9413 264.012 46.07 264.204 46.1575C264.397 46.245 264.606 46.289 264.818 46.2866C265.028 46.2898 265.237 46.246 265.428 46.1585C265.619 46.0709 265.789 45.9417 265.924 45.7803C266.252 45.3633 266.412 44.8387 266.374 44.3093C266.41 43.7888 266.249 43.2738 265.924 42.8663C265.789 42.7042 265.62 42.5746 265.428 42.487C265.237 42.3993 265.028 42.3559 264.818 42.36C264.606 42.3567 264.396 42.4004 264.204 42.488C264.011 42.5755 263.84 42.7047 263.703 42.8663C263.379 43.2788 263.218 43.7972 263.253 44.3213V44.3213ZM269.451 41.1322H273.148C273.746 41.0888 274.342 41.2353 274.852 41.5507C275.042 41.6961 275.193 41.8867 275.292 42.1051C275.391 42.3236 275.433 42.5633 275.417 42.8025C275.417 43.1275 275.312 43.4438 275.117 43.704C274.923 43.9642 274.649 44.1542 274.338 44.2456C274.729 44.3217 275.08 44.5369 275.325 44.8515C275.537 45.1328 275.652 45.4757 275.652 45.8282C275.655 46.0556 275.608 46.2809 275.514 46.4878C275.419 46.6946 275.28 46.8778 275.106 47.0241C274.638 47.3649 274.064 47.53 273.486 47.4905H269.462V41.1242L269.451 41.1322ZM271.154 43.7911H272.245C272.634 43.8168 273.025 43.7484 273.383 43.5918C273.495 43.5312 273.588 43.4397 273.65 43.3281C273.712 43.2165 273.741 43.0895 273.733 42.9619C273.741 42.8447 273.714 42.7278 273.656 42.6257C273.598 42.5236 273.511 42.4409 273.407 42.3879C273.036 42.2494 272.64 42.191 272.245 42.2165H271.154V43.811V43.7911ZM271.154 46.4461H272.487C272.848 46.4682 273.208 46.4082 273.542 46.2707C273.652 46.2095 273.741 46.1178 273.8 46.0068C273.858 45.8957 273.884 45.77 273.872 45.6448C273.883 45.5108 273.853 45.3766 273.785 45.2604C273.718 45.1443 273.616 45.0516 273.494 44.995C273.017 44.8452 272.516 44.7857 272.018 44.8196H271.154V46.4461Z" fill="white"/>
</svg>
