<svg width="36" height="31" viewBox="0 0 36 31" fill="none" xmlns="http://www.w3.org/2000/svg">
<path d="M35.3536 16.3536C35.5488 16.1583 35.5488 15.8417 35.3536 15.6464L32.1716 12.4645C31.9763 12.2692 31.6597 12.2692 31.4645 12.4645C31.2692 12.6597 31.2692 12.9763 31.4645 13.1716L34.2929 16L31.4645 18.8284C31.2692 19.0237 31.2692 19.3403 31.4645 19.5355C31.6597 19.7308 31.9763 19.7308 32.1716 19.5355L35.3536 16.3536ZM15 16.5H35V15.5H15V16.5Z" fill="#242424"/>
<path d="M27.5736 25.2199C25.562 27.7187 22.8247 29.5317 19.7392 30.409C16.6537 31.2864 13.372 31.1848 10.3467 30.1183C7.32138 29.0518 4.70147 27.0729 2.84828 24.4545C0.995085 21.8362 -8.80355e-05 18.7074 5.83792e-09 15.4996C8.80472e-05 12.2918 0.995432 9.163 2.84877 6.54476C4.7021 3.92652 7.32212 1.94779 10.3475 0.881455C13.3729 -0.18488 16.6546 -0.286289 19.7401 0.591213C22.8255 1.46872 25.5627 3.2819 27.5742 5.78071L26.945 6.28718C25.0383 3.91858 22.4438 2.19988 19.5191 1.3681C16.5944 0.536326 13.4837 0.63245 10.616 1.64322C7.74827 2.65399 5.26477 4.52961 3.50802 7.01141C1.75126 9.49322 0.80778 12.4589 0.807696 15.4996C0.807613 18.5402 1.75093 21.506 3.50755 23.9879C5.26417 26.4698 7.74756 28.3456 10.6152 29.3565C13.4829 30.3674 16.5936 30.4637 19.5183 29.6321C22.4431 28.8005 25.0377 27.0819 26.9445 24.7134L27.5736 25.2199Z" fill="#E2000F"/>
</svg>
