<svg width="36" height="31" viewBox="0 0 36 31" fill="none" xmlns="http://www.w3.org/2000/svg">
<path d="M0.646446 14.6464C0.451185 14.8417 0.451185 15.1583 0.646446 15.3536L3.82843 18.5355C4.02369 18.7308 4.34027 18.7308 4.53553 18.5355C4.7308 18.3403 4.7308 18.0237 4.53553 17.8284L1.70711 15L4.53553 12.1716C4.7308 11.9763 4.7308 11.6597 4.53553 11.4645C4.34027 11.2692 4.02369 11.2692 3.82843 11.4645L0.646446 14.6464ZM21 14.5L1 14.5L1 15.5L21 15.5L21 14.5Z" fill="#B1B1B1"/>
<path d="M8.42637 5.78005C10.438 3.28135 13.1753 1.46831 16.2608 0.590979C19.3463 -0.286354 22.628 -0.184764 25.6533 0.881738C28.6786 1.94824 31.2985 3.92711 33.1517 6.54546C35.0049 9.1638 36.0001 12.2926 36 15.5004C35.9999 18.7082 35.0046 21.837 33.1512 24.4552C31.2979 27.0735 28.6779 29.0522 25.6525 30.1185C22.6271 31.1849 19.3454 31.2863 16.2599 30.4088C13.1745 29.5313 10.4373 27.7181 8.42584 25.2193L9.05501 24.7128C10.9617 27.0814 13.5562 28.8001 16.4809 29.6319C19.4056 30.4637 22.5163 30.3675 25.384 29.3568C28.2517 28.346 30.7352 26.4704 32.492 23.9886C34.2487 21.5068 35.1922 18.5411 35.1923 15.5004C35.1924 12.4598 34.2491 9.49397 32.4925 7.01207C30.7358 4.53017 28.2524 2.65441 25.3848 1.64349C22.5171 0.63256 19.4064 0.536265 16.4817 1.36788C13.557 2.1995 10.9623 3.91805 9.05552 6.28655L8.42637 5.78005Z" fill="#B1B1B1"/>
</svg>
